<?xml version="1.0" encoding="UTF-8" standalone="no"?>
<!DOCTYPE svg PUBLIC "-//W3C//DTD SVG 1.1//EN"
 "http://www.w3.org/Graphics/SVG/1.1/DTD/svg11.dtd">
<!-- Generated by graphviz version 2.43.0 (0)
 -->
<!-- Title: /home/runner/work/unit_devlab_icm20948_library/unit_devlab_icm20948_library/src/7Semi_Interface.h Pages: 1 -->
<svg width="397pt" height="324pt"
 viewBox="0.00 0.00 397.00 324.00" xmlns="http://www.w3.org/2000/svg" xmlns:xlink="http://www.w3.org/1999/xlink">
<g id="graph0" class="graph" transform="scale(1 1) rotate(0) translate(4 320)">
<title>/home/runner/work/unit_devlab_icm20948_library/unit_devlab_icm20948_library/src/7Semi_Interface.h</title>
<!-- Node1 -->
<g id="Node000001" class="node">
<title>Node1</title>
<g id="a_Node000001"><a xlink:title=" ">
<polygon fill="#999999" stroke="#666666" points="278,-316 111,-316 111,-264 278,-264 278,-316"/>
<text text-anchor="start" x="119" y="-304" font-family="Helvetica,sans-Serif" font-size="10.00">/home/runner/work/unit</text>
<text text-anchor="start" x="119" y="-293" font-family="Helvetica,sans-Serif" font-size="10.00">_devlab_icm20948_library</text>
<text text-anchor="start" x="119" y="-282" font-family="Helvetica,sans-Serif" font-size="10.00">/unit_devlab_icm20948_library</text>
<text text-anchor="middle" x="194.5" y="-271" font-family="Helvetica,sans-Serif" font-size="10.00">/src/7Semi_Interface.h</text>
</a>
</g>
</g>
<!-- Node2 -->
<g id="Node000002" class="node">
<title>Node2</title>
<g id="a_Node000002"><a xlink:href="7Semi__I2C__Interface_8h.html" target="_top" xlink:title=" ">
<polygon fill="white" stroke="#666666" points="167,-228 0,-228 0,-176 167,-176 167,-228"/>
<text text-anchor="start" x="8" y="-216" font-family="Helvetica,sans-Serif" font-size="10.00">/home/runner/work/unit</text>
<text text-anchor="start" x="8" y="-205" font-family="Helvetica,sans-Serif" font-size="10.00">_devlab_icm20948_library</text>
<text text-anchor="start" x="8" y="-194" font-family="Helvetica,sans-Serif" font-size="10.00">/unit_devlab_icm20948_library</text>
<text text-anchor="middle" x="83.5" y="-183" font-family="Helvetica,sans-Serif" font-size="10.00">/src/7Semi_I2C_Interface.h</text>
</a>
</g>
</g>
<!-- Node1&#45;&gt;Node2 -->
<g id="edge1_Node000001_Node000002" class="edge">
<title>Node1&#45;&gt;Node2</title>
<g id="a_edge1_Node000001_Node000002"><a xlink:title=" ">
<path fill="none" stroke="#63b8ff" d="M154.08,-257.69C141.6,-248.02 128.02,-237.49 116.14,-228.29"/>
<polygon fill="#63b8ff" stroke="#63b8ff" points="152.05,-260.54 162.1,-263.89 156.33,-255 152.05,-260.54"/>
</a>
</g>
</g>
<!-- Node3 -->
<g id="Node000003" class="node">
<title>Node3</title>
<g id="a_Node000003"><a xlink:href="DevLab__ICM20948_8h.html" target="_top" xlink:title=" ">
<polygon fill="white" stroke="#666666" points="278,-140 111,-140 111,-88 278,-88 278,-140"/>
<text text-anchor="start" x="119" y="-128" font-family="Helvetica,sans-Serif" font-size="10.00">/home/runner/work/unit</text>
<text text-anchor="start" x="119" y="-117" font-family="Helvetica,sans-Serif" font-size="10.00">_devlab_icm20948_library</text>
<text text-anchor="start" x="119" y="-106" font-family="Helvetica,sans-Serif" font-size="10.00">/unit_devlab_icm20948_library</text>
<text text-anchor="middle" x="194.5" y="-95" font-family="Helvetica,sans-Serif" font-size="10.00">/src/DevLab_ICM20948.h</text>
</a>
</g>
</g>
<!-- Node1&#45;&gt;Node3 -->
<g id="edge6_Node000001_Node000003" class="edge">
<title>Node1&#45;&gt;Node3</title>
<g id="a_edge6_Node000001_Node000003"><a xlink:title=" ">
<path fill="none" stroke="#63b8ff" d="M194.5,-253.35C194.5,-219.6 194.5,-169.79 194.5,-140.05"/>
<polygon fill="#63b8ff" stroke="#63b8ff" points="191,-253.7 194.5,-263.7 198,-253.7 191,-253.7"/>
</a>
</g>
</g>
<!-- Node5 -->
<g id="Node000005" class="node">
<title>Node5</title>
<g id="a_Node000005"><a xlink:href="7Semi__SPI__Interface_8h.html" target="_top" xlink:title=" ">
<polygon fill="white" stroke="#666666" points="389,-228 222,-228 222,-176 389,-176 389,-228"/>
<text text-anchor="start" x="230" y="-216" font-family="Helvetica,sans-Serif" font-size="10.00">/home/runner/work/unit</text>
<text text-anchor="start" x="230" y="-205" font-family="Helvetica,sans-Serif" font-size="10.00">_devlab_icm20948_library</text>
<text text-anchor="start" x="230" y="-194" font-family="Helvetica,sans-Serif" font-size="10.00">/unit_devlab_icm20948_library</text>
<text text-anchor="middle" x="305.5" y="-183" font-family="Helvetica,sans-Serif" font-size="10.00">/src/7Semi_SPI_Interface.h</text>
</a>
</g>
</g>
<!-- Node1&#45;&gt;Node5 -->
<g id="edge4_Node000001_Node000005" class="edge">
<title>Node1&#45;&gt;Node5</title>
<g id="a_edge4_Node000001_Node000005"><a xlink:title=" ">
<path fill="none" stroke="#63b8ff" d="M234.92,-257.69C247.4,-248.02 260.98,-237.49 272.86,-228.29"/>
<polygon fill="#63b8ff" stroke="#63b8ff" points="232.67,-255 226.9,-263.89 236.95,-260.54 232.67,-255"/>
</a>
</g>
</g>
<!-- Node2&#45;&gt;Node3 -->
<g id="edge2_Node000002_Node000003" class="edge">
<title>Node2&#45;&gt;Node3</title>
<g id="a_edge2_Node000002_Node000003"><a xlink:title=" ">
<path fill="none" stroke="#63b8ff" d="M123.92,-169.69C136.4,-160.02 149.98,-149.49 161.86,-140.29"/>
<polygon fill="#63b8ff" stroke="#63b8ff" points="121.67,-167 115.9,-175.89 125.95,-172.54 121.67,-167"/>
</a>
</g>
</g>
<!-- Node4 -->
<g id="Node000004" class="node">
<title>Node4</title>
<g id="a_Node000004"><a xlink:href="DevLab__ICM20948_8cpp.html" target="_top" xlink:title=" ">
<polygon fill="white" stroke="#666666" points="278,-52 111,-52 111,0 278,0 278,-52"/>
<text text-anchor="start" x="119" y="-40" font-family="Helvetica,sans-Serif" font-size="10.00">/home/runner/work/unit</text>
<text text-anchor="start" x="119" y="-29" font-family="Helvetica,sans-Serif" font-size="10.00">_devlab_icm20948_library</text>
<text text-anchor="start" x="119" y="-18" font-family="Helvetica,sans-Serif" font-size="10.00">/unit_devlab_icm20948_library</text>
<text text-anchor="middle" x="194.5" y="-7" font-family="Helvetica,sans-Serif" font-size="10.00">/src/DevLab_ICM20948.cpp</text>
</a>
</g>
</g>
<!-- Node3&#45;&gt;Node4 -->
<g id="edge3_Node000003_Node000004" class="edge">
<title>Node3&#45;&gt;Node4</title>
<g id="a_edge3_Node000003_Node000004"><a xlink:title=" ">
<path fill="none" stroke="#63b8ff" d="M194.5,-77.56C194.5,-69.04 194.5,-60.1 194.5,-52.16"/>
<polygon fill="#63b8ff" stroke="#63b8ff" points="191,-77.66 194.5,-87.66 198,-77.66 191,-77.66"/>
</a>
</g>
</g>
<!-- Node5&#45;&gt;Node3 -->
<g id="edge5_Node000005_Node000003" class="edge">
<title>Node5&#45;&gt;Node3</title>
<g id="a_edge5_Node000005_Node000003"><a xlink:title=" ">
<path fill="none" stroke="#63b8ff" d="M265.08,-169.69C252.6,-160.02 239.02,-149.49 227.14,-140.29"/>
<polygon fill="#63b8ff" stroke="#63b8ff" points="263.05,-172.54 273.1,-175.89 267.33,-167 263.05,-172.54"/>
</a>
</g>
</g>
</g>
</svg>
