<?xml version="1.0" encoding="UTF-8" standalone="no"?>
<!DOCTYPE svg PUBLIC "-//W3C//DTD SVG 1.1//EN"
 "http://www.w3.org/Graphics/SVG/1.1/DTD/svg11.dtd">
<!-- Generated by graphviz version 2.43.0 (0)
 -->
<!-- Title: /home/runner/work/unit_devlab_icm20948_library/unit_devlab_icm20948_library/src/7Semi_I2C_Interface.h Pages: 1 -->
<svg width="228pt" height="170pt"
 viewBox="0.00 0.00 228.00 170.00" xmlns="http://www.w3.org/2000/svg" xmlns:xlink="http://www.w3.org/1999/xlink">
<g id="graph0" class="graph" transform="scale(1 1) rotate(0) translate(4 166)">
<title>/home/runner/work/unit_devlab_icm20948_library/unit_devlab_icm20948_library/src/7Semi_I2C_Interface.h</title>
<!-- Node1 -->
<g id="Node000001" class="node">
<title>Node1</title>
<g id="a_Node000001"><a xlink:title=" ">
<polygon fill="#999999" stroke="#666666" points="220,-162 53,-162 53,-110 220,-110 220,-162"/>
<text text-anchor="start" x="61" y="-150" font-family="Helvetica,sans-Serif" font-size="10.00">/home/runner/work/unit</text>
<text text-anchor="start" x="61" y="-139" font-family="Helvetica,sans-Serif" font-size="10.00">_devlab_icm20948_library</text>
<text text-anchor="start" x="61" y="-128" font-family="Helvetica,sans-Serif" font-size="10.00">/unit_devlab_icm20948_library</text>
<text text-anchor="middle" x="136.5" y="-117" font-family="Helvetica,sans-Serif" font-size="10.00">/src/7Semi_I2C_Interface.h</text>
</a>
</g>
</g>
<!-- Node2 -->
<g id="Node000002" class="node">
<title>Node2</title>
<g id="a_Node000002"><a xlink:href="7Semi__Interface_8h.html" target="_top" xlink:title=" ">
<polygon fill="white" stroke="#666666" points="149,-74 44,-74 44,-55 149,-55 149,-74"/>
<text text-anchor="middle" x="96.5" y="-62" font-family="Helvetica,sans-Serif" font-size="10.00">7Semi_Interface.h</text>
</a>
</g>
</g>
<!-- Node1&#45;&gt;Node2 -->
<g id="edge1_Node000001_Node000002" class="edge">
<title>Node1&#45;&gt;Node2</title>
<g id="a_edge1_Node000001_Node000002"><a xlink:title=" ">
<path fill="none" stroke="#63b8ff" d="M122.06,-109.91C116.97,-101.06 111.36,-91.31 106.69,-83.2"/>
<polygon fill="#63b8ff" stroke="#63b8ff" points="109.59,-81.22 101.57,-74.3 103.52,-84.72 109.59,-81.22"/>
</a>
</g>
</g>
<!-- Node4 -->
<g id="Node000004" class="node">
<title>Node4</title>
<g id="a_Node000004"><a xlink:title=" ">
<polygon fill="#e0e0e0" stroke="#999999" points="197.5,-19 149.5,-19 149.5,0 197.5,0 197.5,-19"/>
<text text-anchor="middle" x="173.5" y="-7" font-family="Helvetica,sans-Serif" font-size="10.00">Wire.h</text>
</a>
</g>
</g>
<!-- Node1&#45;&gt;Node4 -->
<g id="edge5_Node000001_Node000004" class="edge">
<title>Node1&#45;&gt;Node4</title>
<g id="a_edge5_Node000001_Node000004"><a xlink:title=" ">
<path fill="none" stroke="#63b8ff" d="M146.25,-109.99C150.33,-99.04 154.94,-85.98 158.5,-74 162.95,-59.05 166.95,-41.82 169.7,-29.08"/>
<polygon fill="#63b8ff" stroke="#63b8ff" points="173.14,-29.72 171.77,-19.21 166.29,-28.28 173.14,-29.72"/>
</a>
</g>
</g>
<!-- Node3 -->
<g id="Node000003" class="node">
<title>Node3</title>
<g id="a_Node000003"><a xlink:title=" ">
<polygon fill="#e0e0e0" stroke="#999999" points="63,-19 0,-19 0,0 63,0 63,-19"/>
<text text-anchor="middle" x="31.5" y="-7" font-family="Helvetica,sans-Serif" font-size="10.00">Arduino.h</text>
</a>
</g>
</g>
<!-- Node2&#45;&gt;Node3 -->
<g id="edge2_Node000002_Node000003" class="edge">
<title>Node2&#45;&gt;Node3</title>
<g id="a_edge2_Node000002_Node000003"><a xlink:title=" ">
<path fill="none" stroke="#63b8ff" d="M86.06,-54.98C76.35,-47.07 61.68,-35.11 50,-25.58"/>
<polygon fill="#63b8ff" stroke="#63b8ff" points="52.1,-22.78 42.13,-19.17 47.67,-28.2 52.1,-22.78"/>
</a>
</g>
</g>
<!-- Node2&#45;&gt;Node4 -->
<g id="edge3_Node000002_Node000004" class="edge">
<title>Node2&#45;&gt;Node4</title>
<g id="a_edge3_Node000002_Node000004"><a xlink:title=" ">
<path fill="none" stroke="#63b8ff" d="M108.87,-54.98C120.59,-46.92 138.42,-34.65 152.39,-25.03"/>
<polygon fill="#63b8ff" stroke="#63b8ff" points="154.65,-27.72 160.9,-19.17 150.68,-21.96 154.65,-27.72"/>
</a>
</g>
</g>
<!-- Node5 -->
<g id="Node000005" class="node">
<title>Node5</title>
<g id="a_Node000005"><a xlink:title=" ">
<polygon fill="#e0e0e0" stroke="#999999" points="122,-19 81,-19 81,0 122,0 122,-19"/>
<text text-anchor="middle" x="101.5" y="-7" font-family="Helvetica,sans-Serif" font-size="10.00">SPI.h</text>
</a>
</g>
</g>
<!-- Node2&#45;&gt;Node5 -->
<g id="edge4_Node000002_Node000005" class="edge">
<title>Node2&#45;&gt;Node5</title>
<g id="a_edge4_Node000002_Node000005"><a xlink:title=" ">
<path fill="none" stroke="#63b8ff" d="M97.33,-54.75C97.98,-47.8 98.92,-37.85 99.74,-29.13"/>
<polygon fill="#63b8ff" stroke="#63b8ff" points="103.23,-29.37 100.69,-19.09 96.27,-28.72 103.23,-29.37"/>
</a>
</g>
</g>
</g>
</svg>
