<?xml version="1.0" encoding="UTF-8" standalone="no"?>
<!DOCTYPE svg PUBLIC "-//W3C//DTD SVG 1.1//EN"
 "http://www.w3.org/Graphics/SVG/1.1/DTD/svg11.dtd">
<!-- Generated by graphviz version 2.43.0 (0)
 -->
<!-- Title: DevLab_ICM20948::readGyro Pages: 1 -->
<svg width="347pt" height="64pt"
 viewBox="0.00 0.00 347.00 64.00" xmlns="http://www.w3.org/2000/svg" xmlns:xlink="http://www.w3.org/1999/xlink">
<g id="graph0" class="graph" transform="scale(1 1) rotate(0) translate(4 60)">
<title>DevLab_ICM20948::readGyro</title>
<!-- Node1 -->
<g id="Node000001" class="node">
<title>Node1</title>
<g id="a_Node000001"><a xlink:title=" ">
<polygon fill="#999999" stroke="#666666" points="339,-37 181,-37 181,-18 339,-18 339,-37"/>
<text text-anchor="middle" x="260" y="-25" font-family="Helvetica,sans-Serif" font-size="10.00">DevLab_ICM20948::readGyro</text>
</a>
</g>
</g>
<!-- Node2 -->
<g id="Node000002" class="node">
<title>Node2</title>
<g id="a_Node000002"><a xlink:href="i2c__basic_8ino.html#afe461d27b9c48d5921c00d521181f12f" target="_top" xlink:title="Read accelerometer, gyroscope, magnetometer, and temperature data.">
<polygon fill="white" stroke="#666666" points="131.5,-56 93.5,-56 93.5,-37 131.5,-37 131.5,-56"/>
<text text-anchor="middle" x="112.5" y="-44" font-family="Helvetica,sans-Serif" font-size="10.00">loop</text>
</a>
</g>
</g>
<!-- Node1&#45;&gt;Node2 -->
<g id="edge1_Node000001_Node000002" class="edge">
<title>Node1&#45;&gt;Node2</title>
<g id="a_edge1_Node000001_Node000002"><a xlink:title=" ">
<path fill="none" stroke="#63b8ff" d="M175.89,-38.35C159.13,-40.54 143.11,-42.63 131.5,-44.15"/>
<polygon fill="#63b8ff" stroke="#63b8ff" points="176.36,-41.82 185.82,-37.06 175.45,-34.88 176.36,-41.82"/>
</a>
</g>
</g>
<!-- Node3 -->
<g id="Node000003" class="node">
<title>Node3</title>
<g id="a_Node000003"><a xlink:href="gyr__test_8ino.html#a59a0400232b9ffe7d4395b166f74593a" target="_top" xlink:title="Run the gyroscope validation sweep and print each captured sample.">
<polygon fill="white" stroke="#666666" points="145,-19 80,-19 80,0 145,0 145,-19"/>
<text text-anchor="middle" x="112.5" y="-7" font-family="Helvetica,sans-Serif" font-size="10.00">runSweep</text>
</a>
</g>
</g>
<!-- Node1&#45;&gt;Node3 -->
<g id="edge2_Node000001_Node000003" class="edge">
<title>Node1&#45;&gt;Node3</title>
<g id="a_edge2_Node000001_Node000003"><a xlink:title=" ">
<path fill="none" stroke="#63b8ff" d="M172.04,-16.74C162.57,-15.57 153.45,-14.44 145.33,-13.44"/>
<polygon fill="#63b8ff" stroke="#63b8ff" points="171.64,-20.22 181.99,-17.97 172.49,-13.27 171.64,-20.22"/>
</a>
</g>
</g>
<!-- Node4 -->
<g id="Node000004" class="node">
<title>Node4</title>
<g id="a_Node000004"><a xlink:href="gyr__test_8ino.html#a4fc01d736fe50cf5b977f755b675f11d" target="_top" xlink:title="Initialize I2C, reset/wake the IMU, enable gyro, and start the sweep.">
<polygon fill="white" stroke="#666666" points="44,-19 0,-19 0,0 44,0 44,-19"/>
<text text-anchor="middle" x="22" y="-7" font-family="Helvetica,sans-Serif" font-size="10.00">setup</text>
</a>
</g>
</g>
<!-- Node3&#45;&gt;Node4 -->
<g id="edge3_Node000003_Node000004" class="edge">
<title>Node3&#45;&gt;Node4</title>
<g id="a_edge3_Node000003_Node000004"><a xlink:title=" ">
<path fill="none" stroke="#63b8ff" d="M69.39,-9.5C60.62,-9.5 51.74,-9.5 44.13,-9.5"/>
<polygon fill="#63b8ff" stroke="#63b8ff" points="69.55,-13 79.55,-9.5 69.55,-6 69.55,-13"/>
</a>
</g>
</g>
</g>
</svg>
