<?xml version="1.0" encoding="UTF-8" standalone="no"?>
<!DOCTYPE svg PUBLIC "-//W3C//DTD SVG 1.1//EN"
 "http://www.w3.org/Graphics/SVG/1.1/DTD/svg11.dtd">
<!-- Generated by graphviz version 2.43.0 (0)
 -->
<!-- Title: BusIO_7Semi::writeBits Pages: 1 -->
<svg width="661pt" height="482pt"
 viewBox="0.00 0.00 661.00 481.50" xmlns="http://www.w3.org/2000/svg" xmlns:xlink="http://www.w3.org/1999/xlink">
<g id="graph0" class="graph" transform="scale(1 1) rotate(0) translate(4 477.5)">
<title>BusIO_7Semi::writeBits</title>
<!-- Node1 -->
<g id="Node000001" class="node">
<title>Node1</title>
<g id="a_Node000001"><a xlink:title=" ">
<polygon fill="#999999" stroke="#666666" points="653,-291 522,-291 522,-272 653,-272 653,-291"/>
<text text-anchor="middle" x="587.5" y="-279" font-family="Helvetica,sans-Serif" font-size="10.00">BusIO_7Semi::writeBits</text>
</a>
</g>
</g>
<!-- Node2 -->
<g id="Node000002" class="node">
<title>Node2</title>
<g id="a_Node000002"><a xlink:href="classDevLab__ICM20948.html#aab027c72832d1c7ec722187e6a64796a" target="_top" xlink:title=" ">
<polygon fill="white" stroke="#666666" points="291,-377.5 126,-377.5 126,-347.5 291,-347.5 291,-377.5"/>
<text text-anchor="start" x="134" y="-365.5" font-family="Helvetica,sans-Serif" font-size="10.00">DevLab_ICM20948::auxMaster</text>
<text text-anchor="middle" x="208.5" y="-354.5" font-family="Helvetica,sans-Serif" font-size="10.00">Enable</text>
</a>
</g>
</g>
<!-- Node1&#45;&gt;Node2 -->
<g id="edge1_Node000001_Node000002" class="edge">
<title>Node1&#45;&gt;Node2</title>
<g id="a_edge1_Node000001_Node000002"><a xlink:title=" ">
<path fill="none" stroke="#63b8ff" d="M559.87,-295.61C540.04,-305.51 512.01,-318.22 486,-325.5 421.87,-343.45 346.86,-352.79 291.16,-357.59"/>
<polygon fill="#63b8ff" stroke="#63b8ff" points="561.58,-298.67 568.9,-291.02 558.4,-292.43 561.58,-298.67"/>
</a>
</g>
</g>
<!-- Node3 -->
<g id="Node000003" class="node">
<title>Node3</title>
<g id="a_Node000003"><a xlink:href="classDevLab__ICM20948.html#a619f82390347cc173d1604d4d711b537" target="_top" xlink:title=" ">
<polygon fill="white" stroke="#666666" points="286,-473.5 131,-473.5 131,-443.5 286,-443.5 286,-473.5"/>
<text text-anchor="start" x="139" y="-461.5" font-family="Helvetica,sans-Serif" font-size="10.00">DevLab_ICM20948::setAccel</text>
<text text-anchor="middle" x="208.5" y="-450.5" font-family="Helvetica,sans-Serif" font-size="10.00">Averaging</text>
</a>
</g>
</g>
<!-- Node1&#45;&gt;Node3 -->
<g id="edge2_Node000001_Node000003" class="edge">
<title>Node1&#45;&gt;Node3</title>
<g id="a_edge2_Node000001_Node000003"><a xlink:title=" ">
<path fill="none" stroke="#63b8ff" d="M574.37,-299.59C557.43,-323.41 524.4,-364.91 486,-387.5 424.27,-423.81 344.13,-441.75 286.04,-450.49"/>
<polygon fill="#63b8ff" stroke="#63b8ff" points="577.42,-301.33 580.24,-291.12 571.67,-297.34 577.42,-301.33"/>
</a>
</g>
</g>
<!-- Node6 -->
<g id="Node000006" class="node">
<title>Node6</title>
<g id="a_Node000006"><a xlink:href="classDevLab__ICM20948.html#ac52d80aad738b90aa0f05e9d6404bb85" target="_top" xlink:title=" ">
<polygon fill="white" stroke="#666666" points="298,-329 119,-329 119,-310 298,-310 298,-329"/>
<text text-anchor="middle" x="208.5" y="-317" font-family="Helvetica,sans-Serif" font-size="10.00">DevLab_ICM20948::setAccelDLPF</text>
</a>
</g>
</g>
<!-- Node1&#45;&gt;Node6 -->
<g id="edge5_Node000001_Node000006" class="edge">
<title>Node1&#45;&gt;Node6</title>
<g id="a_edge5_Node000001_Node000006"><a xlink:title=" ">
<path fill="none" stroke="#63b8ff" d="M543.3,-293.66C525.67,-298.13 505,-302.77 486,-305.5 423.67,-314.44 352.73,-317.9 298.31,-319.14"/>
<polygon fill="#63b8ff" stroke="#63b8ff" points="544.5,-296.96 553.3,-291.05 542.74,-290.19 544.5,-296.96"/>
</a>
</g>
</g>
<!-- Node8 -->
<g id="Node000008" class="node">
<title>Node8</title>
<g id="a_Node000008"><a xlink:href="classDevLab__ICM20948.html#a1a2aa0019d5e1c6ba8ce4a3c1d9fcb43" target="_top" xlink:title=" ">
<polygon fill="white" stroke="#666666" points="286,-425.5 131,-425.5 131,-395.5 286,-395.5 286,-425.5"/>
<text text-anchor="start" x="139" y="-413.5" font-family="Helvetica,sans-Serif" font-size="10.00">DevLab_ICM20948::setAccel</text>
<text text-anchor="middle" x="208.5" y="-402.5" font-family="Helvetica,sans-Serif" font-size="10.00">Scale</text>
</a>
</g>
</g>
<!-- Node1&#45;&gt;Node8 -->
<g id="edge9_Node000001_Node000008" class="edge">
<title>Node1&#45;&gt;Node8</title>
<g id="a_edge9_Node000001_Node000008"><a xlink:title=" ">
<path fill="none" stroke="#63b8ff" d="M568.33,-297.85C549.21,-314.17 517.56,-338.75 486,-352.5 421.81,-380.47 343.23,-395.28 286.27,-402.91"/>
<polygon fill="#63b8ff" stroke="#63b8ff" points="570.72,-300.42 575.96,-291.21 566.12,-295.14 570.72,-300.42"/>
</a>
</g>
</g>
<!-- Node9 -->
<g id="Node000009" class="node">
<title>Node9</title>
<g id="a_Node000009"><a xlink:href="classDevLab__ICM20948.html#a0bea2c662c285120253851c80289e077" target="_top" xlink:title=" ">
<polygon fill="white" stroke="#666666" points="285,-253 132,-253 132,-234 285,-234 285,-253"/>
<text text-anchor="middle" x="208.5" y="-241" font-family="Helvetica,sans-Serif" font-size="10.00">DevLab_ICM20948::setDLPF</text>
</a>
</g>
</g>
<!-- Node1&#45;&gt;Node9 -->
<g id="edge13_Node000001_Node000009" class="edge">
<title>Node1&#45;&gt;Node9</title>
<g id="a_edge13_Node000001_Node000009"><a xlink:title=" ">
<path fill="none" stroke="#63b8ff" d="M543.3,-269.34C525.67,-264.87 505,-260.23 486,-257.5 418.56,-247.82 341.03,-244.57 285.26,-243.59"/>
<polygon fill="#63b8ff" stroke="#63b8ff" points="542.74,-272.81 553.3,-271.95 544.5,-266.04 542.74,-272.81"/>
</a>
</g>
</g>
<!-- Node11 -->
<g id="Node000011" class="node">
<title>Node11</title>
<g id="a_Node000011"><a xlink:href="classDevLab__ICM20948.html#a7ae5665d5e835f8024df82f43bae46e7" target="_top" xlink:title=" ">
<polygon fill="white" stroke="#666666" points="486,-172.5 334,-172.5 334,-142.5 486,-142.5 486,-172.5"/>
<text text-anchor="start" x="342" y="-160.5" font-family="Helvetica,sans-Serif" font-size="10.00">DevLab_ICM20948::setGyro</text>
<text text-anchor="middle" x="410" y="-149.5" font-family="Helvetica,sans-Serif" font-size="10.00">Averaging</text>
</a>
</g>
</g>
<!-- Node1&#45;&gt;Node11 -->
<g id="edge15_Node000001_Node000011" class="edge">
<title>Node1&#45;&gt;Node11</title>
<g id="a_edge15_Node000001_Node000011"><a xlink:title=" ">
<path fill="none" stroke="#63b8ff" d="M573.06,-264.02C555.33,-242.08 522.13,-204.64 486,-182.5 479.8,-178.7 472.95,-175.4 465.99,-172.56"/>
<polygon fill="#63b8ff" stroke="#63b8ff" points="570.32,-266.2 579.27,-271.87 575.81,-261.86 570.32,-266.2"/>
</a>
</g>
</g>
<!-- Node12 -->
<g id="Node000012" class="node">
<title>Node12</title>
<g id="a_Node000012"><a xlink:href="classDevLab__ICM20948.html#a6a06dbd14558e50d40595de82502d632" target="_top" xlink:title=" ">
<polygon fill="white" stroke="#666666" points="486,-296.5 334,-296.5 334,-266.5 486,-266.5 486,-296.5"/>
<text text-anchor="start" x="342" y="-284.5" font-family="Helvetica,sans-Serif" font-size="10.00">DevLab_ICM20948::setGyro</text>
<text text-anchor="middle" x="410" y="-273.5" font-family="Helvetica,sans-Serif" font-size="10.00">Scale</text>
</a>
</g>
</g>
<!-- Node1&#45;&gt;Node12 -->
<g id="edge16_Node000001_Node000012" class="edge">
<title>Node1&#45;&gt;Node12</title>
<g id="a_edge16_Node000001_Node000012"><a xlink:title=" ">
<path fill="none" stroke="#63b8ff" d="M511.54,-281.5C503.16,-281.5 494.63,-281.5 486.26,-281.5"/>
<polygon fill="#63b8ff" stroke="#63b8ff" points="511.65,-285 521.65,-281.5 511.65,-278 511.65,-285"/>
</a>
</g>
</g>
<!-- Node13 -->
<g id="Node000013" class="node">
<title>Node13</title>
<g id="a_Node000013"><a xlink:href="classBusIO__7Semi.html#a6a07d4bd0a308294b37166b6d25209b2" target="_top" xlink:title=" ">
<polygon fill="white" stroke="#666666" points="472.5,-124 347.5,-124 347.5,-105 472.5,-105 472.5,-124"/>
<text text-anchor="middle" x="410" y="-112" font-family="Helvetica,sans-Serif" font-size="10.00">BusIO_7Semi::writeBit</text>
</a>
</g>
</g>
<!-- Node1&#45;&gt;Node13 -->
<g id="edge18_Node000001_Node000013" class="edge">
<title>Node1&#45;&gt;Node13</title>
<g id="a_edge18_Node000001_Node000013"><a xlink:title=" ">
<path fill="none" stroke="#63b8ff" d="M578.87,-262.24C565.22,-230.35 533.53,-166.81 486,-133.5 480.5,-129.65 474.29,-126.57 467.85,-124.12"/>
<polygon fill="#63b8ff" stroke="#63b8ff" points="575.75,-263.85 582.81,-271.75 582.22,-261.17 575.75,-263.85"/>
</a>
</g>
</g>
<!-- Node14 -->
<g id="Node000014" class="node">
<title>Node14</title>
<g id="a_Node000014"><a xlink:href="classBusIO__7Semi.html#ac7b3d1c425f7187abbe1bbec64d9ccea" target="_top" xlink:title=" ">
<polygon fill="white" stroke="#666666" points="472.5,-210 347.5,-210 347.5,-191 472.5,-191 472.5,-210"/>
<text text-anchor="middle" x="410" y="-198" font-family="Helvetica,sans-Serif" font-size="10.00">BusIO_7Semi::writeBit</text>
</a>
</g>
</g>
<!-- Node1&#45;&gt;Node14 -->
<g id="edge19_Node000001_Node000014" class="edge">
<title>Node1&#45;&gt;Node14</title>
<g id="a_edge19_Node000001_Node000014"><a xlink:title=" ">
<path fill="none" stroke="#63b8ff" d="M562.99,-266.32C543.07,-253.91 513.44,-236.52 486,-224.5 473.23,-218.91 458.73,-213.96 445.9,-210.03"/>
<polygon fill="#63b8ff" stroke="#63b8ff" points="561.36,-269.43 571.68,-271.8 565.09,-263.51 561.36,-269.43"/>
</a>
</g>
</g>
<!-- Node4 -->
<g id="Node000004" class="node">
<title>Node4</title>
<g id="a_Node000004"><a xlink:href="test2_8ino.html#a73c1d2766fc4db839bb9adf5cab93c80" target="_top" xlink:title="Apply one accelerometer full&#45;scale, DLPF, and averaging configuration.">
<polygon fill="white" stroke="#666666" points="83,-438 0,-438 0,-419 83,-419 83,-438"/>
<text text-anchor="middle" x="41.5" y="-426" font-family="Helvetica,sans-Serif" font-size="10.00">applySettings</text>
</a>
</g>
</g>
<!-- Node3&#45;&gt;Node4 -->
<g id="edge3_Node000003_Node000004" class="edge">
<title>Node3&#45;&gt;Node4</title>
<g id="a_edge3_Node000003_Node000004"><a xlink:title=" ">
<path fill="none" stroke="#63b8ff" d="M120.73,-442.72C107.57,-440.33 94.56,-437.97 83.04,-435.87"/>
<polygon fill="#63b8ff" stroke="#63b8ff" points="120.33,-446.21 130.8,-444.55 121.58,-439.32 120.33,-446.21"/>
</a>
</g>
</g>
<!-- Node5 -->
<g id="Node000005" class="node">
<title>Node5</title>
<g id="a_Node000005"><a xlink:href="i2c__accel_8ino.html#a4fc01d736fe50cf5b977f755b675f11d" target="_top" xlink:title="Configure the IMU for accelerometer&#45;only operation over I2C.">
<polygon fill="white" stroke="#666666" points="63.5,-401 19.5,-401 19.5,-382 63.5,-382 63.5,-401"/>
<text text-anchor="middle" x="41.5" y="-389" font-family="Helvetica,sans-Serif" font-size="10.00">setup</text>
</a>
</g>
</g>
<!-- Node3&#45;&gt;Node5 -->
<g id="edge4_Node000003_Node000005" class="edge">
<title>Node3&#45;&gt;Node5</title>
<g id="a_edge4_Node000003_Node000005"><a xlink:title=" ">
<path fill="none" stroke="#63b8ff" d="M132.66,-440.08C127.98,-438.35 123.39,-436.49 119,-434.5 101.49,-426.55 99.75,-419.94 83,-410.5 76.91,-407.07 70.1,-403.7 63.82,-400.78"/>
<polygon fill="#63b8ff" stroke="#63b8ff" points="131.76,-443.47 142.36,-443.44 134.05,-436.86 131.76,-443.47"/>
</a>
</g>
</g>
<!-- Node6&#45;&gt;Node4 -->
<g id="edge7_Node000006_Node000004" class="edge">
<title>Node6&#45;&gt;Node4</title>
<g id="a_edge7_Node000006_Node000004"><a xlink:title=" ">
<path fill="none" stroke="#63b8ff" d="M126.36,-333.56C123.79,-335.05 121.33,-336.7 119,-338.5 90.72,-360.42 108.87,-385.78 83,-410.5 79.55,-413.8 75.4,-416.55 71.08,-418.83"/>
<polygon fill="#63b8ff" stroke="#63b8ff" points="128.04,-336.63 135.42,-329.03 124.91,-330.37 128.04,-336.63"/>
</a>
</g>
</g>
<!-- Node6&#45;&gt;Node5 -->
<g id="edge8_Node000006_Node000005" class="edge">
<title>Node6&#45;&gt;Node5</title>
<g id="a_edge8_Node000006_Node000005"><a xlink:title=" ">
<path fill="none" stroke="#63b8ff" d="M137.45,-331.82C131.11,-333.75 124.87,-335.96 119,-338.5 93.5,-349.54 67.73,-369.67 53.57,-381.69"/>
<polygon fill="#63b8ff" stroke="#63b8ff" points="138.77,-335.08 147.46,-329.03 136.89,-328.34 138.77,-335.08"/>
</a>
</g>
</g>
<!-- Node7 -->
<g id="Node000007" class="node">
<title>Node7</title>
<g id="a_Node000007"><a xlink:href="test_8ino.html#a327f4fbd9f22daba4f8a6f3f1c13f729" target="_top" xlink:title="Apply one accelerometer full&#45;scale and DLPF configuration.">
<polygon fill="white" stroke="#666666" points="83,-337 0,-337 0,-318 83,-318 83,-337"/>
<text text-anchor="middle" x="41.5" y="-325" font-family="Helvetica,sans-Serif" font-size="10.00">applySettings</text>
</a>
</g>
</g>
<!-- Node6&#45;&gt;Node7 -->
<g id="edge6_Node000006_Node000007" class="edge">
<title>Node6&#45;&gt;Node7</title>
<g id="a_edge6_Node000006_Node000007"><a xlink:title=" ">
<path fill="none" stroke="#63b8ff" d="M108.65,-324.29C99.81,-324.72 91.23,-325.14 83.33,-325.52"/>
<polygon fill="#63b8ff" stroke="#63b8ff" points="108.9,-327.78 118.72,-323.8 108.56,-320.79 108.9,-327.78"/>
</a>
</g>
</g>
<!-- Node8&#45;&gt;Node4 -->
<g id="edge11_Node000008_Node000004" class="edge">
<title>Node8&#45;&gt;Node4</title>
<g id="a_edge11_Node000008_Node000004"><a xlink:title=" ">
<path fill="none" stroke="#63b8ff" d="M120.73,-419.97C107.57,-421.4 94.56,-422.82 83.04,-424.08"/>
<polygon fill="#63b8ff" stroke="#63b8ff" points="121.24,-423.43 130.8,-418.87 120.48,-416.47 121.24,-423.43"/>
</a>
</g>
</g>
<!-- Node8&#45;&gt;Node5 -->
<g id="edge12_Node000008_Node000005" class="edge">
<title>Node8&#45;&gt;Node5</title>
<g id="a_edge12_Node000008_Node000005"><a xlink:title=" ">
<path fill="none" stroke="#63b8ff" d="M120.7,-400.5C99.47,-398.06 78.61,-395.66 63.79,-393.95"/>
<polygon fill="#63b8ff" stroke="#63b8ff" points="120.46,-404 130.8,-401.67 121.26,-397.05 120.46,-404"/>
</a>
</g>
</g>
<!-- Node8&#45;&gt;Node7 -->
<g id="edge10_Node000008_Node000007" class="edge">
<title>Node8&#45;&gt;Node7</title>
<g id="a_edge10_Node000008_Node000007"><a xlink:title=" ">
<path fill="none" stroke="#63b8ff" d="M131.33,-391.97C127.1,-390.29 122.96,-388.46 119,-386.5 92.56,-373.37 66.32,-350.41 52.5,-337.34"/>
<polygon fill="#63b8ff" stroke="#63b8ff" points="130.13,-395.26 140.72,-395.45 132.56,-388.69 130.13,-395.26"/>
</a>
</g>
</g>
<!-- Node10 -->
<g id="Node000010" class="node">
<title>Node10</title>
<g id="a_Node000010"><a xlink:href="gyr__test_8ino.html#a327f4fbd9f22daba4f8a6f3f1c13f729" target="_top" xlink:title="Apply one gyroscope full&#45;scale and DLPF configuration.">
<polygon fill="white" stroke="#666666" points="83,-272 0,-272 0,-253 83,-253 83,-272"/>
<text text-anchor="middle" x="41.5" y="-260" font-family="Helvetica,sans-Serif" font-size="10.00">applySettings</text>
</a>
</g>
</g>
<!-- Node9&#45;&gt;Node10 -->
<g id="edge14_Node000009_Node000010" class="edge">
<title>Node9&#45;&gt;Node10</title>
<g id="a_edge14_Node000009_Node000010"><a xlink:title=" ">
<path fill="none" stroke="#63b8ff" d="M121.52,-253.4C108.12,-254.94 94.85,-256.47 83.11,-257.82"/>
<polygon fill="#63b8ff" stroke="#63b8ff" points="122.23,-256.84 131.76,-252.22 121.43,-249.89 122.23,-256.84"/>
</a>
</g>
</g>
<!-- Node12&#45;&gt;Node10 -->
<g id="edge17_Node000012_Node000010" class="edge">
<title>Node12&#45;&gt;Node10</title>
<g id="a_edge17_Node000012_Node000010"><a xlink:title=" ">
<path fill="none" stroke="#63b8ff" d="M323.51,-277.07C247.98,-273.15 141.12,-267.61 83.37,-264.62"/>
<polygon fill="#63b8ff" stroke="#63b8ff" points="323.78,-280.59 333.95,-277.61 324.14,-273.6 323.78,-280.59"/>
</a>
</g>
</g>
<!-- Node14&#45;&gt;Node2 -->
<g id="edge20_Node000014_Node000002" class="edge">
<title>Node14&#45;&gt;Node2</title>
<g id="a_edge20_Node000014_Node000002"><a xlink:title=" ">
<path fill="none" stroke="#63b8ff" d="M383.01,-215.54C367.19,-225.75 347.49,-240.46 334,-257.5 309.55,-288.39 327.91,-312.86 298,-338.5 294.01,-341.92 289.58,-344.86 284.89,-347.38"/>
<polygon fill="#63b8ff" stroke="#63b8ff" points="385.17,-218.32 391.81,-210.07 381.47,-212.38 385.17,-218.32"/>
</a>
</g>
</g>
<!-- Node14&#45;&gt;Node6 -->
<g id="edge27_Node000014_Node000006" class="edge">
<title>Node14&#45;&gt;Node6</title>
<g id="a_edge27_Node000014_Node000006"><a xlink:title=" ">
<path fill="none" stroke="#63b8ff" d="M384.35,-215.2C342.9,-239.93 260.36,-289.16 225.56,-309.92"/>
<polygon fill="#63b8ff" stroke="#63b8ff" points="386.22,-218.17 393.01,-210.04 382.63,-212.15 386.22,-218.17"/>
</a>
</g>
</g>
<!-- Node14&#45;&gt;Node9 -->
<g id="edge28_Node000014_Node000009" class="edge">
<title>Node14&#45;&gt;Node9</title>
<g id="a_edge28_Node000014_Node000009"><a xlink:title=" ">
<path fill="none" stroke="#63b8ff" d="M357.82,-212.26C339.03,-216.52 317.57,-221.31 298,-225.5 284.82,-228.33 270.5,-231.28 257.31,-233.97"/>
<polygon fill="#63b8ff" stroke="#63b8ff" points="358.69,-215.65 367.67,-210.02 357.14,-208.83 358.69,-215.65"/>
</a>
</g>
</g>
<!-- Node15 -->
<g id="Node000015" class="node">
<title>Node15</title>
<g id="a_Node000015"><a xlink:href="classDevLab__ICM20948.html#a91147b3cd4c45bffc8e024f985be7b21" target="_top" xlink:title=" ">
<polygon fill="white" stroke="#666666" points="286.5,-216 130.5,-216 130.5,-197 286.5,-197 286.5,-216"/>
<text text-anchor="middle" x="208.5" y="-204" font-family="Helvetica,sans-Serif" font-size="10.00">DevLab_ICM20948::beginI2C</text>
</a>
</g>
</g>
<!-- Node14&#45;&gt;Node15 -->
<g id="edge21_Node000014_Node000015" class="edge">
<title>Node14&#45;&gt;Node15</title>
<g id="a_edge21_Node000014_Node000015"><a xlink:title=" ">
<path fill="none" stroke="#63b8ff" d="M337.21,-202.66C320.85,-203.15 303.39,-203.68 286.81,-204.17"/>
<polygon fill="#63b8ff" stroke="#63b8ff" points="337.35,-206.16 347.24,-202.36 337.14,-199.16 337.35,-206.16"/>
</a>
</g>
</g>
<!-- Node17 -->
<g id="Node000017" class="node">
<title>Node17</title>
<g id="a_Node000017"><a xlink:href="classDevLab__ICM20948.html#a4386f310503153f3e28935cbdda75b18" target="_top" xlink:title=" ">
<polygon fill="white" stroke="#666666" points="286,-142 131,-142 131,-123 286,-123 286,-142"/>
<text text-anchor="middle" x="208.5" y="-130" font-family="Helvetica,sans-Serif" font-size="10.00">DevLab_ICM20948::beginSPI</text>
</a>
</g>
</g>
<!-- Node14&#45;&gt;Node17 -->
<g id="edge23_Node000014_Node000017" class="edge">
<title>Node14&#45;&gt;Node17</title>
<g id="a_edge23_Node000014_Node000017"><a xlink:title=" ">
<path fill="none" stroke="#63b8ff" d="M348.23,-187.72C343.31,-185.91 338.5,-183.84 334,-181.5 315.27,-171.76 316.96,-159.79 298,-150.5 290.96,-147.05 283.3,-144.26 275.52,-142.01"/>
<polygon fill="#63b8ff" stroke="#63b8ff" points="347.2,-191.07 357.8,-190.92 349.42,-184.43 347.2,-191.07"/>
</a>
</g>
</g>
<!-- Node19 -->
<g id="Node000019" class="node">
<title>Node19</title>
<g id="a_Node000019"><a xlink:href="classDevLab__ICM20948.html#adfbd409c7723007d208c82550098a649" target="_top" xlink:title=" ">
<polygon fill="white" stroke="#666666" points="284,-104.5 133,-104.5 133,-74.5 284,-74.5 284,-104.5"/>
<text text-anchor="start" x="141" y="-92.5" font-family="Helvetica,sans-Serif" font-size="10.00">DevLab_ICM20948::selfTest</text>
<text text-anchor="middle" x="208.5" y="-81.5" font-family="Helvetica,sans-Serif" font-size="10.00">Accel</text>
</a>
</g>
</g>
<!-- Node14&#45;&gt;Node19 -->
<g id="edge25_Node000014_Node000019" class="edge">
<title>Node14&#45;&gt;Node19</title>
<g id="a_edge25_Node000014_Node000019"><a xlink:title=" ">
<path fill="none" stroke="#63b8ff" d="M341.4,-186.48C338.81,-184.98 336.33,-183.33 334,-181.5 307.11,-160.37 324.71,-134.85 298,-113.5 293.77,-110.12 289.11,-107.22 284.19,-104.72"/>
<polygon fill="#63b8ff" stroke="#63b8ff" points="340.06,-189.72 350.58,-190.99 343.15,-183.44 340.06,-189.72"/>
</a>
</g>
</g>
<!-- Node20 -->
<g id="Node000020" class="node">
<title>Node20</title>
<g id="a_Node000020"><a xlink:href="classDevLab__ICM20948.html#a9d7602ece2c3908e7bbb2acd45dff156" target="_top" xlink:title=" ">
<polygon fill="white" stroke="#666666" points="295.5,-56 121.5,-56 121.5,-37 295.5,-37 295.5,-56"/>
<text text-anchor="middle" x="208.5" y="-44" font-family="Helvetica,sans-Serif" font-size="10.00">DevLab_ICM20948::selfTestGyro</text>
</a>
</g>
</g>
<!-- Node14&#45;&gt;Node20 -->
<g id="edge26_Node000014_Node000020" class="edge">
<title>Node14&#45;&gt;Node20</title>
<g id="a_edge26_Node000014_Node000020"><a xlink:title=" ">
<path fill="none" stroke="#63b8ff" d="M338.75,-185.46C337.09,-184.24 335.5,-182.92 334,-181.5 294.84,-144.35 337.84,-101.93 298,-65.5 293.82,-61.68 289.07,-58.56 283.99,-56.02"/>
<polygon fill="#63b8ff" stroke="#63b8ff" points="337.24,-188.64 347.61,-190.83 340.87,-182.65 337.24,-188.64"/>
</a>
</g>
</g>
<!-- Node21 -->
<g id="Node000021" class="node">
<title>Node21</title>
<g id="a_Node000021"><a xlink:href="classDevLab__ICM20948.html#a6c9c09f8b2ab39f5de7f48c6c743ffc4" target="_top" xlink:title=" ">
<polygon fill="white" stroke="#666666" points="297.5,-19 119.5,-19 119.5,0 297.5,0 297.5,-19"/>
<text text-anchor="middle" x="208.5" y="-7" font-family="Helvetica,sans-Serif" font-size="10.00">DevLab_ICM20948::setLowPower</text>
</a>
</g>
</g>
<!-- Node14&#45;&gt;Node21 -->
<g id="edge29_Node000014_Node000021" class="edge">
<title>Node14&#45;&gt;Node21</title>
<g id="a_edge29_Node000014_Node000021"><a xlink:title=" ">
<path fill="none" stroke="#63b8ff" d="M338.61,-185.6C336.99,-184.34 335.45,-182.97 334,-181.5 284.76,-131.34 348.42,-76.48 298,-27.5 294.63,-24.22 290.83,-21.47 286.75,-19.15"/>
<polygon fill="#63b8ff" stroke="#63b8ff" points="337,-188.72 347.32,-191.12 340.75,-182.81 337,-188.72"/>
</a>
</g>
</g>
<!-- Node22 -->
<g id="Node000022" class="node">
<title>Node22</title>
<g id="a_Node000022"><a xlink:href="classDevLab__ICM20948.html#ae9c088334d6ec706bb08b47ef29bd186" target="_top" xlink:title=" ">
<polygon fill="white" stroke="#666666" points="292,-179 125,-179 125,-160 292,-160 292,-179"/>
<text text-anchor="middle" x="208.5" y="-167" font-family="Helvetica,sans-Serif" font-size="10.00">DevLab_ICM20948::setSensors</text>
</a>
</g>
</g>
<!-- Node14&#45;&gt;Node22 -->
<g id="edge30_Node000014_Node000022" class="edge">
<title>Node14&#45;&gt;Node22</title>
<g id="a_edge30_Node000014_Node000022"><a xlink:title=" ">
<path fill="none" stroke="#63b8ff" d="M337.89,-189.45C316.01,-186.05 292.12,-182.34 270.94,-179.05"/>
<polygon fill="#63b8ff" stroke="#63b8ff" points="337.37,-192.91 347.79,-190.99 338.44,-185.99 337.37,-192.91"/>
</a>
</g>
</g>
<!-- Node16 -->
<g id="Node000016" class="node">
<title>Node16</title>
<g id="a_Node000016"><a xlink:href="gyr__test_8ino.html#a4fc01d736fe50cf5b977f755b675f11d" target="_top" xlink:title="Initialize I2C, reset/wake the IMU, enable gyro, and start the sweep.">
<polygon fill="white" stroke="#666666" points="63.5,-198 19.5,-198 19.5,-179 63.5,-179 63.5,-198"/>
<text text-anchor="middle" x="41.5" y="-186" font-family="Helvetica,sans-Serif" font-size="10.00">setup</text>
</a>
</g>
</g>
<!-- Node15&#45;&gt;Node16 -->
<g id="edge22_Node000015_Node000016" class="edge">
<title>Node15&#45;&gt;Node16</title>
<g id="a_edge22_Node000015_Node000016"><a xlink:title=" ">
<path fill="none" stroke="#63b8ff" d="M120.26,-196.98C99.11,-194.68 78.37,-192.41 63.64,-190.81"/>
<polygon fill="#63b8ff" stroke="#63b8ff" points="119.99,-200.47 130.31,-198.08 120.75,-193.52 119.99,-200.47"/>
</a>
</g>
</g>
<!-- Node18 -->
<g id="Node000018" class="node">
<title>Node18</title>
<g id="a_Node000018"><a xlink:href="spi__accel_8ino.html#a4fc01d736fe50cf5b977f755b675f11d" target="_top" xlink:title="Configure the IMU for accelerometer&#45;only operation over SPI.">
<polygon fill="white" stroke="#666666" points="63.5,-142 19.5,-142 19.5,-123 63.5,-123 63.5,-142"/>
<text text-anchor="middle" x="41.5" y="-130" font-family="Helvetica,sans-Serif" font-size="10.00">setup</text>
</a>
</g>
</g>
<!-- Node17&#45;&gt;Node18 -->
<g id="edge24_Node000017_Node000018" class="edge">
<title>Node17&#45;&gt;Node18</title>
<g id="a_edge24_Node000017_Node000018"><a xlink:title=" ">
<path fill="none" stroke="#63b8ff" d="M120.7,-132.5C99.47,-132.5 78.61,-132.5 63.79,-132.5"/>
<polygon fill="#63b8ff" stroke="#63b8ff" points="120.8,-136 130.8,-132.5 120.8,-129 120.8,-136"/>
</a>
</g>
</g>
<!-- Node22&#45;&gt;Node16 -->
<g id="edge31_Node000022_Node000016" class="edge">
<title>Node22&#45;&gt;Node16</title>
<g id="a_edge31_Node000022_Node000016"><a xlink:title=" ">
<path fill="none" stroke="#63b8ff" d="M114.91,-180.16C95.69,-182.38 77.21,-184.5 63.73,-186.05"/>
<polygon fill="#63b8ff" stroke="#63b8ff" points="115.47,-183.62 125,-179 114.67,-176.67 115.47,-183.62"/>
</a>
</g>
</g>
</g>
</svg>
