<?xml version="1.0" encoding="UTF-8" standalone="no"?>
<!DOCTYPE svg PUBLIC "-//W3C//DTD SVG 1.1//EN"
 "http://www.w3.org/Graphics/SVG/1.1/DTD/svg11.dtd">
<!-- Generated by graphviz version 2.43.0 (0)
 -->
<!-- Title: DevLab_ICM20948::readMag Pages: 1 -->
<svg width="464pt" height="82pt"
 viewBox="0.00 0.00 464.00 82.00" xmlns="http://www.w3.org/2000/svg" xmlns:xlink="http://www.w3.org/1999/xlink">
<g id="graph0" class="graph" transform="scale(1 1) rotate(0) translate(4 78)">
<title>DevLab_ICM20948::readMag</title>
<!-- Node1 -->
<g id="Node000001" class="node">
<title>Node1</title>
<g id="a_Node000001"><a xlink:title=" ">
<polygon fill="#999999" stroke="#666666" points="456,-37 300,-37 300,-18 456,-18 456,-37"/>
<text text-anchor="middle" x="378" y="-25" font-family="Helvetica,sans-Serif" font-size="10.00">DevLab_ICM20948::readMag</text>
</a>
</g>
</g>
<!-- Node2 -->
<g id="Node000002" class="node">
<title>Node2</title>
<g id="a_Node000002"><a xlink:href="mag__test_8ino.html#af42a493b8d96759f43d866fbe725cf3d" target="_top" xlink:title="Initialize the magnetometer and collect samples for each mode.">
<polygon fill="white" stroke="#666666" points="264,-56 181,-56 181,-37 264,-37 264,-56"/>
<text text-anchor="middle" x="222.5" y="-44" font-family="Helvetica,sans-Serif" font-size="10.00">applySettings</text>
</a>
</g>
</g>
<!-- Node1&#45;&gt;Node2 -->
<g id="edge1_Node000001_Node000002" class="edge">
<title>Node1&#45;&gt;Node2</title>
<g id="a_edge1_Node000001_Node000002"><a xlink:title=" ">
<path fill="none" stroke="#63b8ff" d="M289.79,-38.3C280.96,-39.39 272.33,-40.46 264.36,-41.44"/>
<polygon fill="#63b8ff" stroke="#63b8ff" points="290.31,-41.76 299.8,-37.06 289.45,-34.81 290.31,-41.76"/>
</a>
</g>
</g>
<!-- Node6 -->
<g id="Node000006" class="node">
<title>Node6</title>
<g id="a_Node000006"><a xlink:href="i2c__basic_8ino.html#afe461d27b9c48d5921c00d521181f12f" target="_top" xlink:title="Read accelerometer, gyroscope, magnetometer, and temperature data.">
<polygon fill="white" stroke="#666666" points="241.5,-19 203.5,-19 203.5,0 241.5,0 241.5,-19"/>
<text text-anchor="middle" x="222.5" y="-7" font-family="Helvetica,sans-Serif" font-size="10.00">loop</text>
</a>
</g>
</g>
<!-- Node1&#45;&gt;Node6 -->
<g id="edge5_Node000001_Node000006" class="edge">
<title>Node1&#45;&gt;Node6</title>
<g id="a_edge5_Node000001_Node000006"><a xlink:title=" ">
<path fill="none" stroke="#63b8ff" d="M289.87,-17.28C271.54,-15.13 254.01,-13.08 241.58,-11.62"/>
<polygon fill="#63b8ff" stroke="#63b8ff" points="289.46,-20.76 299.8,-18.45 290.28,-13.81 289.46,-20.76"/>
</a>
</g>
</g>
<!-- Node3 -->
<g id="Node000003" class="node">
<title>Node3</title>
<g id="a_Node000003"><a xlink:href="gyr__test_8ino.html#a59a0400232b9ffe7d4395b166f74593a" target="_top" xlink:title="Run the gyroscope validation sweep and print each captured sample.">
<polygon fill="white" stroke="#666666" points="145,-74 80,-74 80,-55 145,-55 145,-74"/>
<text text-anchor="middle" x="112.5" y="-62" font-family="Helvetica,sans-Serif" font-size="10.00">runSweep</text>
</a>
</g>
</g>
<!-- Node2&#45;&gt;Node3 -->
<g id="edge2_Node000002_Node000003" class="edge">
<title>Node2&#45;&gt;Node3</title>
<g id="a_edge2_Node000002_Node000003"><a xlink:title=" ">
<path fill="none" stroke="#63b8ff" d="M171.1,-54.9C162.26,-56.37 153.28,-57.87 145.14,-59.23"/>
<polygon fill="#63b8ff" stroke="#63b8ff" points="171.69,-58.35 180.98,-53.25 170.54,-51.45 171.69,-58.35"/>
</a>
</g>
</g>
<!-- Node5 -->
<g id="Node000005" class="node">
<title>Node5</title>
<g id="a_Node000005"><a xlink:href="mag__test_8ino.html#a4fc01d736fe50cf5b977f755b675f11d" target="_top" xlink:title="Initialize I2C, verify the IMU, enable sensors, and start the sweep.">
<polygon fill="white" stroke="#666666" points="134.5,-37 90.5,-37 90.5,-18 134.5,-18 134.5,-37"/>
<text text-anchor="middle" x="112.5" y="-25" font-family="Helvetica,sans-Serif" font-size="10.00">setup</text>
</a>
</g>
</g>
<!-- Node2&#45;&gt;Node5 -->
<g id="edge4_Node000002_Node000005" class="edge">
<title>Node2&#45;&gt;Node5</title>
<g id="a_edge4_Node000002_Node000005"><a xlink:title=" ">
<path fill="none" stroke="#63b8ff" d="M170.81,-37.58C158,-35.33 144.95,-33.03 134.54,-31.2"/>
<polygon fill="#63b8ff" stroke="#63b8ff" points="170.52,-41.09 180.98,-39.37 171.74,-34.19 170.52,-41.09"/>
</a>
</g>
</g>
<!-- Node4 -->
<g id="Node000004" class="node">
<title>Node4</title>
<g id="a_Node000004"><a xlink:href="gyr__test_8ino.html#a4fc01d736fe50cf5b977f755b675f11d" target="_top" xlink:title="Initialize I2C, reset/wake the IMU, enable gyro, and start the sweep.">
<polygon fill="white" stroke="#666666" points="44,-74 0,-74 0,-55 44,-55 44,-74"/>
<text text-anchor="middle" x="22" y="-62" font-family="Helvetica,sans-Serif" font-size="10.00">setup</text>
</a>
</g>
</g>
<!-- Node3&#45;&gt;Node4 -->
<g id="edge3_Node000003_Node000004" class="edge">
<title>Node3&#45;&gt;Node4</title>
<g id="a_edge3_Node000003_Node000004"><a xlink:title=" ">
<path fill="none" stroke="#63b8ff" d="M69.39,-64.5C60.62,-64.5 51.74,-64.5 44.13,-64.5"/>
<polygon fill="#63b8ff" stroke="#63b8ff" points="69.55,-68 79.55,-64.5 69.55,-61 69.55,-68"/>
</a>
</g>
</g>
</g>
</svg>
