<?xml version="1.0" encoding="UTF-8" standalone="no"?>
<!DOCTYPE svg PUBLIC "-//W3C//DTD SVG 1.1//EN"
 "http://www.w3.org/Graphics/SVG/1.1/DTD/svg11.dtd">
<!-- Generated by graphviz version 2.43.0 (0)
 -->
<!-- Title: DevLab_ICM20948::beginSPI Pages: 1 -->
<svg width="578pt" height="151pt"
 viewBox="0.00 0.00 578.00 150.50" xmlns="http://www.w3.org/2000/svg" xmlns:xlink="http://www.w3.org/1999/xlink">
<g id="graph0" class="graph" transform="scale(1 1) rotate(0) translate(4 146.5)">
<title>DevLab_ICM20948::beginSPI</title>
<!-- Node1 -->
<g id="Node000001" class="node">
<title>Node1</title>
<g id="a_Node000001"><a xlink:title=" ">
<polygon fill="#999999" stroke="#666666" points="155,-75 0,-75 0,-56 155,-56 155,-75"/>
<text text-anchor="middle" x="77.5" y="-63" font-family="Helvetica,sans-Serif" font-size="10.00">DevLab_ICM20948::beginSPI</text>
</a>
</g>
</g>
<!-- Node2 -->
<g id="Node000002" class="node">
<title>Node2</title>
<g id="a_Node000002"><a xlink:href="classDevLab__ICM20948.html#a31460c48549b1d3081e253706f8b15e6" target="_top" xlink:title=" ">
<polygon fill="white" stroke="#666666" points="362.5,-142.5 195.5,-142.5 195.5,-112.5 362.5,-112.5 362.5,-142.5"/>
<text text-anchor="start" x="203.5" y="-130.5" font-family="Helvetica,sans-Serif" font-size="10.00">DevLab_ICM20948::applyBasic</text>
<text text-anchor="middle" x="279" y="-119.5" font-family="Helvetica,sans-Serif" font-size="10.00">Defaults</text>
</a>
</g>
</g>
<!-- Node1&#45;&gt;Node2 -->
<g id="edge1_Node000001_Node000002" class="edge">
<title>Node1&#45;&gt;Node2</title>
<g id="a_edge1_Node000001_Node000002"><a xlink:title=" ">
<path fill="none" stroke="#63b8ff" d="M109.23,-75.05C138.51,-84.15 183.33,-98.08 219.43,-109.3"/>
<polygon fill="#63b8ff" stroke="#63b8ff" points="218.77,-112.76 229.36,-112.38 220.85,-106.07 218.77,-112.76"/>
</a>
</g>
</g>
<!-- Node3 -->
<g id="Node000003" class="node">
<title>Node3</title>
<g id="a_Node000003"><a xlink:href="classDevLab__ICM20948.html#aaa26fcbfea0e67d45cb1c3ae39654c55" target="_top" xlink:title=" ">
<polygon fill="white" stroke="#666666" points="570,-75 403,-75 403,-56 570,-56 570,-75"/>
<text text-anchor="middle" x="486.5" y="-63" font-family="Helvetica,sans-Serif" font-size="10.00">DevLab_ICM20948::selectBank</text>
</a>
</g>
</g>
<!-- Node1&#45;&gt;Node3 -->
<g id="edge5_Node000001_Node000003" class="edge">
<title>Node1&#45;&gt;Node3</title>
<g id="a_edge5_Node000001_Node000003"><a xlink:title=" ">
<path fill="none" stroke="#63b8ff" d="M155.05,-65.5C222.43,-65.5 320.73,-65.5 392.59,-65.5"/>
<polygon fill="#63b8ff" stroke="#63b8ff" points="393,-69 403,-65.5 393,-62 393,-69"/>
</a>
</g>
</g>
<!-- Node4 -->
<g id="Node000004" class="node">
<title>Node4</title>
<g id="a_Node000004"><a xlink:href="classDevLab__ICM20948.html#a8bef7eafb3b67eb736f491d0df453b9e" target="_top" xlink:title=" ">
<polygon fill="white" stroke="#666666" points="367,-56 191,-56 191,-37 367,-37 367,-56"/>
<text text-anchor="middle" x="279" y="-44" font-family="Helvetica,sans-Serif" font-size="10.00">DevLab_ICM20948::readWhoAmI</text>
</a>
</g>
</g>
<!-- Node1&#45;&gt;Node4 -->
<g id="edge3_Node000001_Node000004" class="edge">
<title>Node1&#45;&gt;Node4</title>
<g id="a_edge3_Node000001_Node000004"><a xlink:title=" ">
<path fill="none" stroke="#63b8ff" d="M155.06,-58.21C163.51,-57.4 172.2,-56.58 180.86,-55.75"/>
<polygon fill="#63b8ff" stroke="#63b8ff" points="181.37,-59.22 191,-54.79 180.71,-52.25 181.37,-59.22"/>
</a>
</g>
</g>
<!-- Node5 -->
<g id="Node000005" class="node">
<title>Node5</title>
<g id="a_Node000005"><a xlink:href="classDevLab__ICM20948.html#a0d6774b76298645ee45ec0e9065a8891" target="_top" xlink:title=" ">
<polygon fill="white" stroke="#666666" points="358.5,-19 199.5,-19 199.5,0 358.5,0 358.5,-19"/>
<text text-anchor="middle" x="279" y="-7" font-family="Helvetica,sans-Serif" font-size="10.00">DevLab_ICM20948::softReset</text>
</a>
</g>
</g>
<!-- Node1&#45;&gt;Node5 -->
<g id="edge6_Node000001_Node000005" class="edge">
<title>Node1&#45;&gt;Node5</title>
<g id="a_edge6_Node000001_Node000005"><a xlink:title=" ">
<path fill="none" stroke="#63b8ff" d="M105.09,-55.9C127.74,-47.93 161.25,-36.62 191,-28.5 200.3,-25.96 210.23,-23.53 219.93,-21.31"/>
<polygon fill="#63b8ff" stroke="#63b8ff" points="220.93,-24.68 229.92,-19.08 219.4,-17.85 220.93,-24.68"/>
</a>
</g>
</g>
<!-- Node2&#45;&gt;Node3 -->
<g id="edge2_Node000002_Node000003" class="edge">
<title>Node2&#45;&gt;Node3</title>
<g id="a_edge2_Node000002_Node000003"><a xlink:title=" ">
<path fill="none" stroke="#63b8ff" d="M329.75,-112.49C364.73,-101.94 411.01,-87.97 444.01,-78.02"/>
<polygon fill="#63b8ff" stroke="#63b8ff" points="445.23,-81.3 453.8,-75.07 443.21,-74.6 445.23,-81.3"/>
</a>
</g>
</g>
<!-- Node4&#45;&gt;Node3 -->
<g id="edge4_Node000004_Node000003" class="edge">
<title>Node4&#45;&gt;Node3</title>
<g id="a_edge4_Node000004_Node000003"><a xlink:title=" ">
<path fill="none" stroke="#63b8ff" d="M367.15,-54.56C375.64,-55.34 384.28,-56.14 392.82,-56.93"/>
<polygon fill="#63b8ff" stroke="#63b8ff" points="392.51,-60.42 402.79,-57.85 393.16,-53.45 392.51,-60.42"/>
</a>
</g>
</g>
<!-- Node5&#45;&gt;Node3 -->
<g id="edge7_Node000005_Node000003" class="edge">
<title>Node5&#45;&gt;Node3</title>
<g id="a_edge7_Node000005_Node000003"><a xlink:title=" ">
<path fill="none" stroke="#63b8ff" d="M327.14,-19.01C340.11,-21.84 354.15,-25.1 367,-28.5 394.22,-35.71 424.53,-45.2 447.68,-52.76"/>
<polygon fill="#63b8ff" stroke="#63b8ff" points="446.86,-56.18 457.45,-55.98 449.05,-49.53 446.86,-56.18"/>
</a>
</g>
</g>
</g>
</svg>
