<?xml version="1.0" encoding="UTF-8" standalone="no"?>
<!DOCTYPE svg PUBLIC "-//W3C//DTD SVG 1.1//EN"
 "http://www.w3.org/Graphics/SVG/1.1/DTD/svg11.dtd">
<!-- Generated by graphviz version 2.43.0 (0)
 -->
<!-- Title: DevLab_ICM20948::selectBank Pages: 1 -->
<svg width="600pt" height="1783pt"
 viewBox="0.00 0.00 600.00 1782.75" xmlns="http://www.w3.org/2000/svg" xmlns:xlink="http://www.w3.org/1999/xlink">
<g id="graph0" class="graph" transform="scale(1 1) rotate(0) translate(4 1778.75)">
<title>DevLab_ICM20948::selectBank</title>
<!-- Node1 -->
<g id="Node000001" class="node">
<title>Node1</title>
<g id="a_Node000001"><a xlink:title=" ">
<polygon fill="#999999" stroke="#666666" points="592,-902 425,-902 425,-883 592,-883 592,-902"/>
<text text-anchor="middle" x="508.5" y="-890" font-family="Helvetica,sans-Serif" font-size="10.00">DevLab_ICM20948::selectBank</text>
</a>
</g>
</g>
<!-- Node2 -->
<g id="Node000002" class="node">
<title>Node2</title>
<g id="a_Node000002"><a xlink:href="classDevLab__ICM20948.html#a31460c48549b1d3081e253706f8b15e6" target="_top" xlink:title=" ">
<polygon fill="white" stroke="#666666" points="374,-1730.5 207,-1730.5 207,-1700.5 374,-1700.5 374,-1730.5"/>
<text text-anchor="start" x="215" y="-1718.5" font-family="Helvetica,sans-Serif" font-size="10.00">DevLab_ICM20948::applyBasic</text>
<text text-anchor="middle" x="290.5" y="-1707.5" font-family="Helvetica,sans-Serif" font-size="10.00">Defaults</text>
</a>
</g>
</g>
<!-- Node1&#45;&gt;Node2 -->
<g id="edge1_Node000001_Node000002" class="edge">
<title>Node1&#45;&gt;Node2</title>
<g id="a_edge1_Node000001_Node000002"><a xlink:title=" ">
<path fill="none" stroke="#63b8ff" d="M507.44,-912.41C506.67,-1024.13 497.37,-1572.42 389,-1691.5 384.78,-1696.14 379.81,-1699.95 374.4,-1703.07"/>
<polygon fill="#63b8ff" stroke="#63b8ff" points="510.94,-912.24 507.49,-902.22 503.94,-912.2 510.94,-912.24"/>
</a>
</g>
</g>
<!-- Node3 -->
<g id="Node000003" class="node">
<title>Node3</title>
<g id="a_Node000003"><a xlink:href="classDevLab__ICM20948.html#a91147b3cd4c45bffc8e024f985be7b21" target="_top" xlink:title=" ">
<polygon fill="white" stroke="#666666" points="156,-1725 0,-1725 0,-1706 156,-1706 156,-1725"/>
<text text-anchor="middle" x="78" y="-1713" font-family="Helvetica,sans-Serif" font-size="10.00">DevLab_ICM20948::beginI2C</text>
</a>
</g>
</g>
<!-- Node1&#45;&gt;Node3 -->
<g id="edge4_Node000001_Node000003" class="edge">
<title>Node1&#45;&gt;Node3</title>
<g id="a_edge4_Node000001_Node000003"><a xlink:title=" ">
<path fill="none" stroke="#63b8ff" d="M506.26,-912.3C498.42,-1034.54 453.91,-1683.04 389,-1739.5 303.88,-1813.54 151.12,-1750.69 97.9,-1725.12"/>
<polygon fill="#63b8ff" stroke="#63b8ff" points="509.76,-912.36 506.91,-902.16 502.78,-911.91 509.76,-912.36"/>
</a>
</g>
</g>
<!-- Node4 -->
<g id="Node000004" class="node">
<title>Node4</title>
<g id="a_Node000004"><a xlink:href="classDevLab__ICM20948.html#a4386f310503153f3e28935cbdda75b18" target="_top" xlink:title=" ">
<polygon fill="white" stroke="#666666" points="155.5,-1663 0.5,-1663 0.5,-1644 155.5,-1644 155.5,-1663"/>
<text text-anchor="middle" x="78" y="-1651" font-family="Helvetica,sans-Serif" font-size="10.00">DevLab_ICM20948::beginSPI</text>
</a>
</g>
</g>
<!-- Node1&#45;&gt;Node4 -->
<g id="edge5_Node000001_Node000004" class="edge">
<title>Node1&#45;&gt;Node4</title>
<g id="a_edge5_Node000001_Node000004"><a xlink:title=" ">
<path fill="none" stroke="#63b8ff" d="M507.32,-912.34C505.92,-1018.14 493.79,-1514.87 389,-1615.5 356.64,-1646.58 236.56,-1653.36 155.7,-1654.26"/>
<polygon fill="#63b8ff" stroke="#63b8ff" points="510.82,-912.17 507.44,-902.13 503.82,-912.09 510.82,-912.17"/>
</a>
</g>
</g>
<!-- Node5 -->
<g id="Node000005" class="node">
<title>Node5</title>
<g id="a_Node000005"><a xlink:href="classDevLab__ICM20948.html#a61f65c00baf13e2cd69eee7cb6688720" target="_top" xlink:title=" ">
<polygon fill="white" stroke="#666666" points="368,-1492.5 213,-1492.5 213,-1462.5 368,-1462.5 368,-1492.5"/>
<text text-anchor="start" x="221" y="-1480.5" font-family="Helvetica,sans-Serif" font-size="10.00">DevLab_ICM20948::checkInt</text>
<text text-anchor="middle" x="290.5" y="-1469.5" font-family="Helvetica,sans-Serif" font-size="10.00">Status</text>
</a>
</g>
</g>
<!-- Node1&#45;&gt;Node5 -->
<g id="edge6_Node000001_Node000005" class="edge">
<title>Node1&#45;&gt;Node5</title>
<g id="a_edge6_Node000001_Node000005"><a xlink:title=" ">
<path fill="none" stroke="#63b8ff" d="M506.08,-912.36C499.22,-1002.62 466.66,-1373.22 389,-1453.5 383.06,-1459.64 375.82,-1464.31 368,-1467.84"/>
<polygon fill="#63b8ff" stroke="#63b8ff" points="509.57,-912.59 506.82,-902.36 502.59,-912.08 509.57,-912.59"/>
</a>
</g>
</g>
<!-- Node6 -->
<g id="Node000006" class="node">
<title>Node6</title>
<g id="a_Node000006"><a xlink:href="classDevLab__ICM20948.html#ae356f6810b038f90e706bd288bb79d19" target="_top" xlink:title=" ">
<polygon fill="white" stroke="#666666" points="368,-1444.5 213,-1444.5 213,-1414.5 368,-1414.5 368,-1444.5"/>
<text text-anchor="start" x="221" y="-1432.5" font-family="Helvetica,sans-Serif" font-size="10.00">DevLab_ICM20948::getAccel</text>
<text text-anchor="middle" x="290.5" y="-1421.5" font-family="Helvetica,sans-Serif" font-size="10.00">Averaging</text>
</a>
</g>
</g>
<!-- Node1&#45;&gt;Node6 -->
<g id="edge7_Node000001_Node000006" class="edge">
<title>Node1&#45;&gt;Node6</title>
<g id="a_edge7_Node000001_Node000006"><a xlink:title=" ">
<path fill="none" stroke="#63b8ff" d="M505.62,-912.48C497.16,-997.95 460.01,-1331.8 389,-1404.5 383.14,-1410.5 376.05,-1415.13 368.4,-1418.69"/>
<polygon fill="#63b8ff" stroke="#63b8ff" points="509.12,-912.61 506.6,-902.31 502.15,-911.93 509.12,-912.61"/>
</a>
</g>
</g>
<!-- Node7 -->
<g id="Node000007" class="node">
<title>Node7</title>
<g id="a_Node000007"><a xlink:href="classDevLab__ICM20948.html#a95dae0d8f84175c0175e65b9981d86f9" target="_top" xlink:title=" ">
<polygon fill="white" stroke="#666666" points="380.5,-1396 200.5,-1396 200.5,-1377 380.5,-1377 380.5,-1396"/>
<text text-anchor="middle" x="290.5" y="-1384" font-family="Helvetica,sans-Serif" font-size="10.00">DevLab_ICM20948::getAccelDLPF</text>
</a>
</g>
</g>
<!-- Node1&#45;&gt;Node7 -->
<g id="edge8_Node000001_Node000007" class="edge">
<title>Node1&#45;&gt;Node7</title>
<g id="a_edge8_Node000001_Node000007"><a xlink:title=" ">
<path fill="none" stroke="#63b8ff" d="M505.36,-912.41C496.15,-994.15 457.3,-1302.66 389,-1367.5 385.12,-1371.18 380.75,-1374.25 376.07,-1376.8"/>
<polygon fill="#63b8ff" stroke="#63b8ff" points="508.88,-912.38 506.5,-902.05 501.92,-911.61 508.88,-912.38"/>
</a>
</g>
</g>
<!-- Node8 -->
<g id="Node000008" class="node">
<title>Node8</title>
<g id="a_Node000008"><a xlink:href="classDevLab__ICM20948.html#ae4beff71dc469940c9ba561d57f04ec7" target="_top" xlink:title=" ">
<polygon fill="white" stroke="#666666" points="368,-1358.5 213,-1358.5 213,-1328.5 368,-1328.5 368,-1358.5"/>
<text text-anchor="start" x="221" y="-1346.5" font-family="Helvetica,sans-Serif" font-size="10.00">DevLab_ICM20948::getAccel</text>
<text text-anchor="middle" x="290.5" y="-1335.5" font-family="Helvetica,sans-Serif" font-size="10.00">Offset</text>
</a>
</g>
</g>
<!-- Node1&#45;&gt;Node8 -->
<g id="edge9_Node000001_Node000008" class="edge">
<title>Node1&#45;&gt;Node8</title>
<g id="a_edge9_Node000001_Node000008"><a xlink:title=" ">
<path fill="none" stroke="#63b8ff" d="M504.69,-912.25C493.48,-988.26 449.63,-1260.62 389,-1319.5 383,-1325.33 375.82,-1329.82 368.11,-1333.26"/>
<polygon fill="#63b8ff" stroke="#63b8ff" points="508.18,-912.55 506.15,-902.15 501.25,-911.54 508.18,-912.55"/>
</a>
</g>
</g>
<!-- Node9 -->
<g id="Node000009" class="node">
<title>Node9</title>
<g id="a_Node000009"><a xlink:href="classDevLab__ICM20948.html#a9f2da1c80e24d06ae0a0561eb850d8d9" target="_top" xlink:title=" ">
<polygon fill="white" stroke="#666666" points="368,-1310.5 213,-1310.5 213,-1280.5 368,-1280.5 368,-1310.5"/>
<text text-anchor="start" x="221" y="-1298.5" font-family="Helvetica,sans-Serif" font-size="10.00">DevLab_ICM20948::getAccel</text>
<text text-anchor="middle" x="290.5" y="-1287.5" font-family="Helvetica,sans-Serif" font-size="10.00">SampleRate</text>
</a>
</g>
</g>
<!-- Node1&#45;&gt;Node9 -->
<g id="edge10_Node000001_Node000009" class="edge">
<title>Node1&#45;&gt;Node9</title>
<g id="a_edge10_Node000001_Node000009"><a xlink:title=" ">
<path fill="none" stroke="#63b8ff" d="M507.65,-912.27C507,-974.92 496.1,-1170.81 389,-1271.5 383.03,-1277.11 375.97,-1281.47 368.41,-1284.85"/>
<polygon fill="#63b8ff" stroke="#63b8ff" points="511.15,-912.19 507.67,-902.18 504.15,-912.17 511.15,-912.19"/>
</a>
</g>
</g>
<!-- Node10 -->
<g id="Node000010" class="node">
<title>Node10</title>
<g id="a_Node000010"><a xlink:href="classDevLab__ICM20948.html#ace42a35300e82402626ce89eb8958e5f" target="_top" xlink:title=" ">
<polygon fill="white" stroke="#666666" points="368,-1262.5 213,-1262.5 213,-1232.5 368,-1232.5 368,-1262.5"/>
<text text-anchor="start" x="221" y="-1250.5" font-family="Helvetica,sans-Serif" font-size="10.00">DevLab_ICM20948::getAccel</text>
<text text-anchor="middle" x="290.5" y="-1239.5" font-family="Helvetica,sans-Serif" font-size="10.00">Scale</text>
</a>
</g>
</g>
<!-- Node1&#45;&gt;Node10 -->
<g id="edge11_Node000001_Node000010" class="edge">
<title>Node1&#45;&gt;Node10</title>
<g id="a_edge11_Node000001_Node000010"><a xlink:title=" ">
<path fill="none" stroke="#63b8ff" d="M506.55,-912.28C502.72,-969.46 483.54,-1136.43 389,-1222.5 382.93,-1228.03 375.8,-1232.37 368.2,-1235.77"/>
<polygon fill="#63b8ff" stroke="#63b8ff" points="510.06,-912.27 507.15,-902.08 503.07,-911.86 510.06,-912.27"/>
</a>
</g>
</g>
<!-- Node11 -->
<g id="Node000011" class="node">
<title>Node11</title>
<g id="a_Node000011"><a xlink:href="classDevLab__ICM20948.html#ac4585d35fd7444eee47ea7accd162b6d" target="_top" xlink:title=" ">
<polygon fill="white" stroke="#666666" points="368.5,-1214 212.5,-1214 212.5,-1195 368.5,-1195 368.5,-1214"/>
<text text-anchor="middle" x="290.5" y="-1202" font-family="Helvetica,sans-Serif" font-size="10.00">DevLab_ICM20948::getClock</text>
</a>
</g>
</g>
<!-- Node1&#45;&gt;Node11 -->
<g id="edge12_Node000001_Node000011" class="edge">
<title>Node1&#45;&gt;Node11</title>
<g id="a_edge12_Node000001_Node000011"><a xlink:title=" ">
<path fill="none" stroke="#63b8ff" d="M505.79,-912.43C500.09,-965.86 476.76,-1113.15 389,-1185.5 383.01,-1190.44 376.12,-1194.22 368.82,-1197.12"/>
<polygon fill="#63b8ff" stroke="#63b8ff" points="509.3,-912.54 506.78,-902.25 502.33,-911.86 509.3,-912.54"/>
</a>
</g>
</g>
<!-- Node12 -->
<g id="Node000012" class="node">
<title>Node12</title>
<g id="a_Node000012"><a xlink:href="classDevLab__ICM20948.html#ab5ef83d7268ee07da27e9cce74c94e46" target="_top" xlink:title=" ">
<polygon fill="white" stroke="#666666" points="367.5,-1177 213.5,-1177 213.5,-1158 367.5,-1158 367.5,-1177"/>
<text text-anchor="middle" x="290.5" y="-1165" font-family="Helvetica,sans-Serif" font-size="10.00">DevLab_ICM20948::getDLPF</text>
</a>
</g>
</g>
<!-- Node1&#45;&gt;Node12 -->
<g id="edge13_Node000001_Node000012" class="edge">
<title>Node1&#45;&gt;Node12</title>
<g id="a_edge13_Node000001_Node000012"><a xlink:title=" ">
<path fill="none" stroke="#63b8ff" d="M504.57,-912.17C496.23,-960.73 467.68,-1086.82 389,-1148.5 382.62,-1153.5 375.3,-1157.31 367.59,-1160.19"/>
<polygon fill="#63b8ff" stroke="#63b8ff" points="508.06,-912.49 506.2,-902.06 501.15,-911.37 508.06,-912.49"/>
</a>
</g>
</g>
<!-- Node13 -->
<g id="Node000013" class="node">
<title>Node13</title>
<g id="a_Node000013"><a xlink:href="classDevLab__ICM20948.html#a3d407a299b73a9d6da88f724bcca0a36" target="_top" xlink:title=" ">
<polygon fill="white" stroke="#666666" points="366.5,-1139.5 214.5,-1139.5 214.5,-1109.5 366.5,-1109.5 366.5,-1139.5"/>
<text text-anchor="start" x="222.5" y="-1127.5" font-family="Helvetica,sans-Serif" font-size="10.00">DevLab_ICM20948::getGyro</text>
<text text-anchor="middle" x="290.5" y="-1116.5" font-family="Helvetica,sans-Serif" font-size="10.00">Offset</text>
</a>
</g>
</g>
<!-- Node1&#45;&gt;Node13 -->
<g id="edge14_Node000001_Node000013" class="edge">
<title>Node1&#45;&gt;Node13</title>
<g id="a_edge14_Node000001_Node000013"><a xlink:title=" ">
<path fill="none" stroke="#63b8ff" d="M502.17,-911.88C489.73,-953.32 454.74,-1050.82 389,-1100.5 382.32,-1105.54 374.72,-1109.54 366.78,-1112.71"/>
<polygon fill="#63b8ff" stroke="#63b8ff" points="505.56,-912.76 504.97,-902.18 498.83,-910.82 505.56,-912.76"/>
</a>
</g>
</g>
<!-- Node14 -->
<g id="Node000014" class="node">
<title>Node14</title>
<g id="a_Node000014"><a xlink:href="classDevLab__ICM20948.html#a721c6c8151230452abfc6c36814f63a7" target="_top" xlink:title=" ">
<polygon fill="white" stroke="#666666" points="366.5,-1091.5 214.5,-1091.5 214.5,-1061.5 366.5,-1061.5 366.5,-1091.5"/>
<text text-anchor="start" x="222.5" y="-1079.5" font-family="Helvetica,sans-Serif" font-size="10.00">DevLab_ICM20948::getGyro</text>
<text text-anchor="middle" x="290.5" y="-1068.5" font-family="Helvetica,sans-Serif" font-size="10.00">SampleRate</text>
</a>
</g>
</g>
<!-- Node1&#45;&gt;Node14 -->
<g id="edge15_Node000001_Node000014" class="edge">
<title>Node1&#45;&gt;Node14</title>
<g id="a_edge15_Node000001_Node000014"><a xlink:title=" ">
<path fill="none" stroke="#63b8ff" d="M498.91,-911.5C482.59,-945.37 443.76,-1016.05 389,-1052.5 382.18,-1057.04 374.58,-1060.72 366.71,-1063.71"/>
<polygon fill="#63b8ff" stroke="#63b8ff" points="502.18,-912.79 503.25,-902.25 495.84,-909.81 502.18,-912.79"/>
</a>
</g>
</g>
<!-- Node15 -->
<g id="Node000015" class="node">
<title>Node15</title>
<g id="a_Node000015"><a xlink:href="classDevLab__ICM20948.html#a5e21409c747b1345884dd0d05720f37f" target="_top" xlink:title=" ">
<polygon fill="white" stroke="#666666" points="366.5,-1043.5 214.5,-1043.5 214.5,-1013.5 366.5,-1013.5 366.5,-1043.5"/>
<text text-anchor="start" x="222.5" y="-1031.5" font-family="Helvetica,sans-Serif" font-size="10.00">DevLab_ICM20948::getGyro</text>
<text text-anchor="middle" x="290.5" y="-1020.5" font-family="Helvetica,sans-Serif" font-size="10.00">Scale</text>
</a>
</g>
</g>
<!-- Node1&#45;&gt;Node15 -->
<g id="edge16_Node000001_Node000015" class="edge">
<title>Node1&#45;&gt;Node15</title>
<g id="a_edge16_Node000001_Node000015"><a xlink:title=" ">
<path fill="none" stroke="#63b8ff" d="M493.76,-910.04C473.5,-934.68 433.21,-979.24 389,-1003.5 381.95,-1007.37 374.29,-1010.65 366.46,-1013.44"/>
<polygon fill="#63b8ff" stroke="#63b8ff" points="496.51,-912.2 500.06,-902.22 491.06,-907.81 496.51,-912.2"/>
</a>
</g>
</g>
<!-- Node16 -->
<g id="Node000016" class="node">
<title>Node16</title>
<g id="a_Node000016"><a xlink:href="classDevLab__ICM20948.html#a9832c13228e84e8ef74a631bfe1fdcd7" target="_top" xlink:title=" ">
<polygon fill="white" stroke="#666666" points="380,-995 201,-995 201,-976 380,-976 380,-995"/>
<text text-anchor="middle" x="290.5" y="-983" font-family="Helvetica,sans-Serif" font-size="10.00">DevLab_ICM20948::getLowPower</text>
</a>
</g>
</g>
<!-- Node1&#45;&gt;Node16 -->
<g id="edge17_Node000001_Node000016" class="edge">
<title>Node1&#45;&gt;Node16</title>
<g id="a_edge17_Node000001_Node000016"><a xlink:title=" ">
<path fill="none" stroke="#63b8ff" d="M487.37,-908.32C464.74,-925.3 426.25,-951.82 389,-966.5 379.13,-970.39 368.38,-973.5 357.73,-976"/>
<polygon fill="#63b8ff" stroke="#63b8ff" points="489.69,-910.96 495.51,-902.11 485.44,-905.39 489.69,-910.96"/>
</a>
</g>
</g>
<!-- Node17 -->
<g id="Node000017" class="node">
<title>Node17</title>
<g id="a_Node000017"><a xlink:href="classDevLab__ICM20948.html#a8b3768ede281b8aa65900b1db8a7a7c7" target="_top" xlink:title=" ">
<polygon fill="white" stroke="#666666" points="374,-958 207,-958 207,-939 374,-939 374,-958"/>
<text text-anchor="middle" x="290.5" y="-946" font-family="Helvetica,sans-Serif" font-size="10.00">DevLab_ICM20948::getSensors</text>
</a>
</g>
</g>
<!-- Node1&#45;&gt;Node17 -->
<g id="edge18_Node000001_Node000017" class="edge">
<title>Node1&#45;&gt;Node17</title>
<g id="a_edge18_Node000001_Node000017"><a xlink:title=" ">
<path fill="none" stroke="#63b8ff" d="M470.19,-905.31C447.01,-912.98 416.48,-922.55 389,-929.5 375.21,-932.99 360.18,-936.2 346.14,-938.95"/>
<polygon fill="#63b8ff" stroke="#63b8ff" points="471.6,-908.53 479.97,-902.04 469.38,-901.89 471.6,-908.53"/>
</a>
</g>
</g>
<!-- Node18 -->
<g id="Node000018" class="node">
<title>Node18</title>
<g id="a_Node000018"><a xlink:href="classDevLab__ICM20948.html#a7b137192f8eb987cd221808c2c6c3561" target="_top" xlink:title=" ">
<polygon fill="white" stroke="#666666" points="153,-1568 3,-1568 3,-1549 153,-1549 153,-1568"/>
<text text-anchor="middle" x="78" y="-1556" font-family="Helvetica,sans-Serif" font-size="10.00">DevLab_ICM20948::initMag</text>
</a>
</g>
</g>
<!-- Node1&#45;&gt;Node18 -->
<g id="edge19_Node000001_Node000018" class="edge">
<title>Node1&#45;&gt;Node18</title>
<g id="a_edge19_Node000001_Node000018"><a xlink:title=" ">
<path fill="none" stroke="#63b8ff" d="M507.01,-912.17C504.08,-1011.04 485.71,-1452.49 389,-1538.5 355.35,-1568.43 233.68,-1567.82 153.15,-1563.78"/>
<polygon fill="#63b8ff" stroke="#63b8ff" points="510.51,-912.17 507.28,-902.08 503.51,-911.97 510.51,-912.17"/>
</a>
</g>
</g>
<!-- Node19 -->
<g id="Node000019" class="node">
<title>Node19</title>
<g id="a_Node000019"><a xlink:href="classDevLab__ICM20948.html#a9dbe029090b4057fd9245551d8917b37" target="_top" xlink:title=" ">
<polygon fill="white" stroke="#666666" points="361.5,-921 219.5,-921 219.5,-902 361.5,-902 361.5,-921"/>
<text text-anchor="middle" x="290.5" y="-909" font-family="Helvetica,sans-Serif" font-size="10.00">DevLab_ICM20948::intInit</text>
</a>
</g>
</g>
<!-- Node1&#45;&gt;Node19 -->
<g id="edge20_Node000001_Node000019" class="edge">
<title>Node1&#45;&gt;Node19</title>
<g id="a_edge20_Node000001_Node000019"><a xlink:title=" ">
<path fill="none" stroke="#63b8ff" d="M414.56,-900.67C396.85,-902.23 378.58,-903.84 361.72,-905.32"/>
<polygon fill="#63b8ff" stroke="#63b8ff" points="415.26,-904.13 424.92,-899.76 414.65,-897.15 415.26,-904.13"/>
</a>
</g>
</g>
<!-- Node20 -->
<g id="Node000020" class="node">
<title>Node20</title>
<g id="a_Node000020"><a xlink:href="classDevLab__ICM20948.html#a3b58edd0915cff118ca81daa6944a27b" target="_top" xlink:title=" ">
<polygon fill="white" stroke="#666666" points="371,-884 210,-884 210,-865 371,-865 371,-884"/>
<text text-anchor="middle" x="290.5" y="-872" font-family="Helvetica,sans-Serif" font-size="10.00">DevLab_ICM20948::readAccel</text>
</a>
</g>
</g>
<!-- Node1&#45;&gt;Node20 -->
<g id="edge21_Node000001_Node000020" class="edge">
<title>Node1&#45;&gt;Node20</title>
<g id="a_edge21_Node000001_Node000020"><a xlink:title=" ">
<path fill="none" stroke="#63b8ff" d="M414.91,-884.78C400.36,-883.57 385.42,-882.33 371.19,-881.14"/>
<polygon fill="#63b8ff" stroke="#63b8ff" points="414.66,-888.28 424.92,-885.62 415.24,-881.3 414.66,-888.28"/>
</a>
</g>
</g>
<!-- Node21 -->
<g id="Node000021" class="node">
<title>Node21</title>
<g id="a_Node000021"><a xlink:href="classDevLab__ICM20948.html#a006c131f860f1fc81c587b3d8a77522d" target="_top" xlink:title=" ">
<polygon fill="white" stroke="#666666" points="369.5,-847 211.5,-847 211.5,-828 369.5,-828 369.5,-847"/>
<text text-anchor="middle" x="290.5" y="-835" font-family="Helvetica,sans-Serif" font-size="10.00">DevLab_ICM20948::readGyro</text>
</a>
</g>
</g>
<!-- Node1&#45;&gt;Node21 -->
<g id="edge22_Node000001_Node000021" class="edge">
<title>Node1&#45;&gt;Node21</title>
<g id="a_edge22_Node000001_Node000021"><a xlink:title=" ">
<path fill="none" stroke="#63b8ff" d="M470.22,-879.6C447.04,-871.89 416.52,-862.31 389,-855.5 376.3,-852.36 362.55,-849.49 349.49,-847.02"/>
<polygon fill="#63b8ff" stroke="#63b8ff" points="469.4,-883.01 479.99,-882.88 471.63,-876.38 469.4,-883.01"/>
</a>
</g>
</g>
<!-- Node22 -->
<g id="Node000022" class="node">
<title>Node22</title>
<g id="a_Node000022"><a xlink:href="classDevLab__ICM20948.html#a9f9b29867c2b78efef3ef9688f886314" target="_top" xlink:title=" ">
<polygon fill="white" stroke="#666666" points="368.5,-810 212.5,-810 212.5,-791 368.5,-791 368.5,-810"/>
<text text-anchor="middle" x="290.5" y="-798" font-family="Helvetica,sans-Serif" font-size="10.00">DevLab_ICM20948::readMag</text>
</a>
</g>
</g>
<!-- Node1&#45;&gt;Node22 -->
<g id="edge23_Node000001_Node000022" class="edge">
<title>Node1&#45;&gt;Node22</title>
<g id="a_edge23_Node000001_Node000022"><a xlink:title=" ">
<path fill="none" stroke="#63b8ff" d="M487.4,-876.61C464.79,-859.57 426.33,-832.99 389,-818.5 380.17,-815.07 370.64,-812.29 361.11,-810.03"/>
<polygon fill="#63b8ff" stroke="#63b8ff" points="485.46,-879.54 495.53,-882.85 489.73,-873.98 485.46,-879.54"/>
</a>
</g>
</g>
<!-- Node23 -->
<g id="Node000023" class="node">
<title>Node23</title>
<g id="a_Node000023"><a xlink:href="classDevLab__ICM20948.html#aa5c2ecd855cebb1934bbbe020128ab5e" target="_top" xlink:title=" ">
<polygon fill="white" stroke="#666666" points="389,-773 192,-773 192,-754 389,-754 389,-773"/>
<text text-anchor="middle" x="290.5" y="-761" font-family="Helvetica,sans-Serif" font-size="10.00">DevLab_ICM20948::readTemperature</text>
</a>
</g>
</g>
<!-- Node1&#45;&gt;Node23 -->
<g id="edge24_Node000001_Node000023" class="edge">
<title>Node1&#45;&gt;Node23</title>
<g id="a_edge24_Node000001_Node000023"><a xlink:title=" ">
<path fill="none" stroke="#63b8ff" d="M494.28,-874.92C474.39,-849.86 434.24,-804.35 389,-781.5 382.24,-778.09 374.92,-775.31 367.44,-773.06"/>
<polygon fill="#63b8ff" stroke="#63b8ff" points="491.55,-877.11 500.44,-882.87 497.08,-872.82 491.55,-877.11"/>
</a>
</g>
</g>
<!-- Node24 -->
<g id="Node000024" class="node">
<title>Node24</title>
<g id="a_Node000024"><a xlink:href="classDevLab__ICM20948.html#a8bef7eafb3b67eb736f491d0df453b9e" target="_top" xlink:title=" ">
<polygon fill="white" stroke="#666666" points="378.5,-1682 202.5,-1682 202.5,-1663 378.5,-1663 378.5,-1682"/>
<text text-anchor="middle" x="290.5" y="-1670" font-family="Helvetica,sans-Serif" font-size="10.00">DevLab_ICM20948::readWhoAmI</text>
</a>
</g>
</g>
<!-- Node1&#45;&gt;Node24 -->
<g id="edge25_Node000001_Node000024" class="edge">
<title>Node1&#45;&gt;Node24</title>
<g id="a_edge25_Node000001_Node000024"><a xlink:title=" ">
<path fill="none" stroke="#63b8ff" d="M507.25,-912.34C505.51,-1020.33 491.81,-1536.46 389,-1648.5 383.34,-1654.67 376.38,-1659.36 368.8,-1662.92"/>
<polygon fill="#63b8ff" stroke="#63b8ff" points="510.76,-912.25 507.4,-902.2 503.76,-912.15 510.76,-912.25"/>
</a>
</g>
</g>
<!-- Node25 -->
<g id="Node000025" class="node">
<title>Node25</title>
<g id="a_Node000025"><a xlink:href="classDevLab__ICM20948.html#adfbd409c7723007d208c82550098a649" target="_top" xlink:title=" ">
<polygon fill="white" stroke="#666666" points="366,-735.5 215,-735.5 215,-705.5 366,-705.5 366,-735.5"/>
<text text-anchor="start" x="223" y="-723.5" font-family="Helvetica,sans-Serif" font-size="10.00">DevLab_ICM20948::selfTest</text>
<text text-anchor="middle" x="290.5" y="-712.5" font-family="Helvetica,sans-Serif" font-size="10.00">Accel</text>
</a>
</g>
</g>
<!-- Node1&#45;&gt;Node25 -->
<g id="edge28_Node000001_Node000025" class="edge">
<title>Node1&#45;&gt;Node25</title>
<g id="a_edge28_Node000001_Node000025"><a xlink:title=" ">
<path fill="none" stroke="#63b8ff" d="M497.81,-873.61C480.48,-841.8 441.06,-777.76 389,-744.5 381.95,-740 374.11,-736.34 366.04,-733.36"/>
<polygon fill="#63b8ff" stroke="#63b8ff" points="494.87,-875.54 502.65,-882.73 501.05,-872.26 494.87,-875.54"/>
</a>
</g>
</g>
<!-- Node26 -->
<g id="Node000026" class="node">
<title>Node26</title>
<g id="a_Node000026"><a xlink:href="classDevLab__ICM20948.html#a9d7602ece2c3908e7bbb2acd45dff156" target="_top" xlink:title=" ">
<polygon fill="white" stroke="#666666" points="377.5,-687 203.5,-687 203.5,-668 377.5,-668 377.5,-687"/>
<text text-anchor="middle" x="290.5" y="-675" font-family="Helvetica,sans-Serif" font-size="10.00">DevLab_ICM20948::selfTestGyro</text>
</a>
</g>
</g>
<!-- Node1&#45;&gt;Node26 -->
<g id="edge29_Node000001_Node000026" class="edge">
<title>Node1&#45;&gt;Node26</title>
<g id="a_edge29_Node000001_Node000026"><a xlink:title=" ">
<path fill="none" stroke="#63b8ff" d="M501.74,-873.18C488.75,-833.19 453.2,-741.35 389,-696.5 383.49,-692.65 377.39,-689.53 371.02,-687.01"/>
<polygon fill="#63b8ff" stroke="#63b8ff" points="498.42,-874.3 504.75,-882.8 505.1,-872.21 498.42,-874.3"/>
</a>
</g>
</g>
<!-- Node27 -->
<g id="Node000027" class="node">
<title>Node27</title>
<g id="a_Node000027"><a xlink:href="classDevLab__ICM20948.html#a619f82390347cc173d1604d4d711b537" target="_top" xlink:title=" ">
<polygon fill="white" stroke="#666666" points="368,-649.5 213,-649.5 213,-619.5 368,-619.5 368,-649.5"/>
<text text-anchor="start" x="221" y="-637.5" font-family="Helvetica,sans-Serif" font-size="10.00">DevLab_ICM20948::setAccel</text>
<text text-anchor="middle" x="290.5" y="-626.5" font-family="Helvetica,sans-Serif" font-size="10.00">Averaging</text>
</a>
</g>
</g>
<!-- Node1&#45;&gt;Node27 -->
<g id="edge30_Node000001_Node000027" class="edge">
<title>Node1&#45;&gt;Node27</title>
<g id="a_edge30_Node000001_Node000027"><a xlink:title=" ">
<path fill="none" stroke="#63b8ff" d="M503.36,-872.6C492.83,-827.19 460.64,-715.45 389,-658.5 382.72,-653.51 375.55,-649.54 368.02,-646.38"/>
<polygon fill="#63b8ff" stroke="#63b8ff" points="500,-873.64 505.58,-882.65 506.84,-872.13 500,-873.64"/>
</a>
</g>
</g>
<!-- Node28 -->
<g id="Node000028" class="node">
<title>Node28</title>
<g id="a_Node000028"><a xlink:href="classDevLab__ICM20948.html#aca0cb8da36b8e9128299b9aeb5bb60ec" target="_top" xlink:title=" ">
<polygon fill="white" stroke="#666666" points="368,-601.5 213,-601.5 213,-571.5 368,-571.5 368,-601.5"/>
<text text-anchor="start" x="221" y="-589.5" font-family="Helvetica,sans-Serif" font-size="10.00">DevLab_ICM20948::setAccel</text>
<text text-anchor="middle" x="290.5" y="-578.5" font-family="Helvetica,sans-Serif" font-size="10.00">DivRate</text>
</a>
</g>
</g>
<!-- Node1&#45;&gt;Node28 -->
<g id="edge31_Node000001_Node000028" class="edge">
<title>Node1&#45;&gt;Node28</title>
<g id="a_edge31_Node000001_Node000028"><a xlink:title=" ">
<path fill="none" stroke="#63b8ff" d="M505.26,-872.86C498.32,-821.39 472.32,-681.71 389,-610.5 382.9,-605.29 375.85,-601.18 368.38,-597.94"/>
<polygon fill="#63b8ff" stroke="#63b8ff" points="501.81,-873.46 506.53,-882.95 508.76,-872.59 501.81,-873.46"/>
</a>
</g>
</g>
<!-- Node29 -->
<g id="Node000029" class="node">
<title>Node29</title>
<g id="a_Node000029"><a xlink:href="classDevLab__ICM20948.html#ac52d80aad738b90aa0f05e9d6404bb85" target="_top" xlink:title=" ">
<polygon fill="white" stroke="#666666" points="380,-553 201,-553 201,-534 380,-534 380,-553"/>
<text text-anchor="middle" x="290.5" y="-541" font-family="Helvetica,sans-Serif" font-size="10.00">DevLab_ICM20948::setAccelDLPF</text>
</a>
</g>
</g>
<!-- Node1&#45;&gt;Node29 -->
<g id="edge32_Node000001_Node000029" class="edge">
<title>Node1&#45;&gt;Node29</title>
<g id="a_edge32_Node000001_Node000029"><a xlink:title=" ">
<path fill="none" stroke="#63b8ff" d="M506.79,-872.45C503.61,-814.53 486.02,-645.77 389,-562.5 384.68,-558.79 379.86,-555.73 374.73,-553.2"/>
<polygon fill="#63b8ff" stroke="#63b8ff" points="503.31,-872.95 507.27,-882.78 510.31,-872.63 503.31,-872.95"/>
</a>
</g>
</g>
<!-- Node30 -->
<g id="Node000030" class="node">
<title>Node30</title>
<g id="a_Node000030"><a xlink:href="classDevLab__ICM20948.html#a7c150c665140086d7937fa4b2f39cd45" target="_top" xlink:title=" ">
<polygon fill="white" stroke="#666666" points="368,-515.5 213,-515.5 213,-485.5 368,-485.5 368,-515.5"/>
<text text-anchor="start" x="221" y="-503.5" font-family="Helvetica,sans-Serif" font-size="10.00">DevLab_ICM20948::setAccel</text>
<text text-anchor="middle" x="290.5" y="-492.5" font-family="Helvetica,sans-Serif" font-size="10.00">Offset</text>
</a>
</g>
</g>
<!-- Node1&#45;&gt;Node30 -->
<g id="edge33_Node000001_Node000030" class="edge">
<title>Node1&#45;&gt;Node30</title>
<g id="a_edge33_Node000001_Node000030"><a xlink:title=" ">
<path fill="none" stroke="#63b8ff" d="M507.43,-872.5C506.08,-810.79 493.24,-621.67 389,-524.5 383.01,-518.91 375.93,-514.57 368.36,-511.2"/>
<polygon fill="#63b8ff" stroke="#63b8ff" points="503.94,-872.83 507.57,-882.78 510.94,-872.74 503.94,-872.83"/>
</a>
</g>
</g>
<!-- Node31 -->
<g id="Node000031" class="node">
<title>Node31</title>
<g id="a_Node000031"><a xlink:href="classDevLab__ICM20948.html#afe657b6e9d21f02dad2599ea04feefe2" target="_top" xlink:title=" ">
<polygon fill="white" stroke="#666666" points="368,-467.5 213,-467.5 213,-437.5 368,-437.5 368,-467.5"/>
<text text-anchor="start" x="221" y="-455.5" font-family="Helvetica,sans-Serif" font-size="10.00">DevLab_ICM20948::setAccel</text>
<text text-anchor="middle" x="290.5" y="-444.5" font-family="Helvetica,sans-Serif" font-size="10.00">SampleRate</text>
</a>
</g>
</g>
<!-- Node1&#45;&gt;Node31 -->
<g id="edge34_Node000001_Node000031" class="edge">
<title>Node1&#45;&gt;Node31</title>
<g id="a_edge34_Node000001_Node000031"><a xlink:title=" ">
<path fill="none" stroke="#63b8ff" d="M508.3,-872.61C509.81,-806 505.26,-588.63 389,-476.5 382.98,-470.69 375.79,-466.22 368.07,-462.78"/>
<polygon fill="#63b8ff" stroke="#63b8ff" points="504.79,-872.82 507.98,-882.92 511.78,-873.04 504.79,-872.82"/>
</a>
</g>
</g>
<!-- Node32 -->
<g id="Node000032" class="node">
<title>Node32</title>
<g id="a_Node000032"><a xlink:href="classDevLab__ICM20948.html#a1a2aa0019d5e1c6ba8ce4a3c1d9fcb43" target="_top" xlink:title=" ">
<polygon fill="white" stroke="#666666" points="368,-419.5 213,-419.5 213,-389.5 368,-389.5 368,-419.5"/>
<text text-anchor="start" x="221" y="-407.5" font-family="Helvetica,sans-Serif" font-size="10.00">DevLab_ICM20948::setAccel</text>
<text text-anchor="middle" x="290.5" y="-396.5" font-family="Helvetica,sans-Serif" font-size="10.00">Scale</text>
</a>
</g>
</g>
<!-- Node1&#45;&gt;Node32 -->
<g id="edge35_Node000001_Node000032" class="edge">
<title>Node1&#45;&gt;Node32</title>
<g id="a_edge35_Node000001_Node000032"><a xlink:title=" ">
<path fill="none" stroke="#63b8ff" d="M505.14,-872.62C495.2,-792.32 454.28,-493.22 389,-428.5 383.06,-422.61 375.92,-418.08 368.23,-414.62"/>
<polygon fill="#63b8ff" stroke="#63b8ff" points="501.7,-873.32 506.38,-882.82 508.64,-872.47 501.7,-873.32"/>
</a>
</g>
</g>
<!-- Node33 -->
<g id="Node000033" class="node">
<title>Node33</title>
<g id="a_Node000033"><a xlink:href="classDevLab__ICM20948.html#a18de038f48173c77483f4be1c04204d6" target="_top" xlink:title=" ">
<polygon fill="white" stroke="#666666" points="368,-371 213,-371 213,-352 368,-352 368,-371"/>
<text text-anchor="middle" x="290.5" y="-359" font-family="Helvetica,sans-Serif" font-size="10.00">DevLab_ICM20948::setClock</text>
</a>
</g>
</g>
<!-- Node1&#45;&gt;Node33 -->
<g id="edge36_Node000001_Node000033" class="edge">
<title>Node1&#45;&gt;Node33</title>
<g id="a_edge36_Node000001_Node000033"><a xlink:title=" ">
<path fill="none" stroke="#63b8ff" d="M505.72,-872.42C497.71,-786.51 462.1,-451.09 389,-380.5 383.05,-374.75 375.9,-370.49 368.21,-367.36"/>
<polygon fill="#63b8ff" stroke="#63b8ff" points="502.26,-872.99 506.65,-882.63 509.23,-872.36 502.26,-872.99"/>
</a>
</g>
</g>
<!-- Node34 -->
<g id="Node000034" class="node">
<title>Node34</title>
<g id="a_Node000034"><a xlink:href="classDevLab__ICM20948.html#a0bea2c662c285120253851c80289e077" target="_top" xlink:title=" ">
<polygon fill="white" stroke="#666666" points="367,-334 214,-334 214,-315 367,-315 367,-334"/>
<text text-anchor="middle" x="290.5" y="-322" font-family="Helvetica,sans-Serif" font-size="10.00">DevLab_ICM20948::setDLPF</text>
</a>
</g>
</g>
<!-- Node1&#45;&gt;Node34 -->
<g id="edge37_Node000001_Node000034" class="edge">
<title>Node1&#45;&gt;Node34</title>
<g id="a_edge37_Node000001_Node000034"><a xlink:title=" ">
<path fill="none" stroke="#63b8ff" d="M506.1,-872.65C499.4,-783.21 467.56,-418.76 389,-342.5 382.82,-336.51 375.34,-332.17 367.3,-329.06"/>
<polygon fill="#63b8ff" stroke="#63b8ff" points="502.62,-873.06 506.84,-882.78 509.61,-872.55 502.62,-873.06"/>
</a>
</g>
</g>
<!-- Node35 -->
<g id="Node000035" class="node">
<title>Node35</title>
<g id="a_Node000035"><a xlink:href="classDevLab__ICM20948.html#a7ae5665d5e835f8024df82f43bae46e7" target="_top" xlink:title=" ">
<polygon fill="white" stroke="#666666" points="366.5,-296.5 214.5,-296.5 214.5,-266.5 366.5,-266.5 366.5,-296.5"/>
<text text-anchor="start" x="222.5" y="-284.5" font-family="Helvetica,sans-Serif" font-size="10.00">DevLab_ICM20948::setGyro</text>
<text text-anchor="middle" x="290.5" y="-273.5" font-family="Helvetica,sans-Serif" font-size="10.00">Averaging</text>
</a>
</g>
</g>
<!-- Node1&#45;&gt;Node35 -->
<g id="edge38_Node000001_Node000035" class="edge">
<title>Node1&#45;&gt;Node35</title>
<g id="a_edge38_Node000001_Node000035"><a xlink:title=" ">
<path fill="none" stroke="#63b8ff" d="M506.28,-872.61C500.17,-779.77 469.98,-389.97 389,-305.5 382.73,-298.96 374.98,-294.08 366.62,-290.47"/>
<polygon fill="#63b8ff" stroke="#63b8ff" points="502.79,-872.88 506.92,-882.64 509.77,-872.43 502.79,-872.88"/>
</a>
</g>
</g>
<!-- Node36 -->
<g id="Node000036" class="node">
<title>Node36</title>
<g id="a_Node000036"><a xlink:href="classDevLab__ICM20948.html#a16cc9db132bb7a2b706275c9f5a03773" target="_top" xlink:title=" ">
<polygon fill="white" stroke="#666666" points="366.5,-248.5 214.5,-248.5 214.5,-218.5 366.5,-218.5 366.5,-248.5"/>
<text text-anchor="start" x="222.5" y="-236.5" font-family="Helvetica,sans-Serif" font-size="10.00">DevLab_ICM20948::setGyro</text>
<text text-anchor="middle" x="290.5" y="-225.5" font-family="Helvetica,sans-Serif" font-size="10.00">DivRate</text>
</a>
</g>
</g>
<!-- Node1&#45;&gt;Node36 -->
<g id="edge39_Node000001_Node000036" class="edge">
<title>Node1&#45;&gt;Node36</title>
<g id="a_edge39_Node000001_Node000036"><a xlink:title=" ">
<path fill="none" stroke="#63b8ff" d="M506.6,-872.57C501.82,-775.11 476.14,-349.74 389,-257.5 382.78,-250.91 375.06,-246.01 366.71,-242.38"/>
<polygon fill="#63b8ff" stroke="#63b8ff" points="503.12,-872.96 507.09,-882.78 510.11,-872.63 503.12,-872.96"/>
</a>
</g>
</g>
<!-- Node37 -->
<g id="Node000037" class="node">
<title>Node37</title>
<g id="a_Node000037"><a xlink:href="classDevLab__ICM20948.html#a631e6298058a3c54f1c02bae5cf8db54" target="_top" xlink:title=" ">
<polygon fill="white" stroke="#666666" points="366.5,-200.5 214.5,-200.5 214.5,-170.5 366.5,-170.5 366.5,-200.5"/>
<text text-anchor="start" x="222.5" y="-188.5" font-family="Helvetica,sans-Serif" font-size="10.00">DevLab_ICM20948::setGyro</text>
<text text-anchor="middle" x="290.5" y="-177.5" font-family="Helvetica,sans-Serif" font-size="10.00">Offset</text>
</a>
</g>
</g>
<!-- Node1&#45;&gt;Node37 -->
<g id="edge40_Node000001_Node000037" class="edge">
<title>Node1&#45;&gt;Node37</title>
<g id="a_edge40_Node000001_Node000037"><a xlink:title=" ">
<path fill="none" stroke="#63b8ff" d="M506.88,-872.37C503.33,-770.13 482.27,-309.49 389,-209.5 382.82,-202.87 375.12,-197.95 366.79,-194.3"/>
<polygon fill="#63b8ff" stroke="#63b8ff" points="503.39,-872.67 507.22,-882.55 510.38,-872.44 503.39,-872.67"/>
</a>
</g>
</g>
<!-- Node38 -->
<g id="Node000038" class="node">
<title>Node38</title>
<g id="a_Node000038"><a xlink:href="classDevLab__ICM20948.html#a70bbcf97fd1c211e2bea203a5039b1bb" target="_top" xlink:title=" ">
<polygon fill="white" stroke="#666666" points="366.5,-152.5 214.5,-152.5 214.5,-122.5 366.5,-122.5 366.5,-152.5"/>
<text text-anchor="start" x="222.5" y="-140.5" font-family="Helvetica,sans-Serif" font-size="10.00">DevLab_ICM20948::setGyro</text>
<text text-anchor="middle" x="290.5" y="-129.5" font-family="Helvetica,sans-Serif" font-size="10.00">SampleRate</text>
</a>
</g>
</g>
<!-- Node1&#45;&gt;Node38 -->
<g id="edge41_Node000001_Node000038" class="edge">
<title>Node1&#45;&gt;Node38</title>
<g id="a_edge41_Node000001_Node000038"><a xlink:title=" ">
<path fill="none" stroke="#63b8ff" d="M507.14,-872.66C504.8,-766.8 488.57,-269.44 389,-161.5 382.85,-154.84 375.18,-149.89 366.86,-146.24"/>
<polygon fill="#63b8ff" stroke="#63b8ff" points="503.64,-872.94 507.35,-882.87 510.64,-872.8 503.64,-872.94"/>
</a>
</g>
</g>
<!-- Node39 -->
<g id="Node000039" class="node">
<title>Node39</title>
<g id="a_Node000039"><a xlink:href="classDevLab__ICM20948.html#a6a06dbd14558e50d40595de82502d632" target="_top" xlink:title=" ">
<polygon fill="white" stroke="#666666" points="366.5,-104.5 214.5,-104.5 214.5,-74.5 366.5,-74.5 366.5,-104.5"/>
<text text-anchor="start" x="222.5" y="-92.5" font-family="Helvetica,sans-Serif" font-size="10.00">DevLab_ICM20948::setGyro</text>
<text text-anchor="middle" x="290.5" y="-81.5" font-family="Helvetica,sans-Serif" font-size="10.00">Scale</text>
</a>
</g>
</g>
<!-- Node1&#45;&gt;Node39 -->
<g id="edge42_Node000001_Node000039" class="edge">
<title>Node1&#45;&gt;Node39</title>
<g id="a_edge42_Node000001_Node000039"><a xlink:title=" ">
<path fill="none" stroke="#63b8ff" d="M507.36,-872.74C506.14,-763.02 494.82,-229.34 389,-113.5 382.89,-106.81 375.23,-101.84 366.92,-98.18"/>
<polygon fill="#63b8ff" stroke="#63b8ff" points="503.86,-872.8 507.45,-882.76 510.85,-872.73 503.86,-872.8"/>
</a>
</g>
</g>
<!-- Node40 -->
<g id="Node000040" class="node">
<title>Node40</title>
<g id="a_Node000040"><a xlink:href="classDevLab__ICM20948.html#a6c9c09f8b2ab39f5de7f48c6c743ffc4" target="_top" xlink:title=" ">
<polygon fill="white" stroke="#666666" points="379.5,-56 201.5,-56 201.5,-37 379.5,-37 379.5,-56"/>
<text text-anchor="middle" x="290.5" y="-44" font-family="Helvetica,sans-Serif" font-size="10.00">DevLab_ICM20948::setLowPower</text>
</a>
</g>
</g>
<!-- Node1&#45;&gt;Node40 -->
<g id="edge43_Node000001_Node000040" class="edge">
<title>Node1&#45;&gt;Node40</title>
<g id="a_edge43_Node000001_Node000040"><a xlink:title=" ">
<path fill="none" stroke="#63b8ff" d="M507.64,-872.89C508.01,-759.28 504.12,-186.54 389,-65.5 385.43,-61.75 381.37,-58.62 376.96,-56.01"/>
<polygon fill="#63b8ff" stroke="#63b8ff" points="504.14,-872.91 507.59,-882.93 511.14,-872.95 504.14,-872.91"/>
</a>
</g>
</g>
<!-- Node41 -->
<g id="Node000041" class="node">
<title>Node41</title>
<g id="a_Node000041"><a xlink:href="classDevLab__ICM20948.html#ae9c088334d6ec706bb08b47ef29bd186" target="_top" xlink:title=" ">
<polygon fill="white" stroke="#666666" points="374,-19 207,-19 207,0 374,0 374,-19"/>
<text text-anchor="middle" x="290.5" y="-7" font-family="Helvetica,sans-Serif" font-size="10.00">DevLab_ICM20948::setSensors</text>
</a>
</g>
</g>
<!-- Node1&#45;&gt;Node41 -->
<g id="edge44_Node000001_Node000041" class="edge">
<title>Node1&#45;&gt;Node41</title>
<g id="a_edge44_Node000001_Node000041"><a xlink:title=" ">
<path fill="none" stroke="#63b8ff" d="M507.79,-872.7C509.1,-755.57 509.79,-154.03 389,-27.5 384.72,-23.02 379.72,-19.44 374.28,-16.6"/>
<polygon fill="#63b8ff" stroke="#63b8ff" points="504.29,-872.72 507.66,-882.76 511.29,-872.8 504.29,-872.72"/>
</a>
</g>
</g>
<!-- Node42 -->
<g id="Node000042" class="node">
<title>Node42</title>
<g id="a_Node000042"><a xlink:href="classDevLab__ICM20948.html#a4210e842050486637a5967b2a9ef7b57" target="_top" xlink:title=" ">
<polygon fill="white" stroke="#666666" points="360.5,-1530 220.5,-1530 220.5,-1511 360.5,-1511 360.5,-1530"/>
<text text-anchor="middle" x="290.5" y="-1518" font-family="Helvetica,sans-Serif" font-size="10.00">DevLab_ICM20948::sleep</text>
</a>
</g>
</g>
<!-- Node1&#45;&gt;Node42 -->
<g id="edge45_Node000001_Node000042" class="edge">
<title>Node1&#45;&gt;Node42</title>
<g id="a_edge45_Node000001_Node000042"><a xlink:title=" ">
<path fill="none" stroke="#63b8ff" d="M506.53,-912.31C501.48,-1007.35 474.98,-1415.49 389,-1501.5 381.2,-1509.31 371.2,-1514.4 360.6,-1517.64"/>
<polygon fill="#63b8ff" stroke="#63b8ff" points="510.03,-912.48 507.04,-902.31 503.04,-912.12 510.03,-912.48"/>
</a>
</g>
</g>
<!-- Node43 -->
<g id="Node000043" class="node">
<title>Node43</title>
<g id="a_Node000043"><a xlink:href="classDevLab__ICM20948.html#a0d6774b76298645ee45ec0e9065a8891" target="_top" xlink:title=" ">
<polygon fill="white" stroke="#666666" points="370,-1606 211,-1606 211,-1587 370,-1587 370,-1606"/>
<text text-anchor="middle" x="290.5" y="-1594" font-family="Helvetica,sans-Serif" font-size="10.00">DevLab_ICM20948::softReset</text>
</a>
</g>
</g>
<!-- Node1&#45;&gt;Node43 -->
<g id="edge47_Node000001_Node000043" class="edge">
<title>Node1&#45;&gt;Node43</title>
<g id="a_edge47_Node000001_Node000043"><a xlink:title=" ">
<path fill="none" stroke="#63b8ff" d="M506.87,-912.55C503.25,-1014.33 481.91,-1472.97 389,-1572.5 383.29,-1578.62 376.29,-1583.28 368.69,-1586.83"/>
<polygon fill="#63b8ff" stroke="#63b8ff" points="510.37,-912.52 507.21,-902.41 503.37,-912.29 510.37,-912.52"/>
</a>
</g>
</g>
<!-- Node2&#45;&gt;Node3 -->
<g id="edge2_Node000002_Node000003" class="edge">
<title>Node2&#45;&gt;Node3</title>
<g id="a_edge2_Node000002_Node000003"><a xlink:title=" ">
<path fill="none" stroke="#63b8ff" d="M196.65,-1715.5C183.14,-1715.5 169.35,-1715.5 156.2,-1715.5"/>
<polygon fill="#63b8ff" stroke="#63b8ff" points="196.91,-1719 206.91,-1715.5 196.91,-1712 196.91,-1719"/>
</a>
</g>
</g>
<!-- Node2&#45;&gt;Node4 -->
<g id="edge3_Node000002_Node000004" class="edge">
<title>Node2&#45;&gt;Node4</title>
<g id="a_edge3_Node000002_Node000004"><a xlink:title=" ">
<path fill="none" stroke="#63b8ff" d="M215.15,-1697.88C207.31,-1695.82 199.47,-1693.67 192,-1691.5 161.99,-1682.78 128.07,-1671.12 105.29,-1663.03"/>
<polygon fill="#63b8ff" stroke="#63b8ff" points="214.49,-1701.32 225.05,-1700.44 216.25,-1694.55 214.49,-1701.32"/>
</a>
</g>
</g>
<!-- Node24&#45;&gt;Node3 -->
<g id="edge26_Node000024_Node000003" class="edge">
<title>Node24&#45;&gt;Node3</title>
<g id="a_edge26_Node000024_Node000003"><a xlink:title=" ">
<path fill="none" stroke="#63b8ff" d="M229.96,-1683.94C217.42,-1686.39 204.27,-1689 192,-1691.5 169.2,-1696.14 143.86,-1701.5 122.97,-1705.98"/>
<polygon fill="#63b8ff" stroke="#63b8ff" points="230.72,-1687.35 239.87,-1682 229.38,-1680.48 230.72,-1687.35"/>
</a>
</g>
</g>
<!-- Node24&#45;&gt;Node4 -->
<g id="edge27_Node000024_Node000004" class="edge">
<title>Node24&#45;&gt;Node4</title>
<g id="a_edge27_Node000024_Node000004"><a xlink:title=" ">
<path fill="none" stroke="#63b8ff" d="M192.13,-1663.71C179.89,-1662.61 167.51,-1661.49 155.65,-1660.42"/>
<polygon fill="#63b8ff" stroke="#63b8ff" points="192.09,-1667.22 202.36,-1664.63 192.72,-1660.25 192.09,-1667.22"/>
</a>
</g>
</g>
<!-- Node42&#45;&gt;Node18 -->
<g id="edge46_Node000042_Node000018" class="edge">
<title>Node42&#45;&gt;Node18</title>
<g id="a_edge46_Node000042_Node000018"><a xlink:title=" ">
<path fill="none" stroke="#63b8ff" d="M226.64,-1531.85C196.44,-1537.3 160.65,-1543.76 131.87,-1548.96"/>
<polygon fill="#63b8ff" stroke="#63b8ff" points="227.43,-1535.26 236.65,-1530.04 226.19,-1528.37 227.43,-1535.26"/>
</a>
</g>
</g>
<!-- Node43&#45;&gt;Node4 -->
<g id="edge48_Node000043_Node000004" class="edge">
<title>Node43&#45;&gt;Node4</title>
<g id="a_edge48_Node000043_Node000004"><a xlink:title=" ">
<path fill="none" stroke="#63b8ff" d="M239.32,-1608.42C224.09,-1612.15 207.33,-1616.38 192,-1620.5 164.37,-1627.93 133.16,-1637.1 110.56,-1643.89"/>
<polygon fill="#63b8ff" stroke="#63b8ff" points="240.19,-1611.81 249.08,-1606.04 238.54,-1605.01 240.19,-1611.81"/>
</a>
</g>
</g>
<!-- Node43&#45;&gt;Node18 -->
<g id="edge49_Node000043_Node000018" class="edge">
<title>Node43&#45;&gt;Node18</title>
<g id="a_edge49_Node000043_Node000018"><a xlink:title=" ">
<path fill="none" stroke="#63b8ff" d="M226.64,-1585.15C196.44,-1579.7 160.65,-1573.24 131.87,-1568.04"/>
<polygon fill="#63b8ff" stroke="#63b8ff" points="226.19,-1588.63 236.65,-1586.96 227.43,-1581.74 226.19,-1588.63"/>
</a>
</g>
</g>
</g>
</svg>
