<?xml version="1.0" encoding="UTF-8" standalone="no"?>
<!DOCTYPE svg PUBLIC "-//W3C//DTD SVG 1.1//EN"
 "http://www.w3.org/Graphics/SVG/1.1/DTD/svg11.dtd">
<!-- Generated by graphviz version 2.43.0 (0)
 -->
<!-- Title: DevLab_ICM20948::softReset Pages: 1 -->
<svg width="658pt" height="122pt"
 viewBox="0.00 0.00 658.00 121.78" xmlns="http://www.w3.org/2000/svg" xmlns:xlink="http://www.w3.org/1999/xlink">
<g id="graph0" class="graph" transform="scale(1 1) rotate(0) translate(4 117.78)">
<title>DevLab_ICM20948::softReset</title>
<!-- Node1 -->
<g id="Node000001" class="node">
<title>Node1</title>
<g id="a_Node000001"><a xlink:title=" ">
<polygon fill="#999999" stroke="#666666" points="650,-57.78 491,-57.78 491,-38.78 650,-38.78 650,-57.78"/>
<text text-anchor="middle" x="570.5" y="-45.78" font-family="Helvetica,sans-Serif" font-size="10.00">DevLab_ICM20948::softReset</text>
</a>
</g>
</g>
<!-- Node2 -->
<g id="Node000002" class="node">
<title>Node2</title>
<g id="a_Node000002"><a xlink:href="classDevLab__ICM20948.html#a4386f310503153f3e28935cbdda75b18" target="_top" xlink:title=" ">
<polygon fill="white" stroke="#666666" points="455,-103.78 300,-103.78 300,-84.78 455,-84.78 455,-103.78"/>
<text text-anchor="middle" x="377.5" y="-91.78" font-family="Helvetica,sans-Serif" font-size="10.00">DevLab_ICM20948::beginSPI</text>
</a>
</g>
</g>
<!-- Node1&#45;&gt;Node2 -->
<g id="edge1_Node000001_Node000002" class="edge">
<title>Node1&#45;&gt;Node2</title>
<g id="a_edge1_Node000001_Node000002"><a xlink:title=" ">
<path fill="none" stroke="#63b8ff" d="M519.96,-60.21C488.22,-67.85 447.59,-77.64 418.02,-84.76"/>
<polygon fill="#63b8ff" stroke="#63b8ff" points="521.02,-63.55 529.92,-57.81 519.38,-56.75 521.02,-63.55"/>
</a>
</g>
</g>
<!-- Node4 -->
<g id="Node000004" class="node">
<title>Node4</title>
<g id="a_Node000004"><a xlink:href="classDevLab__ICM20948.html#a7b137192f8eb987cd221808c2c6c3561" target="_top" xlink:title=" ">
<polygon fill="white" stroke="#666666" points="452.5,-57.78 302.5,-57.78 302.5,-38.78 452.5,-38.78 452.5,-57.78"/>
<text text-anchor="middle" x="377.5" y="-45.78" font-family="Helvetica,sans-Serif" font-size="10.00">DevLab_ICM20948::initMag</text>
</a>
</g>
</g>
<!-- Node1&#45;&gt;Node4 -->
<g id="edge3_Node000001_Node000004" class="edge">
<title>Node1&#45;&gt;Node4</title>
<g id="a_edge3_Node000001_Node000004"><a xlink:title=" ">
<path fill="none" stroke="#63b8ff" d="M480.83,-48.28C471.43,-48.28 461.93,-48.28 452.71,-48.28"/>
<polygon fill="#63b8ff" stroke="#63b8ff" points="480.99,-51.78 490.99,-48.28 480.99,-44.78 480.99,-51.78"/>
</a>
</g>
</g>
<!-- Node7 -->
<g id="Node000007" class="node">
<title>Node7</title>
<g id="a_Node000007"><a xlink:href="gyr__test_8ino.html#a4fc01d736fe50cf5b977f755b675f11d" target="_top" xlink:title="Initialize I2C, reset/wake the IMU, enable gyro, and start the sweep.">
<polygon fill="white" stroke="#666666" points="44,-38.78 0,-38.78 0,-19.78 44,-19.78 44,-38.78"/>
<text text-anchor="middle" x="22" y="-26.78" font-family="Helvetica,sans-Serif" font-size="10.00">setup</text>
</a>
</g>
</g>
<!-- Node1&#45;&gt;Node7 -->
<g id="edge9_Node000001_Node000007" class="edge">
<title>Node1&#45;&gt;Node7</title>
<g id="a_edge9_Node000001_Node000007"><a xlink:title=" ">
<path fill="none" stroke="#63b8ff" d="M502.95,-37.16C487.25,-34.72 470.55,-32.27 455,-30.28 289.47,-9.05 244.93,14.15 80,-11.28 67.79,-13.16 54.62,-17.18 44.01,-20.94"/>
<polygon fill="#63b8ff" stroke="#63b8ff" points="502.68,-40.66 513.1,-38.76 503.77,-33.75 502.68,-40.66"/>
</a>
</g>
</g>
<!-- Node3 -->
<g id="Node000003" class="node">
<title>Node3</title>
<g id="a_Node000003"><a xlink:href="spi__accel_8ino.html#a4fc01d736fe50cf5b977f755b675f11d" target="_top" xlink:title="Configure the IMU for accelerometer&#45;only operation over SPI.">
<polygon fill="white" stroke="#666666" points="244.5,-113.78 200.5,-113.78 200.5,-94.78 244.5,-94.78 244.5,-113.78"/>
<text text-anchor="middle" x="222.5" y="-101.78" font-family="Helvetica,sans-Serif" font-size="10.00">setup</text>
</a>
</g>
</g>
<!-- Node2&#45;&gt;Node3 -->
<g id="edge2_Node000002_Node000003" class="edge">
<title>Node2&#45;&gt;Node3</title>
<g id="a_edge2_Node000002_Node000003"><a xlink:title=" ">
<path fill="none" stroke="#63b8ff" d="M289.15,-99.99C272.54,-101.07 256.62,-102.11 244.62,-102.9"/>
<polygon fill="#63b8ff" stroke="#63b8ff" points="289.8,-103.45 299.55,-99.31 289.34,-96.47 289.8,-103.45"/>
</a>
</g>
</g>
<!-- Node5 -->
<g id="Node000005" class="node">
<title>Node5</title>
<g id="a_Node000005"><a xlink:href="mag__test_8ino.html#af42a493b8d96759f43d866fbe725cf3d" target="_top" xlink:title="Initialize the magnetometer and collect samples for each mode.">
<polygon fill="white" stroke="#666666" points="264,-76.78 181,-76.78 181,-57.78 264,-57.78 264,-76.78"/>
<text text-anchor="middle" x="222.5" y="-64.78" font-family="Helvetica,sans-Serif" font-size="10.00">applySettings</text>
</a>
</g>
</g>
<!-- Node4&#45;&gt;Node5 -->
<g id="edge4_Node000004_Node000005" class="edge">
<title>Node4&#45;&gt;Node5</title>
<g id="a_edge4_Node000004_Node000005"><a xlink:title=" ">
<path fill="none" stroke="#63b8ff" d="M292.12,-58.75C282.44,-59.96 272.94,-61.14 264.23,-62.22"/>
<polygon fill="#63b8ff" stroke="#63b8ff" points="292.75,-62.2 302.24,-57.5 291.89,-55.26 292.75,-62.2"/>
</a>
</g>
</g>
<!-- Node9 -->
<g id="Node000009" class="node">
<title>Node9</title>
<g id="a_Node000009"><a xlink:href="i2c__basic_8ino.html#a4fc01d736fe50cf5b977f755b675f11d" target="_top" xlink:title="Configure Serial, I2C, sensor identity check, and enabled sensors.">
<polygon fill="white" stroke="#666666" points="244.5,-39.78 200.5,-39.78 200.5,-20.78 244.5,-20.78 244.5,-39.78"/>
<text text-anchor="middle" x="222.5" y="-27.78" font-family="Helvetica,sans-Serif" font-size="10.00">setup</text>
</a>
</g>
</g>
<!-- Node4&#45;&gt;Node9 -->
<g id="edge8_Node000004_Node000009" class="edge">
<title>Node4&#45;&gt;Node9</title>
<g id="a_edge8_Node000004_Node000009"><a xlink:title=" ">
<path fill="none" stroke="#63b8ff" d="M291.83,-38.32C274.22,-36.24 257.2,-34.24 244.54,-32.75"/>
<polygon fill="#63b8ff" stroke="#63b8ff" points="291.9,-41.85 302.24,-39.54 292.72,-34.9 291.9,-41.85"/>
</a>
</g>
</g>
<!-- Node6 -->
<g id="Node000006" class="node">
<title>Node6</title>
<g id="a_Node000006"><a xlink:href="gyr__test_8ino.html#a59a0400232b9ffe7d4395b166f74593a" target="_top" xlink:title="Run the gyroscope validation sweep and print each captured sample.">
<polygon fill="white" stroke="#666666" points="145,-76.78 80,-76.78 80,-57.78 145,-57.78 145,-76.78"/>
<text text-anchor="middle" x="112.5" y="-64.78" font-family="Helvetica,sans-Serif" font-size="10.00">runSweep</text>
</a>
</g>
</g>
<!-- Node5&#45;&gt;Node6 -->
<g id="edge5_Node000005_Node000006" class="edge">
<title>Node5&#45;&gt;Node6</title>
<g id="a_edge5_Node000005_Node000006"><a xlink:title=" ">
<path fill="none" stroke="#63b8ff" d="M170.81,-67.28C162.06,-67.28 153.2,-67.28 145.14,-67.28"/>
<polygon fill="#63b8ff" stroke="#63b8ff" points="170.98,-70.78 180.98,-67.28 170.98,-63.78 170.98,-70.78"/>
</a>
</g>
</g>
<!-- Node8 -->
<g id="Node000008" class="node">
<title>Node8</title>
<g id="a_Node000008"><a xlink:href="mag__test_8ino.html#a4fc01d736fe50cf5b977f755b675f11d" target="_top" xlink:title="Initialize I2C, verify the IMU, enable sensors, and start the sweep.">
<polygon fill="white" stroke="#666666" points="134.5,-39.78 90.5,-39.78 90.5,-20.78 134.5,-20.78 134.5,-39.78"/>
<text text-anchor="middle" x="112.5" y="-27.78" font-family="Helvetica,sans-Serif" font-size="10.00">setup</text>
</a>
</g>
</g>
<!-- Node5&#45;&gt;Node8 -->
<g id="edge7_Node000005_Node000008" class="edge">
<title>Node5&#45;&gt;Node8</title>
<g id="a_edge7_Node000005_Node000008"><a xlink:title=" ">
<path fill="none" stroke="#63b8ff" d="M183.8,-54.36C167.36,-48.73 148.7,-42.34 134.74,-37.55"/>
<polygon fill="#63b8ff" stroke="#63b8ff" points="183.09,-57.82 193.69,-57.75 185.36,-51.2 183.09,-57.82"/>
</a>
</g>
</g>
<!-- Node6&#45;&gt;Node7 -->
<g id="edge6_Node000006_Node000007" class="edge">
<title>Node6&#45;&gt;Node7</title>
<g id="a_edge6_Node000006_Node000007"><a xlink:title=" ">
<path fill="none" stroke="#63b8ff" d="M79.63,-53.59C67.82,-48.52 54.72,-42.9 44.11,-38.34"/>
<polygon fill="#63b8ff" stroke="#63b8ff" points="78.6,-56.96 89.17,-57.69 81.36,-50.53 78.6,-56.96"/>
</a>
</g>
</g>
</g>
</svg>
