<?xml version="1.0" encoding="UTF-8" standalone="no"?>
<!DOCTYPE svg PUBLIC "-//W3C//DTD SVG 1.1//EN"
 "http://www.w3.org/Graphics/SVG/1.1/DTD/svg11.dtd">
<!-- Generated by graphviz version 2.43.0 (0)
 -->
<!-- Title: BusIO_7Semi::read Pages: 1 -->
<svg width="445pt" height="156pt"
 viewBox="0.00 0.00 445.00 156.00" xmlns="http://www.w3.org/2000/svg" xmlns:xlink="http://www.w3.org/1999/xlink">
<g id="graph0" class="graph" transform="scale(1 1) rotate(0) translate(4 152)">
<title>BusIO_7Semi::read</title>
<!-- Node1 -->
<g id="Node000001" class="node">
<title>Node1</title>
<g id="a_Node000001"><a xlink:title=" ">
<polygon fill="#999999" stroke="#666666" points="437,-92 328,-92 328,-73 437,-73 437,-92"/>
<text text-anchor="middle" x="382.5" y="-80" font-family="Helvetica,sans-Serif" font-size="10.00">BusIO_7Semi::read</text>
</a>
</g>
</g>
<!-- Node2 -->
<g id="Node000002" class="node">
<title>Node2</title>
<g id="a_Node000002"><a xlink:href="classBusIO__7Semi.html#a15f260e24f2c2f806965744c40f0f52f" target="_top" xlink:title=" ">
<polygon fill="white" stroke="#666666" points="290.5,-148 162.5,-148 162.5,-129 290.5,-129 290.5,-148"/>
<text text-anchor="middle" x="226.5" y="-136" font-family="Helvetica,sans-Serif" font-size="10.00">BusIO_7Semi::readBits</text>
</a>
</g>
</g>
<!-- Node1&#45;&gt;Node2 -->
<g id="edge1_Node000001_Node000002" class="edge">
<title>Node1&#45;&gt;Node2</title>
<g id="a_edge1_Node000001_Node000002"><a xlink:title=" ">
<path fill="none" stroke="#63b8ff" d="M351.66,-96.31C334.44,-104 312.24,-113.41 292,-120.5 283.33,-123.54 273.87,-126.41 264.93,-128.94"/>
<polygon fill="#63b8ff" stroke="#63b8ff" points="353.5,-99.32 361.18,-92.02 350.62,-92.94 353.5,-99.32"/>
</a>
</g>
</g>
<!-- Node3 -->
<g id="Node000003" class="node">
<title>Node3</title>
<g id="a_Node000003"><a xlink:href="classBusIO__7Semi.html#aed7b0973e323495f8516a0d253089af8" target="_top" xlink:title=" ">
<polygon fill="white" stroke="#666666" points="290.5,-111 162.5,-111 162.5,-92 290.5,-92 290.5,-111"/>
<text text-anchor="middle" x="226.5" y="-99" font-family="Helvetica,sans-Serif" font-size="10.00">BusIO_7Semi::readBits</text>
</a>
</g>
</g>
<!-- Node1&#45;&gt;Node3 -->
<g id="edge2_Node000001_Node000003" class="edge">
<title>Node1&#45;&gt;Node3</title>
<g id="a_edge2_Node000001_Node000003"><a xlink:title=" ">
<path fill="none" stroke="#63b8ff" d="M317.66,-90.38C308.71,-91.48 299.51,-92.62 290.58,-93.72"/>
<polygon fill="#63b8ff" stroke="#63b8ff" points="318.14,-93.84 327.64,-89.15 317.28,-86.9 318.14,-93.84"/>
</a>
</g>
</g>
<!-- Node6 -->
<g id="Node000006" class="node">
<title>Node6</title>
<g id="a_Node000006"><a xlink:href="classBusIO__7Semi.html#af38d37d409c6d8bc956522465fa39390" target="_top" xlink:title=" ">
<polygon fill="white" stroke="#666666" points="292,-74 161,-74 161,-55 292,-55 292,-74"/>
<text text-anchor="middle" x="226.5" y="-62" font-family="Helvetica,sans-Serif" font-size="10.00">BusIO_7Semi::writeBits</text>
</a>
</g>
</g>
<!-- Node1&#45;&gt;Node6 -->
<g id="edge5_Node000001_Node000006" class="edge">
<title>Node1&#45;&gt;Node6</title>
<g id="a_edge5_Node000001_Node000006"><a xlink:title=" ">
<path fill="none" stroke="#63b8ff" d="M317.55,-75.03C309.17,-74.05 300.57,-73.04 292.18,-72.06"/>
<polygon fill="#63b8ff" stroke="#63b8ff" points="317.3,-78.52 327.64,-76.2 318.11,-71.57 317.3,-78.52"/>
</a>
</g>
</g>
<!-- Node7 -->
<g id="Node000007" class="node">
<title>Node7</title>
<g id="a_Node000007"><a xlink:href="classBusIO__7Semi.html#a855c7388d4118e632c84c7f8e2e3ddc2" target="_top" xlink:title=" ">
<polygon fill="white" stroke="#666666" points="292,-37 161,-37 161,-18 292,-18 292,-37"/>
<text text-anchor="middle" x="226.5" y="-25" font-family="Helvetica,sans-Serif" font-size="10.00">BusIO_7Semi::writeBits</text>
</a>
</g>
</g>
<!-- Node1&#45;&gt;Node7 -->
<g id="edge6_Node000001_Node000007" class="edge">
<title>Node1&#45;&gt;Node7</title>
<g id="a_edge6_Node000001_Node000007"><a xlink:title=" ">
<path fill="none" stroke="#63b8ff" d="M349.84,-68.9C332.84,-61.82 311.44,-53.26 292,-46.5 282.41,-43.17 271.88,-39.9 262.17,-37.05"/>
<polygon fill="#63b8ff" stroke="#63b8ff" points="348.71,-72.23 359.29,-72.87 351.43,-65.77 348.71,-72.23"/>
</a>
</g>
</g>
<!-- Node4 -->
<g id="Node000004" class="node">
<title>Node4</title>
<g id="a_Node000004"><a xlink:href="classBusIO__7Semi.html#a51b4ef7309cdfddaa3c94d99eac09065" target="_top" xlink:title=" ">
<polygon fill="white" stroke="#666666" points="123.5,-139 1.5,-139 1.5,-120 123.5,-120 123.5,-139"/>
<text text-anchor="middle" x="62.5" y="-127" font-family="Helvetica,sans-Serif" font-size="10.00">BusIO_7Semi::readBit</text>
</a>
</g>
</g>
<!-- Node3&#45;&gt;Node4 -->
<g id="edge3_Node000003_Node000004" class="edge">
<title>Node3&#45;&gt;Node4</title>
<g id="a_edge3_Node000003_Node000004"><a xlink:title=" ">
<path fill="none" stroke="#63b8ff" d="M160.27,-112.78C146.43,-115.17 131.96,-117.67 118.55,-119.99"/>
<polygon fill="#63b8ff" stroke="#63b8ff" points="160.94,-116.21 170.2,-111.06 159.75,-109.31 160.94,-116.21"/>
</a>
</g>
</g>
<!-- Node5 -->
<g id="Node000005" class="node">
<title>Node5</title>
<g id="a_Node000005"><a xlink:href="classBusIO__7Semi.html#a0d76100d6e83237e0ee97eba7044147d" target="_top" xlink:title=" ">
<polygon fill="white" stroke="#666666" points="123.5,-102 1.5,-102 1.5,-83 123.5,-83 123.5,-102"/>
<text text-anchor="middle" x="62.5" y="-90" font-family="Helvetica,sans-Serif" font-size="10.00">BusIO_7Semi::readBit</text>
</a>
</g>
</g>
<!-- Node3&#45;&gt;Node5 -->
<g id="edge4_Node000003_Node000005" class="edge">
<title>Node3&#45;&gt;Node5</title>
<g id="a_edge4_Node000003_Node000005"><a xlink:title=" ">
<path fill="none" stroke="#63b8ff" d="M152.41,-97.44C142.74,-96.9 132.92,-96.36 123.51,-95.83"/>
<polygon fill="#63b8ff" stroke="#63b8ff" points="152.22,-100.93 162.4,-97.99 152.61,-93.95 152.22,-100.93"/>
</a>
</g>
</g>
<!-- Node8 -->
<g id="Node000008" class="node">
<title>Node8</title>
<g id="a_Node000008"><a xlink:href="classBusIO__7Semi.html#a6a07d4bd0a308294b37166b6d25209b2" target="_top" xlink:title=" ">
<polygon fill="white" stroke="#666666" points="125,-56 0,-56 0,-37 125,-37 125,-56"/>
<text text-anchor="middle" x="62.5" y="-44" font-family="Helvetica,sans-Serif" font-size="10.00">BusIO_7Semi::writeBit</text>
</a>
</g>
</g>
<!-- Node7&#45;&gt;Node8 -->
<g id="edge7_Node000007_Node000008" class="edge">
<title>Node7&#45;&gt;Node8</title>
<g id="a_edge7_Node000007_Node000008"><a xlink:title=" ">
<path fill="none" stroke="#63b8ff" d="M150.58,-36.29C142.03,-37.29 133.4,-38.3 125.05,-39.28"/>
<polygon fill="#63b8ff" stroke="#63b8ff" points="151.02,-39.76 160.54,-35.12 150.2,-32.81 151.02,-39.76"/>
</a>
</g>
</g>
<!-- Node9 -->
<g id="Node000009" class="node">
<title>Node9</title>
<g id="a_Node000009"><a xlink:href="classBusIO__7Semi.html#ac7b3d1c425f7187abbe1bbec64d9ccea" target="_top" xlink:title=" ">
<polygon fill="white" stroke="#666666" points="125,-19 0,-19 0,0 125,0 125,-19"/>
<text text-anchor="middle" x="62.5" y="-7" font-family="Helvetica,sans-Serif" font-size="10.00">BusIO_7Semi::writeBit</text>
</a>
</g>
</g>
<!-- Node7&#45;&gt;Node9 -->
<g id="edge8_Node000007_Node000009" class="edge">
<title>Node7&#45;&gt;Node9</title>
<g id="a_edge8_Node000007_Node000009"><a xlink:title=" ">
<path fill="none" stroke="#63b8ff" d="M150.58,-19.18C142.03,-18.23 133.4,-17.27 125.05,-16.34"/>
<polygon fill="#63b8ff" stroke="#63b8ff" points="150.22,-22.66 160.54,-20.28 150.99,-15.7 150.22,-22.66"/>
</a>
</g>
</g>
</g>
</svg>
