<?xml version="1.0" encoding="UTF-8" standalone="no"?>
<!DOCTYPE svg PUBLIC "-//W3C//DTD SVG 1.1//EN"
 "http://www.w3.org/Graphics/SVG/1.1/DTD/svg11.dtd">
<!-- Generated by graphviz version 2.43.0 (0)
 -->
<!-- Title: DevLab_ICM20948::applyBasicDefaults Pages: 1 -->
<svg width="447pt" height="101pt"
 viewBox="0.00 0.00 447.00 101.00" xmlns="http://www.w3.org/2000/svg" xmlns:xlink="http://www.w3.org/1999/xlink">
<g id="graph0" class="graph" transform="scale(1 1) rotate(0) translate(4 97)">
<title>DevLab_ICM20948::applyBasicDefaults</title>
<!-- Node1 -->
<g id="Node000001" class="node">
<title>Node1</title>
<g id="a_Node000001"><a xlink:title=" ">
<polygon fill="#999999" stroke="#666666" points="439,-61.5 272,-61.5 272,-31.5 439,-31.5 439,-61.5"/>
<text text-anchor="start" x="280" y="-49.5" font-family="Helvetica,sans-Serif" font-size="10.00">DevLab_ICM20948::applyBasic</text>
<text text-anchor="middle" x="355.5" y="-38.5" font-family="Helvetica,sans-Serif" font-size="10.00">Defaults</text>
</a>
</g>
</g>
<!-- Node2 -->
<g id="Node000002" class="node">
<title>Node2</title>
<g id="a_Node000002"><a xlink:href="classDevLab__ICM20948.html#a91147b3cd4c45bffc8e024f985be7b21" target="_top" xlink:title=" ">
<polygon fill="white" stroke="#666666" points="236,-93 80,-93 80,-74 236,-74 236,-93"/>
<text text-anchor="middle" x="158" y="-81" font-family="Helvetica,sans-Serif" font-size="10.00">DevLab_ICM20948::beginI2C</text>
</a>
</g>
</g>
<!-- Node1&#45;&gt;Node2 -->
<g id="edge1_Node000001_Node000002" class="edge">
<title>Node1&#45;&gt;Node2</title>
<g id="a_edge1_Node000001_Node000002"><a xlink:title=" ">
<path fill="none" stroke="#63b8ff" d="M265.03,-63.43C245.88,-67.06 226.31,-70.76 209.28,-73.98"/>
<polygon fill="#63b8ff" stroke="#63b8ff" points="265.81,-66.85 274.98,-61.55 264.51,-59.97 265.81,-66.85"/>
</a>
</g>
</g>
<!-- Node4 -->
<g id="Node000004" class="node">
<title>Node4</title>
<g id="a_Node000004"><a xlink:href="classDevLab__ICM20948.html#a4386f310503153f3e28935cbdda75b18" target="_top" xlink:title=" ">
<polygon fill="white" stroke="#666666" points="235.5,-56 80.5,-56 80.5,-37 235.5,-37 235.5,-56"/>
<text text-anchor="middle" x="158" y="-44" font-family="Helvetica,sans-Serif" font-size="10.00">DevLab_ICM20948::beginSPI</text>
</a>
</g>
</g>
<!-- Node1&#45;&gt;Node4 -->
<g id="edge3_Node000001_Node000004" class="edge">
<title>Node1&#45;&gt;Node4</title>
<g id="a_edge3_Node000001_Node000004"><a xlink:title=" ">
<path fill="none" stroke="#63b8ff" d="M261.7,-46.5C253.01,-46.5 244.26,-46.5 235.73,-46.5"/>
<polygon fill="#63b8ff" stroke="#63b8ff" points="261.87,-50 271.87,-46.5 261.87,-43 261.87,-50"/>
</a>
</g>
</g>
<!-- Node6 -->
<g id="Node000006" class="node">
<title>Node6</title>
<g id="a_Node000006"><a xlink:href="i2c__gyro_8ino.html#a4fc01d736fe50cf5b977f755b675f11d" target="_top" xlink:title="Configure the IMU for gyroscope&#45;only operation over I2C.">
<polygon fill="white" stroke="#666666" points="180,-19 136,-19 136,0 180,0 180,-19"/>
<text text-anchor="middle" x="158" y="-7" font-family="Helvetica,sans-Serif" font-size="10.00">setup</text>
</a>
</g>
</g>
<!-- Node1&#45;&gt;Node6 -->
<g id="edge5_Node000001_Node000006" class="edge">
<title>Node1&#45;&gt;Node6</title>
<g id="a_edge5_Node000001_Node000006"><a xlink:title=" ">
<path fill="none" stroke="#63b8ff" d="M264.81,-29.53C233.32,-23.57 200.7,-17.39 180.15,-13.5"/>
<polygon fill="#63b8ff" stroke="#63b8ff" points="264.51,-33.03 274.98,-31.45 265.81,-26.15 264.51,-33.03"/>
</a>
</g>
</g>
<!-- Node3 -->
<g id="Node000003" class="node">
<title>Node3</title>
<g id="a_Node000003"><a xlink:href="gyr__test_8ino.html#a4fc01d736fe50cf5b977f755b675f11d" target="_top" xlink:title="Initialize I2C, reset/wake the IMU, enable gyro, and start the sweep.">
<polygon fill="white" stroke="#666666" points="44,-93 0,-93 0,-74 44,-74 44,-93"/>
<text text-anchor="middle" x="22" y="-81" font-family="Helvetica,sans-Serif" font-size="10.00">setup</text>
</a>
</g>
</g>
<!-- Node2&#45;&gt;Node3 -->
<g id="edge2_Node000002_Node000003" class="edge">
<title>Node2&#45;&gt;Node3</title>
<g id="a_edge2_Node000002_Node000003"><a xlink:title=" ">
<path fill="none" stroke="#63b8ff" d="M69.8,-83.5C60.35,-83.5 51.49,-83.5 44.08,-83.5"/>
<polygon fill="#63b8ff" stroke="#63b8ff" points="69.83,-87 79.83,-83.5 69.83,-80 69.83,-87"/>
</a>
</g>
</g>
<!-- Node5 -->
<g id="Node000005" class="node">
<title>Node5</title>
<g id="a_Node000005"><a xlink:href="spi__accel_8ino.html#a4fc01d736fe50cf5b977f755b675f11d" target="_top" xlink:title="Configure the IMU for accelerometer&#45;only operation over SPI.">
<polygon fill="white" stroke="#666666" points="44,-56 0,-56 0,-37 44,-37 44,-56"/>
<text text-anchor="middle" x="22" y="-44" font-family="Helvetica,sans-Serif" font-size="10.00">setup</text>
</a>
</g>
</g>
<!-- Node4&#45;&gt;Node5 -->
<g id="edge4_Node000004_Node000005" class="edge">
<title>Node4&#45;&gt;Node5</title>
<g id="a_edge4_Node000004_Node000005"><a xlink:title=" ">
<path fill="none" stroke="#63b8ff" d="M70.13,-46.5C60.63,-46.5 51.71,-46.5 44.24,-46.5"/>
<polygon fill="#63b8ff" stroke="#63b8ff" points="70.22,-50 80.22,-46.5 70.22,-43 70.22,-50"/>
</a>
</g>
</g>
</g>
</svg>
