<?xml version="1.0" encoding="UTF-8" standalone="no"?>
<!DOCTYPE svg PUBLIC "-//W3C//DTD SVG 1.1//EN"
 "http://www.w3.org/Graphics/SVG/1.1/DTD/svg11.dtd">
<!-- Generated by graphviz version 2.43.0 (0)
 -->
<!-- Title: DevLab_ICM20948::applyBasicDefaults Pages: 1 -->
<svg width="367pt" height="64pt"
 viewBox="0.00 0.00 367.00 64.00" xmlns="http://www.w3.org/2000/svg" xmlns:xlink="http://www.w3.org/1999/xlink">
<g id="graph0" class="graph" transform="scale(1 1) rotate(0) translate(4 60)">
<title>DevLab_ICM20948::applyBasicDefaults</title>
<!-- Node1 -->
<g id="Node000001" class="node">
<title>Node1</title>
<g id="a_Node000001"><a xlink:title=" ">
<polygon fill="#999999" stroke="#666666" points="359,-42.5 192,-42.5 192,-12.5 359,-12.5 359,-42.5"/>
<text text-anchor="start" x="200" y="-30.5" font-family="Helvetica,sans-Serif" font-size="10.00">DevLab_ICM20948::applyBasic</text>
<text text-anchor="middle" x="275.5" y="-19.5" font-family="Helvetica,sans-Serif" font-size="10.00">Defaults</text>
</a>
</g>
</g>
<!-- Node2 -->
<g id="Node000002" class="node">
<title>Node2</title>
<g id="a_Node000002"><a xlink:href="classDevLab__ICM20948.html#a91147b3cd4c45bffc8e024f985be7b21" target="_top" xlink:title=" ">
<polygon fill="white" stroke="#666666" points="156,-56 0,-56 0,-37 156,-37 156,-56"/>
<text text-anchor="middle" x="78" y="-44" font-family="Helvetica,sans-Serif" font-size="10.00">DevLab_ICM20948::beginI2C</text>
</a>
</g>
</g>
<!-- Node1&#45;&gt;Node2 -->
<g id="edge1_Node000001_Node000002" class="edge">
<title>Node1&#45;&gt;Node2</title>
<g id="a_edge1_Node000001_Node000002"><a xlink:title=" ">
<path fill="none" stroke="#63b8ff" d="M181.79,-36.51C173.17,-37.35 164.5,-38.19 156.04,-39.01"/>
<polygon fill="#63b8ff" stroke="#63b8ff" points="182.26,-39.98 191.87,-35.53 181.58,-33.01 182.26,-39.98"/>
</a>
</g>
</g>
<!-- Node3 -->
<g id="Node000003" class="node">
<title>Node3</title>
<g id="a_Node000003"><a xlink:href="classDevLab__ICM20948.html#a4386f310503153f3e28935cbdda75b18" target="_top" xlink:title=" ">
<polygon fill="white" stroke="#666666" points="155.5,-19 0.5,-19 0.5,0 155.5,0 155.5,-19"/>
<text text-anchor="middle" x="78" y="-7" font-family="Helvetica,sans-Serif" font-size="10.00">DevLab_ICM20948::beginSPI</text>
</a>
</g>
</g>
<!-- Node1&#45;&gt;Node3 -->
<g id="edge2_Node000001_Node000003" class="edge">
<title>Node1&#45;&gt;Node3</title>
<g id="a_edge2_Node000001_Node000003"><a xlink:title=" ">
<path fill="none" stroke="#63b8ff" d="M181.7,-18.96C173.01,-18.16 164.26,-17.35 155.73,-16.56"/>
<polygon fill="#63b8ff" stroke="#63b8ff" points="181.59,-22.46 191.87,-19.89 182.24,-15.49 181.59,-22.46"/>
</a>
</g>
</g>
</g>
</svg>
