<?xml version="1.0" encoding="UTF-8" standalone="no"?>
<!DOCTYPE svg PUBLIC "-//W3C//DTD SVG 1.1//EN"
 "http://www.w3.org/Graphics/SVG/1.1/DTD/svg11.dtd">
<!-- Generated by graphviz version 2.43.0 (0)
 -->
<!-- Title: BusIO_7Semi::writeBit Pages: 1 -->
<svg width="467pt" height="347pt"
 viewBox="0.00 0.00 467.00 346.50" xmlns="http://www.w3.org/2000/svg" xmlns:xlink="http://www.w3.org/1999/xlink">
<g id="graph0" class="graph" transform="scale(1 1) rotate(0) translate(4 342.5)">
<title>BusIO_7Semi::writeBit</title>
<!-- Node1 -->
<g id="Node000001" class="node">
<title>Node1</title>
<g id="a_Node000001"><a xlink:title=" ">
<polygon fill="#999999" stroke="#666666" points="459,-167 334,-167 334,-148 459,-148 459,-167"/>
<text text-anchor="middle" x="396.5" y="-155" font-family="Helvetica,sans-Serif" font-size="10.00">BusIO_7Semi::writeBit</text>
</a>
</g>
</g>
<!-- Node2 -->
<g id="Node000002" class="node">
<title>Node2</title>
<g id="a_Node000002"><a xlink:href="classDevLab__ICM20948.html#aab027c72832d1c7ec722187e6a64796a" target="_top" xlink:title=" ">
<polygon fill="white" stroke="#666666" points="291,-338.5 126,-338.5 126,-308.5 291,-308.5 291,-338.5"/>
<text text-anchor="start" x="134" y="-326.5" font-family="Helvetica,sans-Serif" font-size="10.00">DevLab_ICM20948::auxMaster</text>
<text text-anchor="middle" x="208.5" y="-315.5" font-family="Helvetica,sans-Serif" font-size="10.00">Enable</text>
</a>
</g>
</g>
<!-- Node1&#45;&gt;Node2 -->
<g id="edge1_Node000001_Node000002" class="edge">
<title>Node1&#45;&gt;Node2</title>
<g id="a_edge1_Node000001_Node000002"><a xlink:title=" ">
<path fill="none" stroke="#63b8ff" d="M387.61,-176.74C374,-207.48 343.17,-267.46 298,-299.5 293.2,-302.91 287.93,-305.83 282.44,-308.34"/>
<polygon fill="#63b8ff" stroke="#63b8ff" points="390.99,-177.75 391.7,-167.18 384.55,-175 390.99,-177.75"/>
</a>
</g>
</g>
<!-- Node3 -->
<g id="Node000003" class="node">
<title>Node3</title>
<g id="a_Node000003"><a xlink:href="classDevLab__ICM20948.html#a91147b3cd4c45bffc8e024f985be7b21" target="_top" xlink:title=" ">
<polygon fill="white" stroke="#666666" points="286.5,-130 130.5,-130 130.5,-111 286.5,-111 286.5,-130"/>
<text text-anchor="middle" x="208.5" y="-118" font-family="Helvetica,sans-Serif" font-size="10.00">DevLab_ICM20948::beginI2C</text>
</a>
</g>
</g>
<!-- Node1&#45;&gt;Node3 -->
<g id="edge2_Node000001_Node000003" class="edge">
<title>Node1&#45;&gt;Node3</title>
<g id="a_edge2_Node000001_Node000003"><a xlink:title=" ">
<path fill="none" stroke="#63b8ff" d="M337.61,-145.98C311.9,-140.87 282.01,-134.92 257.56,-130.06"/>
<polygon fill="#63b8ff" stroke="#63b8ff" points="337.11,-149.45 347.6,-147.97 338.48,-142.59 337.11,-149.45"/>
</a>
</g>
</g>
<!-- Node5 -->
<g id="Node000005" class="node">
<title>Node5</title>
<g id="a_Node000005"><a xlink:href="classDevLab__ICM20948.html#a4386f310503153f3e28935cbdda75b18" target="_top" xlink:title=" ">
<polygon fill="white" stroke="#666666" points="286,-290 131,-290 131,-271 286,-271 286,-290"/>
<text text-anchor="middle" x="208.5" y="-278" font-family="Helvetica,sans-Serif" font-size="10.00">DevLab_ICM20948::beginSPI</text>
</a>
</g>
</g>
<!-- Node1&#45;&gt;Node5 -->
<g id="edge4_Node000001_Node000005" class="edge">
<title>Node1&#45;&gt;Node5</title>
<g id="a_edge4_Node000001_Node000005"><a xlink:title=" ">
<path fill="none" stroke="#63b8ff" d="M383.98,-175.7C367.83,-199.63 336.11,-241.11 298,-262.5 291.98,-265.88 285.42,-268.63 278.68,-270.86"/>
<polygon fill="#63b8ff" stroke="#63b8ff" points="387.01,-177.47 389.57,-167.19 381.16,-173.63 387.01,-177.47"/>
</a>
</g>
</g>
<!-- Node7 -->
<g id="Node000007" class="node">
<title>Node7</title>
<g id="a_Node000007"><a xlink:href="classDevLab__ICM20948.html#adfbd409c7723007d208c82550098a649" target="_top" xlink:title=" ">
<polygon fill="white" stroke="#666666" points="284,-215.5 133,-215.5 133,-185.5 284,-185.5 284,-215.5"/>
<text text-anchor="start" x="141" y="-203.5" font-family="Helvetica,sans-Serif" font-size="10.00">DevLab_ICM20948::selfTest</text>
<text text-anchor="middle" x="208.5" y="-192.5" font-family="Helvetica,sans-Serif" font-size="10.00">Accel</text>
</a>
</g>
</g>
<!-- Node1&#45;&gt;Node7 -->
<g id="edge6_Node000001_Node000007" class="edge">
<title>Node1&#45;&gt;Node7</title>
<g id="a_edge6_Node000001_Node000007"><a xlink:title=" ">
<path fill="none" stroke="#63b8ff" d="M344.27,-169.34C322.68,-174.34 297.29,-180.2 274.41,-185.49"/>
<polygon fill="#63b8ff" stroke="#63b8ff" points="345.27,-172.71 354.22,-167.04 343.69,-165.89 345.27,-172.71"/>
</a>
</g>
</g>
<!-- Node8 -->
<g id="Node000008" class="node">
<title>Node8</title>
<g id="a_Node000008"><a xlink:href="classDevLab__ICM20948.html#a9d7602ece2c3908e7bbb2acd45dff156" target="_top" xlink:title=" ">
<polygon fill="white" stroke="#666666" points="295.5,-167 121.5,-167 121.5,-148 295.5,-148 295.5,-167"/>
<text text-anchor="middle" x="208.5" y="-155" font-family="Helvetica,sans-Serif" font-size="10.00">DevLab_ICM20948::selfTestGyro</text>
</a>
</g>
</g>
<!-- Node1&#45;&gt;Node8 -->
<g id="edge7_Node000001_Node000008" class="edge">
<title>Node1&#45;&gt;Node8</title>
<g id="a_edge7_Node000001_Node000008"><a xlink:title=" ">
<path fill="none" stroke="#63b8ff" d="M323.6,-157.5C314.41,-157.5 304.94,-157.5 295.56,-157.5"/>
<polygon fill="#63b8ff" stroke="#63b8ff" points="323.82,-161 333.82,-157.5 323.82,-154 323.82,-161"/>
</a>
</g>
</g>
<!-- Node9 -->
<g id="Node000009" class="node">
<title>Node9</title>
<g id="a_Node000009"><a xlink:href="classDevLab__ICM20948.html#ac52d80aad738b90aa0f05e9d6404bb85" target="_top" xlink:title=" ">
<polygon fill="white" stroke="#666666" points="298,-93 119,-93 119,-74 298,-74 298,-93"/>
<text text-anchor="middle" x="208.5" y="-81" font-family="Helvetica,sans-Serif" font-size="10.00">DevLab_ICM20948::setAccelDLPF</text>
</a>
</g>
</g>
<!-- Node1&#45;&gt;Node9 -->
<g id="edge8_Node000001_Node000009" class="edge">
<title>Node1&#45;&gt;Node9</title>
<g id="a_edge8_Node000001_Node000009"><a xlink:title=" ">
<path fill="none" stroke="#63b8ff" d="M373.03,-142.22C353.87,-129.84 325.17,-112.81 298,-102.5 288.01,-98.71 277.08,-95.59 266.42,-93.06"/>
<polygon fill="#63b8ff" stroke="#63b8ff" points="371.35,-145.3 381.63,-147.88 375.2,-139.46 371.35,-145.3"/>
</a>
</g>
</g>
<!-- Node13 -->
<g id="Node000013" class="node">
<title>Node13</title>
<g id="a_Node000013"><a xlink:href="classDevLab__ICM20948.html#a0bea2c662c285120253851c80289e077" target="_top" xlink:title=" ">
<polygon fill="white" stroke="#666666" points="285,-19 132,-19 132,0 285,0 285,-19"/>
<text text-anchor="middle" x="208.5" y="-7" font-family="Helvetica,sans-Serif" font-size="10.00">DevLab_ICM20948::setDLPF</text>
</a>
</g>
</g>
<!-- Node1&#45;&gt;Node13 -->
<g id="edge12_Node000001_Node000013" class="edge">
<title>Node1&#45;&gt;Node13</title>
<g id="a_edge12_Node000001_Node000013"><a xlink:title=" ">
<path fill="none" stroke="#63b8ff" d="M386.78,-138.35C372.56,-109.42 341.53,-55.03 298,-27.5 292.7,-24.15 286.89,-21.4 280.87,-19.16"/>
<polygon fill="#63b8ff" stroke="#63b8ff" points="383.8,-140.23 391.25,-147.76 390.12,-137.22 383.8,-140.23"/>
</a>
</g>
</g>
<!-- Node15 -->
<g id="Node000015" class="node">
<title>Node15</title>
<g id="a_Node000015"><a xlink:href="classDevLab__ICM20948.html#a6c9c09f8b2ab39f5de7f48c6c743ffc4" target="_top" xlink:title=" ">
<polygon fill="white" stroke="#666666" points="297.5,-56 119.5,-56 119.5,-37 297.5,-37 297.5,-56"/>
<text text-anchor="middle" x="208.5" y="-44" font-family="Helvetica,sans-Serif" font-size="10.00">DevLab_ICM20948::setLowPower</text>
</a>
</g>
</g>
<!-- Node1&#45;&gt;Node15 -->
<g id="edge14_Node000001_Node000015" class="edge">
<title>Node1&#45;&gt;Node15</title>
<g id="a_edge14_Node000001_Node000015"><a xlink:title=" ">
<path fill="none" stroke="#63b8ff" d="M382.16,-140.07C365.04,-119 333.31,-84.06 298,-65.5 290.63,-61.62 282.51,-58.54 274.28,-56.08"/>
<polygon fill="#63b8ff" stroke="#63b8ff" points="379.42,-142.25 388.37,-147.92 384.9,-137.9 379.42,-142.25"/>
</a>
</g>
</g>
<!-- Node16 -->
<g id="Node000016" class="node">
<title>Node16</title>
<g id="a_Node000016"><a xlink:href="classDevLab__ICM20948.html#ae9c088334d6ec706bb08b47ef29bd186" target="_top" xlink:title=" ">
<polygon fill="white" stroke="#666666" points="292,-253 125,-253 125,-234 292,-234 292,-253"/>
<text text-anchor="middle" x="208.5" y="-241" font-family="Helvetica,sans-Serif" font-size="10.00">DevLab_ICM20948::setSensors</text>
</a>
</g>
</g>
<!-- Node1&#45;&gt;Node16 -->
<g id="edge15_Node000001_Node000016" class="edge">
<title>Node1&#45;&gt;Node16</title>
<g id="a_edge15_Node000001_Node000016"><a xlink:title=" ">
<path fill="none" stroke="#63b8ff" d="M376.92,-173.59C358.22,-188.95 327.93,-211.6 298,-224.5 289.05,-228.35 279.25,-231.46 269.53,-233.94"/>
<polygon fill="#63b8ff" stroke="#63b8ff" points="379.24,-176.22 384.66,-167.11 374.75,-170.85 379.24,-176.22"/>
</a>
</g>
</g>
<!-- Node4 -->
<g id="Node000004" class="node">
<title>Node4</title>
<g id="a_Node000004"><a xlink:href="gyr__test_8ino.html#a4fc01d736fe50cf5b977f755b675f11d" target="_top" xlink:title="Initialize I2C, reset/wake the IMU, enable gyro, and start the sweep.">
<polygon fill="white" stroke="#666666" points="63.5,-210 19.5,-210 19.5,-191 63.5,-191 63.5,-210"/>
<text text-anchor="middle" x="41.5" y="-198" font-family="Helvetica,sans-Serif" font-size="10.00">setup</text>
</a>
</g>
</g>
<!-- Node3&#45;&gt;Node4 -->
<g id="edge3_Node000003_Node000004" class="edge">
<title>Node3&#45;&gt;Node4</title>
<g id="a_edge3_Node000003_Node000004"><a xlink:title=" ">
<path fill="none" stroke="#63b8ff" d="M135.62,-132.94C129.89,-134.83 124.28,-137 119,-139.5 91.67,-152.44 65.36,-176.88 51.87,-190.57"/>
<polygon fill="#63b8ff" stroke="#63b8ff" points="136.78,-136.24 145.35,-130.01 134.77,-129.54 136.78,-136.24"/>
</a>
</g>
</g>
<!-- Node6 -->
<g id="Node000006" class="node">
<title>Node6</title>
<g id="a_Node000006"><a xlink:href="spi__accel_8ino.html#a4fc01d736fe50cf5b977f755b675f11d" target="_top" xlink:title="Configure the IMU for accelerometer&#45;only operation over SPI.">
<polygon fill="white" stroke="#666666" points="63.5,-290 19.5,-290 19.5,-271 63.5,-271 63.5,-290"/>
<text text-anchor="middle" x="41.5" y="-278" font-family="Helvetica,sans-Serif" font-size="10.00">setup</text>
</a>
</g>
</g>
<!-- Node5&#45;&gt;Node6 -->
<g id="edge5_Node000005_Node000006" class="edge">
<title>Node5&#45;&gt;Node6</title>
<g id="a_edge5_Node000005_Node000006"><a xlink:title=" ">
<path fill="none" stroke="#63b8ff" d="M120.7,-280.5C99.47,-280.5 78.61,-280.5 63.79,-280.5"/>
<polygon fill="#63b8ff" stroke="#63b8ff" points="120.8,-284 130.8,-280.5 120.8,-277 120.8,-284"/>
</a>
</g>
</g>
<!-- Node10 -->
<g id="Node000010" class="node">
<title>Node10</title>
<g id="a_Node000010"><a xlink:href="test_8ino.html#a327f4fbd9f22daba4f8a6f3f1c13f729" target="_top" xlink:title="Apply one accelerometer full&#45;scale and DLPF configuration.">
<polygon fill="white" stroke="#666666" points="83,-130 0,-130 0,-111 83,-111 83,-130"/>
<text text-anchor="middle" x="41.5" y="-118" font-family="Helvetica,sans-Serif" font-size="10.00">applySettings</text>
</a>
</g>
</g>
<!-- Node9&#45;&gt;Node10 -->
<g id="edge9_Node000009_Node000010" class="edge">
<title>Node9&#45;&gt;Node10</title>
<g id="a_edge9_Node000009_Node000010"><a xlink:title=" ">
<path fill="none" stroke="#63b8ff" d="M152.07,-95.22C141.1,-97.59 129.68,-100.1 119,-102.5 107.15,-105.17 94.3,-108.15 82.57,-110.92"/>
<polygon fill="#63b8ff" stroke="#63b8ff" points="152.95,-98.62 161.99,-93.09 151.47,-91.77 152.95,-98.62"/>
</a>
</g>
</g>
<!-- Node11 -->
<g id="Node000011" class="node">
<title>Node11</title>
<g id="a_Node000011"><a xlink:href="test2_8ino.html#a73c1d2766fc4db839bb9adf5cab93c80" target="_top" xlink:title="Apply one accelerometer full&#45;scale, DLPF, and averaging configuration.">
<polygon fill="white" stroke="#666666" points="83,-93 0,-93 0,-74 83,-74 83,-93"/>
<text text-anchor="middle" x="41.5" y="-81" font-family="Helvetica,sans-Serif" font-size="10.00">applySettings</text>
</a>
</g>
</g>
<!-- Node9&#45;&gt;Node11 -->
<g id="edge10_Node000009_Node000011" class="edge">
<title>Node9&#45;&gt;Node11</title>
<g id="a_edge10_Node000009_Node000011"><a xlink:title=" ">
<path fill="none" stroke="#63b8ff" d="M108.65,-83.5C99.81,-83.5 91.23,-83.5 83.33,-83.5"/>
<polygon fill="#63b8ff" stroke="#63b8ff" points="108.72,-87 118.72,-83.5 108.72,-80 108.72,-87"/>
</a>
</g>
</g>
<!-- Node12 -->
<g id="Node000012" class="node">
<title>Node12</title>
<g id="a_Node000012"><a xlink:href="i2c__accel_8ino.html#a4fc01d736fe50cf5b977f755b675f11d" target="_top" xlink:title="Configure the IMU for accelerometer&#45;only operation over I2C.">
<polygon fill="white" stroke="#666666" points="63.5,-56 19.5,-56 19.5,-37 63.5,-37 63.5,-56"/>
<text text-anchor="middle" x="41.5" y="-44" font-family="Helvetica,sans-Serif" font-size="10.00">setup</text>
</a>
</g>
</g>
<!-- Node9&#45;&gt;Node12 -->
<g id="edge11_Node000009_Node000012" class="edge">
<title>Node9&#45;&gt;Node12</title>
<g id="a_edge11_Node000009_Node000012"><a xlink:title=" ">
<path fill="none" stroke="#63b8ff" d="M148.87,-71.94C138.89,-69.87 128.64,-67.68 119,-65.5 100.18,-61.25 78.88,-55.92 63.55,-51.99"/>
<polygon fill="#63b8ff" stroke="#63b8ff" points="148.23,-75.38 158.73,-73.97 149.64,-68.53 148.23,-75.38"/>
</a>
</g>
</g>
<!-- Node14 -->
<g id="Node000014" class="node">
<title>Node14</title>
<g id="a_Node000014"><a xlink:href="gyr__test_8ino.html#a327f4fbd9f22daba4f8a6f3f1c13f729" target="_top" xlink:title="Apply one gyroscope full&#45;scale and DLPF configuration.">
<polygon fill="white" stroke="#666666" points="83,-19 0,-19 0,0 83,0 83,-19"/>
<text text-anchor="middle" x="41.5" y="-7" font-family="Helvetica,sans-Serif" font-size="10.00">applySettings</text>
</a>
</g>
</g>
<!-- Node13&#45;&gt;Node14 -->
<g id="edge13_Node000013_Node000014" class="edge">
<title>Node13&#45;&gt;Node14</title>
<g id="a_edge13_Node000013_Node000014"><a xlink:title=" ">
<path fill="none" stroke="#63b8ff" d="M121.52,-9.5C108.12,-9.5 94.85,-9.5 83.11,-9.5"/>
<polygon fill="#63b8ff" stroke="#63b8ff" points="121.76,-13 131.76,-9.5 121.76,-6 121.76,-13"/>
</a>
</g>
</g>
<!-- Node16&#45;&gt;Node4 -->
<g id="edge16_Node000016_Node000004" class="edge">
<title>Node16&#45;&gt;Node4</title>
<g id="a_edge16_Node000016_Node000004"><a xlink:title=" ">
<path fill="none" stroke="#63b8ff" d="M149.12,-231.77C139.04,-229.51 128.69,-227.05 119,-224.5 100.16,-219.53 79.04,-212.82 63.78,-207.76"/>
<polygon fill="#63b8ff" stroke="#63b8ff" points="148.56,-235.23 159.08,-233.95 150.06,-228.39 148.56,-235.23"/>
</a>
</g>
</g>
</g>
</svg>
