<?xml version="1.0" encoding="UTF-8" standalone="no"?>
<!DOCTYPE svg PUBLIC "-//W3C//DTD SVG 1.1//EN"
 "http://www.w3.org/Graphics/SVG/1.1/DTD/svg11.dtd">
<!-- Generated by graphviz version 2.43.0 (0)
 -->
<!-- Title: DevLab_ICM20948::beginI2C Pages: 1 -->
<svg width="579pt" height="114pt"
 viewBox="0.00 0.00 579.00 113.50" xmlns="http://www.w3.org/2000/svg" xmlns:xlink="http://www.w3.org/1999/xlink">
<g id="graph0" class="graph" transform="scale(1 1) rotate(0) translate(4 109.5)">
<title>DevLab_ICM20948::beginI2C</title>
<!-- Node1 -->
<g id="Node000001" class="node">
<title>Node1</title>
<g id="a_Node000001"><a xlink:title=" ">
<polygon fill="#999999" stroke="#666666" points="156,-57 0,-57 0,-38 156,-38 156,-57"/>
<text text-anchor="middle" x="78" y="-45" font-family="Helvetica,sans-Serif" font-size="10.00">DevLab_ICM20948::beginI2C</text>
</a>
</g>
</g>
<!-- Node2 -->
<g id="Node000002" class="node">
<title>Node2</title>
<g id="a_Node000002"><a xlink:href="classDevLab__ICM20948.html#a31460c48549b1d3081e253706f8b15e6" target="_top" xlink:title=" ">
<polygon fill="white" stroke="#666666" points="363.5,-105.5 196.5,-105.5 196.5,-75.5 363.5,-75.5 363.5,-105.5"/>
<text text-anchor="start" x="204.5" y="-93.5" font-family="Helvetica,sans-Serif" font-size="10.00">DevLab_ICM20948::applyBasic</text>
<text text-anchor="middle" x="280" y="-82.5" font-family="Helvetica,sans-Serif" font-size="10.00">Defaults</text>
</a>
</g>
</g>
<!-- Node1&#45;&gt;Node2 -->
<g id="edge1_Node000001_Node000002" class="edge">
<title>Node1&#45;&gt;Node2</title>
<g id="a_edge1_Node000001_Node000002"><a xlink:title=" ">
<path fill="none" stroke="#63b8ff" d="M123.39,-57.04C145.73,-61.85 173.52,-67.82 199.39,-73.38"/>
<polygon fill="#63b8ff" stroke="#63b8ff" points="198.69,-76.81 209.2,-75.49 200.16,-69.97 198.69,-76.81"/>
</a>
</g>
</g>
<!-- Node3 -->
<g id="Node000003" class="node">
<title>Node3</title>
<g id="a_Node000003"><a xlink:href="classDevLab__ICM20948.html#aaa26fcbfea0e67d45cb1c3ae39654c55" target="_top" xlink:title=" ">
<polygon fill="white" stroke="#666666" points="571,-57 404,-57 404,-38 571,-38 571,-57"/>
<text text-anchor="middle" x="487.5" y="-45" font-family="Helvetica,sans-Serif" font-size="10.00">DevLab_ICM20948::selectBank</text>
</a>
</g>
</g>
<!-- Node1&#45;&gt;Node3 -->
<g id="edge5_Node000001_Node000003" class="edge">
<title>Node1&#45;&gt;Node3</title>
<g id="a_edge5_Node000001_Node000003"><a xlink:title=" ">
<path fill="none" stroke="#63b8ff" d="M156.13,-47.5C223.53,-47.5 321.57,-47.5 393.34,-47.5"/>
<polygon fill="#63b8ff" stroke="#63b8ff" points="393.74,-51 403.74,-47.5 393.74,-44 393.74,-51"/>
</a>
</g>
</g>
<!-- Node4 -->
<g id="Node000004" class="node">
<title>Node4</title>
<g id="a_Node000004"><a xlink:href="classDevLab__ICM20948.html#a8bef7eafb3b67eb736f491d0df453b9e" target="_top" xlink:title=" ">
<polygon fill="white" stroke="#666666" points="368,-19 192,-19 192,0 368,0 368,-19"/>
<text text-anchor="middle" x="280" y="-7" font-family="Helvetica,sans-Serif" font-size="10.00">DevLab_ICM20948::readWhoAmI</text>
</a>
</g>
</g>
<!-- Node1&#45;&gt;Node4 -->
<g id="edge3_Node000001_Node000004" class="edge">
<title>Node1&#45;&gt;Node4</title>
<g id="a_edge3_Node000001_Node000004"><a xlink:title=" ">
<path fill="none" stroke="#63b8ff" d="M129.21,-37.96C156.43,-32.79 190.26,-26.36 218.88,-20.92"/>
<polygon fill="#63b8ff" stroke="#63b8ff" points="219.6,-24.35 228.77,-19.04 218.29,-17.47 219.6,-24.35"/>
</a>
</g>
</g>
<!-- Node2&#45;&gt;Node3 -->
<g id="edge2_Node000002_Node000003" class="edge">
<title>Node2&#45;&gt;Node3</title>
<g id="a_edge2_Node000002_Node000003"><a xlink:title=" ">
<path fill="none" stroke="#63b8ff" d="M352.87,-75.46C378.5,-70.1 406.94,-64.15 430.98,-59.12"/>
<polygon fill="#63b8ff" stroke="#63b8ff" points="431.92,-62.5 440.99,-57.02 430.49,-55.64 431.92,-62.5"/>
</a>
</g>
</g>
<!-- Node4&#45;&gt;Node3 -->
<g id="edge4_Node000004_Node000003" class="edge">
<title>Node4&#45;&gt;Node3</title>
<g id="a_edge4_Node000004_Node000003"><a xlink:title=" ">
<path fill="none" stroke="#63b8ff" d="M332.59,-19.04C360.56,-24.21 395.32,-30.64 424.73,-36.08"/>
<polygon fill="#63b8ff" stroke="#63b8ff" points="424.42,-39.58 434.89,-37.96 425.69,-32.7 424.42,-39.58"/>
</a>
</g>
</g>
</g>
</svg>
