<?xml version="1.0" encoding="UTF-8" standalone="no"?>
<!DOCTYPE svg PUBLIC "-//W3C//DTD SVG 1.1//EN"
 "http://www.w3.org/Graphics/SVG/1.1/DTD/svg11.dtd">
<!-- Generated by graphviz version 2.43.0 (0)
 -->
<!-- Title: DevLab_ICM20948::sleep Pages: 1 -->
<svg width="634pt" height="88pt"
 viewBox="0.00 0.00 634.00 87.83" xmlns="http://www.w3.org/2000/svg" xmlns:xlink="http://www.w3.org/1999/xlink">
<g id="graph0" class="graph" transform="scale(1 1) rotate(0) translate(4 83.83)">
<title>DevLab_ICM20948::sleep</title>
<!-- Node1 -->
<g id="Node000001" class="node">
<title>Node1</title>
<g id="a_Node000001"><a xlink:title=" ">
<polygon fill="#999999" stroke="#666666" points="626,-23.83 486,-23.83 486,-4.83 626,-4.83 626,-23.83"/>
<text text-anchor="middle" x="556" y="-11.83" font-family="Helvetica,sans-Serif" font-size="10.00">DevLab_ICM20948::sleep</text>
</a>
</g>
</g>
<!-- Node2 -->
<g id="Node000002" class="node">
<title>Node2</title>
<g id="a_Node000002"><a xlink:href="classDevLab__ICM20948.html#a7b137192f8eb987cd221808c2c6c3561" target="_top" xlink:title=" ">
<polygon fill="white" stroke="#666666" points="450,-42.83 300,-42.83 300,-23.83 450,-23.83 450,-42.83"/>
<text text-anchor="middle" x="375" y="-30.83" font-family="Helvetica,sans-Serif" font-size="10.00">DevLab_ICM20948::initMag</text>
</a>
</g>
</g>
<!-- Node1&#45;&gt;Node2 -->
<g id="edge1_Node000001_Node000002" class="edge">
<title>Node1&#45;&gt;Node2</title>
<g id="a_edge1_Node000001_Node000002"><a xlink:title=" ">
<path fill="none" stroke="#63b8ff" d="M475.82,-22.73C467.26,-23.64 458.56,-24.56 450.06,-25.46"/>
<polygon fill="#63b8ff" stroke="#63b8ff" points="476.22,-26.21 485.79,-21.67 475.48,-19.25 476.22,-26.21"/>
</a>
</g>
</g>
<!-- Node5 -->
<g id="Node000005" class="node">
<title>Node5</title>
<g id="a_Node000005"><a xlink:href="gyr__test_8ino.html#a4fc01d736fe50cf5b977f755b675f11d" target="_top" xlink:title="Initialize I2C, reset/wake the IMU, enable gyro, and start the sweep.">
<polygon fill="white" stroke="#666666" points="44,-41.83 0,-41.83 0,-22.83 44,-22.83 44,-41.83"/>
<text text-anchor="middle" x="22" y="-29.83" font-family="Helvetica,sans-Serif" font-size="10.00">setup</text>
</a>
</g>
</g>
<!-- Node1&#45;&gt;Node5 -->
<g id="edge7_Node000001_Node000005" class="edge">
<title>Node1&#45;&gt;Node5</title>
<g id="a_edge7_Node000001_Node000005"><a xlink:title=" ">
<path fill="none" stroke="#63b8ff" d="M475.58,-6.98C380.8,0.1 217.81,6.92 80,-14.33 67.79,-16.21 54.62,-20.23 44.01,-23.99"/>
<polygon fill="#63b8ff" stroke="#63b8ff" points="475.43,-10.48 485.67,-7.75 475.96,-3.5 475.43,-10.48"/>
</a>
</g>
</g>
<!-- Node3 -->
<g id="Node000003" class="node">
<title>Node3</title>
<g id="a_Node000003"><a xlink:href="mag__test_8ino.html#af42a493b8d96759f43d866fbe725cf3d" target="_top" xlink:title="Initialize the magnetometer and collect samples for each mode.">
<polygon fill="white" stroke="#666666" points="264,-79.83 181,-79.83 181,-60.83 264,-60.83 264,-79.83"/>
<text text-anchor="middle" x="222.5" y="-67.83" font-family="Helvetica,sans-Serif" font-size="10.00">applySettings</text>
</a>
</g>
</g>
<!-- Node2&#45;&gt;Node3 -->
<g id="edge2_Node000002_Node000003" class="edge">
<title>Node2&#45;&gt;Node3</title>
<g id="a_edge2_Node000002_Node000003"><a xlink:title=" ">
<path fill="none" stroke="#63b8ff" d="M325.49,-45.25C305.08,-50.27 281.64,-56.03 262.39,-60.77"/>
<polygon fill="#63b8ff" stroke="#63b8ff" points="326.37,-48.64 335.24,-42.85 324.7,-41.84 326.37,-48.64"/>
</a>
</g>
</g>
<!-- Node7 -->
<g id="Node000007" class="node">
<title>Node7</title>
<g id="a_Node000007"><a xlink:href="i2c__basic_8ino.html#a4fc01d736fe50cf5b977f755b675f11d" target="_top" xlink:title="Configure Serial, I2C, sensor identity check, and enabled sensors.">
<polygon fill="white" stroke="#666666" points="244.5,-42.83 200.5,-42.83 200.5,-23.83 244.5,-23.83 244.5,-42.83"/>
<text text-anchor="middle" x="222.5" y="-30.83" font-family="Helvetica,sans-Serif" font-size="10.00">setup</text>
</a>
</g>
</g>
<!-- Node2&#45;&gt;Node7 -->
<g id="edge6_Node000002_Node000007" class="edge">
<title>Node2&#45;&gt;Node7</title>
<g id="a_edge6_Node000002_Node000007"><a xlink:title=" ">
<path fill="none" stroke="#63b8ff" d="M289.27,-33.33C272.7,-33.33 256.76,-33.33 244.72,-33.33"/>
<polygon fill="#63b8ff" stroke="#63b8ff" points="289.63,-36.83 299.63,-33.33 289.63,-29.83 289.63,-36.83"/>
</a>
</g>
</g>
<!-- Node4 -->
<g id="Node000004" class="node">
<title>Node4</title>
<g id="a_Node000004"><a xlink:href="gyr__test_8ino.html#a59a0400232b9ffe7d4395b166f74593a" target="_top" xlink:title="Run the gyroscope validation sweep and print each captured sample.">
<polygon fill="white" stroke="#666666" points="145,-79.83 80,-79.83 80,-60.83 145,-60.83 145,-79.83"/>
<text text-anchor="middle" x="112.5" y="-67.83" font-family="Helvetica,sans-Serif" font-size="10.00">runSweep</text>
</a>
</g>
</g>
<!-- Node3&#45;&gt;Node4 -->
<g id="edge3_Node000003_Node000004" class="edge">
<title>Node3&#45;&gt;Node4</title>
<g id="a_edge3_Node000003_Node000004"><a xlink:title=" ">
<path fill="none" stroke="#63b8ff" d="M170.81,-70.33C162.06,-70.33 153.2,-70.33 145.14,-70.33"/>
<polygon fill="#63b8ff" stroke="#63b8ff" points="170.98,-73.83 180.98,-70.33 170.98,-66.83 170.98,-73.83"/>
</a>
</g>
</g>
<!-- Node6 -->
<g id="Node000006" class="node">
<title>Node6</title>
<g id="a_Node000006"><a xlink:href="mag__test_8ino.html#a4fc01d736fe50cf5b977f755b675f11d" target="_top" xlink:title="Initialize I2C, verify the IMU, enable sensors, and start the sweep.">
<polygon fill="white" stroke="#666666" points="134.5,-42.83 90.5,-42.83 90.5,-23.83 134.5,-23.83 134.5,-42.83"/>
<text text-anchor="middle" x="112.5" y="-30.83" font-family="Helvetica,sans-Serif" font-size="10.00">setup</text>
</a>
</g>
</g>
<!-- Node3&#45;&gt;Node6 -->
<g id="edge5_Node000003_Node000006" class="edge">
<title>Node3&#45;&gt;Node6</title>
<g id="a_edge5_Node000003_Node000006"><a xlink:title=" ">
<path fill="none" stroke="#63b8ff" d="M183.8,-57.41C167.36,-51.78 148.7,-45.39 134.74,-40.6"/>
<polygon fill="#63b8ff" stroke="#63b8ff" points="183.09,-60.87 193.69,-60.8 185.36,-54.25 183.09,-60.87"/>
</a>
</g>
</g>
<!-- Node4&#45;&gt;Node5 -->
<g id="edge4_Node000004_Node000005" class="edge">
<title>Node4&#45;&gt;Node5</title>
<g id="a_edge4_Node000004_Node000005"><a xlink:title=" ">
<path fill="none" stroke="#63b8ff" d="M79.63,-56.64C67.82,-51.57 54.72,-45.95 44.11,-41.39"/>
<polygon fill="#63b8ff" stroke="#63b8ff" points="78.6,-60.01 89.17,-60.74 81.36,-53.58 78.6,-60.01"/>
</a>
</g>
</g>
</g>
</svg>
