<?xml version="1.0" encoding="UTF-8" standalone="no"?>
<!DOCTYPE svg PUBLIC "-//W3C//DTD SVG 1.1//EN"
 "http://www.w3.org/Graphics/SVG/1.1/DTD/svg11.dtd">
<!-- Generated by graphviz version 2.43.0 (0)
 -->
<!-- Title: DevLab_ICM20948::readWhoAmI Pages: 1 -->
<svg width="456pt" height="138pt"
 viewBox="0.00 0.00 456.00 138.00" xmlns="http://www.w3.org/2000/svg" xmlns:xlink="http://www.w3.org/1999/xlink">
<g id="graph0" class="graph" transform="scale(1 1) rotate(0) translate(4 134)">
<title>DevLab_ICM20948::readWhoAmI</title>
<!-- Node1 -->
<g id="Node000001" class="node">
<title>Node1</title>
<g id="a_Node000001"><a xlink:title=" ">
<polygon fill="#999999" stroke="#666666" points="448,-74 272,-74 272,-55 448,-55 448,-74"/>
<text text-anchor="middle" x="360" y="-62" font-family="Helvetica,sans-Serif" font-size="10.00">DevLab_ICM20948::readWhoAmI</text>
</a>
</g>
</g>
<!-- Node2 -->
<g id="Node000002" class="node">
<title>Node2</title>
<g id="a_Node000002"><a xlink:href="classDevLab__ICM20948.html#a91147b3cd4c45bffc8e024f985be7b21" target="_top" xlink:title=" ">
<polygon fill="white" stroke="#666666" points="236,-130 80,-130 80,-111 236,-111 236,-130"/>
<text text-anchor="middle" x="158" y="-118" font-family="Helvetica,sans-Serif" font-size="10.00">DevLab_ICM20948::beginI2C</text>
</a>
</g>
</g>
<!-- Node1&#45;&gt;Node2 -->
<g id="edge1_Node000001_Node000002" class="edge">
<title>Node1&#45;&gt;Node2</title>
<g id="a_edge1_Node000001_Node000002"><a xlink:title=" ">
<path fill="none" stroke="#63b8ff" d="M320.01,-77.31C295.93,-85.03 264.31,-94.83 236,-102.5 225.13,-105.44 213.33,-108.35 202.3,-110.94"/>
<polygon fill="#63b8ff" stroke="#63b8ff" points="321.4,-80.54 329.84,-74.14 319.25,-73.88 321.4,-80.54"/>
</a>
</g>
</g>
<!-- Node4 -->
<g id="Node000004" class="node">
<title>Node4</title>
<g id="a_Node000004"><a xlink:href="classDevLab__ICM20948.html#a4386f310503153f3e28935cbdda75b18" target="_top" xlink:title=" ">
<polygon fill="white" stroke="#666666" points="235.5,-56 80.5,-56 80.5,-37 235.5,-37 235.5,-56"/>
<text text-anchor="middle" x="158" y="-44" font-family="Helvetica,sans-Serif" font-size="10.00">DevLab_ICM20948::beginSPI</text>
</a>
</g>
</g>
<!-- Node1&#45;&gt;Node4 -->
<g id="edge3_Node000001_Node000004" class="edge">
<title>Node1&#45;&gt;Node4</title>
<g id="a_edge3_Node000001_Node000004"><a xlink:title=" ">
<path fill="none" stroke="#63b8ff" d="M261.89,-55.76C253.03,-54.96 244.14,-54.16 235.5,-53.39"/>
<polygon fill="#63b8ff" stroke="#63b8ff" points="261.59,-59.25 271.86,-56.66 262.21,-52.27 261.59,-59.25"/>
</a>
</g>
</g>
<!-- Node6 -->
<g id="Node000006" class="node">
<title>Node6</title>
<g id="a_Node000006"><a xlink:href="gyr__test_8ino.html#a1cf9f29034d9373db6498335da3d661c" target="_top" xlink:title="Verify the IMU identity register.">
<polygon fill="white" stroke="#666666" points="189.5,-93 126.5,-93 126.5,-74 189.5,-74 189.5,-93"/>
<text text-anchor="middle" x="158" y="-81" font-family="Helvetica,sans-Serif" font-size="10.00">firstStage</text>
</a>
</g>
</g>
<!-- Node1&#45;&gt;Node6 -->
<g id="edge5_Node000001_Node000006" class="edge">
<title>Node1&#45;&gt;Node6</title>
<g id="a_edge5_Node000001_Node000006"><a xlink:title=" ">
<path fill="none" stroke="#63b8ff" d="M261.87,-73.73C235.74,-76.21 209.35,-78.72 189.84,-80.57"/>
<polygon fill="#63b8ff" stroke="#63b8ff" points="262.23,-77.21 271.86,-72.78 261.57,-70.24 262.23,-77.21"/>
</a>
</g>
</g>
<!-- Node7 -->
<g id="Node000007" class="node">
<title>Node7</title>
<g id="a_Node000007"><a xlink:href="i2c__accel_8ino.html#a4fc01d736fe50cf5b977f755b675f11d" target="_top" xlink:title="Configure the IMU for accelerometer&#45;only operation over I2C.">
<polygon fill="white" stroke="#666666" points="180,-19 136,-19 136,0 180,0 180,-19"/>
<text text-anchor="middle" x="158" y="-7" font-family="Helvetica,sans-Serif" font-size="10.00">setup</text>
</a>
</g>
</g>
<!-- Node1&#45;&gt;Node7 -->
<g id="edge7_Node000001_Node000007" class="edge">
<title>Node1&#45;&gt;Node7</title>
<g id="a_edge7_Node000001_Node000007"><a xlink:title=" ">
<path fill="none" stroke="#63b8ff" d="M317.98,-52.02C294.13,-44.88 263.44,-35.9 236,-28.5 217.25,-23.45 195.8,-18.2 180.31,-14.5"/>
<polygon fill="#63b8ff" stroke="#63b8ff" points="317.18,-55.43 327.76,-54.96 319.19,-48.73 317.18,-55.43"/>
</a>
</g>
</g>
<!-- Node3 -->
<g id="Node000003" class="node">
<title>Node3</title>
<g id="a_Node000003"><a xlink:href="gyr__test_8ino.html#a4fc01d736fe50cf5b977f755b675f11d" target="_top" xlink:title="Initialize I2C, reset/wake the IMU, enable gyro, and start the sweep.">
<polygon fill="white" stroke="#666666" points="44,-111 0,-111 0,-92 44,-92 44,-111"/>
<text text-anchor="middle" x="22" y="-99" font-family="Helvetica,sans-Serif" font-size="10.00">setup</text>
</a>
</g>
</g>
<!-- Node2&#45;&gt;Node3 -->
<g id="edge2_Node000002_Node000003" class="edge">
<title>Node2&#45;&gt;Node3</title>
<g id="a_edge2_Node000002_Node000003"><a xlink:title=" ">
<path fill="none" stroke="#63b8ff" d="M79.56,-109.52C66.51,-107.67 54,-105.9 44.08,-104.49"/>
<polygon fill="#63b8ff" stroke="#63b8ff" points="79.22,-113.01 89.61,-110.94 80.2,-106.08 79.22,-113.01"/>
</a>
</g>
</g>
<!-- Node5 -->
<g id="Node000005" class="node">
<title>Node5</title>
<g id="a_Node000005"><a xlink:href="spi__accel_8ino.html#a4fc01d736fe50cf5b977f755b675f11d" target="_top" xlink:title="Configure the IMU for accelerometer&#45;only operation over SPI.">
<polygon fill="white" stroke="#666666" points="44,-56 0,-56 0,-37 44,-37 44,-56"/>
<text text-anchor="middle" x="22" y="-44" font-family="Helvetica,sans-Serif" font-size="10.00">setup</text>
</a>
</g>
</g>
<!-- Node4&#45;&gt;Node5 -->
<g id="edge4_Node000004_Node000005" class="edge">
<title>Node4&#45;&gt;Node5</title>
<g id="a_edge4_Node000004_Node000005"><a xlink:title=" ">
<path fill="none" stroke="#63b8ff" d="M70.13,-46.5C60.63,-46.5 51.71,-46.5 44.24,-46.5"/>
<polygon fill="#63b8ff" stroke="#63b8ff" points="70.22,-50 80.22,-46.5 70.22,-43 70.22,-50"/>
</a>
</g>
</g>
<!-- Node6&#45;&gt;Node3 -->
<g id="edge6_Node000006_Node000003" class="edge">
<title>Node6&#45;&gt;Node3</title>
<g id="a_edge6_Node000006_Node000003"><a xlink:title=" ">
<path fill="none" stroke="#63b8ff" d="M116.08,-89C92.27,-92.2 63.25,-96.09 44.01,-98.68"/>
<polygon fill="#63b8ff" stroke="#63b8ff" points="116.81,-92.43 126.26,-87.63 115.88,-85.49 116.81,-92.43"/>
</a>
</g>
</g>
</g>
</svg>
