<?xml version="1.0" encoding="UTF-8" standalone="no"?>
<!DOCTYPE svg PUBLIC "-//W3C//DTD SVG 1.1//EN"
 "http://www.w3.org/Graphics/SVG/1.1/DTD/svg11.dtd">
<!-- Generated by graphviz version 2.43.0 (0)
 -->
<!-- Title: /home/runner/work/unit_devlab_icm20948_library/unit_devlab_icm20948_library/src/DevLab_ICM20948.h Pages: 1 -->
<svg width="561pt" height="225pt"
 viewBox="0.00 0.00 560.83 225.00" xmlns="http://www.w3.org/2000/svg" xmlns:xlink="http://www.w3.org/1999/xlink">
<g id="graph0" class="graph" transform="scale(1 1) rotate(0) translate(4 221)">
<title>/home/runner/work/unit_devlab_icm20948_library/unit_devlab_icm20948_library/src/DevLab_ICM20948.h</title>
<!-- Node1 -->
<g id="Node000001" class="node">
<title>Node1</title>
<g id="a_Node000001"><a xlink:title=" ">
<polygon fill="#999999" stroke="#666666" points="305.83,-217 138.83,-217 138.83,-165 305.83,-165 305.83,-217"/>
<text text-anchor="start" x="146.83" y="-205" font-family="Helvetica,sans-Serif" font-size="10.00">/home/runner/work/unit</text>
<text text-anchor="start" x="146.83" y="-194" font-family="Helvetica,sans-Serif" font-size="10.00">_devlab_icm20948_library</text>
<text text-anchor="start" x="146.83" y="-183" font-family="Helvetica,sans-Serif" font-size="10.00">/unit_devlab_icm20948_library</text>
<text text-anchor="middle" x="222.33" y="-172" font-family="Helvetica,sans-Serif" font-size="10.00">/src/DevLab_ICM20948.h</text>
</a>
</g>
</g>
<!-- Node2 -->
<g id="Node000002" class="node">
<title>Node2</title>
<g id="a_Node000002"><a xlink:title=" ">
<polygon fill="#e0e0e0" stroke="#999999" points="87.83,-19 24.83,-19 24.83,0 87.83,0 87.83,-19"/>
<text text-anchor="middle" x="56.33" y="-7" font-family="Helvetica,sans-Serif" font-size="10.00">Arduino.h</text>
</a>
</g>
</g>
<!-- Node1&#45;&gt;Node2 -->
<g id="edge1_Node000001_Node000002" class="edge">
<title>Node1&#45;&gt;Node2</title>
<g id="a_edge1_Node000001_Node000002"><a xlink:title=" ">
<path fill="none" stroke="#63b8ff" d="M138.71,-173.69C86.38,-158.23 24.76,-128.85 2.33,-74 -5.69,-54.38 13.14,-36.42 30.73,-24.65"/>
<polygon fill="#63b8ff" stroke="#63b8ff" points="33.03,-27.34 39.66,-19.08 29.33,-21.4 33.03,-27.34"/>
</a>
</g>
</g>
<!-- Node3 -->
<g id="Node000003" class="node">
<title>Node3</title>
<g id="a_Node000003"><a xlink:title=" ">
<polygon fill="#e0e0e0" stroke="#999999" points="318.33,-19 270.33,-19 270.33,0 318.33,0 318.33,-19"/>
<text text-anchor="middle" x="294.33" y="-7" font-family="Helvetica,sans-Serif" font-size="10.00">Wire.h</text>
</a>
</g>
</g>
<!-- Node1&#45;&gt;Node3 -->
<g id="edge2_Node000001_Node000003" class="edge">
<title>Node1&#45;&gt;Node3</title>
<g id="a_edge2_Node000001_Node000003"><a xlink:title=" ">
<path fill="none" stroke="#63b8ff" d="M306.17,-172.9C329.57,-163.86 352.39,-150.05 366.33,-129 390.53,-92.47 343.91,-47.97 314.95,-25.31"/>
<polygon fill="#63b8ff" stroke="#63b8ff" points="317.06,-22.52 306.98,-19.27 312.83,-28.1 317.06,-22.52"/>
</a>
</g>
</g>
<!-- Node4 -->
<g id="Node000004" class="node">
<title>Node4</title>
<g id="a_Node000004"><a xlink:title=" ">
<polygon fill="#e0e0e0" stroke="#999999" points="410.83,-19 369.83,-19 369.83,0 410.83,0 410.83,-19"/>
<text text-anchor="middle" x="390.33" y="-7" font-family="Helvetica,sans-Serif" font-size="10.00">SPI.h</text>
</a>
</g>
</g>
<!-- Node1&#45;&gt;Node4 -->
<g id="edge3_Node000001_Node000004" class="edge">
<title>Node1&#45;&gt;Node4</title>
<g id="a_edge3_Node000001_Node000004"><a xlink:title=" ">
<path fill="none" stroke="#63b8ff" d="M306.16,-177.39C335.19,-168.67 365.01,-153.93 383.33,-129 404.91,-99.64 400.02,-54.3 394.93,-29.06"/>
<polygon fill="#63b8ff" stroke="#63b8ff" points="398.34,-28.29 392.74,-19.3 391.51,-29.82 398.34,-28.29"/>
</a>
</g>
</g>
<!-- Node5 -->
<g id="Node000005" class="node">
<title>Node5</title>
<g id="a_Node000005"><a xlink:href="ICM20948__regs_8h.html" target="_top" xlink:title=" ">
<polygon fill="white" stroke="#666666" points="552.83,-129 451.83,-129 451.83,-110 552.83,-110 552.83,-129"/>
<text text-anchor="middle" x="502.33" y="-117" font-family="Helvetica,sans-Serif" font-size="10.00">ICM20948_regs.h</text>
</a>
</g>
</g>
<!-- Node1&#45;&gt;Node5 -->
<g id="edge4_Node000001_Node000005" class="edge">
<title>Node1&#45;&gt;Node5</title>
<g id="a_edge4_Node000001_Node000005"><a xlink:title=" ">
<path fill="none" stroke="#63b8ff" d="M305.96,-169.24C355.88,-156.85 417.27,-141.61 457.98,-131.51"/>
<polygon fill="#63b8ff" stroke="#63b8ff" points="459,-134.86 467.87,-129.05 457.32,-128.07 459,-134.86"/>
</a>
</g>
</g>
<!-- Node6 -->
<g id="Node000006" class="node">
<title>Node6</title>
<g id="a_Node000006"><a xlink:href="7Semi__Interface_8h.html" target="_top" xlink:title=" ">
<polygon fill="white" stroke="#666666" points="245.83,-74 140.83,-74 140.83,-55 245.83,-55 245.83,-74"/>
<text text-anchor="middle" x="193.33" y="-62" font-family="Helvetica,sans-Serif" font-size="10.00">7Semi_Interface.h</text>
</a>
</g>
</g>
<!-- Node1&#45;&gt;Node6 -->
<g id="edge5_Node000001_Node000006" class="edge">
<title>Node1&#45;&gt;Node6</title>
<g id="a_edge5_Node000001_Node000006"><a xlink:title=" ">
<path fill="none" stroke="#63b8ff" d="M138.69,-172.63C115.58,-163.57 93.09,-149.83 79.33,-129 61.87,-102.56 97.51,-86.06 133.44,-76.53"/>
<polygon fill="#63b8ff" stroke="#63b8ff" points="134.68,-79.83 143.54,-74.02 132.99,-73.03 134.68,-79.83"/>
</a>
</g>
</g>
<!-- Node7 -->
<g id="Node000007" class="node">
<title>Node7</title>
<g id="a_Node000007"><a xlink:href="7Semi__I2C__Interface_8h.html" target="_top" xlink:title=" ">
<polygon fill="white" stroke="#666666" points="357.33,-129 231.33,-129 231.33,-110 357.33,-110 357.33,-129"/>
<text text-anchor="middle" x="294.33" y="-117" font-family="Helvetica,sans-Serif" font-size="10.00">7Semi_I2C_Interface.h</text>
</a>
</g>
</g>
<!-- Node1&#45;&gt;Node7 -->
<g id="edge9_Node000001_Node000007" class="edge">
<title>Node1&#45;&gt;Node7</title>
<g id="a_edge9_Node000001_Node000007"><a xlink:title=" ">
<path fill="none" stroke="#63b8ff" d="M248.33,-164.91C258.19,-155.38 269.15,-144.8 277.9,-136.36"/>
<polygon fill="#63b8ff" stroke="#63b8ff" points="280.45,-138.77 285.21,-129.3 275.59,-133.73 280.45,-138.77"/>
</a>
</g>
</g>
<!-- Node8 -->
<g id="Node000008" class="node">
<title>Node8</title>
<g id="a_Node000008"><a xlink:href="7Semi__SPI__Interface_8h.html" target="_top" xlink:title=" ">
<polygon fill="white" stroke="#666666" points="212.83,-129 87.83,-129 87.83,-110 212.83,-110 212.83,-129"/>
<text text-anchor="middle" x="150.33" y="-117" font-family="Helvetica,sans-Serif" font-size="10.00">7Semi_SPI_Interface.h</text>
</a>
</g>
</g>
<!-- Node1&#45;&gt;Node8 -->
<g id="edge12_Node000001_Node000008" class="edge">
<title>Node1&#45;&gt;Node8</title>
<g id="a_edge12_Node000001_Node000008"><a xlink:title=" ">
<path fill="none" stroke="#63b8ff" d="M196.34,-164.91C186.47,-155.38 175.51,-144.8 166.77,-136.36"/>
<polygon fill="#63b8ff" stroke="#63b8ff" points="169.08,-133.73 159.45,-129.3 164.22,-138.77 169.08,-133.73"/>
</a>
</g>
</g>
<!-- Node9 -->
<g id="Node000009" class="node">
<title>Node9</title>
<g id="a_Node000009"><a xlink:href="BusIO__7Semi_8h.html" target="_top" xlink:title=" ">
<polygon fill="white" stroke="#666666" points="101.33,-74 11.33,-74 11.33,-55 101.33,-55 101.33,-74"/>
<text text-anchor="middle" x="56.33" y="-62" font-family="Helvetica,sans-Serif" font-size="10.00">BusIO_7Semi.h</text>
</a>
</g>
</g>
<!-- Node1&#45;&gt;Node9 -->
<g id="edge14_Node000001_Node000009" class="edge">
<title>Node1&#45;&gt;Node9</title>
<g id="a_edge14_Node000001_Node000009"><a xlink:title=" ">
<path fill="none" stroke="#63b8ff" d="M138.71,-172.56C113.5,-163.46 87.89,-149.72 70.33,-129 59.95,-116.75 56.79,-98.52 56.02,-84.73"/>
<polygon fill="#63b8ff" stroke="#63b8ff" points="59.51,-84.36 55.84,-74.42 52.51,-84.48 59.51,-84.36"/>
</a>
</g>
</g>
<!-- Node6&#45;&gt;Node2 -->
<g id="edge6_Node000006_Node000002" class="edge">
<title>Node6&#45;&gt;Node2</title>
<g id="a_edge6_Node000006_Node000002"><a xlink:title=" ">
<path fill="none" stroke="#63b8ff" d="M171.32,-54.98C148.88,-46.3 113.85,-32.75 88.35,-22.88"/>
<polygon fill="#63b8ff" stroke="#63b8ff" points="89.33,-19.51 78.74,-19.17 86.81,-26.04 89.33,-19.51"/>
</a>
</g>
</g>
<!-- Node6&#45;&gt;Node3 -->
<g id="edge7_Node000006_Node000003" class="edge">
<title>Node6&#45;&gt;Node3</title>
<g id="a_edge7_Node000006_Node000003"><a xlink:title=" ">
<path fill="none" stroke="#63b8ff" d="M209.56,-54.98C225.51,-46.61 250.11,-33.7 268.71,-23.95"/>
<polygon fill="#63b8ff" stroke="#63b8ff" points="270.58,-26.92 277.81,-19.17 267.33,-20.72 270.58,-26.92"/>
</a>
</g>
</g>
<!-- Node6&#45;&gt;Node4 -->
<g id="edge8_Node000006_Node000004" class="edge">
<title>Node6&#45;&gt;Node4</title>
<g id="a_edge8_Node000006_Node000004"><a xlink:title=" ">
<path fill="none" stroke="#63b8ff" d="M224.98,-54.98C262.01,-45.02 322.89,-28.65 359.54,-18.78"/>
<polygon fill="#63b8ff" stroke="#63b8ff" points="360.89,-22.05 369.64,-16.07 359.07,-15.29 360.89,-22.05"/>
</a>
</g>
</g>
<!-- Node7&#45;&gt;Node3 -->
<g id="edge11_Node000007_Node000003" class="edge">
<title>Node7&#45;&gt;Node3</title>
<g id="a_edge11_Node000007_Node000003"><a xlink:title=" ">
<path fill="none" stroke="#63b8ff" d="M294.33,-109.66C294.33,-92.17 294.33,-52.8 294.33,-29.27"/>
<polygon fill="#63b8ff" stroke="#63b8ff" points="297.83,-29.16 294.33,-19.16 290.83,-29.16 297.83,-29.16"/>
</a>
</g>
</g>
<!-- Node7&#45;&gt;Node6 -->
<g id="edge10_Node000007_Node000006" class="edge">
<title>Node7&#45;&gt;Node6</title>
<g id="a_edge10_Node000007_Node000006"><a xlink:title=" ">
<path fill="none" stroke="#63b8ff" d="M278.1,-109.98C262.15,-101.61 237.55,-88.7 218.96,-78.95"/>
<polygon fill="#63b8ff" stroke="#63b8ff" points="220.34,-75.72 209.85,-74.17 217.08,-81.92 220.34,-75.72"/>
</a>
</g>
</g>
<!-- Node8&#45;&gt;Node6 -->
<g id="edge13_Node000008_Node000006" class="edge">
<title>Node8&#45;&gt;Node6</title>
<g id="a_edge13_Node000008_Node000006"><a xlink:title=" ">
<path fill="none" stroke="#63b8ff" d="M157.43,-109.75C163.51,-102.26 172.42,-91.28 179.84,-82.13"/>
<polygon fill="#63b8ff" stroke="#63b8ff" points="182.78,-84.06 186.36,-74.09 177.35,-79.65 182.78,-84.06"/>
</a>
</g>
</g>
<!-- Node9&#45;&gt;Node2 -->
<g id="edge15_Node000009_Node000002" class="edge">
<title>Node9&#45;&gt;Node2</title>
<g id="a_edge15_Node000009_Node000002"><a xlink:title=" ">
<path fill="none" stroke="#63b8ff" d="M56.33,-54.75C56.33,-47.8 56.33,-37.85 56.33,-29.13"/>
<polygon fill="#63b8ff" stroke="#63b8ff" points="59.83,-29.09 56.33,-19.09 52.83,-29.09 59.83,-29.09"/>
</a>
</g>
</g>
</g>
</svg>
