<?xml version="1.0" encoding="UTF-8" standalone="no"?>
<!DOCTYPE svg PUBLIC "-//W3C//DTD SVG 1.1//EN"
 "http://www.w3.org/Graphics/SVG/1.1/DTD/svg11.dtd">
<!-- Generated by graphviz version 2.43.0 (0)
 -->
<!-- Title: examples Pages: 1 -->
<svg width="1021pt" height="100pt"
 viewBox="0.00 0.00 1021.00 100.05" xmlns="http://www.w3.org/2000/svg" xmlns:xlink="http://www.w3.org/1999/xlink">
<g id="graph0" class="graph" transform="scale(1 1) rotate(0) translate(4 96.05)">
<title>examples</title>
<g id="clust1" class="cluster">
<title>clusterdir_d28a4824dc47e487b107a5db32ef43c4</title>
<g id="a_clust1"><a xlink:href="dir_d28a4824dc47e487b107a5db32ef43c4.html" target="_top">
<polygon fill="#eef2f6" stroke="#404040" stroke-width="2" points="8,-49.05 8,-84.05 1005,-84.05 1005,-49.05 8,-49.05"/>
</a>
</g>
</g>
<!-- dir_d28a4824dc47e487b107a5db32ef43c4 -->
<g id="node1" class="node">
<title>dir_d28a4824dc47e487b107a5db32ef43c4</title>
<text text-anchor="middle" x="964" y="-64.05" font-family="Helvetica,sans-Serif" font-size="10.00">examples</text>
</g>
<!-- dir_e2561d6da0cb7524882b4e5b3d6fb8c3 -->
<g id="node2" class="node">
<title>dir_e2561d6da0cb7524882b4e5b3d6fb8c3</title>
<g id="a_node2"><a xlink:href="dir_e2561d6da0cb7524882b4e5b3d6fb8c3.html" target="_top" xlink:title="gyr_test">
<polygon fill="#a7bcd1" stroke="#404040" points="913,-76.05 857,-76.05 857,-57.05 913,-57.05 913,-76.05"/>
<text text-anchor="middle" x="885" y="-64.05" font-family="Helvetica,sans-Serif" font-size="10.00">gyr_test</text>
</a>
</g>
</g>
<!-- dir_68267d1309a1af8e8297ef4c3efbcdba -->
<g id="node14" class="node">
<title>dir_68267d1309a1af8e8297ef4c3efbcdba</title>
<g id="a_node14"><a xlink:href="dir_68267d1309a1af8e8297ef4c3efbcdba.html" target="_top" xlink:title="src">
<polygon fill="#eef2f6" stroke="#404040" points="450.5,-21.05 419.5,-21.05 419.5,-2.05 450.5,-2.05 450.5,-21.05"/>
<text text-anchor="middle" x="435" y="-9.05" font-family="Helvetica,sans-Serif" font-size="10.00">src</text>
</a>
</g>
</g>
<!-- dir_e2561d6da0cb7524882b4e5b3d6fb8c3&#45;&gt;dir_68267d1309a1af8e8297ef4c3efbcdba -->
<g id="edge1" class="edge">
<title>dir_e2561d6da0cb7524882b4e5b3d6fb8c3&#45;&gt;dir_68267d1309a1af8e8297ef4c3efbcdba</title>
<g id="a_edge1"><a xlink:href="dir_000001_000011.html" target="_top">
<path fill="none" stroke="#63b8ff" d="M868.85,-56.95C862.51,-53.95 855.08,-50.88 848,-49.05 705.4,-12.06 526.85,-10.88 460.96,-11.9"/>
<polygon fill="#63b8ff" stroke="#63b8ff" points="460.62,-8.41 450.69,-12.09 460.75,-15.4 460.62,-8.41"/>
</a>
</g>
<g id="a_edge1&#45;headlabel"><a xlink:href="dir_000001_000011.html" target="_top" xlink:title="1">
<text text-anchor="middle" x="464.16" y="-3" font-family="Helvetica,sans-Serif" font-size="10.00" fill="#63b8ff">1</text>
</a>
</g>
</g>
<!-- dir_0088cc8dfe9658d56e389d3edca156c7 -->
<g id="node3" class="node">
<title>dir_0088cc8dfe9658d56e389d3edca156c7</title>
<g id="a_node3"><a xlink:href="dir_0088cc8dfe9658d56e389d3edca156c7.html" target="_top" xlink:title="i2c_accel">
<polygon fill="#a7bcd1" stroke="#404040" points="839,-76.05 777,-76.05 777,-57.05 839,-57.05 839,-76.05"/>
<text text-anchor="middle" x="808" y="-64.05" font-family="Helvetica,sans-Serif" font-size="10.00">i2c_accel</text>
</a>
</g>
</g>
<!-- dir_0088cc8dfe9658d56e389d3edca156c7&#45;&gt;dir_68267d1309a1af8e8297ef4c3efbcdba -->
<g id="edge2" class="edge">
<title>dir_0088cc8dfe9658d56e389d3edca156c7&#45;&gt;dir_68267d1309a1af8e8297ef4c3efbcdba</title>
<g id="a_edge2"><a xlink:href="dir_000002_000011.html" target="_top">
<path fill="none" stroke="#63b8ff" d="M790.05,-56.88C783.28,-53.95 775.42,-50.95 768,-49.05 656.01,-20.43 517.2,-14.25 460.71,-12.91"/>
<polygon fill="#63b8ff" stroke="#63b8ff" points="460.61,-9.41 450.54,-12.71 460.47,-16.41 460.61,-9.41"/>
</a>
</g>
<g id="a_edge2&#45;headlabel"><a xlink:href="dir_000002_000011.html" target="_top" xlink:title="1">
<text text-anchor="middle" x="464.26" y="-4.15" font-family="Helvetica,sans-Serif" font-size="10.00" fill="#63b8ff">1</text>
</a>
</g>
</g>
<!-- dir_f56d65506a80f78efc2908096fc76551 -->
<g id="node4" class="node">
<title>dir_f56d65506a80f78efc2908096fc76551</title>
<g id="a_node4"><a xlink:href="dir_f56d65506a80f78efc2908096fc76551.html" target="_top" xlink:title="i2c_basic">
<polygon fill="#a7bcd1" stroke="#404040" points="759,-76.05 697,-76.05 697,-57.05 759,-57.05 759,-76.05"/>
<text text-anchor="middle" x="728" y="-64.05" font-family="Helvetica,sans-Serif" font-size="10.00">i2c_basic</text>
</a>
</g>
</g>
<!-- dir_f56d65506a80f78efc2908096fc76551&#45;&gt;dir_68267d1309a1af8e8297ef4c3efbcdba -->
<g id="edge3" class="edge">
<title>dir_f56d65506a80f78efc2908096fc76551&#45;&gt;dir_68267d1309a1af8e8297ef4c3efbcdba</title>
<g id="a_edge3"><a xlink:href="dir_000003_000011.html" target="_top">
<path fill="none" stroke="#63b8ff" d="M710.01,-57.02C703.24,-54.1 695.39,-51.07 688,-49.05 606.77,-26.81 506.93,-17.48 460.72,-14.15"/>
<polygon fill="#63b8ff" stroke="#63b8ff" points="460.89,-10.65 450.68,-13.46 460.41,-17.63 460.89,-10.65"/>
</a>
</g>
<g id="a_edge3&#45;headlabel"><a xlink:href="dir_000003_000011.html" target="_top" xlink:title="1">
<text text-anchor="middle" x="464.67" y="-5.56" font-family="Helvetica,sans-Serif" font-size="10.00" fill="#63b8ff">1</text>
</a>
</g>
</g>
<!-- dir_72b0ae39f9e205f9b537e4731b867472 -->
<g id="node5" class="node">
<title>dir_72b0ae39f9e205f9b537e4731b867472</title>
<g id="a_node5"><a xlink:href="dir_72b0ae39f9e205f9b537e4731b867472.html" target="_top" xlink:title="i2c_gyro">
<polygon fill="#a7bcd1" stroke="#404040" points="679,-76.05 621,-76.05 621,-57.05 679,-57.05 679,-76.05"/>
<text text-anchor="middle" x="650" y="-64.05" font-family="Helvetica,sans-Serif" font-size="10.00">i2c_gyro</text>
</a>
</g>
</g>
<!-- dir_72b0ae39f9e205f9b537e4731b867472&#45;&gt;dir_68267d1309a1af8e8297ef4c3efbcdba -->
<g id="edge4" class="edge">
<title>dir_72b0ae39f9e205f9b537e4731b867472&#45;&gt;dir_68267d1309a1af8e8297ef4c3efbcdba</title>
<g id="a_edge4"><a xlink:href="dir_000004_000011.html" target="_top">
<path fill="none" stroke="#63b8ff" d="M632.12,-56.88C625.86,-54.09 618.72,-51.17 612,-49.05 559.64,-32.48 496.12,-21.5 461.19,-16.22"/>
<polygon fill="#63b8ff" stroke="#63b8ff" points="461.31,-12.7 450.91,-14.7 460.29,-19.62 461.31,-12.7"/>
</a>
</g>
<g id="a_edge4&#45;headlabel"><a xlink:href="dir_000004_000011.html" target="_top" xlink:title="1">
<text text-anchor="middle" x="465.28" y="-7.91" font-family="Helvetica,sans-Serif" font-size="10.00" fill="#63b8ff">1</text>
</a>
</g>
</g>
<!-- dir_2d83283eea8f07a08020f778f09d7558 -->
<g id="node6" class="node">
<title>dir_2d83283eea8f07a08020f778f09d7558</title>
<g id="a_node6"><a xlink:href="dir_2d83283eea8f07a08020f778f09d7558.html" target="_top" xlink:title="i2c_magneto">
<polygon fill="#a7bcd1" stroke="#404040" points="603,-76.05 523,-76.05 523,-57.05 603,-57.05 603,-76.05"/>
<text text-anchor="middle" x="563" y="-64.05" font-family="Helvetica,sans-Serif" font-size="10.00">i2c_magneto</text>
</a>
</g>
</g>
<!-- dir_2d83283eea8f07a08020f778f09d7558&#45;&gt;dir_68267d1309a1af8e8297ef4c3efbcdba -->
<g id="edge5" class="edge">
<title>dir_2d83283eea8f07a08020f778f09d7558&#45;&gt;dir_68267d1309a1af8e8297ef4c3efbcdba</title>
<g id="a_edge5"><a xlink:href="dir_000005_000011.html" target="_top">
<path fill="none" stroke="#63b8ff" d="M542.43,-57.03C520.05,-47.76 484.24,-32.94 460.19,-22.98"/>
<polygon fill="#63b8ff" stroke="#63b8ff" points="461.25,-19.63 450.67,-19.04 458.57,-26.1 461.25,-19.63"/>
</a>
</g>
<g id="a_edge5&#45;headlabel"><a xlink:href="dir_000005_000011.html" target="_top" xlink:title="1">
<text text-anchor="middle" x="465.66" y="-15.88" font-family="Helvetica,sans-Serif" font-size="10.00" fill="#63b8ff">1</text>
</a>
</g>
</g>
<!-- dir_c1db52a656d3093099d376eb28786d44 -->
<g id="node7" class="node">
<title>dir_c1db52a656d3093099d376eb28786d44</title>
<g id="a_node7"><a xlink:href="dir_c1db52a656d3093099d376eb28786d44.html" target="_top" xlink:title="interrupt">
<polygon fill="#a7bcd1" stroke="#404040" points="504.5,-76.05 445.5,-76.05 445.5,-57.05 504.5,-57.05 504.5,-76.05"/>
<text text-anchor="middle" x="475" y="-64.05" font-family="Helvetica,sans-Serif" font-size="10.00">interrupt</text>
</a>
</g>
</g>
<!-- dir_c1db52a656d3093099d376eb28786d44&#45;&gt;dir_68267d1309a1af8e8297ef4c3efbcdba -->
<g id="edge6" class="edge">
<title>dir_c1db52a656d3093099d376eb28786d44&#45;&gt;dir_68267d1309a1af8e8297ef4c3efbcdba</title>
<g id="a_edge6"><a xlink:href="dir_000006_000011.html" target="_top">
<path fill="none" stroke="#63b8ff" d="M468.39,-56.8C462.74,-49.31 454.46,-38.33 447.55,-29.18"/>
<polygon fill="#63b8ff" stroke="#63b8ff" points="450.3,-27.01 441.48,-21.14 444.71,-31.23 450.3,-27.01"/>
</a>
</g>
<g id="a_edge6&#45;headlabel"><a xlink:href="dir_000006_000011.html" target="_top" xlink:title="1">
<text text-anchor="middle" x="454.73" y="-25.67" font-family="Helvetica,sans-Serif" font-size="10.00" fill="#63b8ff">1</text>
</a>
</g>
</g>
<!-- dir_373158612b3c48e428f6af49c66d1012 -->
<g id="node8" class="node">
<title>dir_373158612b3c48e428f6af49c66d1012</title>
<g id="a_node8"><a xlink:href="dir_373158612b3c48e428f6af49c66d1012.html" target="_top" xlink:title="mag_test">
<polygon fill="#a7bcd1" stroke="#404040" points="427,-76.05 365,-76.05 365,-57.05 427,-57.05 427,-76.05"/>
<text text-anchor="middle" x="396" y="-64.05" font-family="Helvetica,sans-Serif" font-size="10.00">mag_test</text>
</a>
</g>
</g>
<!-- dir_373158612b3c48e428f6af49c66d1012&#45;&gt;dir_68267d1309a1af8e8297ef4c3efbcdba -->
<g id="edge7" class="edge">
<title>dir_373158612b3c48e428f6af49c66d1012&#45;&gt;dir_68267d1309a1af8e8297ef4c3efbcdba</title>
<g id="a_edge7"><a xlink:href="dir_000007_000011.html" target="_top">
<path fill="none" stroke="#63b8ff" d="M402.44,-56.8C407.89,-49.39 415.86,-38.55 422.56,-29.46"/>
<polygon fill="#63b8ff" stroke="#63b8ff" points="425.57,-31.27 428.68,-21.14 419.93,-27.12 425.57,-31.27"/>
</a>
</g>
<g id="a_edge7&#45;headlabel"><a xlink:href="dir_000007_000011.html" target="_top" xlink:title="1">
<text text-anchor="middle" x="425.73" y="-33.34" font-family="Helvetica,sans-Serif" font-size="10.00" fill="#63b8ff">1</text>
</a>
</g>
</g>
<!-- dir_0e5973fcad70f068092871290dcee444 -->
<g id="node9" class="node">
<title>dir_0e5973fcad70f068092871290dcee444</title>
<g id="a_node9"><a xlink:href="dir_0e5973fcad70f068092871290dcee444.html" target="_top" xlink:title="spi_accel">
<polygon fill="#a7bcd1" stroke="#404040" points="347,-76.05 285,-76.05 285,-57.05 347,-57.05 347,-76.05"/>
<text text-anchor="middle" x="316" y="-64.05" font-family="Helvetica,sans-Serif" font-size="10.00">spi_accel</text>
</a>
</g>
</g>
<!-- dir_0e5973fcad70f068092871290dcee444&#45;&gt;dir_68267d1309a1af8e8297ef4c3efbcdba -->
<g id="edge8" class="edge">
<title>dir_0e5973fcad70f068092871290dcee444&#45;&gt;dir_68267d1309a1af8e8297ef4c3efbcdba</title>
<g id="a_edge8"><a xlink:href="dir_000008_000011.html" target="_top">
<path fill="none" stroke="#63b8ff" d="M335.12,-57.03C355.49,-47.96 387.83,-33.56 410.16,-23.61"/>
<polygon fill="#63b8ff" stroke="#63b8ff" points="411.64,-26.79 419.35,-19.52 408.79,-20.39 411.64,-26.79"/>
</a>
</g>
<g id="a_edge8&#45;headlabel"><a xlink:href="dir_000008_000011.html" target="_top" xlink:title="1">
<text text-anchor="middle" x="409.51" y="-28.34" font-family="Helvetica,sans-Serif" font-size="10.00" fill="#63b8ff">1</text>
</a>
</g>
</g>
<!-- dir_b0c22a11d25a146afe72094f2fae7885 -->
<g id="node10" class="node">
<title>dir_b0c22a11d25a146afe72094f2fae7885</title>
<g id="a_node10"><a xlink:href="dir_b0c22a11d25a146afe72094f2fae7885.html" target="_top" xlink:title="spi_basic">
<polygon fill="#a7bcd1" stroke="#404040" points="267,-76.05 205,-76.05 205,-57.05 267,-57.05 267,-76.05"/>
<text text-anchor="middle" x="236" y="-64.05" font-family="Helvetica,sans-Serif" font-size="10.00">spi_basic</text>
</a>
</g>
</g>
<!-- dir_b0c22a11d25a146afe72094f2fae7885&#45;&gt;dir_68267d1309a1af8e8297ef4c3efbcdba -->
<g id="edge9" class="edge">
<title>dir_b0c22a11d25a146afe72094f2fae7885&#45;&gt;dir_68267d1309a1af8e8297ef4c3efbcdba</title>
<g id="a_edge9"><a xlink:href="dir_000009_000011.html" target="_top">
<path fill="none" stroke="#63b8ff" d="M254.89,-57C261.48,-54.22 268.99,-51.28 276,-49.05 322.11,-34.36 377.49,-23.02 409.23,-17.1"/>
<polygon fill="#63b8ff" stroke="#63b8ff" points="410.22,-20.48 419.42,-15.24 408.96,-13.59 410.22,-20.48"/>
</a>
</g>
<g id="a_edge9&#45;headlabel"><a xlink:href="dir_000009_000011.html" target="_top" xlink:title="1">
<text text-anchor="middle" x="407.19" y="-21.42" font-family="Helvetica,sans-Serif" font-size="10.00" fill="#63b8ff">1</text>
</a>
</g>
</g>
<!-- dir_1bf60d74cd5f1792cdbdc52e5ccd3a2e -->
<g id="node11" class="node">
<title>dir_1bf60d74cd5f1792cdbdc52e5ccd3a2e</title>
<g id="a_node11"><a xlink:href="dir_1bf60d74cd5f1792cdbdc52e5ccd3a2e.html" target="_top" xlink:title="spi_gyro">
<polygon fill="#a7bcd1" stroke="#404040" points="187,-76.05 129,-76.05 129,-57.05 187,-57.05 187,-76.05"/>
<text text-anchor="middle" x="158" y="-64.05" font-family="Helvetica,sans-Serif" font-size="10.00">spi_gyro</text>
</a>
</g>
</g>
<!-- dir_1bf60d74cd5f1792cdbdc52e5ccd3a2e&#45;&gt;dir_68267d1309a1af8e8297ef4c3efbcdba -->
<g id="edge10" class="edge">
<title>dir_1bf60d74cd5f1792cdbdc52e5ccd3a2e&#45;&gt;dir_68267d1309a1af8e8297ef4c3efbcdba</title>
<g id="a_edge10"><a xlink:href="dir_000010_000011.html" target="_top">
<path fill="none" stroke="#63b8ff" d="M175.06,-57.02C181.49,-54.11 188.95,-51.08 196,-49.05 271.66,-27.24 364.78,-17.79 409.14,-14.3"/>
<polygon fill="#63b8ff" stroke="#63b8ff" points="409.61,-17.78 419.32,-13.54 409.09,-10.8 409.61,-17.78"/>
</a>
</g>
<g id="a_edge10&#45;headlabel"><a xlink:href="dir_000010_000011.html" target="_top" xlink:title="1">
<text text-anchor="middle" x="406.24" y="-18.38" font-family="Helvetica,sans-Serif" font-size="10.00" fill="#63b8ff">1</text>
</a>
</g>
</g>
<!-- dir_0fe9cd1e19620fd79d7a86ad96ecfe64 -->
<g id="node12" class="node">
<title>dir_0fe9cd1e19620fd79d7a86ad96ecfe64</title>
<g id="a_node12"><a xlink:href="dir_0fe9cd1e19620fd79d7a86ad96ecfe64.html" target="_top" xlink:title="test">
<polygon fill="#a7bcd1" stroke="#404040" points="110.5,-76.05 75.5,-76.05 75.5,-57.05 110.5,-57.05 110.5,-76.05"/>
<text text-anchor="middle" x="93" y="-64.05" font-family="Helvetica,sans-Serif" font-size="10.00">test</text>
</a>
</g>
</g>
<!-- dir_0fe9cd1e19620fd79d7a86ad96ecfe64&#45;&gt;dir_68267d1309a1af8e8297ef4c3efbcdba -->
<g id="edge11" class="edge">
<title>dir_0fe9cd1e19620fd79d7a86ad96ecfe64&#45;&gt;dir_68267d1309a1af8e8297ef4c3efbcdba</title>
<g id="a_edge11"><a xlink:href="dir_000012_000011.html" target="_top">
<path fill="none" stroke="#63b8ff" d="M104.54,-56.97C109.13,-53.98 114.6,-50.91 120,-49.05 222.74,-13.63 354.33,-11.13 409.19,-11.84"/>
<polygon fill="#63b8ff" stroke="#63b8ff" points="409.34,-15.35 419.4,-12.03 409.47,-8.35 409.34,-15.35"/>
</a>
</g>
<g id="a_edge11&#45;headlabel"><a xlink:href="dir_000012_000011.html" target="_top" xlink:title="1">
<text text-anchor="middle" x="405.7" y="-15.62" font-family="Helvetica,sans-Serif" font-size="10.00" fill="#63b8ff">1</text>
</a>
</g>
</g>
<!-- dir_de50eccf6a252f5ec3370f2573e3171e -->
<g id="node13" class="node">
<title>dir_de50eccf6a252f5ec3370f2573e3171e</title>
<g id="a_node13"><a xlink:href="dir_de50eccf6a252f5ec3370f2573e3171e.html" target="_top" xlink:title="test2">
<polygon fill="#a7bcd1" stroke="#404040" points="57.5,-76.05 16.5,-76.05 16.5,-57.05 57.5,-57.05 57.5,-76.05"/>
<text text-anchor="middle" x="37" y="-64.05" font-family="Helvetica,sans-Serif" font-size="10.00">test2</text>
</a>
</g>
</g>
<!-- dir_de50eccf6a252f5ec3370f2573e3171e&#45;&gt;dir_68267d1309a1af8e8297ef4c3efbcdba -->
<g id="edge12" class="edge">
<title>dir_de50eccf6a252f5ec3370f2573e3171e&#45;&gt;dir_68267d1309a1af8e8297ef4c3efbcdba</title>
<g id="a_edge12"><a xlink:href="dir_000013_000011.html" target="_top">
<path fill="none" stroke="#63b8ff" d="M49.92,-56.94C55.04,-53.95 61.1,-50.88 67,-49.05 131.16,-29.14 336.31,-17.39 409.09,-13.76"/>
<polygon fill="#63b8ff" stroke="#63b8ff" points="409.4,-17.25 419.22,-13.27 409.06,-10.26 409.4,-17.25"/>
</a>
</g>
<g id="a_edge12&#45;headlabel"><a xlink:href="dir_000013_000011.html" target="_top" xlink:title="1">
<text text-anchor="middle" x="405.95" y="-17.76" font-family="Helvetica,sans-Serif" font-size="10.00" fill="#63b8ff">1</text>
</a>
</g>
</g>
</g>
</svg>
