<?xml version="1.0" encoding="UTF-8" standalone="no"?>
<!DOCTYPE svg PUBLIC "-//W3C//DTD SVG 1.1//EN"
 "http://www.w3.org/Graphics/SVG/1.1/DTD/svg11.dtd">
<!-- Generated by graphviz version 2.43.0 (0)
 -->
<!-- Title: setup Pages: 1 -->
<svg width="1072pt" height="529pt"
 viewBox="0.00 0.00 1072.00 528.81" xmlns="http://www.w3.org/2000/svg" xmlns:xlink="http://www.w3.org/1999/xlink">
<g id="graph0" class="graph" transform="scale(1 1) rotate(0) translate(4 524.81)">
<title>setup</title>
<!-- Node1 -->
<g id="Node000001" class="node">
<title>Node1</title>
<g id="a_Node000001"><a xlink:title="Initialize I2C, reset/wake the IMU, enable gyro, and start the sweep.">
<polygon fill="#999999" stroke="#666666" points="44,-285 0,-285 0,-266 44,-266 44,-285"/>
<text text-anchor="middle" x="22" y="-273" font-family="Helvetica,sans-Serif" font-size="10.00">setup</text>
</a>
</g>
</g>
<!-- Node2 -->
<g id="Node000002" class="node">
<title>Node2</title>
<g id="a_Node000002"><a xlink:href="classDevLab__ICM20948.html#a91147b3cd4c45bffc8e024f985be7b21" target="_top" xlink:title=" ">
<polygon fill="white" stroke="#666666" points="484,-169 328,-169 328,-150 484,-150 484,-169"/>
<text text-anchor="middle" x="406" y="-157" font-family="Helvetica,sans-Serif" font-size="10.00">DevLab_ICM20948::beginI2C</text>
</a>
</g>
</g>
<!-- Node1&#45;&gt;Node2 -->
<g id="edge1_Node000001_Node000002" class="edge">
<title>Node1&#45;&gt;Node2</title>
<g id="a_edge1_Node000001_Node000002"><a xlink:title=" ">
<path fill="none" stroke="#63b8ff" d="M29.87,-265.81C39.52,-253.01 58.34,-230.77 80,-219.5 154.32,-180.85 249.58,-166.77 317.72,-161.8"/>
<polygon fill="#63b8ff" stroke="#63b8ff" points="318.26,-165.28 328,-161.11 317.78,-158.29 318.26,-165.28"/>
</a>
</g>
</g>
<!-- Node11 -->
<g id="Node000011" class="node">
<title>Node11</title>
<g id="a_Node000011"><a xlink:href="gyr__test_8ino.html#a1cf9f29034d9373db6498335da3d661c" target="_top" xlink:title="Verify the IMU identity register.">
<polygon fill="white" stroke="#666666" points="144,-114 81,-114 81,-95 144,-95 144,-114"/>
<text text-anchor="middle" x="112.5" y="-102" font-family="Helvetica,sans-Serif" font-size="10.00">firstStage</text>
</a>
</g>
</g>
<!-- Node1&#45;&gt;Node11 -->
<g id="edge16_Node000001_Node000011" class="edge">
<title>Node1&#45;&gt;Node11</title>
<g id="a_edge16_Node000001_Node000011"><a xlink:title=" ">
<path fill="none" stroke="#63b8ff" d="M28.01,-265.82C42.25,-238.31 83.12,-159.33 101.88,-123.09"/>
<polygon fill="#63b8ff" stroke="#63b8ff" points="105.06,-124.57 106.54,-114.08 98.84,-121.35 105.06,-124.57"/>
</a>
</g>
</g>
<!-- Node12 -->
<g id="Node000012" class="node">
<title>Node12</title>
<g id="a_Node000012"><a xlink:href="gyr__test_8ino.html#a42633dcf8fe2689c57c8113825f74c66" target="_top" xlink:title="Print a double separator line to Serial.">
<polygon fill="white" stroke="#666666" points="275,-285 181,-285 181,-266 275,-266 275,-285"/>
<text text-anchor="middle" x="228" y="-273" font-family="Helvetica,sans-Serif" font-size="10.00">printDobleLinea</text>
</a>
</g>
</g>
<!-- Node1&#45;&gt;Node12 -->
<g id="edge18_Node000001_Node000012" class="edge">
<title>Node1&#45;&gt;Node12</title>
<g id="a_edge18_Node000001_Node000012"><a xlink:title=" ">
<path fill="none" stroke="#63b8ff" d="M44.06,-275.5C73.69,-275.5 128.73,-275.5 170.73,-275.5"/>
<polygon fill="#63b8ff" stroke="#63b8ff" points="170.83,-279 180.83,-275.5 170.83,-272 170.83,-279"/>
</a>
</g>
</g>
<!-- Node13 -->
<g id="Node000013" class="node">
<title>Node13</title>
<g id="a_Node000013"><a xlink:href="gyr__test_8ino.html#a59a0400232b9ffe7d4395b166f74593a" target="_top" xlink:title="Run the gyroscope validation sweep and print each captured sample.">
<polygon fill="white" stroke="#666666" points="145,-247 80,-247 80,-228 145,-228 145,-247"/>
<text text-anchor="middle" x="112.5" y="-235" font-family="Helvetica,sans-Serif" font-size="10.00">runSweep</text>
</a>
</g>
</g>
<!-- Node1&#45;&gt;Node13 -->
<g id="edge19_Node000001_Node000013" class="edge">
<title>Node1&#45;&gt;Node13</title>
<g id="a_edge19_Node000001_Node000013"><a xlink:title=" ">
<path fill="none" stroke="#63b8ff" d="M44.42,-266.3C55.05,-261.74 68.11,-256.13 79.86,-251.08"/>
<polygon fill="#63b8ff" stroke="#63b8ff" points="81.54,-254.17 89.35,-247.01 78.78,-247.74 81.54,-254.17"/>
</a>
</g>
</g>
<!-- Node16 -->
<g id="Node000016" class="node">
<title>Node16</title>
<g id="a_Node000016"><a xlink:href="classDevLab__ICM20948.html#a4210e842050486637a5967b2a9ef7b57" target="_top" xlink:title=" ">
<polygon fill="white" stroke="#666666" points="695,-482 555,-482 555,-463 695,-463 695,-482"/>
<text text-anchor="middle" x="625" y="-470" font-family="Helvetica,sans-Serif" font-size="10.00">DevLab_ICM20948::sleep</text>
</a>
</g>
</g>
<!-- Node1&#45;&gt;Node16 -->
<g id="edge42_Node000001_Node000016" class="edge">
<title>Node1&#45;&gt;Node16</title>
<g id="a_edge42_Node000001_Node000016"><a xlink:title=" ">
<path fill="none" stroke="#63b8ff" d="M34.05,-285.16C70.47,-316.34 191.3,-414.49 311,-452.5 387.73,-476.86 480.22,-479.76 544.68,-477.85"/>
<polygon fill="#63b8ff" stroke="#63b8ff" points="544.91,-481.35 554.78,-477.51 544.67,-474.35 544.91,-481.35"/>
</a>
</g>
</g>
<!-- Node17 -->
<g id="Node000017" class="node">
<title>Node17</title>
<g id="a_Node000017"><a xlink:href="classDevLab__ICM20948.html#a0d6774b76298645ee45ec0e9065a8891" target="_top" xlink:title=" ">
<polygon fill="white" stroke="#666666" points="704.5,-519 545.5,-519 545.5,-500 704.5,-500 704.5,-519"/>
<text text-anchor="middle" x="625" y="-507" font-family="Helvetica,sans-Serif" font-size="10.00">DevLab_ICM20948::softReset</text>
</a>
</g>
</g>
<!-- Node1&#45;&gt;Node17 -->
<g id="edge43_Node000001_Node000017" class="edge">
<title>Node1&#45;&gt;Node17</title>
<g id="a_edge43_Node000001_Node000017"><a xlink:title=" ">
<path fill="none" stroke="#63b8ff" d="M28.02,-285.03C36.94,-301.37 56.81,-335.21 80,-358.5 118.54,-397.2 132.72,-402.96 181,-428.5 235.72,-457.45 250.77,-464.21 311,-478.5 385.24,-496.11 471.68,-503.73 534.88,-507.02"/>
<polygon fill="#63b8ff" stroke="#63b8ff" points="535.06,-510.54 545.22,-507.53 535.4,-503.55 535.06,-510.54"/>
</a>
</g>
</g>
<!-- Node21 -->
<g id="Node000021" class="node">
<title>Node21</title>
<g id="a_Node000021"><a xlink:href="classDevLab__ICM20948.html#ae9c088334d6ec706bb08b47ef29bd186" target="_top" xlink:title=" ">
<polygon fill="white" stroke="#666666" points="489.5,-326 322.5,-326 322.5,-307 489.5,-307 489.5,-326"/>
<text text-anchor="middle" x="406" y="-314" font-family="Helvetica,sans-Serif" font-size="10.00">DevLab_ICM20948::setSensors</text>
</a>
</g>
</g>
<!-- Node1&#45;&gt;Node21 -->
<g id="edge38_Node000001_Node000021" class="edge">
<title>Node1&#45;&gt;Node21</title>
<g id="a_edge38_Node000001_Node000021"><a xlink:title=" ">
<path fill="none" stroke="#63b8ff" d="M44.22,-281.56C54.87,-284.38 68.03,-287.55 80,-289.5 157.7,-302.19 246.89,-309.06 312.15,-312.69"/>
<polygon fill="#63b8ff" stroke="#63b8ff" points="312.24,-316.2 322.42,-313.24 312.62,-309.21 312.24,-316.2"/>
</a>
</g>
</g>
<!-- Node3 -->
<g id="Node000003" class="node">
<title>Node3</title>
<g id="a_Node000003"><a xlink:href="classDevLab__ICM20948.html#a31460c48549b1d3081e253706f8b15e6" target="_top" xlink:title=" ">
<polygon fill="white" stroke="#666666" points="708.5,-254.5 541.5,-254.5 541.5,-224.5 708.5,-224.5 708.5,-254.5"/>
<text text-anchor="start" x="549.5" y="-242.5" font-family="Helvetica,sans-Serif" font-size="10.00">DevLab_ICM20948::applyBasic</text>
<text text-anchor="middle" x="625" y="-231.5" font-family="Helvetica,sans-Serif" font-size="10.00">Defaults</text>
</a>
</g>
</g>
<!-- Node2&#45;&gt;Node3 -->
<g id="edge2_Node000002_Node000003" class="edge">
<title>Node2&#45;&gt;Node3</title>
<g id="a_edge2_Node000002_Node000003"><a xlink:title=" ">
<path fill="none" stroke="#63b8ff" d="M426.92,-169.1C452.15,-181.02 497.12,-201.49 537,-215.5 542.92,-217.58 549.11,-219.6 555.35,-221.52"/>
<polygon fill="#63b8ff" stroke="#63b8ff" points="554.58,-224.94 565.16,-224.45 556.58,-218.23 554.58,-224.94"/>
</a>
</g>
</g>
<!-- Node4 -->
<g id="Node000004" class="node">
<title>Node4</title>
<g id="a_Node000004"><a xlink:href="classDevLab__ICM20948.html#aaa26fcbfea0e67d45cb1c3ae39654c55" target="_top" xlink:title=" ">
<polygon fill="white" stroke="#666666" points="916,-311 749,-311 749,-292 916,-292 916,-311"/>
<text text-anchor="middle" x="832.5" y="-299" font-family="Helvetica,sans-Serif" font-size="10.00">DevLab_ICM20948::selectBank</text>
</a>
</g>
</g>
<!-- Node2&#45;&gt;Node4 -->
<g id="edge10_Node000002_Node000004" class="edge">
<title>Node2&#45;&gt;Node4</title>
<g id="a_edge10_Node000002_Node000004"><a xlink:title=" ">
<path fill="none" stroke="#63b8ff" d="M425.5,-169C445.36,-179.72 477.27,-198.41 501,-219.5 519.89,-236.29 514.91,-251.24 537,-263.5 570.74,-282.23 665.73,-292.05 738.8,-296.97"/>
<polygon fill="#63b8ff" stroke="#63b8ff" points="738.75,-300.48 748.96,-297.64 739.21,-293.49 738.75,-300.48"/>
</a>
</g>
</g>
<!-- Node5 -->
<g id="Node000005" class="node">
<title>Node5</title>
<g id="a_Node000005"><a xlink:href="classBusIO__7Semi.html#aa633479356af692cb9ea334771b7c0c5" target="_top" xlink:title=" ">
<polygon fill="white" stroke="#666666" points="1064,-339 952,-339 952,-320 1064,-320 1064,-339"/>
<text text-anchor="middle" x="1008" y="-327" font-family="Helvetica,sans-Serif" font-size="10.00">BusIO_7Semi::write</text>
</a>
</g>
</g>
<!-- Node2&#45;&gt;Node5 -->
<g id="edge11_Node000002_Node000005" class="edge">
<title>Node2&#45;&gt;Node5</title>
<g id="a_edge11_Node000002_Node000005"><a xlink:title=" ">
<path fill="none" stroke="#63b8ff" d="M428.45,-149.99C463.89,-134.32 531.34,-104.67 537,-103.5 702.8,-69.31 781.49,-38.71 916,-141.5 972.12,-184.38 995.52,-270.84 1003.5,-309.74"/>
<polygon fill="#63b8ff" stroke="#63b8ff" points="1000.11,-310.62 1005.43,-319.78 1006.98,-309.3 1000.11,-310.62"/>
</a>
</g>
</g>
<!-- Node6 -->
<g id="Node000006" class="node">
<title>Node6</title>
<g id="a_Node000006"><a xlink:href="classI2C__Interface.html#ae8147c4d6e54fe2622825d7e17493152" target="_top" xlink:title=" ">
<polygon fill="white" stroke="#666666" points="690,-132 560,-132 560,-113 690,-113 690,-132"/>
<text text-anchor="middle" x="625" y="-120" font-family="Helvetica,sans-Serif" font-size="10.00">I2C_Interface::beginI2C</text>
</a>
</g>
</g>
<!-- Node2&#45;&gt;Node6 -->
<g id="edge6_Node000002_Node000006" class="edge">
<title>Node2&#45;&gt;Node6</title>
<g id="a_edge6_Node000002_Node000006"><a xlink:title=" ">
<path fill="none" stroke="#63b8ff" d="M462.88,-149.97C491.88,-145.03 527.49,-138.96 557.85,-133.78"/>
<polygon fill="#63b8ff" stroke="#63b8ff" points="558.66,-137.19 567.93,-132.06 557.48,-130.29 558.66,-137.19"/>
</a>
</g>
</g>
<!-- Node7 -->
<g id="Node000007" class="node">
<title>Node7</title>
<g id="a_Node000007"><a xlink:href="classDevLab__ICM20948.html#a8bef7eafb3b67eb736f491d0df453b9e" target="_top" xlink:title=" ">
<polygon fill="white" stroke="#666666" points="713,-19 537,-19 537,0 713,0 713,-19"/>
<text text-anchor="middle" x="625" y="-7" font-family="Helvetica,sans-Serif" font-size="10.00">DevLab_ICM20948::readWhoAmI</text>
</a>
</g>
</g>
<!-- Node2&#45;&gt;Node7 -->
<g id="edge7_Node000002_Node000007" class="edge">
<title>Node2&#45;&gt;Node7</title>
<g id="a_edge7_Node000002_Node000007"><a xlink:title=" ">
<path fill="none" stroke="#63b8ff" d="M413.28,-149.99C430.09,-125.35 478.81,-59.18 537,-27.5 540.31,-25.7 543.78,-24.08 547.35,-22.62"/>
<polygon fill="#63b8ff" stroke="#63b8ff" points="548.79,-25.82 557,-19.12 546.4,-19.24 548.79,-25.82"/>
</a>
</g>
</g>
<!-- Node9 -->
<g id="Node000009" class="node">
<title>Node9</title>
<g id="a_Node000009"><a xlink:href="classBusIO__7Semi.html#ac7b3d1c425f7187abbe1bbec64d9ccea" target="_top" xlink:title=" ">
<polygon fill="white" stroke="#666666" points="687.5,-169 562.5,-169 562.5,-150 687.5,-150 687.5,-169"/>
<text text-anchor="middle" x="625" y="-157" font-family="Helvetica,sans-Serif" font-size="10.00">BusIO_7Semi::writeBit</text>
</a>
</g>
</g>
<!-- Node2&#45;&gt;Node9 -->
<g id="edge12_Node000002_Node000009" class="edge">
<title>Node2&#45;&gt;Node9</title>
<g id="a_edge12_Node000002_Node000009"><a xlink:title=" ">
<path fill="none" stroke="#63b8ff" d="M484.12,-159.5C506.31,-159.5 530.41,-159.5 552.26,-159.5"/>
<polygon fill="#63b8ff" stroke="#63b8ff" points="552.46,-163 562.46,-159.5 552.46,-156 552.46,-163"/>
</a>
</g>
</g>
<!-- Node3&#45;&gt;Node4 -->
<g id="edge3_Node000003_Node000004" class="edge">
<title>Node3&#45;&gt;Node4</title>
<g id="a_edge3_Node000003_Node000004"><a xlink:title=" ">
<path fill="none" stroke="#63b8ff" d="M675.75,-254.51C710.73,-265.06 757.01,-279.03 790.01,-288.98"/>
<polygon fill="#63b8ff" stroke="#63b8ff" points="789.21,-292.4 799.8,-291.93 791.23,-285.7 789.21,-292.4"/>
</a>
</g>
</g>
<!-- Node3&#45;&gt;Node5 -->
<g id="edge5_Node000003_Node000005" class="edge">
<title>Node3&#45;&gt;Node5</title>
<g id="a_edge5_Node000003_Node000005"><a xlink:title=" ">
<path fill="none" stroke="#63b8ff" d="M708.52,-245.02C767.44,-250.63 847.97,-261.76 916,-283.5 939.76,-291.09 964.93,-304.26 982.77,-314.57"/>
<polygon fill="#63b8ff" stroke="#63b8ff" points="981.47,-317.87 991.86,-319.95 985.04,-311.85 981.47,-317.87"/>
</a>
</g>
</g>
<!-- Node4&#45;&gt;Node5 -->
<g id="edge4_Node000004_Node000005" class="edge">
<title>Node4&#45;&gt;Node5</title>
<g id="a_edge4_Node000004_Node000005"><a xlink:title=" ">
<path fill="none" stroke="#63b8ff" d="M892.72,-311.06C908.58,-313.62 925.8,-316.4 941.95,-319"/>
<polygon fill="#63b8ff" stroke="#63b8ff" points="941.41,-322.46 951.84,-320.6 942.53,-315.55 941.41,-322.46"/>
</a>
</g>
</g>
<!-- Node7&#45;&gt;Node4 -->
<g id="edge9_Node000007_Node000004" class="edge">
<title>Node7&#45;&gt;Node4</title>
<g id="a_edge9_Node000007_Node000004"><a xlink:title=" ">
<path fill="none" stroke="#63b8ff" d="M701.53,-19.06C705.69,-21.38 709.57,-24.17 713,-27.5 762.51,-75.55 721.35,-115.29 749,-178.5 766.82,-219.23 798.21,-261.05 816.7,-283.91"/>
<polygon fill="#63b8ff" stroke="#63b8ff" points="814.05,-286.2 823.1,-291.7 819.46,-281.75 814.05,-286.2"/>
</a>
</g>
</g>
<!-- Node8 -->
<g id="Node000008" class="node">
<title>Node8</title>
<g id="a_Node000008"><a xlink:href="classBusIO__7Semi.html#a933c66d9a1afe84102323e209a93dd31" target="_top" xlink:title=" ">
<polygon fill="white" stroke="#666666" points="1062.5,-94 953.5,-94 953.5,-75 1062.5,-75 1062.5,-94"/>
<text text-anchor="middle" x="1008" y="-82" font-family="Helvetica,sans-Serif" font-size="10.00">BusIO_7Semi::read</text>
</a>
</g>
</g>
<!-- Node7&#45;&gt;Node8 -->
<g id="edge8_Node000007_Node000008" class="edge">
<title>Node7&#45;&gt;Node8</title>
<g id="a_edge8_Node000007_Node000008"><a xlink:title=" ">
<path fill="none" stroke="#63b8ff" d="M713.19,-17.43C771.24,-23.86 848.89,-34.66 916,-51.5 936.03,-56.53 957.8,-64.33 975.02,-71.09"/>
<polygon fill="#63b8ff" stroke="#63b8ff" points="974,-74.45 984.59,-74.92 976.6,-67.95 974,-74.45"/>
</a>
</g>
</g>
<!-- Node10 -->
<g id="Node000010" class="node">
<title>Node10</title>
<g id="a_Node000010"><a xlink:href="classBusIO__7Semi.html#a855c7388d4118e632c84c7f8e2e3ddc2" target="_top" xlink:title=" ">
<polygon fill="white" stroke="#666666" points="898,-170 767,-170 767,-151 898,-151 898,-170"/>
<text text-anchor="middle" x="832.5" y="-158" font-family="Helvetica,sans-Serif" font-size="10.00">BusIO_7Semi::writeBits</text>
</a>
</g>
</g>
<!-- Node9&#45;&gt;Node10 -->
<g id="edge13_Node000009_Node000010" class="edge">
<title>Node9&#45;&gt;Node10</title>
<g id="a_edge13_Node000009_Node000010"><a xlink:title=" ">
<path fill="none" stroke="#63b8ff" d="M687.66,-159.8C709.29,-159.91 733.83,-160.02 756.44,-160.13"/>
<polygon fill="#63b8ff" stroke="#63b8ff" points="756.66,-163.64 766.67,-160.18 756.69,-156.64 756.66,-163.64"/>
</a>
</g>
</g>
<!-- Node10&#45;&gt;Node5 -->
<g id="edge15_Node000010_Node000005" class="edge">
<title>Node10&#45;&gt;Node5</title>
<g id="a_edge15_Node000010_Node000005"><a xlink:title=" ">
<path fill="none" stroke="#63b8ff" d="M843.33,-170.07C871.58,-197.59 953.35,-277.24 989.48,-312.43"/>
<polygon fill="#63b8ff" stroke="#63b8ff" points="987.24,-315.14 996.85,-319.61 992.13,-310.13 987.24,-315.14"/>
</a>
</g>
</g>
<!-- Node10&#45;&gt;Node8 -->
<g id="edge14_Node000010_Node000008" class="edge">
<title>Node10&#45;&gt;Node8</title>
<g id="a_edge14_Node000010_Node000008"><a xlink:title=" ">
<path fill="none" stroke="#63b8ff" d="M873.19,-151C886.99,-147.16 902.4,-142.27 916,-136.5 940.25,-126.21 966.17,-110.93 984.12,-99.6"/>
<polygon fill="#63b8ff" stroke="#63b8ff" points="986.21,-102.42 992.73,-94.07 982.43,-96.53 986.21,-102.42"/>
</a>
</g>
</g>
<!-- Node11&#45;&gt;Node7 -->
<g id="edge17_Node000011_Node000007" class="edge">
<title>Node11&#45;&gt;Node7</title>
<g id="a_edge17_Node000011_Node000007"><a xlink:title=" ">
<path fill="none" stroke="#63b8ff" d="M144.02,-97.45C155.58,-94.85 168.88,-91.94 181,-89.5 314.03,-62.72 470.38,-35.47 557.23,-20.7"/>
<polygon fill="#63b8ff" stroke="#63b8ff" points="557.94,-24.13 567.22,-19.01 556.77,-17.23 557.94,-24.13"/>
</a>
</g>
</g>
<!-- Node13&#45;&gt;Node12 -->
<g id="edge34_Node000013_Node000012" class="edge">
<title>Node13&#45;&gt;Node12</title>
<g id="a_edge34_Node000013_Node000012"><a xlink:title=" ">
<path fill="none" stroke="#63b8ff" d="M142.14,-247.09C156.25,-251.81 173.47,-257.58 188.7,-262.68"/>
<polygon fill="#63b8ff" stroke="#63b8ff" points="187.77,-266.06 198.37,-265.91 190,-259.42 187.77,-266.06"/>
</a>
</g>
</g>
<!-- Node14 -->
<g id="Node000014" class="node">
<title>Node14</title>
<g id="a_Node000014"><a xlink:href="mag__test_8ino.html#af42a493b8d96759f43d866fbe725cf3d" target="_top" xlink:title="Initialize the magnetometer and collect samples for each mode.">
<polygon fill="white" stroke="#666666" points="269.5,-247 186.5,-247 186.5,-228 269.5,-228 269.5,-247"/>
<text text-anchor="middle" x="228" y="-235" font-family="Helvetica,sans-Serif" font-size="10.00">applySettings</text>
</a>
</g>
</g>
<!-- Node13&#45;&gt;Node14 -->
<g id="edge20_Node000013_Node000014" class="edge">
<title>Node13&#45;&gt;Node14</title>
<g id="a_edge20_Node000013_Node000014"><a xlink:title=" ">
<path fill="none" stroke="#63b8ff" d="M145.12,-237.5C154.76,-237.5 165.62,-237.5 176.19,-237.5"/>
<polygon fill="#63b8ff" stroke="#63b8ff" points="176.2,-241 186.2,-237.5 176.2,-234 176.2,-241"/>
</a>
</g>
</g>
<!-- Node20 -->
<g id="Node000020" class="node">
<title>Node20</title>
<g id="a_Node000020"><a xlink:href="classDevLab__ICM20948.html#a006c131f860f1fc81c587b3d8a77522d" target="_top" xlink:title=" ">
<polygon fill="white" stroke="#666666" points="704,-56 546,-56 546,-37 704,-37 704,-56"/>
<text text-anchor="middle" x="625" y="-44" font-family="Helvetica,sans-Serif" font-size="10.00">DevLab_ICM20948::readGyro</text>
</a>
</g>
</g>
<!-- Node13&#45;&gt;Node20 -->
<g id="edge35_Node000013_Node000020" class="edge">
<title>Node13&#45;&gt;Node20</title>
<g id="a_edge35_Node000013_Node000020"><a xlink:title=" ">
<path fill="none" stroke="#63b8ff" d="M130.81,-227.91C164.68,-209.39 242.42,-168.09 311,-140.5 408.8,-101.16 435.63,-97.44 537,-68.5 548.94,-65.09 561.87,-61.67 574.03,-58.58"/>
<polygon fill="#63b8ff" stroke="#63b8ff" points="575.17,-61.9 584.02,-56.07 573.47,-55.12 575.17,-61.9"/>
</a>
</g>
</g>
<!-- Node15 -->
<g id="Node000015" class="node">
<title>Node15</title>
<g id="a_Node000015"><a xlink:href="classDevLab__ICM20948.html#a7b137192f8eb987cd221808c2c6c3561" target="_top" xlink:title=" ">
<polygon fill="white" stroke="#666666" points="481,-443 331,-443 331,-424 481,-424 481,-443"/>
<text text-anchor="middle" x="406" y="-431" font-family="Helvetica,sans-Serif" font-size="10.00">DevLab_ICM20948::initMag</text>
</a>
</g>
</g>
<!-- Node14&#45;&gt;Node15 -->
<g id="edge21_Node000014_Node000015" class="edge">
<title>Node14&#45;&gt;Node15</title>
<g id="a_edge21_Node000014_Node000015"><a xlink:title=" ">
<path fill="none" stroke="#63b8ff" d="M259.66,-247.08C265.23,-249.81 270.64,-253.24 275,-257.5 302.3,-284.2 289.49,-303.96 311,-335.5 332.83,-367.51 365.37,-398.81 385.88,-417.12"/>
<polygon fill="#63b8ff" stroke="#63b8ff" points="383.79,-419.94 393.61,-423.92 388.41,-414.69 383.79,-419.94"/>
</a>
</g>
</g>
<!-- Node18 -->
<g id="Node000018" class="node">
<title>Node18</title>
<g id="a_Node000018"><a xlink:href="classDevLab__ICM20948.html#a9f9b29867c2b78efef3ef9688f886314" target="_top" xlink:title=" ">
<polygon fill="white" stroke="#666666" points="703,-206 547,-206 547,-187 703,-187 703,-206"/>
<text text-anchor="middle" x="625" y="-194" font-family="Helvetica,sans-Serif" font-size="10.00">DevLab_ICM20948::readMag</text>
</a>
</g>
</g>
<!-- Node14&#45;&gt;Node18 -->
<g id="edge30_Node000014_Node000018" class="edge">
<title>Node14&#45;&gt;Node18</title>
<g id="a_edge30_Node000014_Node000018"><a xlink:title=" ">
<path fill="none" stroke="#63b8ff" d="M267.17,-227.94C280.91,-224.81 296.58,-221.6 311,-219.5 386.72,-208.47 473.55,-202.62 536.52,-199.58"/>
<polygon fill="#63b8ff" stroke="#63b8ff" points="536.98,-203.07 546.81,-199.1 536.66,-196.07 536.98,-203.07"/>
</a>
</g>
</g>
<!-- Node19 -->
<g id="Node000019" class="node">
<title>Node19</title>
<g id="a_Node000019"><a xlink:href="classDevLab__ICM20948.html#a0882a30454b0716953f5f375613d24b3" target="_top" xlink:title=" ">
<polygon fill="white" stroke="#666666" points="501,-247 311,-247 311,-228 501,-228 501,-247"/>
<text text-anchor="middle" x="406" y="-235" font-family="Helvetica,sans-Serif" font-size="10.00">DevLab_ICM20948::setMagOpMode</text>
</a>
</g>
</g>
<!-- Node14&#45;&gt;Node19 -->
<g id="edge33_Node000014_Node000019" class="edge">
<title>Node14&#45;&gt;Node19</title>
<g id="a_edge33_Node000014_Node000019"><a xlink:title=" ">
<path fill="none" stroke="#63b8ff" d="M269.82,-237.5C279.31,-237.5 289.83,-237.5 300.7,-237.5"/>
<polygon fill="#63b8ff" stroke="#63b8ff" points="300.75,-241 310.75,-237.5 300.75,-234 300.75,-241"/>
</a>
</g>
</g>
<!-- Node15&#45;&gt;Node4 -->
<g id="edge22_Node000015_Node000004" class="edge">
<title>Node15&#45;&gt;Node4</title>
<g id="a_edge22_Node000015_Node000004"><a xlink:title=" ">
<path fill="none" stroke="#63b8ff" d="M437.87,-423.9C513.22,-400.47 706.54,-340.36 791,-314.09"/>
<polygon fill="#63b8ff" stroke="#63b8ff" points="792.24,-317.37 800.74,-311.06 790.16,-310.69 792.24,-317.37"/>
</a>
</g>
</g>
<!-- Node15&#45;&gt;Node5 -->
<g id="edge29_Node000015_Node000005" class="edge">
<title>Node15&#45;&gt;Node5</title>
<g id="a_edge29_Node000015_Node000005"><a xlink:title=" ">
<path fill="none" stroke="#63b8ff" d="M461.84,-423.99C572.73,-404.77 823.16,-361.37 942.02,-340.76"/>
<polygon fill="#63b8ff" stroke="#63b8ff" points="942.82,-344.18 952.07,-339.02 941.62,-337.28 942.82,-344.18"/>
</a>
</g>
</g>
<!-- Node15&#45;&gt;Node16 -->
<g id="edge23_Node000015_Node000016" class="edge">
<title>Node15&#45;&gt;Node16</title>
<g id="a_edge23_Node000015_Node000016"><a xlink:title=" ">
<path fill="none" stroke="#63b8ff" d="M460.08,-443.04C490.54,-448.51 528.96,-455.42 560.95,-461.17"/>
<polygon fill="#63b8ff" stroke="#63b8ff" points="560.63,-464.67 571.09,-462.99 561.87,-457.78 560.63,-464.67"/>
</a>
</g>
</g>
<!-- Node15&#45;&gt;Node17 -->
<g id="edge26_Node000015_Node000017" class="edge">
<title>Node15&#45;&gt;Node17</title>
<g id="a_edge26_Node000015_Node000017"><a xlink:title=" ">
<path fill="none" stroke="#63b8ff" d="M425.02,-443.04C449.68,-455.75 495.6,-478.16 537,-491.5 544.04,-493.77 551.5,-495.82 558.97,-497.66"/>
<polygon fill="#63b8ff" stroke="#63b8ff" points="558.23,-501.08 568.77,-499.94 559.83,-494.26 558.23,-501.08"/>
</a>
</g>
</g>
<!-- Node16&#45;&gt;Node4 -->
<g id="edge24_Node000016_Node000004" class="edge">
<title>Node16&#45;&gt;Node4</title>
<g id="a_edge24_Node000016_Node000004"><a xlink:title=" ">
<path fill="none" stroke="#63b8ff" d="M640.57,-462.93C658.18,-451.18 688.51,-430.36 713,-410.5 750.87,-379.79 792.15,-340.32 814.61,-318.29"/>
<polygon fill="#63b8ff" stroke="#63b8ff" points="817.07,-320.78 821.73,-311.27 812.15,-315.8 817.07,-320.78"/>
</a>
</g>
</g>
<!-- Node16&#45;&gt;Node5 -->
<g id="edge25_Node000016_Node000005" class="edge">
<title>Node16&#45;&gt;Node5</title>
<g id="a_edge25_Node000016_Node000005"><a xlink:title=" ">
<path fill="none" stroke="#63b8ff" d="M695.22,-481.9C756.95,-486.92 847.84,-485.76 916,-448.5 957.28,-425.93 985.66,-375.84 998.76,-348.39"/>
<polygon fill="#63b8ff" stroke="#63b8ff" points="1002.04,-349.63 1003.02,-339.09 995.67,-346.72 1002.04,-349.63"/>
</a>
</g>
</g>
<!-- Node17&#45;&gt;Node4 -->
<g id="edge27_Node000017_Node000004" class="edge">
<title>Node17&#45;&gt;Node4</title>
<g id="a_edge27_Node000017_Node000004"><a xlink:title=" ">
<path fill="none" stroke="#63b8ff" d="M697.36,-499.86C702.89,-497.6 708.19,-494.85 713,-491.5 775.39,-448.02 811.62,-360.06 825.24,-320.97"/>
<polygon fill="#63b8ff" stroke="#63b8ff" points="828.62,-321.92 828.49,-311.32 821.98,-319.69 828.62,-321.92"/>
</a>
</g>
</g>
<!-- Node17&#45;&gt;Node5 -->
<g id="edge28_Node000017_Node000005" class="edge">
<title>Node17&#45;&gt;Node5</title>
<g id="a_edge28_Node000017_Node000005"><a xlink:title=" ">
<path fill="none" stroke="#63b8ff" d="M698.2,-519.02C760.65,-523.52 850.88,-520.71 916,-479.5 964.33,-448.91 990.72,-382.49 1001.35,-349.27"/>
<polygon fill="#63b8ff" stroke="#63b8ff" points="1004.8,-349.95 1004.36,-339.37 998.1,-347.92 1004.8,-349.95"/>
</a>
</g>
</g>
<!-- Node18&#45;&gt;Node4 -->
<g id="edge32_Node000018_Node000004" class="edge">
<title>Node18&#45;&gt;Node4</title>
<g id="a_edge32_Node000018_Node000004"><a xlink:title=" ">
<path fill="none" stroke="#63b8ff" d="M685.56,-206.06C694.95,-208.54 704.39,-211.64 713,-215.5 752.49,-233.2 791.87,-265.39 813.81,-284.98"/>
<polygon fill="#63b8ff" stroke="#63b8ff" points="811.58,-287.67 821.33,-291.81 816.28,-282.49 811.58,-287.67"/>
</a>
</g>
</g>
<!-- Node18&#45;&gt;Node8 -->
<g id="edge31_Node000018_Node000008" class="edge">
<title>Node18&#45;&gt;Node8</title>
<g id="a_edge31_Node000018_Node000008"><a xlink:title=" ">
<path fill="none" stroke="#63b8ff" d="M690.25,-186.88C698.17,-184.43 705.95,-181.36 713,-177.5 732.86,-166.65 729.16,-152.38 749,-141.5 809.75,-108.2 888.61,-94.35 943.07,-88.6"/>
<polygon fill="#63b8ff" stroke="#63b8ff" points="943.68,-92.05 953.28,-87.58 942.99,-85.09 943.68,-92.05"/>
</a>
</g>
</g>
<!-- Node20&#45;&gt;Node4 -->
<g id="edge37_Node000020_Node000004" class="edge">
<title>Node20&#45;&gt;Node4</title>
<g id="a_edge37_Node000020_Node000004"><a xlink:title=" ">
<path fill="none" stroke="#63b8ff" d="M646.96,-56.1C666.2,-65.78 694.44,-82.31 713,-103.5 737.36,-131.32 730.65,-146.4 749,-178.5 771.19,-217.33 801.3,-260.17 818.34,-283.65"/>
<polygon fill="#63b8ff" stroke="#63b8ff" points="815.65,-285.91 824.38,-291.92 821.31,-281.78 815.65,-285.91"/>
</a>
</g>
</g>
<!-- Node20&#45;&gt;Node8 -->
<g id="edge36_Node000020_Node000008" class="edge">
<title>Node20&#45;&gt;Node8</title>
<g id="a_edge36_Node000020_Node000008"><a xlink:title=" ">
<path fill="none" stroke="#63b8ff" d="M704.31,-51.49C762.75,-55.57 844.51,-62.05 916,-70.5 924.77,-71.54 933.98,-72.78 943.05,-74.08"/>
<polygon fill="#63b8ff" stroke="#63b8ff" points="942.79,-77.58 953.19,-75.58 943.81,-70.66 942.79,-77.58"/>
</a>
</g>
</g>
<!-- Node21&#45;&gt;Node4 -->
<g id="edge39_Node000021_Node000004" class="edge">
<title>Node21&#45;&gt;Node4</title>
<g id="a_edge39_Node000021_Node000004"><a xlink:title=" ">
<path fill="none" stroke="#63b8ff" d="M489.6,-313.58C561.02,-311.06 664.17,-307.41 738.47,-304.79"/>
<polygon fill="#63b8ff" stroke="#63b8ff" points="738.88,-308.27 748.75,-304.42 738.64,-301.28 738.88,-308.27"/>
</a>
</g>
</g>
<!-- Node21&#45;&gt;Node5 -->
<g id="edge40_Node000021_Node000005" class="edge">
<title>Node21&#45;&gt;Node5</title>
<g id="a_edge40_Node000021_Node000005"><a xlink:title=" ">
<path fill="none" stroke="#63b8ff" d="M489.51,-320.7C505.27,-321.39 521.64,-322.03 537,-322.5 681.52,-326.91 851.12,-328.57 941.86,-329.17"/>
<polygon fill="#63b8ff" stroke="#63b8ff" points="941.97,-332.67 952,-329.24 942.02,-325.67 941.97,-332.67"/>
</a>
</g>
</g>
<!-- Node21&#45;&gt;Node9 -->
<g id="edge41_Node000021_Node000009" class="edge">
<title>Node21&#45;&gt;Node9</title>
<g id="a_edge41_Node000021_Node000009"><a xlink:title=" ">
<path fill="none" stroke="#63b8ff" d="M429.36,-306.82C450.23,-296.82 481.07,-279.45 501,-256.5 526.3,-227.37 506.84,-201.57 537,-177.5 541.71,-173.74 547.01,-170.71 552.61,-168.27"/>
<polygon fill="#63b8ff" stroke="#63b8ff" points="554.1,-171.45 562.26,-164.7 551.67,-164.89 554.1,-171.45"/>
</a>
</g>
</g>
</g>
</svg>
