<?xml version="1.0" encoding="UTF-8" standalone="no"?>
<!DOCTYPE svg PUBLIC "-//W3C//DTD SVG 1.1//EN"
 "http://www.w3.org/Graphics/SVG/1.1/DTD/svg11.dtd">
<!-- Generated by graphviz version 2.43.0 (0)
 -->
<!-- Title: applySettings Pages: 1 -->
<svg width="798pt" height="140pt"
 viewBox="0.00 0.00 798.00 140.01" xmlns="http://www.w3.org/2000/svg" xmlns:xlink="http://www.w3.org/1999/xlink">
<g id="graph0" class="graph" transform="scale(1 1) rotate(0) translate(4 136.01)">
<title>applySettings</title>
<!-- Node1 -->
<g id="Node000001" class="node">
<title>Node1</title>
<g id="a_Node000001"><a xlink:title="Apply one gyroscope full&#45;scale and DLPF configuration.">
<polygon fill="#999999" stroke="#666666" points="83,-72.5 0,-72.5 0,-53.5 83,-53.5 83,-72.5"/>
<text text-anchor="middle" x="41.5" y="-60.5" font-family="Helvetica,sans-Serif" font-size="10.00">applySettings</text>
</a>
</g>
</g>
<!-- Node2 -->
<g id="Node000002" class="node">
<title>Node2</title>
<g id="a_Node000002"><a xlink:href="classDevLab__ICM20948.html#a0bea2c662c285120253851c80289e077" target="_top" xlink:title=" ">
<polygon fill="white" stroke="#666666" points="272,-115.5 119,-115.5 119,-96.5 272,-96.5 272,-115.5"/>
<text text-anchor="middle" x="195.5" y="-103.5" font-family="Helvetica,sans-Serif" font-size="10.00">DevLab_ICM20948::setDLPF</text>
</a>
</g>
</g>
<!-- Node1&#45;&gt;Node2 -->
<g id="edge1_Node000001_Node000002" class="edge">
<title>Node1&#45;&gt;Node2</title>
<g id="a_edge1_Node000001_Node000002"><a xlink:title=" ">
<path fill="none" stroke="#63b8ff" d="M71.44,-72.51C85.71,-77.09 103.19,-82.54 119,-87 127.41,-89.38 136.39,-91.76 145.11,-94.01"/>
<polygon fill="#63b8ff" stroke="#63b8ff" points="144.26,-97.4 154.81,-96.47 145.98,-90.61 144.26,-97.4"/>
</a>
</g>
</g>
<!-- Node8 -->
<g id="Node000008" class="node">
<title>Node8</title>
<g id="a_Node000008"><a xlink:href="classDevLab__ICM20948.html#a16cc9db132bb7a2b706275c9f5a03773" target="_top" xlink:title=" ">
<polygon fill="white" stroke="#666666" points="271.5,-30 119.5,-30 119.5,0 271.5,0 271.5,-30"/>
<text text-anchor="start" x="127.5" y="-18" font-family="Helvetica,sans-Serif" font-size="10.00">DevLab_ICM20948::setGyro</text>
<text text-anchor="middle" x="195.5" y="-7" font-family="Helvetica,sans-Serif" font-size="10.00">DivRate</text>
</a>
</g>
</g>
<!-- Node1&#45;&gt;Node8 -->
<g id="edge8_Node000001_Node000008" class="edge">
<title>Node1&#45;&gt;Node8</title>
<g id="a_edge8_Node000001_Node000008"><a xlink:title=" ">
<path fill="none" stroke="#63b8ff" d="M72.89,-53.4C91.31,-47.59 115.39,-39.98 137.26,-33.08"/>
<polygon fill="#63b8ff" stroke="#63b8ff" points="138.32,-36.41 146.8,-30.06 136.21,-29.74 138.32,-36.41"/>
</a>
</g>
</g>
<!-- Node9 -->
<g id="Node000009" class="node">
<title>Node9</title>
<g id="a_Node000009"><a xlink:href="classDevLab__ICM20948.html#a6a06dbd14558e50d40595de82502d632" target="_top" xlink:title=" ">
<polygon fill="white" stroke="#666666" points="271.5,-78 119.5,-78 119.5,-48 271.5,-48 271.5,-78"/>
<text text-anchor="start" x="127.5" y="-66" font-family="Helvetica,sans-Serif" font-size="10.00">DevLab_ICM20948::setGyro</text>
<text text-anchor="middle" x="195.5" y="-55" font-family="Helvetica,sans-Serif" font-size="10.00">Scale</text>
</a>
</g>
</g>
<!-- Node1&#45;&gt;Node9 -->
<g id="edge11_Node000001_Node000009" class="edge">
<title>Node1&#45;&gt;Node9</title>
<g id="a_edge11_Node000001_Node000009"><a xlink:title=" ">
<path fill="none" stroke="#63b8ff" d="M83.23,-63C91.35,-63 100.15,-63 109.13,-63"/>
<polygon fill="#63b8ff" stroke="#63b8ff" points="109.32,-66.5 119.32,-63 109.32,-59.5 109.32,-66.5"/>
</a>
</g>
</g>
<!-- Node3 -->
<g id="Node000003" class="node">
<title>Node3</title>
<g id="a_Node000003"><a xlink:href="classDevLab__ICM20948.html#aaa26fcbfea0e67d45cb1c3ae39654c55" target="_top" xlink:title=" ">
<polygon fill="white" stroke="#666666" points="475,-39.5 308,-39.5 308,-20.5 475,-20.5 475,-39.5"/>
<text text-anchor="middle" x="391.5" y="-27.5" font-family="Helvetica,sans-Serif" font-size="10.00">DevLab_ICM20948::selectBank</text>
</a>
</g>
</g>
<!-- Node2&#45;&gt;Node3 -->
<g id="edge2_Node000002_Node000003" class="edge">
<title>Node2&#45;&gt;Node3</title>
<g id="a_edge2_Node000002_Node000003"><a xlink:title=" ">
<path fill="none" stroke="#63b8ff" d="M240.87,-96.42C251.21,-93.76 262.09,-90.59 272,-87 304.83,-75.11 340.72,-57.09 364.3,-44.5"/>
<polygon fill="#63b8ff" stroke="#63b8ff" points="366.17,-47.47 373.31,-39.64 362.85,-41.31 366.17,-47.47"/>
</a>
</g>
</g>
<!-- Node5 -->
<g id="Node000005" class="node">
<title>Node5</title>
<g id="a_Node000005"><a xlink:href="classBusIO__7Semi.html#ac7b3d1c425f7187abbe1bbec64d9ccea" target="_top" xlink:title=" ">
<polygon fill="white" stroke="#666666" points="454,-115.5 329,-115.5 329,-96.5 454,-96.5 454,-115.5"/>
<text text-anchor="middle" x="391.5" y="-103.5" font-family="Helvetica,sans-Serif" font-size="10.00">BusIO_7Semi::writeBit</text>
</a>
</g>
</g>
<!-- Node2&#45;&gt;Node5 -->
<g id="edge4_Node000002_Node000005" class="edge">
<title>Node2&#45;&gt;Node5</title>
<g id="a_edge4_Node000002_Node000005"><a xlink:title=" ">
<path fill="none" stroke="#63b8ff" d="M272.06,-106C287.36,-106 303.41,-106 318.58,-106"/>
<polygon fill="#63b8ff" stroke="#63b8ff" points="318.92,-109.5 328.92,-106 318.92,-102.5 318.92,-109.5"/>
</a>
</g>
</g>
<!-- Node6 -->
<g id="Node000006" class="node">
<title>Node6</title>
<g id="a_Node000006"><a xlink:href="classBusIO__7Semi.html#a855c7388d4118e632c84c7f8e2e3ddc2" target="_top" xlink:title=" ">
<polygon fill="#fff0f0" stroke="red" points="642,-96.5 511,-96.5 511,-77.5 642,-77.5 642,-96.5"/>
<text text-anchor="middle" x="576.5" y="-84.5" font-family="Helvetica,sans-Serif" font-size="10.00">BusIO_7Semi::writeBits</text>
</a>
</g>
</g>
<!-- Node2&#45;&gt;Node6 -->
<g id="edge7_Node000002_Node000006" class="edge">
<title>Node2&#45;&gt;Node6</title>
<g id="a_edge7_Node000002_Node000006"><a xlink:title=" ">
<path fill="none" stroke="#63b8ff" d="M239.81,-115.54C294.9,-126.18 392.76,-140.03 475,-125 500.27,-120.38 527.44,-109.73 547.15,-100.88"/>
<polygon fill="#63b8ff" stroke="#63b8ff" points="548.84,-103.95 556.46,-96.58 545.91,-97.6 548.84,-103.95"/>
</a>
</g>
</g>
<!-- Node4 -->
<g id="Node000004" class="node">
<title>Node4</title>
<g id="a_Node000004"><a xlink:href="classBusIO__7Semi.html#aa633479356af692cb9ea334771b7c0c5" target="_top" xlink:title=" ">
<polygon fill="white" stroke="#666666" points="790,-39.5 678,-39.5 678,-20.5 790,-20.5 790,-39.5"/>
<text text-anchor="middle" x="734" y="-27.5" font-family="Helvetica,sans-Serif" font-size="10.00">BusIO_7Semi::write</text>
</a>
</g>
</g>
<!-- Node3&#45;&gt;Node4 -->
<g id="edge3_Node000003_Node000004" class="edge">
<title>Node3&#45;&gt;Node4</title>
<g id="a_edge3_Node000003_Node000004"><a xlink:title=" ">
<path fill="none" stroke="#63b8ff" d="M475.36,-30C534.45,-30 612.8,-30 667.52,-30"/>
<polygon fill="#63b8ff" stroke="#63b8ff" points="667.8,-33.5 677.8,-30 667.8,-26.5 667.8,-33.5"/>
</a>
</g>
</g>
<!-- Node5&#45;&gt;Node6 -->
<g id="edge5_Node000005_Node000006" class="edge">
<title>Node5&#45;&gt;Node6</title>
<g id="a_edge5_Node000005_Node000006"><a xlink:title=" ">
<path fill="none" stroke="#63b8ff" d="M454.2,-99.59C469.18,-98.04 485.36,-96.36 500.87,-94.75"/>
<polygon fill="#63b8ff" stroke="#63b8ff" points="501.36,-98.22 510.94,-93.7 500.63,-91.25 501.36,-98.22"/>
</a>
</g>
</g>
<!-- Node6&#45;&gt;Node4 -->
<g id="edge6_Node000006_Node000004" class="edge">
<title>Node6&#45;&gt;Node4</title>
<g id="a_edge6_Node000006_Node000004"><a xlink:title=" ">
<path fill="none" stroke="#63b8ff" d="M603.53,-77.46C629.2,-68.05 668.66,-53.59 697.26,-43.1"/>
<polygon fill="#63b8ff" stroke="#63b8ff" points="698.7,-46.3 706.89,-39.57 696.29,-39.73 698.7,-46.3"/>
</a>
</g>
</g>
<!-- Node8&#45;&gt;Node3 -->
<g id="edge9_Node000008_Node000003" class="edge">
<title>Node8&#45;&gt;Node3</title>
<g id="a_edge9_Node000008_Node000003"><a xlink:title=" ">
<path fill="none" stroke="#63b8ff" d="M271.51,-20.8C280.18,-21.47 289.11,-22.16 297.98,-22.85"/>
<polygon fill="#63b8ff" stroke="#63b8ff" points="297.72,-26.34 307.96,-23.62 298.26,-19.36 297.72,-26.34"/>
</a>
</g>
</g>
<!-- Node8&#45;&gt;Node4 -->
<g id="edge10_Node000008_Node000004" class="edge">
<title>Node8&#45;&gt;Node4</title>
<g id="a_edge10_Node000008_Node000004"><a xlink:title=" ">
<path fill="none" stroke="#63b8ff" d="M271.76,-11.93C283.88,-11.54 296.28,-11.21 308,-11 382.21,-9.67 400.83,-8.27 475,-11 540.64,-13.41 615.49,-19.27 667.59,-23.85"/>
<polygon fill="#63b8ff" stroke="#63b8ff" points="667.43,-27.35 677.7,-24.75 668.05,-20.38 667.43,-27.35"/>
</a>
</g>
</g>
<!-- Node9&#45;&gt;Node3 -->
<g id="edge12_Node000009_Node000003" class="edge">
<title>Node9&#45;&gt;Node3</title>
<g id="a_edge12_Node000009_Node000003"><a xlink:title=" ">
<path fill="none" stroke="#63b8ff" d="M271.51,-50.24C289.06,-47.25 307.64,-44.1 324.76,-41.18"/>
<polygon fill="#63b8ff" stroke="#63b8ff" points="325.38,-44.63 334.65,-39.5 324.21,-37.73 325.38,-44.63"/>
</a>
</g>
</g>
<!-- Node9&#45;&gt;Node6 -->
<g id="edge13_Node000009_Node000006" class="edge">
<title>Node9&#45;&gt;Node6</title>
<g id="a_edge13_Node000009_Node000006"><a xlink:title=" ">
<path fill="none" stroke="#63b8ff" d="M271.83,-67.77C338.12,-71.97 434.13,-78.05 500.36,-82.24"/>
<polygon fill="#63b8ff" stroke="#63b8ff" points="500.52,-85.76 510.72,-82.9 500.96,-78.77 500.52,-85.76"/>
</a>
</g>
</g>
</g>
</svg>
