<?xml version="1.0" encoding="UTF-8" standalone="no"?>
<!DOCTYPE svg PUBLIC "-//W3C//DTD SVG 1.1//EN"
 "http://www.w3.org/Graphics/SVG/1.1/DTD/svg11.dtd">
<!-- Generated by graphviz version 2.43.0 (0)
 -->
<!-- Title: setup Pages: 1 -->
<svg width="1145pt" height="558pt"
 viewBox="0.00 0.00 1145.00 557.61" xmlns="http://www.w3.org/2000/svg" xmlns:xlink="http://www.w3.org/1999/xlink">
<g id="graph0" class="graph" transform="scale(1 1) rotate(0) translate(4 553.61)">
<title>setup</title>
<!-- Node1 -->
<g id="Node000001" class="node">
<title>Node1</title>
<g id="a_Node000001"><a xlink:title="Initialize I2C, reset/wake the IMU, enable gyro, and start the sweep.">
<polygon fill="#999999" stroke="#666666" points="44,-289.01 0,-289.01 0,-270.01 44,-270.01 44,-289.01"/>
<text text-anchor="middle" x="22" y="-277.01" font-family="Helvetica,sans-Serif" font-size="10.00">setup</text>
</a>
</g>
</g>
<!-- Node2 -->
<g id="Node000002" class="node">
<title>Node2</title>
<g id="a_Node000002"><a xlink:href="classDevLab__ICM20948.html#a91147b3cd4c45bffc8e024f985be7b21" target="_top" xlink:title=" ">
<polygon fill="white" stroke="#666666" points="557,-468.01 401,-468.01 401,-449.01 557,-449.01 557,-468.01"/>
<text text-anchor="middle" x="479" y="-456.01" font-family="Helvetica,sans-Serif" font-size="10.00">DevLab_ICM20948::beginI2C</text>
</a>
</g>
</g>
<!-- Node1&#45;&gt;Node2 -->
<g id="edge1_Node000001_Node000002" class="edge">
<title>Node1&#45;&gt;Node2</title>
<g id="a_edge1_Node000001_Node000002"><a xlink:title=" ">
<path fill="none" stroke="#63b8ff" d="M24.12,-289.18C27.51,-313.57 39.99,-377.74 80,-407.51 174.89,-478.11 318.97,-477.5 405.26,-469.08"/>
<polygon fill="#63b8ff" stroke="#63b8ff" points="405.64,-472.55 415.23,-468.04 404.92,-465.59 405.64,-472.55"/>
</a>
</g>
</g>
<!-- Node9 -->
<g id="Node000009" class="node">
<title>Node9</title>
<g id="a_Node000009"><a xlink:href="gyr__test_8ino.html#a1cf9f29034d9373db6498335da3d661c" target="_top" xlink:title="Verify the IMU identity register.">
<polygon fill="white" stroke="#666666" points="144,-233.01 81,-233.01 81,-214.01 144,-214.01 144,-233.01"/>
<text text-anchor="middle" x="112.5" y="-221.01" font-family="Helvetica,sans-Serif" font-size="10.00">firstStage</text>
</a>
</g>
</g>
<!-- Node1&#45;&gt;Node9 -->
<g id="edge12_Node000001_Node000009" class="edge">
<title>Node1&#45;&gt;Node9</title>
<g id="a_edge12_Node000001_Node000009"><a xlink:title=" ">
<path fill="none" stroke="#63b8ff" d="M38.42,-269.75C51.99,-261.16 71.99,-248.51 87.63,-238.61"/>
<polygon fill="#63b8ff" stroke="#63b8ff" points="89.68,-241.46 96.26,-233.15 85.94,-235.54 89.68,-241.46"/>
</a>
</g>
</g>
<!-- Node10 -->
<g id="Node000010" class="node">
<title>Node10</title>
<g id="a_Node000010"><a xlink:href="gyr__test_8ino.html#a42633dcf8fe2689c57c8113825f74c66" target="_top" xlink:title="Print a double separator line to Serial.">
<polygon fill="white" stroke="#666666" points="311.5,-327.01 217.5,-327.01 217.5,-308.01 311.5,-308.01 311.5,-327.01"/>
<text text-anchor="middle" x="264.5" y="-315.01" font-family="Helvetica,sans-Serif" font-size="10.00">printDobleLinea</text>
</a>
</g>
</g>
<!-- Node1&#45;&gt;Node10 -->
<g id="edge14_Node000001_Node000010" class="edge">
<title>Node1&#45;&gt;Node10</title>
<g id="a_edge14_Node000001_Node000010"><a xlink:title=" ">
<path fill="none" stroke="#63b8ff" d="M44.08,-287.76C54.7,-291.6 67.87,-295.89 80,-298.51 122.21,-307.61 170.86,-312.4 207.45,-314.89"/>
<polygon fill="#63b8ff" stroke="#63b8ff" points="207.24,-318.38 217.44,-315.53 207.69,-311.4 207.24,-318.38"/>
</a>
</g>
</g>
<!-- Node11 -->
<g id="Node000011" class="node">
<title>Node11</title>
<g id="a_Node000011"><a xlink:href="gyr__test_8ino.html#a59a0400232b9ffe7d4395b166f74593a" target="_top" xlink:title="Run the gyroscope validation sweep and print each captured sample.">
<polygon fill="white" stroke="#666666" points="145,-289.01 80,-289.01 80,-270.01 145,-270.01 145,-289.01"/>
<text text-anchor="middle" x="112.5" y="-277.01" font-family="Helvetica,sans-Serif" font-size="10.00">runSweep</text>
</a>
</g>
</g>
<!-- Node1&#45;&gt;Node11 -->
<g id="edge15_Node000001_Node000011" class="edge">
<title>Node1&#45;&gt;Node11</title>
<g id="a_edge15_Node000001_Node000011"><a xlink:title=" ">
<path fill="none" stroke="#63b8ff" d="M44.42,-279.51C52.07,-279.51 60.97,-279.51 69.74,-279.51"/>
<polygon fill="#63b8ff" stroke="#63b8ff" points="69.89,-283.01 79.89,-279.51 69.89,-276.01 69.89,-283.01"/>
</a>
</g>
</g>
<!-- Node14 -->
<g id="Node000014" class="node">
<title>Node14</title>
<g id="a_Node000014"><a xlink:href="classDevLab__ICM20948.html#a4210e842050486637a5967b2a9ef7b57" target="_top" xlink:title=" ">
<polygon fill="white" stroke="#666666" points="768,-402.01 628,-402.01 628,-383.01 768,-383.01 768,-402.01"/>
<text text-anchor="middle" x="698" y="-390.01" font-family="Helvetica,sans-Serif" font-size="10.00">DevLab_ICM20948::sleep</text>
</a>
</g>
</g>
<!-- Node1&#45;&gt;Node14 -->
<g id="edge41_Node000001_Node000014" class="edge">
<title>Node1&#45;&gt;Node14</title>
<g id="a_edge41_Node000001_Node000014"><a xlink:title=" ">
<path fill="none" stroke="#63b8ff" d="M34.43,-289.17C45.41,-297.93 62.82,-310.51 80,-317.51 122.3,-334.75 136.11,-328.08 181,-336.51 271.21,-353.44 292.88,-363.41 384,-374.51 463.07,-384.14 554.03,-388.65 617.45,-390.73"/>
<polygon fill="#63b8ff" stroke="#63b8ff" points="617.67,-394.24 627.77,-391.06 617.89,-387.25 617.67,-394.24"/>
</a>
</g>
</g>
<!-- Node15 -->
<g id="Node000015" class="node">
<title>Node15</title>
<g id="a_Node000015"><a xlink:href="classDevLab__ICM20948.html#a0d6774b76298645ee45ec0e9065a8891" target="_top" xlink:title=" ">
<polygon fill="white" stroke="#666666" points="777.5,-138.01 618.5,-138.01 618.5,-119.01 777.5,-119.01 777.5,-138.01"/>
<text text-anchor="middle" x="698" y="-126.01" font-family="Helvetica,sans-Serif" font-size="10.00">DevLab_ICM20948::softReset</text>
</a>
</g>
</g>
<!-- Node1&#45;&gt;Node15 -->
<g id="edge42_Node000001_Node000015" class="edge">
<title>Node1&#45;&gt;Node15</title>
<g id="a_edge42_Node000001_Node000015"><a xlink:title=" ">
<path fill="none" stroke="#63b8ff" d="M27.33,-269.82C35.2,-253.46 53.53,-220.64 80,-205.51 247.67,-109.67 482.32,-110.18 608.45,-119.18"/>
<polygon fill="#63b8ff" stroke="#63b8ff" points="608.22,-122.67 618.45,-119.92 608.74,-115.69 608.22,-122.67"/>
</a>
</g>
</g>
<!-- Node19 -->
<g id="Node000019" class="node">
<title>Node19</title>
<g id="a_Node000019"><a xlink:href="classDevLab__ICM20948.html#ae9c088334d6ec706bb08b47ef29bd186" target="_top" xlink:title=" ">
<polygon fill="white" stroke="#666666" points="348,-100.01 181,-100.01 181,-81.01 348,-81.01 348,-100.01"/>
<text text-anchor="middle" x="264.5" y="-88.01" font-family="Helvetica,sans-Serif" font-size="10.00">DevLab_ICM20948::setSensors</text>
</a>
</g>
</g>
<!-- Node1&#45;&gt;Node19 -->
<g id="edge34_Node000001_Node000019" class="edge">
<title>Node1&#45;&gt;Node19</title>
<g id="a_edge34_Node000001_Node000019"><a xlink:title=" ">
<path fill="none" stroke="#63b8ff" d="M23.07,-269.75C23.86,-240.81 30.44,-154.92 80,-114.51 105.05,-94.08 138.76,-86 170.44,-83.72"/>
<polygon fill="#63b8ff" stroke="#63b8ff" points="170.84,-87.2 180.64,-83.18 170.47,-80.21 170.84,-87.2"/>
</a>
</g>
</g>
<!-- Node3 -->
<g id="Node000003" class="node">
<title>Node3</title>
<g id="a_Node000003"><a xlink:href="classDevLab__ICM20948.html#a31460c48549b1d3081e253706f8b15e6" target="_top" xlink:title=" ">
<polygon fill="white" stroke="#666666" points="781.5,-526.51 614.5,-526.51 614.5,-496.51 781.5,-496.51 781.5,-526.51"/>
<text text-anchor="start" x="622.5" y="-514.51" font-family="Helvetica,sans-Serif" font-size="10.00">DevLab_ICM20948::applyBasic</text>
<text text-anchor="middle" x="698" y="-503.51" font-family="Helvetica,sans-Serif" font-size="10.00">Defaults</text>
</a>
</g>
</g>
<!-- Node2&#45;&gt;Node3 -->
<g id="edge2_Node000002_Node000003" class="edge">
<title>Node2&#45;&gt;Node3</title>
<g id="a_edge2_Node000002_Node000003"><a xlink:title=" ">
<path fill="none" stroke="#63b8ff" d="M519.05,-468.05C548.6,-475.26 590.02,-485.38 625.47,-494.04"/>
<polygon fill="#63b8ff" stroke="#63b8ff" points="624.75,-497.46 635.29,-496.44 626.41,-490.66 624.75,-497.46"/>
</a>
</g>
</g>
<!-- Node4 -->
<g id="Node000004" class="node">
<title>Node4</title>
<g id="a_Node000004"><a xlink:href="classDevLab__ICM20948.html#aaa26fcbfea0e67d45cb1c3ae39654c55" target="_top" xlink:title=" ">
<polygon fill="white" stroke="#666666" points="989,-307.01 822,-307.01 822,-288.01 989,-288.01 989,-307.01"/>
<text text-anchor="middle" x="905.5" y="-295.01" font-family="Helvetica,sans-Serif" font-size="10.00">DevLab_ICM20948::selectBank</text>
</a>
</g>
</g>
<!-- Node2&#45;&gt;Node4 -->
<g id="edge10_Node000002_Node000004" class="edge">
<title>Node2&#45;&gt;Node4</title>
<g id="a_edge10_Node000002_Node000004"><a xlink:title=" ">
<path fill="none" stroke="#63b8ff" d="M557.33,-451.99C634.46,-444.54 746.91,-430.84 786,-411.51 832.24,-388.64 872.24,-341.26 891.77,-315.36"/>
<polygon fill="#63b8ff" stroke="#63b8ff" points="894.69,-317.3 897.81,-307.17 889.06,-313.15 894.69,-317.3"/>
</a>
</g>
</g>
<!-- Node5 -->
<g id="Node000005" class="node">
<title>Node5</title>
<g id="a_Node000005"><a xlink:href="classBusIO__7Semi.html#aa633479356af692cb9ea334771b7c0c5" target="_top" xlink:title=" ">
<polygon fill="white" stroke="#666666" points="1137,-345.01 1025,-345.01 1025,-326.01 1137,-326.01 1137,-345.01"/>
<text text-anchor="middle" x="1081" y="-333.01" font-family="Helvetica,sans-Serif" font-size="10.00">BusIO_7Semi::write</text>
</a>
</g>
</g>
<!-- Node2&#45;&gt;Node5 -->
<g id="edge11_Node000002_Node000005" class="edge">
<title>Node2&#45;&gt;Node5</title>
<g id="a_edge11_Node000002_Node000005"><a xlink:title=" ">
<path fill="none" stroke="#63b8ff" d="M491.2,-468.05C512.59,-485.54 561.43,-522.2 610,-535.51 685.44,-556.17 709.47,-551.71 786,-535.51 882.55,-515.07 910.34,-505.12 989,-445.51 1023.55,-419.33 1053.37,-377.57 1068.79,-353.75"/>
<polygon fill="#63b8ff" stroke="#63b8ff" points="1071.93,-355.33 1074.32,-345.01 1066.02,-351.59 1071.93,-355.33"/>
</a>
</g>
</g>
<!-- Node6 -->
<g id="Node000006" class="node">
<title>Node6</title>
<g id="a_Node000006"><a xlink:href="classI2C__Interface.html#ae8147c4d6e54fe2622825d7e17493152" target="_top" xlink:title=" ">
<polygon fill="white" stroke="#666666" points="763,-478.01 633,-478.01 633,-459.01 763,-459.01 763,-478.01"/>
<text text-anchor="middle" x="698" y="-466.01" font-family="Helvetica,sans-Serif" font-size="10.00">I2C_Interface::beginI2C</text>
</a>
</g>
</g>
<!-- Node2&#45;&gt;Node6 -->
<g id="edge6_Node000002_Node000006" class="edge">
<title>Node2&#45;&gt;Node6</title>
<g id="a_edge6_Node000002_Node000006"><a xlink:title=" ">
<path fill="none" stroke="#63b8ff" d="M557.12,-462.06C578.37,-463.04 601.38,-464.1 622.48,-465.07"/>
<polygon fill="#63b8ff" stroke="#63b8ff" points="622.52,-468.58 632.67,-465.54 622.84,-461.59 622.52,-468.58"/>
</a>
</g>
</g>
<!-- Node7 -->
<g id="Node000007" class="node">
<title>Node7</title>
<g id="a_Node000007"><a xlink:href="classDevLab__ICM20948.html#a8bef7eafb3b67eb736f491d0df453b9e" target="_top" xlink:title=" ">
<polygon fill="white" stroke="#666666" points="786,-251.01 610,-251.01 610,-232.01 786,-232.01 786,-251.01"/>
<text text-anchor="middle" x="698" y="-239.01" font-family="Helvetica,sans-Serif" font-size="10.00">DevLab_ICM20948::readWhoAmI</text>
</a>
</g>
</g>
<!-- Node2&#45;&gt;Node7 -->
<g id="edge7_Node000002_Node000007" class="edge">
<title>Node2&#45;&gt;Node7</title>
<g id="a_edge7_Node000002_Node000007"><a xlink:title=" ">
<path fill="none" stroke="#63b8ff" d="M494.97,-448.98C515.67,-435.06 552.86,-407.23 574,-374.51 602.84,-329.88 570.76,-296.33 610,-260.51 611.54,-259.1 613.16,-257.79 614.85,-256.57"/>
<polygon fill="#63b8ff" stroke="#63b8ff" points="617.03,-259.34 623.78,-251.17 613.41,-253.35 617.03,-259.34"/>
</a>
</g>
</g>
<!-- Node3&#45;&gt;Node4 -->
<g id="edge3_Node000003_Node000004" class="edge">
<title>Node3&#45;&gt;Node4</title>
<g id="a_edge3_Node000003_Node000004"><a xlink:title=" ">
<path fill="none" stroke="#63b8ff" d="M770.87,-496.48C776.23,-493.94 781.35,-490.98 786,-487.51 846.94,-442.02 883.94,-355.12 898,-316.65"/>
<polygon fill="#63b8ff" stroke="#63b8ff" points="901.32,-317.75 901.36,-307.15 894.73,-315.41 901.32,-317.75"/>
</a>
</g>
</g>
<!-- Node3&#45;&gt;Node5 -->
<g id="edge5_Node000003_Node000005" class="edge">
<title>Node3&#45;&gt;Node5</title>
<g id="a_edge5_Node000003_Node000005"><a xlink:title=" ">
<path fill="none" stroke="#63b8ff" d="M758.86,-496.43C768.03,-493.71 777.33,-490.71 786,-487.51 879.46,-453.03 901.52,-440.15 989,-392.51 1012.84,-379.53 1039,-362.87 1057.13,-350.92"/>
<polygon fill="#63b8ff" stroke="#63b8ff" points="1059.43,-353.59 1065.82,-345.15 1055.56,-347.76 1059.43,-353.59"/>
</a>
</g>
</g>
<!-- Node4&#45;&gt;Node5 -->
<g id="edge4_Node000004_Node000005" class="edge">
<title>Node4&#45;&gt;Node5</title>
<g id="a_edge4_Node000004_Node000005"><a xlink:title=" ">
<path fill="none" stroke="#63b8ff" d="M950.28,-307.1C973.49,-312.18 1002.18,-318.46 1026.67,-323.83"/>
<polygon fill="#63b8ff" stroke="#63b8ff" points="1026.02,-327.27 1036.53,-325.99 1027.51,-320.43 1026.02,-327.27"/>
</a>
</g>
</g>
<!-- Node7&#45;&gt;Node4 -->
<g id="edge9_Node000007_Node000004" class="edge">
<title>Node7&#45;&gt;Node4</title>
<g id="a_edge9_Node000007_Node000004"><a xlink:title=" ">
<path fill="none" stroke="#63b8ff" d="M746.14,-251.01C759.11,-253.84 773.15,-257.11 786,-260.51 813.22,-267.72 843.53,-277.21 866.68,-284.77"/>
<polygon fill="#63b8ff" stroke="#63b8ff" points="865.86,-288.18 876.45,-287.99 868.05,-281.54 865.86,-288.18"/>
</a>
</g>
</g>
<!-- Node8 -->
<g id="Node000008" class="node">
<title>Node8</title>
<g id="a_Node000008"><a xlink:href="classBusIO__7Semi.html#a933c66d9a1afe84102323e209a93dd31" target="_top" xlink:title=" ">
<polygon fill="white" stroke="#666666" points="960,-232.01 851,-232.01 851,-213.01 960,-213.01 960,-232.01"/>
<text text-anchor="middle" x="905.5" y="-220.01" font-family="Helvetica,sans-Serif" font-size="10.00">BusIO_7Semi::read</text>
</a>
</g>
</g>
<!-- Node7&#45;&gt;Node8 -->
<g id="edge8_Node000007_Node000008" class="edge">
<title>Node7&#45;&gt;Node8</title>
<g id="a_edge8_Node000007_Node000008"><a xlink:title=" ">
<path fill="none" stroke="#63b8ff" d="M786.15,-233.45C804.53,-231.75 823.59,-229.99 840.91,-228.39"/>
<polygon fill="#63b8ff" stroke="#63b8ff" points="841.25,-231.87 850.89,-227.47 840.61,-224.9 841.25,-231.87"/>
</a>
</g>
</g>
<!-- Node9&#45;&gt;Node7 -->
<g id="edge13_Node000009_Node000007" class="edge">
<title>Node9&#45;&gt;Node7</title>
<g id="a_edge13_Node000009_Node000007"><a xlink:title=" ">
<path fill="none" stroke="#63b8ff" d="M144.05,-224.45C227.92,-227.04 464.47,-234.34 599.44,-238.5"/>
<polygon fill="#63b8ff" stroke="#63b8ff" points="599.68,-242.01 609.78,-238.82 599.89,-235.01 599.68,-242.01"/>
</a>
</g>
</g>
<!-- Node11&#45;&gt;Node10 -->
<g id="edge30_Node000011_Node000010" class="edge">
<title>Node11&#45;&gt;Node10</title>
<g id="a_edge30_Node000011_Node000010"><a xlink:title=" ">
<path fill="none" stroke="#63b8ff" d="M143.95,-289.04C155.5,-292.53 168.81,-296.38 181,-299.51 189.46,-301.68 198.45,-303.82 207.27,-305.82"/>
<polygon fill="#63b8ff" stroke="#63b8ff" points="206.59,-309.25 217.11,-308.01 208.11,-302.42 206.59,-309.25"/>
</a>
</g>
</g>
<!-- Node12 -->
<g id="Node000012" class="node">
<title>Node12</title>
<g id="a_Node000012"><a xlink:href="mag__test_8ino.html#af42a493b8d96759f43d866fbe725cf3d" target="_top" xlink:title="Initialize the magnetometer and collect samples for each mode.">
<polygon fill="white" stroke="#666666" points="306,-290.01 223,-290.01 223,-271.01 306,-271.01 306,-290.01"/>
<text text-anchor="middle" x="264.5" y="-278.01" font-family="Helvetica,sans-Serif" font-size="10.00">applySettings</text>
</a>
</g>
</g>
<!-- Node11&#45;&gt;Node12 -->
<g id="edge16_Node000011_Node000012" class="edge">
<title>Node11&#45;&gt;Node12</title>
<g id="a_edge16_Node000011_Node000012"><a xlink:title=" ">
<path fill="none" stroke="#63b8ff" d="M145.31,-279.72C164.92,-279.85 190.52,-280.02 212.87,-280.17"/>
<polygon fill="#63b8ff" stroke="#63b8ff" points="212.85,-283.67 222.88,-280.24 212.9,-276.67 212.85,-283.67"/>
</a>
</g>
</g>
<!-- Node18 -->
<g id="Node000018" class="node">
<title>Node18</title>
<g id="a_Node000018"><a xlink:href="classDevLab__ICM20948.html#a006c131f860f1fc81c587b3d8a77522d" target="_top" xlink:title=" ">
<polygon fill="white" stroke="#666666" points="777,-214.01 619,-214.01 619,-195.01 777,-195.01 777,-214.01"/>
<text text-anchor="middle" x="698" y="-202.01" font-family="Helvetica,sans-Serif" font-size="10.00">DevLab_ICM20948::readGyro</text>
</a>
</g>
</g>
<!-- Node11&#45;&gt;Node18 -->
<g id="edge31_Node000011_Node000018" class="edge">
<title>Node11&#45;&gt;Node18</title>
<g id="a_edge31_Node000011_Node000018"><a xlink:title=" ">
<path fill="none" stroke="#63b8ff" d="M145.24,-270.58C156.47,-267.67 169.23,-264.64 181,-262.51 329.94,-235.51 505.48,-218.98 608.66,-210.79"/>
<polygon fill="#63b8ff" stroke="#63b8ff" points="609.03,-214.28 618.72,-210.01 608.48,-207.3 609.03,-214.28"/>
</a>
</g>
</g>
<!-- Node13 -->
<g id="Node000013" class="node">
<title>Node13</title>
<g id="a_Node000013"><a xlink:href="classDevLab__ICM20948.html#a7b137192f8eb987cd221808c2c6c3561" target="_top" xlink:title=" ">
<polygon fill="white" stroke="#666666" points="554,-365.01 404,-365.01 404,-346.01 554,-346.01 554,-365.01"/>
<text text-anchor="middle" x="479" y="-353.01" font-family="Helvetica,sans-Serif" font-size="10.00">DevLab_ICM20948::initMag</text>
</a>
</g>
</g>
<!-- Node12&#45;&gt;Node13 -->
<g id="edge17_Node000012_Node000013" class="edge">
<title>Node12&#45;&gt;Node13</title>
<g id="a_edge17_Node000012_Node000013"><a xlink:title=" ">
<path fill="none" stroke="#63b8ff" d="M306.28,-285.03C320.17,-287.81 335.37,-292.29 348,-299.51 368.2,-311.06 363.59,-326.34 384,-337.51 387.33,-339.33 390.81,-340.97 394.4,-342.45"/>
<polygon fill="#63b8ff" stroke="#63b8ff" points="393.49,-345.84 404.08,-345.99 395.89,-339.27 393.49,-345.84"/>
</a>
</g>
</g>
<!-- Node16 -->
<g id="Node000016" class="node">
<title>Node16</title>
<g id="a_Node000016"><a xlink:href="classDevLab__ICM20948.html#a9f9b29867c2b78efef3ef9688f886314" target="_top" xlink:title=" ">
<polygon fill="white" stroke="#666666" points="776,-288.01 620,-288.01 620,-269.01 776,-269.01 776,-288.01"/>
<text text-anchor="middle" x="698" y="-276.01" font-family="Helvetica,sans-Serif" font-size="10.00">DevLab_ICM20948::readMag</text>
</a>
</g>
</g>
<!-- Node12&#45;&gt;Node16 -->
<g id="edge26_Node000012_Node000016" class="edge">
<title>Node12&#45;&gt;Node16</title>
<g id="a_edge26_Node000012_Node000016"><a xlink:title=" ">
<path fill="none" stroke="#63b8ff" d="M306.09,-280.32C375.15,-280 516.98,-279.34 609.47,-278.91"/>
<polygon fill="#63b8ff" stroke="#63b8ff" points="609.68,-282.41 619.66,-278.87 609.64,-275.41 609.68,-282.41"/>
</a>
</g>
</g>
<!-- Node17 -->
<g id="Node000017" class="node">
<title>Node17</title>
<g id="a_Node000017"><a xlink:href="classDevLab__ICM20948.html#a0882a30454b0716953f5f375613d24b3" target="_top" xlink:title=" ">
<polygon fill="white" stroke="#666666" points="574,-328.01 384,-328.01 384,-309.01 574,-309.01 574,-328.01"/>
<text text-anchor="middle" x="479" y="-316.01" font-family="Helvetica,sans-Serif" font-size="10.00">DevLab_ICM20948::setMagOpMode</text>
</a>
</g>
</g>
<!-- Node12&#45;&gt;Node17 -->
<g id="edge29_Node000012_Node000017" class="edge">
<title>Node12&#45;&gt;Node17</title>
<g id="a_edge29_Node000012_Node000017"><a xlink:title=" ">
<path fill="none" stroke="#63b8ff" d="M306.22,-287.79C336.82,-293.26 379.32,-300.86 414.39,-307.13"/>
<polygon fill="#63b8ff" stroke="#63b8ff" points="414.08,-310.63 424.54,-308.95 415.32,-303.74 414.08,-310.63"/>
</a>
</g>
</g>
<!-- Node13&#45;&gt;Node4 -->
<g id="edge18_Node000013_Node000004" class="edge">
<title>Node13&#45;&gt;Node4</title>
<g id="a_edge18_Node000013_Node000004"><a xlink:title=" ">
<path fill="none" stroke="#63b8ff" d="M549.62,-346C625.19,-335.67 745.64,-319.21 824.9,-308.38"/>
<polygon fill="#63b8ff" stroke="#63b8ff" points="825.41,-311.85 834.84,-307.03 824.46,-304.91 825.41,-311.85"/>
</a>
</g>
</g>
<!-- Node13&#45;&gt;Node5 -->
<g id="edge25_Node000013_Node000005" class="edge">
<title>Node13&#45;&gt;Node5</title>
<g id="a_edge25_Node000013_Node000005"><a xlink:title=" ">
<path fill="none" stroke="#63b8ff" d="M554.17,-353.04C672.45,-349.09 901.87,-341.45 1014.46,-337.69"/>
<polygon fill="#63b8ff" stroke="#63b8ff" points="1014.78,-341.18 1024.66,-337.35 1014.55,-334.19 1014.78,-341.18"/>
</a>
</g>
</g>
<!-- Node13&#45;&gt;Node14 -->
<g id="edge19_Node000013_Node000014" class="edge">
<title>Node13&#45;&gt;Node14</title>
<g id="a_edge19_Node000013_Node000014"><a xlink:title=" ">
<path fill="none" stroke="#63b8ff" d="M535.88,-365.04C564.88,-369.98 600.49,-376.05 630.85,-381.23"/>
<polygon fill="#63b8ff" stroke="#63b8ff" points="630.48,-384.72 640.93,-382.95 631.66,-377.82 630.48,-384.72"/>
</a>
</g>
</g>
<!-- Node13&#45;&gt;Node15 -->
<g id="edge22_Node000013_Node000015" class="edge">
<title>Node13&#45;&gt;Node15</title>
<g id="a_edge22_Node000013_Node000015"><a xlink:title=" ">
<path fill="none" stroke="#63b8ff" d="M554.37,-349.9C561.62,-346.93 568.36,-342.91 574,-337.51 623.87,-289.83 570.57,-243.12 610,-186.51 623.58,-167.01 646.02,-152.29 664.7,-142.56"/>
<polygon fill="#63b8ff" stroke="#63b8ff" points="666.39,-145.63 673.79,-138.05 663.28,-139.36 666.39,-145.63"/>
</a>
</g>
</g>
<!-- Node14&#45;&gt;Node4 -->
<g id="edge20_Node000014_Node000004" class="edge">
<title>Node14&#45;&gt;Node4</title>
<g id="a_edge20_Node000014_Node000004"><a xlink:title=" ">
<path fill="none" stroke="#63b8ff" d="M719.84,-382.88C756.47,-365.94 832.53,-330.78 874.71,-311.28"/>
<polygon fill="#63b8ff" stroke="#63b8ff" points="876.31,-314.4 883.92,-307.02 873.37,-308.04 876.31,-314.4"/>
</a>
</g>
</g>
<!-- Node14&#45;&gt;Node5 -->
<g id="edge21_Node000014_Node000005" class="edge">
<title>Node14&#45;&gt;Node5</title>
<g id="a_edge21_Node000014_Node000005"><a xlink:title=" ">
<path fill="none" stroke="#63b8ff" d="M768.02,-391.92C827.26,-390.21 914.6,-384.77 989,-368.51 1009.59,-364.01 1031.84,-356 1049.18,-349"/>
<polygon fill="#63b8ff" stroke="#63b8ff" points="1050.88,-352.09 1058.78,-345.03 1048.2,-345.62 1050.88,-352.09"/>
</a>
</g>
</g>
<!-- Node15&#45;&gt;Node4 -->
<g id="edge23_Node000015_Node000004" class="edge">
<title>Node15&#45;&gt;Node4</title>
<g id="a_edge23_Node000015_Node000004"><a xlink:title=" ">
<path fill="none" stroke="#63b8ff" d="M761.56,-138.17C770.47,-141.61 778.98,-146.25 786,-152.51 817.86,-180.89 795.19,-208.31 822,-241.51 836.23,-259.12 857.45,-273.35 874.8,-283.06"/>
<polygon fill="#63b8ff" stroke="#63b8ff" points="873.51,-286.34 883.98,-287.98 876.82,-280.17 873.51,-286.34"/>
</a>
</g>
</g>
<!-- Node15&#45;&gt;Node5 -->
<g id="edge24_Node000015_Node000005" class="edge">
<title>Node15&#45;&gt;Node5</title>
<g id="a_edge24_Node000015_Node000005"><a xlink:title=" ">
<path fill="none" stroke="#63b8ff" d="M777.53,-134.23C839.68,-142.06 926.18,-160.61 989,-204.51 1030.44,-233.47 1059.06,-287.76 1072.06,-316.51"/>
<polygon fill="#63b8ff" stroke="#63b8ff" points="1068.94,-318.09 1076.14,-325.85 1075.35,-315.29 1068.94,-318.09"/>
</a>
</g>
</g>
<!-- Node16&#45;&gt;Node4 -->
<g id="edge28_Node000016_Node000004" class="edge">
<title>Node16&#45;&gt;Node4</title>
<g id="a_edge28_Node000016_Node000004"><a xlink:title=" ">
<path fill="none" stroke="#63b8ff" d="M776.11,-285.64C787.76,-286.72 799.89,-287.84 811.83,-288.94"/>
<polygon fill="#63b8ff" stroke="#63b8ff" points="811.52,-292.43 821.8,-289.86 812.17,-285.46 811.52,-292.43"/>
</a>
</g>
</g>
<!-- Node16&#45;&gt;Node8 -->
<g id="edge27_Node000016_Node000008" class="edge">
<title>Node16&#45;&gt;Node8</title>
<g id="a_edge27_Node000016_Node000008"><a xlink:title=" ">
<path fill="none" stroke="#63b8ff" d="M749.82,-268.94C761.74,-266.43 774.36,-263.57 786,-260.51 813.79,-253.2 844.69,-243.23 867.97,-235.33"/>
<polygon fill="#63b8ff" stroke="#63b8ff" points="869.11,-238.64 877.44,-232.09 866.85,-232.02 869.11,-238.64"/>
</a>
</g>
</g>
<!-- Node18&#45;&gt;Node4 -->
<g id="edge33_Node000018_Node000004" class="edge">
<title>Node18&#45;&gt;Node4</title>
<g id="a_edge33_Node000018_Node000004"><a xlink:title=" ">
<path fill="none" stroke="#63b8ff" d="M756.02,-214.01C766.19,-216.53 776.55,-219.66 786,-223.51 805.56,-231.47 853.35,-262.85 881.91,-282.1"/>
<polygon fill="#63b8ff" stroke="#63b8ff" points="880.2,-285.17 890.44,-287.87 884.12,-279.37 880.2,-285.17"/>
</a>
</g>
</g>
<!-- Node18&#45;&gt;Node8 -->
<g id="edge32_Node000018_Node000008" class="edge">
<title>Node18&#45;&gt;Node8</title>
<g id="a_edge32_Node000018_Node000008"><a xlink:title=" ">
<path fill="none" stroke="#63b8ff" d="M777.28,-211.37C798.33,-213.21 820.84,-215.18 840.99,-216.95"/>
<polygon fill="#63b8ff" stroke="#63b8ff" points="840.71,-220.43 850.98,-217.82 841.32,-213.46 840.71,-220.43"/>
</a>
</g>
</g>
<!-- Node19&#45;&gt;Node4 -->
<g id="edge35_Node000019_Node000004" class="edge">
<title>Node19&#45;&gt;Node4</title>
<g id="a_edge35_Node000019_Node000004"><a xlink:title=" ">
<path fill="none" stroke="#63b8ff" d="M324.1,-100.05C456.1,-121.71 766.75,-173.71 786,-186.51 810.33,-202.69 801.52,-220.68 822,-241.51 838.28,-258.07 860.16,-272.65 877.29,-282.78"/>
<polygon fill="#63b8ff" stroke="#63b8ff" points="875.84,-285.98 886.25,-287.93 879.33,-279.92 875.84,-285.98"/>
</a>
</g>
</g>
<!-- Node19&#45;&gt;Node5 -->
<g id="edge36_Node000019_Node000005" class="edge">
<title>Node19&#45;&gt;Node5</title>
<g id="a_edge36_Node000019_Node000005"><a xlink:title=" ">
<path fill="none" stroke="#63b8ff" d="M289.54,-80.99C388.03,-43.73 765.95,82.28 989,-83.51 1065.21,-140.15 1077.74,-266.69 1079.69,-315.64"/>
<polygon fill="#63b8ff" stroke="#63b8ff" points="1076.2,-315.95 1079.98,-325.84 1083.2,-315.75 1076.2,-315.95"/>
</a>
</g>
</g>
<!-- Node20 -->
<g id="Node000020" class="node">
<title>Node20</title>
<g id="a_Node000020"><a xlink:href="classBusIO__7Semi.html#ac7b3d1c425f7187abbe1bbec64d9ccea" target="_top" xlink:title=" ">
<polygon fill="white" stroke="#666666" points="541.5,-100.01 416.5,-100.01 416.5,-81.01 541.5,-81.01 541.5,-100.01"/>
<text text-anchor="middle" x="479" y="-88.01" font-family="Helvetica,sans-Serif" font-size="10.00">BusIO_7Semi::writeBit</text>
</a>
</g>
</g>
<!-- Node19&#45;&gt;Node20 -->
<g id="edge37_Node000019_Node000020" class="edge">
<title>Node19&#45;&gt;Node20</title>
<g id="a_edge37_Node000019_Node000020"><a xlink:title=" ">
<path fill="none" stroke="#63b8ff" d="M348.27,-90.51C367.34,-90.51 387.48,-90.51 406.05,-90.51"/>
<polygon fill="#63b8ff" stroke="#63b8ff" points="406.19,-94.01 416.19,-90.51 406.19,-87.01 406.19,-94.01"/>
</a>
</g>
</g>
<!-- Node21 -->
<g id="Node000021" class="node">
<title>Node21</title>
<g id="a_Node000021"><a xlink:href="classBusIO__7Semi.html#a855c7388d4118e632c84c7f8e2e3ddc2" target="_top" xlink:title=" ">
<polygon fill="white" stroke="#666666" points="763.5,-101.01 632.5,-101.01 632.5,-82.01 763.5,-82.01 763.5,-101.01"/>
<text text-anchor="middle" x="698" y="-89.01" font-family="Helvetica,sans-Serif" font-size="10.00">BusIO_7Semi::writeBits</text>
</a>
</g>
</g>
<!-- Node20&#45;&gt;Node21 -->
<g id="edge38_Node000020_Node000021" class="edge">
<title>Node20&#45;&gt;Node21</title>
<g id="a_edge38_Node000020_Node000021"><a xlink:title=" ">
<path fill="none" stroke="#63b8ff" d="M541.6,-90.79C566.6,-90.91 595.72,-91.04 621.94,-91.16"/>
<polygon fill="#63b8ff" stroke="#63b8ff" points="622.2,-94.66 632.21,-91.21 622.23,-87.66 622.2,-94.66"/>
</a>
</g>
</g>
<!-- Node21&#45;&gt;Node5 -->
<g id="edge40_Node000021_Node000005" class="edge">
<title>Node21&#45;&gt;Node5</title>
<g id="a_edge40_Node000021_Node000005"><a xlink:title=" ">
<path fill="none" stroke="#63b8ff" d="M763.64,-85.55C827.27,-83.16 924.1,-89.24 989,-138.51 1047.97,-183.28 1070.03,-275.41 1077.1,-315.8"/>
<polygon fill="#63b8ff" stroke="#63b8ff" points="1073.65,-316.43 1078.71,-325.74 1080.56,-315.31 1073.65,-316.43"/>
</a>
</g>
</g>
<!-- Node21&#45;&gt;Node8 -->
<g id="edge39_Node000021_Node000008" class="edge">
<title>Node21&#45;&gt;Node8</title>
<g id="a_edge39_Node000021_Node000008"><a xlink:title=" ">
<path fill="none" stroke="#63b8ff" d="M763.61,-100.62C771.39,-102.95 779.03,-105.86 786,-109.51 831.27,-133.24 871.4,-179.38 891.29,-204.74"/>
<polygon fill="#63b8ff" stroke="#63b8ff" points="888.59,-206.97 897.45,-212.78 894.14,-202.71 888.59,-206.97"/>
</a>
</g>
</g>
</g>
</svg>
