<?xml version="1.0" encoding="UTF-8" standalone="no"?>
<!DOCTYPE svg PUBLIC "-//W3C//DTD SVG 1.1//EN"
 "http://www.w3.org/Graphics/SVG/1.1/DTD/svg11.dtd">
<!-- Generated by graphviz version 2.43.0 (0)
 -->
<!-- Title: setup Pages: 1 -->
<svg width="830pt" height="516pt"
 viewBox="0.00 0.00 830.00 516.26" xmlns="http://www.w3.org/2000/svg" xmlns:xlink="http://www.w3.org/1999/xlink">
<g id="graph0" class="graph" transform="scale(1 1) rotate(0) translate(4 512.26)">
<title>setup</title>
<!-- Node1 -->
<g id="Node000001" class="node">
<title>Node1</title>
<g id="a_Node000001"><a xlink:title="Configure the IMU for accelerometer&#45;only operation over I2C.">
<polygon fill="#999999" stroke="#666666" points="44,-221.76 0,-221.76 0,-202.76 44,-202.76 44,-221.76"/>
<text text-anchor="middle" x="22" y="-209.76" font-family="Helvetica,sans-Serif" font-size="10.00">setup</text>
</a>
</g>
</g>
<!-- Node2 -->
<g id="Node000002" class="node">
<title>Node2</title>
<g id="a_Node000002"><a xlink:href="classDevLab__ICM20948.html#a91147b3cd4c45bffc8e024f985be7b21" target="_top" xlink:title=" ">
<polygon fill="white" stroke="#666666" points="247.5,-297.76 91.5,-297.76 91.5,-278.76 247.5,-278.76 247.5,-297.76"/>
<text text-anchor="middle" x="169.5" y="-285.76" font-family="Helvetica,sans-Serif" font-size="10.00">DevLab_ICM20948::beginI2C</text>
</a>
</g>
</g>
<!-- Node1&#45;&gt;Node2 -->
<g id="edge1_Node000001_Node000002" class="edge">
<title>Node1&#45;&gt;Node2</title>
<g id="a_edge1_Node000001_Node000002"><a xlink:title=" ">
<path fill="none" stroke="#63b8ff" d="M29.94,-221.83C39.66,-234.49 58.57,-256.57 80,-268.26 85.14,-271.07 90.65,-273.48 96.32,-275.55"/>
<polygon fill="#63b8ff" stroke="#63b8ff" points="95.37,-278.92 105.96,-278.73 97.56,-272.27 95.37,-278.92"/>
</a>
</g>
</g>
<!-- Node7 -->
<g id="Node000007" class="node">
<title>Node7</title>
<g id="a_Node000007"><a xlink:href="classDevLab__ICM20948.html#a8bef7eafb3b67eb736f491d0df453b9e" target="_top" xlink:title=" ">
<polygon fill="white" stroke="#666666" points="471,-221.76 295,-221.76 295,-202.76 471,-202.76 471,-221.76"/>
<text text-anchor="middle" x="383" y="-209.76" font-family="Helvetica,sans-Serif" font-size="10.00">DevLab_ICM20948::readWhoAmI</text>
</a>
</g>
</g>
<!-- Node1&#45;&gt;Node7 -->
<g id="edge16_Node000001_Node000007" class="edge">
<title>Node1&#45;&gt;Node7</title>
<g id="a_edge16_Node000001_Node000007"><a xlink:title=" ">
<path fill="none" stroke="#63b8ff" d="M44.12,-212.26C90.22,-212.26 202.33,-212.26 284.83,-212.26"/>
<polygon fill="#63b8ff" stroke="#63b8ff" points="284.99,-215.76 294.99,-212.26 284.99,-208.76 284.99,-215.76"/>
</a>
</g>
</g>
<!-- Node11 -->
<g id="Node000011" class="node">
<title>Node11</title>
<g id="a_Node000011"><a xlink:href="classDevLab__ICM20948.html#a619f82390347cc173d1604d4d711b537" target="_top" xlink:title=" ">
<polygon fill="white" stroke="#666666" points="460.5,-61.26 305.5,-61.26 305.5,-31.26 460.5,-31.26 460.5,-61.26"/>
<text text-anchor="start" x="313.5" y="-49.26" font-family="Helvetica,sans-Serif" font-size="10.00">DevLab_ICM20948::setAccel</text>
<text text-anchor="middle" x="383" y="-38.26" font-family="Helvetica,sans-Serif" font-size="10.00">Averaging</text>
</a>
</g>
</g>
<!-- Node1&#45;&gt;Node11 -->
<g id="edge17_Node000001_Node000011" class="edge">
<title>Node1&#45;&gt;Node11</title>
<g id="a_edge17_Node000001_Node000011"><a xlink:title=" ">
<path fill="none" stroke="#63b8ff" d="M24.65,-202.48C29.06,-179.59 43.37,-122.49 80,-95.26 141.61,-49.47 229.9,-39.77 295.12,-40"/>
<polygon fill="#63b8ff" stroke="#63b8ff" points="295.34,-43.5 305.38,-40.11 295.42,-36.5 295.34,-43.5"/>
</a>
</g>
</g>
<!-- Node12 -->
<g id="Node000012" class="node">
<title>Node12</title>
<g id="a_Node000012"><a xlink:href="classDevLab__ICM20948.html#ac52d80aad738b90aa0f05e9d6404bb85" target="_top" xlink:title=" ">
<polygon fill="white" stroke="#666666" points="259,-177.76 80,-177.76 80,-158.76 259,-158.76 259,-177.76"/>
<text text-anchor="middle" x="169.5" y="-165.76" font-family="Helvetica,sans-Serif" font-size="10.00">DevLab_ICM20948::setAccelDLPF</text>
</a>
</g>
</g>
<!-- Node1&#45;&gt;Node12 -->
<g id="edge20_Node000001_Node000012" class="edge">
<title>Node1&#45;&gt;Node12</title>
<g id="a_edge20_Node000001_Node000012"><a xlink:title=" ">
<path fill="none" stroke="#63b8ff" d="M44.16,-205.86C65.85,-199.31 100.14,-188.93 127.23,-180.74"/>
<polygon fill="#63b8ff" stroke="#63b8ff" points="128.29,-184.08 136.85,-177.84 126.26,-177.38 128.29,-184.08"/>
</a>
</g>
</g>
<!-- Node13 -->
<g id="Node000013" class="node">
<title>Node13</title>
<g id="a_Node000013"><a xlink:href="classDevLab__ICM20948.html#afe657b6e9d21f02dad2599ea04feefe2" target="_top" xlink:title=" ">
<polygon fill="white" stroke="#666666" points="460.5,-508.26 305.5,-508.26 305.5,-478.26 460.5,-478.26 460.5,-508.26"/>
<text text-anchor="start" x="313.5" y="-496.26" font-family="Helvetica,sans-Serif" font-size="10.00">DevLab_ICM20948::setAccel</text>
<text text-anchor="middle" x="383" y="-485.26" font-family="Helvetica,sans-Serif" font-size="10.00">SampleRate</text>
</a>
</g>
</g>
<!-- Node1&#45;&gt;Node13 -->
<g id="edge24_Node000001_Node000013" class="edge">
<title>Node1&#45;&gt;Node13</title>
<g id="a_edge24_Node000001_Node000013"><a xlink:title=" ">
<path fill="none" stroke="#63b8ff" d="M27.31,-221.85C35.67,-239.78 55.47,-279.04 80,-306.26 160.29,-395.33 187.49,-416.14 295,-469.26 298.98,-471.23 303.14,-473.05 307.4,-474.74"/>
<polygon fill="#63b8ff" stroke="#63b8ff" points="306.25,-478.05 316.84,-478.23 308.68,-471.48 306.25,-478.05"/>
</a>
</g>
</g>
<!-- Node14 -->
<g id="Node000014" class="node">
<title>Node14</title>
<g id="a_Node000014"><a xlink:href="classDevLab__ICM20948.html#a1a2aa0019d5e1c6ba8ce4a3c1d9fcb43" target="_top" xlink:title=" ">
<polygon fill="white" stroke="#666666" points="460.5,-109.26 305.5,-109.26 305.5,-79.26 460.5,-79.26 460.5,-109.26"/>
<text text-anchor="start" x="313.5" y="-97.26" font-family="Helvetica,sans-Serif" font-size="10.00">DevLab_ICM20948::setAccel</text>
<text text-anchor="middle" x="383" y="-86.26" font-family="Helvetica,sans-Serif" font-size="10.00">Scale</text>
</a>
</g>
</g>
<!-- Node1&#45;&gt;Node14 -->
<g id="edge27_Node000001_Node000014" class="edge">
<title>Node1&#45;&gt;Node14</title>
<g id="a_edge27_Node000001_Node000014"><a xlink:title=" ">
<path fill="none" stroke="#63b8ff" d="M28.95,-202.31C38.04,-188.07 56.8,-162.17 80,-149.26 146.17,-112.44 231.92,-99.55 295.14,-95.37"/>
<polygon fill="#63b8ff" stroke="#63b8ff" points="295.7,-98.84 305.48,-94.75 295.28,-91.86 295.7,-98.84"/>
</a>
</g>
</g>
<!-- Node15 -->
<g id="Node000015" class="node">
<title>Node15</title>
<g id="a_Node000015"><a xlink:href="classDevLab__ICM20948.html#ae9c088334d6ec706bb08b47ef29bd186" target="_top" xlink:title=" ">
<polygon fill="white" stroke="#666666" points="253,-259.76 86,-259.76 86,-240.76 253,-240.76 253,-259.76"/>
<text text-anchor="middle" x="169.5" y="-247.76" font-family="Helvetica,sans-Serif" font-size="10.00">DevLab_ICM20948::setSensors</text>
</a>
</g>
</g>
<!-- Node1&#45;&gt;Node15 -->
<g id="edge30_Node000001_Node000015" class="edge">
<title>Node1&#45;&gt;Node15</title>
<g id="a_edge30_Node000001_Node000015"><a xlink:title=" ">
<path fill="none" stroke="#63b8ff" d="M44.16,-217.79C64.56,-223.12 96.13,-231.36 122.35,-238.21"/>
<polygon fill="#63b8ff" stroke="#63b8ff" points="121.54,-241.62 132.1,-240.76 123.31,-234.84 121.54,-241.62"/>
</a>
</g>
</g>
<!-- Node3 -->
<g id="Node000003" class="node">
<title>Node3</title>
<g id="a_Node000003"><a xlink:href="classDevLab__ICM20948.html#a31460c48549b1d3081e253706f8b15e6" target="_top" xlink:title=" ">
<polygon fill="white" stroke="#666666" points="466.5,-384.26 299.5,-384.26 299.5,-354.26 466.5,-354.26 466.5,-384.26"/>
<text text-anchor="start" x="307.5" y="-372.26" font-family="Helvetica,sans-Serif" font-size="10.00">DevLab_ICM20948::applyBasic</text>
<text text-anchor="middle" x="383" y="-361.26" font-family="Helvetica,sans-Serif" font-size="10.00">Defaults</text>
</a>
</g>
</g>
<!-- Node2&#45;&gt;Node3 -->
<g id="edge2_Node000002_Node000003" class="edge">
<title>Node2&#45;&gt;Node3</title>
<g id="a_edge2_Node000002_Node000003"><a xlink:title=" ">
<path fill="none" stroke="#63b8ff" d="M191.9,-297.77C216.55,-308.59 258.37,-326.53 295,-340.26 304.72,-343.91 315.12,-347.57 325.24,-351.02"/>
<polygon fill="#63b8ff" stroke="#63b8ff" points="324.23,-354.37 334.82,-354.24 326.46,-347.73 324.23,-354.37"/>
</a>
</g>
</g>
<!-- Node4 -->
<g id="Node000004" class="node">
<title>Node4</title>
<g id="a_Node000004"><a xlink:href="classDevLab__ICM20948.html#aaa26fcbfea0e67d45cb1c3ae39654c55" target="_top" xlink:title=" ">
<polygon fill="white" stroke="#666666" points="674,-259.76 507,-259.76 507,-240.76 674,-240.76 674,-259.76"/>
<text text-anchor="middle" x="590.5" y="-247.76" font-family="Helvetica,sans-Serif" font-size="10.00">DevLab_ICM20948::selectBank</text>
</a>
</g>
</g>
<!-- Node2&#45;&gt;Node4 -->
<g id="edge10_Node000002_Node000004" class="edge">
<title>Node2&#45;&gt;Node4</title>
<g id="a_edge10_Node000002_Node000004"><a xlink:title=" ">
<path fill="none" stroke="#63b8ff" d="M247.77,-282.9C308.51,-278.49 395.22,-271.76 471,-264.26 481.15,-263.26 491.79,-262.12 502.34,-260.94"/>
<polygon fill="#63b8ff" stroke="#63b8ff" points="502.87,-264.4 512.42,-259.8 502.09,-257.45 502.87,-264.4"/>
</a>
</g>
</g>
<!-- Node5 -->
<g id="Node000005" class="node">
<title>Node5</title>
<g id="a_Node000005"><a xlink:href="classBusIO__7Semi.html#aa633479356af692cb9ea334771b7c0c5" target="_top" xlink:title=" ">
<polygon fill="white" stroke="#666666" points="822,-355.76 710,-355.76 710,-336.76 822,-336.76 822,-355.76"/>
<text text-anchor="middle" x="766" y="-343.76" font-family="Helvetica,sans-Serif" font-size="10.00">BusIO_7Semi::write</text>
</a>
</g>
</g>
<!-- Node2&#45;&gt;Node5 -->
<g id="edge11_Node000002_Node000005" class="edge">
<title>Node2&#45;&gt;Node5</title>
<g id="a_edge11_Node000002_Node000005"><a xlink:title=" ">
<path fill="none" stroke="#63b8ff" d="M247.55,-295.11C251.62,-297.08 255.48,-299.44 259,-302.26 292.94,-329.46 259.03,-368.81 295,-393.26 364.77,-440.69 591.12,-387.03 674,-371.26 690.9,-368.05 709.25,-363.26 725.01,-358.74"/>
<polygon fill="#63b8ff" stroke="#63b8ff" points="726.34,-362 734.95,-355.82 724.37,-355.28 726.34,-362"/>
</a>
</g>
</g>
<!-- Node6 -->
<g id="Node000006" class="node">
<title>Node6</title>
<g id="a_Node000006"><a xlink:href="classI2C__Interface.html#ae8147c4d6e54fe2622825d7e17493152" target="_top" xlink:title=" ">
<polygon fill="white" stroke="#666666" points="448,-459.76 318,-459.76 318,-440.76 448,-440.76 448,-459.76"/>
<text text-anchor="middle" x="383" y="-447.76" font-family="Helvetica,sans-Serif" font-size="10.00">I2C_Interface::beginI2C</text>
</a>
</g>
</g>
<!-- Node2&#45;&gt;Node6 -->
<g id="edge6_Node000002_Node000006" class="edge">
<title>Node2&#45;&gt;Node6</title>
<g id="a_edge6_Node000002_Node000006"><a xlink:title=" ">
<path fill="none" stroke="#63b8ff" d="M178,-297.9C200.24,-326.23 266.03,-408.38 295,-426.26 302.28,-430.76 310.42,-434.43 318.71,-437.42"/>
<polygon fill="#63b8ff" stroke="#63b8ff" points="317.89,-440.83 328.48,-440.63 320.07,-434.18 317.89,-440.83"/>
</a>
</g>
</g>
<!-- Node2&#45;&gt;Node7 -->
<g id="edge7_Node000002_Node000007" class="edge">
<title>Node2&#45;&gt;Node7</title>
<g id="a_edge7_Node000002_Node000007"><a xlink:title=" ">
<path fill="none" stroke="#63b8ff" d="M221.07,-278.71C233.61,-275.83 246.91,-272.33 259,-268.26 293.16,-256.76 330.61,-238.9 355.1,-226.45"/>
<polygon fill="#63b8ff" stroke="#63b8ff" points="356.84,-229.49 364.13,-221.81 353.64,-223.27 356.84,-229.49"/>
</a>
</g>
</g>
<!-- Node9 -->
<g id="Node000009" class="node">
<title>Node9</title>
<g id="a_Node000009"><a xlink:href="classBusIO__7Semi.html#ac7b3d1c425f7187abbe1bbec64d9ccea" target="_top" xlink:title=" ">
<polygon fill="white" stroke="#666666" points="445.5,-184.76 320.5,-184.76 320.5,-165.76 445.5,-165.76 445.5,-184.76"/>
<text text-anchor="middle" x="383" y="-172.76" font-family="Helvetica,sans-Serif" font-size="10.00">BusIO_7Semi::writeBit</text>
</a>
</g>
</g>
<!-- Node2&#45;&gt;Node9 -->
<g id="edge12_Node000002_Node000009" class="edge">
<title>Node2&#45;&gt;Node9</title>
<g id="a_edge12_Node000002_Node000009"><a xlink:title=" ">
<path fill="none" stroke="#63b8ff" d="M240.9,-278.72C247.41,-276.01 253.58,-272.58 259,-268.26 287.92,-245.22 265.87,-216.04 295,-193.26 299.75,-189.55 305.07,-186.55 310.69,-184.13"/>
<polygon fill="#63b8ff" stroke="#63b8ff" points="312.18,-187.32 320.37,-180.6 309.77,-180.74 312.18,-187.32"/>
</a>
</g>
</g>
<!-- Node3&#45;&gt;Node4 -->
<g id="edge3_Node000003_Node000004" class="edge">
<title>Node3&#45;&gt;Node4</title>
<g id="a_edge3_Node000003_Node000004"><a xlink:title=" ">
<path fill="none" stroke="#63b8ff" d="M410.03,-354.19C449.72,-331.2 524.91,-287.67 564.18,-264.93"/>
<polygon fill="#63b8ff" stroke="#63b8ff" points="565.99,-267.92 572.89,-259.88 562.49,-261.86 565.99,-267.92"/>
</a>
</g>
</g>
<!-- Node3&#45;&gt;Node5 -->
<g id="edge5_Node000003_Node000005" class="edge">
<title>Node3&#45;&gt;Node5</title>
<g id="a_edge5_Node000003_Node000005"><a xlink:title=" ">
<path fill="none" stroke="#63b8ff" d="M466.67,-364.27C536.58,-360.05 635.37,-354.09 699.8,-350.2"/>
<polygon fill="#63b8ff" stroke="#63b8ff" points="700.06,-353.69 709.83,-349.59 699.64,-346.7 700.06,-353.69"/>
</a>
</g>
</g>
<!-- Node4&#45;&gt;Node5 -->
<g id="edge4_Node000004_Node000005" class="edge">
<title>Node4&#45;&gt;Node5</title>
<g id="a_edge4_Node000004_Node000005"><a xlink:title=" ">
<path fill="none" stroke="#63b8ff" d="M608.77,-259.82C639.3,-276.71 702.96,-311.93 738.88,-331.81"/>
<polygon fill="#63b8ff" stroke="#63b8ff" points="737.36,-334.97 747.8,-336.75 740.74,-328.84 737.36,-334.97"/>
</a>
</g>
</g>
<!-- Node7&#45;&gt;Node4 -->
<g id="edge9_Node000007_Node000004" class="edge">
<title>Node7&#45;&gt;Node4</title>
<g id="a_edge9_Node000007_Node000004"><a xlink:title=" ">
<path fill="none" stroke="#63b8ff" d="M435.59,-221.8C463.56,-226.97 498.32,-233.4 527.73,-238.84"/>
<polygon fill="#63b8ff" stroke="#63b8ff" points="527.42,-242.34 537.89,-240.72 528.69,-235.46 527.42,-242.34"/>
</a>
</g>
</g>
<!-- Node8 -->
<g id="Node000008" class="node">
<title>Node8</title>
<g id="a_Node000008"><a xlink:href="classBusIO__7Semi.html#a933c66d9a1afe84102323e209a93dd31" target="_top" xlink:title=" ">
<polygon fill="white" stroke="#666666" points="820.5,-182.76 711.5,-182.76 711.5,-163.76 820.5,-163.76 820.5,-182.76"/>
<text text-anchor="middle" x="766" y="-170.76" font-family="Helvetica,sans-Serif" font-size="10.00">BusIO_7Semi::read</text>
</a>
</g>
</g>
<!-- Node7&#45;&gt;Node8 -->
<g id="edge8_Node000007_Node000008" class="edge">
<title>Node7&#45;&gt;Node8</title>
<g id="a_edge8_Node000007_Node000008"><a xlink:title=" ">
<path fill="none" stroke="#63b8ff" d="M471.41,-203.32C541.54,-196.14 638.35,-186.23 701.31,-179.78"/>
<polygon fill="#63b8ff" stroke="#63b8ff" points="701.91,-183.24 711.5,-178.74 701.19,-176.28 701.91,-183.24"/>
</a>
</g>
</g>
<!-- Node10 -->
<g id="Node000010" class="node">
<title>Node10</title>
<g id="a_Node000010"><a xlink:href="classBusIO__7Semi.html#a855c7388d4118e632c84c7f8e2e3ddc2" target="_top" xlink:title=" ">
<polygon fill="white" stroke="#666666" points="656,-123.76 525,-123.76 525,-104.76 656,-104.76 656,-123.76"/>
<text text-anchor="middle" x="590.5" y="-111.76" font-family="Helvetica,sans-Serif" font-size="10.00">BusIO_7Semi::writeBits</text>
</a>
</g>
</g>
<!-- Node9&#45;&gt;Node10 -->
<g id="edge13_Node000009_Node000010" class="edge">
<title>Node9&#45;&gt;Node10</title>
<g id="a_edge13_Node000009_Node000010"><a xlink:title=" ">
<path fill="none" stroke="#63b8ff" d="M416.11,-165.73C451.45,-155.24 508.39,-138.34 547.3,-126.79"/>
<polygon fill="#63b8ff" stroke="#63b8ff" points="548.69,-130.03 557.28,-123.83 546.7,-123.32 548.69,-130.03"/>
</a>
</g>
</g>
<!-- Node10&#45;&gt;Node5 -->
<g id="edge15_Node000010_Node000005" class="edge">
<title>Node10&#45;&gt;Node5</title>
<g id="a_edge15_Node000010_Node000005"><a xlink:title=" ">
<path fill="none" stroke="#63b8ff" d="M598.73,-123.94C625.19,-159.31 716.94,-282 751.6,-328.34"/>
<polygon fill="#63b8ff" stroke="#63b8ff" points="748.94,-330.64 757.73,-336.55 754.55,-326.44 748.94,-330.64"/>
</a>
</g>
</g>
<!-- Node10&#45;&gt;Node8 -->
<g id="edge14_Node000010_Node000008" class="edge">
<title>Node10&#45;&gt;Node8</title>
<g id="a_edge14_Node000010_Node000008"><a xlink:title=" ">
<path fill="none" stroke="#63b8ff" d="M619.76,-123.87C649.09,-133.85 695.1,-149.49 727.47,-160.5"/>
<polygon fill="#63b8ff" stroke="#63b8ff" points="726.44,-163.85 737.04,-163.75 728.7,-157.22 726.44,-163.85"/>
</a>
</g>
</g>
<!-- Node11&#45;&gt;Node4 -->
<g id="edge18_Node000011_Node000004" class="edge">
<title>Node11&#45;&gt;Node4</title>
<g id="a_edge18_Node000011_Node000004"><a xlink:title=" ">
<path fill="none" stroke="#63b8ff" d="M456.43,-61.34C461.6,-63.87 466.53,-66.82 471,-70.26 496.23,-89.72 489.86,-105.4 507,-132.26 530.17,-168.56 559.51,-209.44 576.23,-232.3"/>
<polygon fill="#63b8ff" stroke="#63b8ff" points="573.63,-234.67 582.37,-240.66 579.27,-230.53 573.63,-234.67"/>
</a>
</g>
</g>
<!-- Node11&#45;&gt;Node10 -->
<g id="edge19_Node000011_Node000010" class="edge">
<title>Node11&#45;&gt;Node10</title>
<g id="a_edge19_Node000011_Node000010"><a xlink:title=" ">
<path fill="none" stroke="#63b8ff" d="M441.3,-61.31C451.25,-64.14 461.46,-67.18 471,-70.26 500.05,-79.64 532.53,-91.82 556.12,-100.99"/>
<polygon fill="#63b8ff" stroke="#63b8ff" points="555.07,-104.34 565.66,-104.72 557.62,-97.82 555.07,-104.34"/>
</a>
</g>
</g>
<!-- Node12&#45;&gt;Node4 -->
<g id="edge21_Node000012_Node000004" class="edge">
<title>Node12&#45;&gt;Node4</title>
<g id="a_edge21_Node000012_Node000004"><a xlink:title=" ">
<path fill="none" stroke="#63b8ff" d="M205.97,-158.67C263.47,-144.9 379.79,-124.48 471,-156.26 514.73,-171.5 554.44,-210.35 574.92,-233.05"/>
<polygon fill="#63b8ff" stroke="#63b8ff" points="572.34,-235.41 581.57,-240.61 577.59,-230.79 572.34,-235.41"/>
</a>
</g>
</g>
<!-- Node12&#45;&gt;Node9 -->
<g id="edge22_Node000012_Node000009" class="edge">
<title>Node12&#45;&gt;Node9</title>
<g id="a_edge22_Node000012_Node000009"><a xlink:title=" ">
<path fill="none" stroke="#63b8ff" d="M259.28,-171.2C276.31,-171.76 293.96,-172.35 310.37,-172.89"/>
<polygon fill="#63b8ff" stroke="#63b8ff" points="310.3,-176.39 320.41,-173.22 310.53,-169.4 310.3,-176.39"/>
</a>
</g>
</g>
<!-- Node12&#45;&gt;Node10 -->
<g id="edge23_Node000012_Node000010" class="edge">
<title>Node12&#45;&gt;Node10</title>
<g id="a_edge23_Node000012_Node000010"><a xlink:title=" ">
<path fill="none" stroke="#63b8ff" d="M174.96,-158.65C188.4,-131.04 231.48,-51.57 295,-22.26 366.02,10.51 397,3.09 471,-22.26 514.23,-37.07 553.87,-74.8 574.53,-97.07"/>
<polygon fill="#63b8ff" stroke="#63b8ff" points="571.95,-99.44 581.25,-104.5 577.14,-94.74 571.95,-99.44"/>
</a>
</g>
</g>
<!-- Node13&#45;&gt;Node4 -->
<g id="edge25_Node000013_Node000004" class="edge">
<title>Node13&#45;&gt;Node4</title>
<g id="a_edge25_Node000013_Node000004"><a xlink:title=" ">
<path fill="none" stroke="#63b8ff" d="M456.97,-478.12C461.96,-475.61 466.71,-472.68 471,-469.26 538.53,-415.54 572.8,-312.44 584.62,-269.63"/>
<polygon fill="#63b8ff" stroke="#63b8ff" points="588.02,-270.46 587.2,-259.9 581.25,-268.66 588.02,-270.46"/>
</a>
</g>
</g>
<!-- Node13&#45;&gt;Node5 -->
<g id="edge26_Node000013_Node000005" class="edge">
<title>Node13&#45;&gt;Node5</title>
<g id="a_edge26_Node000013_Node000005"><a xlink:title=" ">
<path fill="none" stroke="#63b8ff" d="M460.51,-485.99C521.12,-477.83 606.53,-460.88 674,-426.26 704.84,-410.44 733.68,-381.84 750.31,-363.47"/>
<polygon fill="#63b8ff" stroke="#63b8ff" points="753.07,-365.65 757.06,-355.83 747.82,-361.01 753.07,-365.65"/>
</a>
</g>
</g>
<!-- Node14&#45;&gt;Node4 -->
<g id="edge28_Node000014_Node000004" class="edge">
<title>Node14&#45;&gt;Node4</title>
<g id="a_edge28_Node000014_Node000004"><a xlink:title=" ">
<path fill="none" stroke="#63b8ff" d="M442.48,-109.26C452.4,-113.05 462.29,-117.67 471,-123.26 517.28,-152.98 557.76,-204.82 577.22,-232.17"/>
<polygon fill="#63b8ff" stroke="#63b8ff" points="574.4,-234.24 582.99,-240.44 580.14,-230.24 574.4,-234.24"/>
</a>
</g>
</g>
<!-- Node14&#45;&gt;Node10 -->
<g id="edge29_Node000014_Node000010" class="edge">
<title>Node14&#45;&gt;Node10</title>
<g id="a_edge29_Node000014_Node000010"><a xlink:title=" ">
<path fill="none" stroke="#63b8ff" d="M460.52,-101.71C478.17,-103.43 496.92,-105.25 514.5,-106.96"/>
<polygon fill="#63b8ff" stroke="#63b8ff" points="514.41,-110.47 524.7,-107.96 515.09,-103.5 514.41,-110.47"/>
</a>
</g>
</g>
<!-- Node15&#45;&gt;Node4 -->
<g id="edge31_Node000015_Node000004" class="edge">
<title>Node15&#45;&gt;Node4</title>
<g id="a_edge31_Node000015_Node000004"><a xlink:title=" ">
<path fill="none" stroke="#63b8ff" d="M253.28,-250.26C323.44,-250.26 423.96,-250.26 496.8,-250.26"/>
<polygon fill="#63b8ff" stroke="#63b8ff" points="496.89,-253.76 506.89,-250.26 496.89,-246.76 496.89,-253.76"/>
</a>
</g>
</g>
<!-- Node15&#45;&gt;Node5 -->
<g id="edge32_Node000015_Node000005" class="edge">
<title>Node15&#45;&gt;Node5</title>
<g id="a_edge32_Node000015_Node000005"><a xlink:title=" ">
<path fill="none" stroke="#63b8ff" d="M229.4,-259.77C341.16,-277.82 583.17,-316.9 699.7,-335.72"/>
<polygon fill="#63b8ff" stroke="#63b8ff" points="699.47,-339.23 709.9,-337.37 700.59,-332.32 699.47,-339.23"/>
</a>
</g>
</g>
<!-- Node15&#45;&gt;Node9 -->
<g id="edge33_Node000015_Node000009" class="edge">
<title>Node15&#45;&gt;Node9</title>
<g id="a_edge33_Node000015_Node000009"><a xlink:title=" ">
<path fill="none" stroke="#63b8ff" d="M188.13,-240.65C211.8,-228.1 255.47,-206.22 295,-193.26 301.85,-191.02 309.1,-188.99 316.38,-187.18"/>
<polygon fill="#63b8ff" stroke="#63b8ff" points="317.35,-190.55 326.28,-184.84 315.74,-183.73 317.35,-190.55"/>
</a>
</g>
</g>
</g>
</svg>
