<?xml version="1.0" encoding="UTF-8" standalone="no"?>
<!DOCTYPE svg PUBLIC "-//W3C//DTD SVG 1.1//EN"
 "http://www.w3.org/Graphics/SVG/1.1/DTD/svg11.dtd">
<!-- Generated by graphviz version 2.43.0 (0)
 -->
<!-- Title: setup Pages: 1 -->
<svg width="818pt" height="469pt"
 viewBox="0.00 0.00 818.00 468.98" xmlns="http://www.w3.org/2000/svg" xmlns:xlink="http://www.w3.org/1999/xlink">
<g id="graph0" class="graph" transform="scale(1 1) rotate(0) translate(4 464.98)">
<title>setup</title>
<!-- Node1 -->
<g id="Node000001" class="node">
<title>Node1</title>
<g id="a_Node000001"><a xlink:title="Configure I2C, verify the IMU, and initialize the magnetometer.">
<polygon fill="#999999" stroke="#666666" points="44,-316.98 0,-316.98 0,-297.98 44,-297.98 44,-316.98"/>
<text text-anchor="middle" x="22" y="-304.98" font-family="Helvetica,sans-Serif" font-size="10.00">setup</text>
</a>
</g>
</g>
<!-- Node2 -->
<g id="Node000002" class="node">
<title>Node2</title>
<g id="a_Node000002"><a xlink:href="classDevLab__ICM20948.html#a91147b3cd4c45bffc8e024f985be7b21" target="_top" xlink:title=" ">
<polygon fill="white" stroke="#666666" points="241.5,-347.98 85.5,-347.98 85.5,-328.98 241.5,-328.98 241.5,-347.98"/>
<text text-anchor="middle" x="163.5" y="-335.98" font-family="Helvetica,sans-Serif" font-size="10.00">DevLab_ICM20948::beginI2C</text>
</a>
</g>
</g>
<!-- Node1&#45;&gt;Node2 -->
<g id="edge1_Node000001_Node000002" class="edge">
<title>Node1&#45;&gt;Node2</title>
<g id="a_edge1_Node000001_Node000002"><a xlink:title=" ">
<path fill="none" stroke="#63b8ff" d="M44.19,-312.19C61.58,-316.06 86.98,-321.7 109.79,-326.77"/>
<polygon fill="#63b8ff" stroke="#63b8ff" points="109.19,-330.22 119.71,-328.97 110.7,-323.39 109.19,-330.22"/>
</a>
</g>
</g>
<!-- Node7 -->
<g id="Node000007" class="node">
<title>Node7</title>
<g id="a_Node000007"><a xlink:href="classDevLab__ICM20948.html#a8bef7eafb3b67eb736f491d0df453b9e" target="_top" xlink:title=" ">
<polygon fill="white" stroke="#666666" points="459,-460.98 283,-460.98 283,-441.98 459,-441.98 459,-460.98"/>
<text text-anchor="middle" x="371" y="-448.98" font-family="Helvetica,sans-Serif" font-size="10.00">DevLab_ICM20948::readWhoAmI</text>
</a>
</g>
</g>
<!-- Node1&#45;&gt;Node7 -->
<g id="edge25_Node000001_Node000007" class="edge">
<title>Node1&#45;&gt;Node7</title>
<g id="a_edge25_Node000001_Node000007"><a xlink:title=" ">
<path fill="none" stroke="#63b8ff" d="M31.85,-317.12C42.4,-328.14 61.02,-346.13 80,-357.48 152.28,-400.72 246.76,-426.53 307.91,-439.87"/>
<polygon fill="#63b8ff" stroke="#63b8ff" points="307.29,-443.31 317.8,-441.98 308.76,-436.47 307.29,-443.31"/>
</a>
</g>
</g>
<!-- Node11 -->
<g id="Node000011" class="node">
<title>Node11</title>
<g id="a_Node000011"><a xlink:href="classDevLab__ICM20948.html#a7b137192f8eb987cd221808c2c6c3561" target="_top" xlink:title=" ">
<polygon fill="white" stroke="#666666" points="238.5,-147.98 88.5,-147.98 88.5,-128.98 238.5,-128.98 238.5,-147.98"/>
<text text-anchor="middle" x="163.5" y="-135.98" font-family="Helvetica,sans-Serif" font-size="10.00">DevLab_ICM20948::initMag</text>
</a>
</g>
</g>
<!-- Node1&#45;&gt;Node11 -->
<g id="edge16_Node000001_Node000011" class="edge">
<title>Node1&#45;&gt;Node11</title>
<g id="a_edge16_Node000001_Node000011"><a xlink:title=" ">
<path fill="none" stroke="#63b8ff" d="M29.29,-297.83C39.41,-282.5 60.19,-251.82 80,-227.48 101.46,-201.13 128.63,-172.65 145.79,-155.19"/>
<polygon fill="#63b8ff" stroke="#63b8ff" points="148.37,-157.56 152.92,-147.99 143.4,-152.64 148.37,-157.56"/>
</a>
</g>
</g>
<!-- Node14 -->
<g id="Node000014" class="node">
<title>Node14</title>
<g id="a_Node000014"><a xlink:href="classDevLab__ICM20948.html#ae9c088334d6ec706bb08b47ef29bd186" target="_top" xlink:title=" ">
<polygon fill="white" stroke="#666666" points="247,-254.98 80,-254.98 80,-235.98 247,-235.98 247,-254.98"/>
<text text-anchor="middle" x="163.5" y="-242.98" font-family="Helvetica,sans-Serif" font-size="10.00">DevLab_ICM20948::setSensors</text>
</a>
</g>
</g>
<!-- Node1&#45;&gt;Node14 -->
<g id="edge26_Node000001_Node000014" class="edge">
<title>Node1&#45;&gt;Node14</title>
<g id="a_edge26_Node000001_Node000014"><a xlink:title=" ">
<path fill="none" stroke="#63b8ff" d="M44.19,-298.07C67.54,-287.69 105.31,-270.9 131.88,-259.09"/>
<polygon fill="#63b8ff" stroke="#63b8ff" points="133.4,-262.25 141.11,-254.99 130.55,-255.85 133.4,-262.25"/>
</a>
</g>
</g>
<!-- Node3 -->
<g id="Node000003" class="node">
<title>Node3</title>
<g id="a_Node000003"><a xlink:href="classDevLab__ICM20948.html#a31460c48549b1d3081e253706f8b15e6" target="_top" xlink:title=" ">
<polygon fill="white" stroke="#666666" points="454.5,-310.48 287.5,-310.48 287.5,-280.48 454.5,-280.48 454.5,-310.48"/>
<text text-anchor="start" x="295.5" y="-298.48" font-family="Helvetica,sans-Serif" font-size="10.00">DevLab_ICM20948::applyBasic</text>
<text text-anchor="middle" x="371" y="-287.48" font-family="Helvetica,sans-Serif" font-size="10.00">Defaults</text>
</a>
</g>
</g>
<!-- Node2&#45;&gt;Node3 -->
<g id="edge2_Node000002_Node000003" class="edge">
<title>Node2&#45;&gt;Node3</title>
<g id="a_edge2_Node000002_Node000003"><a xlink:title=" ">
<path fill="none" stroke="#63b8ff" d="M210.11,-328.94C233.07,-324.13 261.61,-318.16 288.2,-312.6"/>
<polygon fill="#63b8ff" stroke="#63b8ff" points="289.21,-315.96 298.28,-310.49 287.78,-309.11 289.21,-315.96"/>
</a>
</g>
</g>
<!-- Node4 -->
<g id="Node000004" class="node">
<title>Node4</title>
<g id="a_Node000004"><a xlink:href="classDevLab__ICM20948.html#aaa26fcbfea0e67d45cb1c3ae39654c55" target="_top" xlink:title=" ">
<polygon fill="white" stroke="#666666" points="662,-205.98 495,-205.98 495,-186.98 662,-186.98 662,-205.98"/>
<text text-anchor="middle" x="578.5" y="-193.98" font-family="Helvetica,sans-Serif" font-size="10.00">DevLab_ICM20948::selectBank</text>
</a>
</g>
</g>
<!-- Node2&#45;&gt;Node4 -->
<g id="edge10_Node000002_Node000004" class="edge">
<title>Node2&#45;&gt;Node4</title>
<g id="a_edge10_Node000002_Node000004"><a xlink:title=" ">
<path fill="none" stroke="#63b8ff" d="M178.04,-328.97C199.37,-314.43 242.54,-286.75 283,-271.48 357.78,-243.26 385.01,-264.71 459,-234.48 476.58,-227.3 477.33,-218.42 495,-211.48 497.23,-210.61 499.51,-209.78 501.83,-209"/>
<polygon fill="#63b8ff" stroke="#63b8ff" points="502.99,-212.31 511.55,-206.07 500.97,-205.61 502.99,-212.31"/>
</a>
</g>
</g>
<!-- Node5 -->
<g id="Node000005" class="node">
<title>Node5</title>
<g id="a_Node000005"><a xlink:href="classBusIO__7Semi.html#aa633479356af692cb9ea334771b7c0c5" target="_top" xlink:title=" ">
<polygon fill="white" stroke="#666666" points="810,-184.98 698,-184.98 698,-165.98 810,-165.98 810,-184.98"/>
<text text-anchor="middle" x="754" y="-172.98" font-family="Helvetica,sans-Serif" font-size="10.00">BusIO_7Semi::write</text>
</a>
</g>
</g>
<!-- Node2&#45;&gt;Node5 -->
<g id="edge11_Node000002_Node000005" class="edge">
<title>Node2&#45;&gt;Node5</title>
<g id="a_edge11_Node000002_Node000005"><a xlink:title=" ">
<path fill="none" stroke="#63b8ff" d="M219.19,-348.03C332.71,-366.68 589.39,-402.36 662,-357.48 720.66,-321.23 742.77,-234.45 749.96,-195.27"/>
<polygon fill="#63b8ff" stroke="#63b8ff" points="753.42,-195.81 751.65,-185.36 746.52,-194.63 753.42,-195.81"/>
</a>
</g>
</g>
<!-- Node6 -->
<g id="Node000006" class="node">
<title>Node6</title>
<g id="a_Node000006"><a xlink:href="classI2C__Interface.html#ae8147c4d6e54fe2622825d7e17493152" target="_top" xlink:title=" ">
<polygon fill="white" stroke="#666666" points="436,-423.98 306,-423.98 306,-404.98 436,-404.98 436,-423.98"/>
<text text-anchor="middle" x="371" y="-411.98" font-family="Helvetica,sans-Serif" font-size="10.00">I2C_Interface::beginI2C</text>
</a>
</g>
</g>
<!-- Node2&#45;&gt;Node6 -->
<g id="edge6_Node000002_Node000006" class="edge">
<title>Node2&#45;&gt;Node6</title>
<g id="a_edge6_Node000002_Node000006"><a xlink:title=" ">
<path fill="none" stroke="#63b8ff" d="M183.86,-348.01C207.04,-359.18 247.22,-377.77 283,-390.48 295.12,-394.79 308.4,-398.8 320.87,-402.26"/>
<polygon fill="#63b8ff" stroke="#63b8ff" points="320.08,-405.67 330.65,-404.92 321.91,-398.92 320.08,-405.67"/>
</a>
</g>
</g>
<!-- Node2&#45;&gt;Node7 -->
<g id="edge7_Node000002_Node000007" class="edge">
<title>Node2&#45;&gt;Node7</title>
<g id="a_edge7_Node000002_Node000007"><a xlink:title=" ">
<path fill="none" stroke="#63b8ff" d="M178.61,-348.14C195.35,-359.77 223.91,-380.16 247,-399.48 263.88,-413.61 263.48,-423.31 283,-433.48 286.69,-435.41 290.57,-437.13 294.56,-438.66"/>
<polygon fill="#63b8ff" stroke="#63b8ff" points="293.44,-441.97 304.03,-441.92 295.72,-435.36 293.44,-441.97"/>
</a>
</g>
</g>
<!-- Node9 -->
<g id="Node000009" class="node">
<title>Node9</title>
<g id="a_Node000009"><a xlink:href="classBusIO__7Semi.html#ac7b3d1c425f7187abbe1bbec64d9ccea" target="_top" xlink:title=" ">
<polygon fill="white" stroke="#666666" points="433.5,-347.98 308.5,-347.98 308.5,-328.98 433.5,-328.98 433.5,-347.98"/>
<text text-anchor="middle" x="371" y="-335.98" font-family="Helvetica,sans-Serif" font-size="10.00">BusIO_7Semi::writeBit</text>
</a>
</g>
</g>
<!-- Node2&#45;&gt;Node9 -->
<g id="edge12_Node000002_Node000009" class="edge">
<title>Node2&#45;&gt;Node9</title>
<g id="a_edge12_Node000002_Node000009"><a xlink:title=" ">
<path fill="none" stroke="#63b8ff" d="M241.61,-338.48C260.07,-338.48 279.71,-338.48 297.93,-338.48"/>
<polygon fill="#63b8ff" stroke="#63b8ff" points="298.18,-341.98 308.18,-338.48 298.18,-334.98 298.18,-341.98"/>
</a>
</g>
</g>
<!-- Node3&#45;&gt;Node4 -->
<g id="edge3_Node000003_Node000004" class="edge">
<title>Node3&#45;&gt;Node4</title>
<g id="a_edge3_Node000003_Node000004"><a xlink:title=" ">
<path fill="none" stroke="#63b8ff" d="M423.3,-280.39C435.21,-276.34 447.7,-271.63 459,-266.48 493.93,-250.56 531.7,-227.05 554.97,-211.75"/>
<polygon fill="#63b8ff" stroke="#63b8ff" points="557.05,-214.58 563.44,-206.13 553.17,-208.74 557.05,-214.58"/>
</a>
</g>
</g>
<!-- Node3&#45;&gt;Node5 -->
<g id="edge5_Node000003_Node000005" class="edge">
<title>Node3&#45;&gt;Node5</title>
<g id="a_edge5_Node000003_Node000005"><a xlink:title=" ">
<path fill="none" stroke="#63b8ff" d="M436.76,-280.48C496.09,-266.06 585.97,-242.52 662,-215.48 683.27,-207.92 706.55,-197.65 724.25,-189.4"/>
<polygon fill="#63b8ff" stroke="#63b8ff" points="725.9,-192.49 733.45,-185.06 722.91,-186.16 725.9,-192.49"/>
</a>
</g>
</g>
<!-- Node4&#45;&gt;Node5 -->
<g id="edge4_Node000004_Node000005" class="edge">
<title>Node4&#45;&gt;Node5</title>
<g id="a_edge4_Node000004_Node000005"><a xlink:title=" ">
<path fill="none" stroke="#63b8ff" d="M658.13,-186.97C668.11,-185.76 678.24,-184.53 687.97,-183.35"/>
<polygon fill="#63b8ff" stroke="#63b8ff" points="688.45,-186.82 697.95,-182.14 687.61,-179.87 688.45,-186.82"/>
</a>
</g>
</g>
<!-- Node7&#45;&gt;Node4 -->
<g id="edge9_Node000007_Node000004" class="edge">
<title>Node7&#45;&gt;Node4</title>
<g id="a_edge9_Node000007_Node000004"><a xlink:title=" ">
<path fill="none" stroke="#63b8ff" d="M446.84,-441.84C451.22,-439.54 455.33,-436.79 459,-433.48 498.17,-398.21 472.18,-368 495,-320.48 514.46,-279.97 545.52,-237.32 563.46,-214.1"/>
<polygon fill="#63b8ff" stroke="#63b8ff" points="566.24,-216.23 569.64,-206.2 560.73,-211.91 566.24,-216.23"/>
</a>
</g>
</g>
<!-- Node8 -->
<g id="Node000008" class="node">
<title>Node8</title>
<g id="a_Node000008"><a xlink:href="classBusIO__7Semi.html#a933c66d9a1afe84102323e209a93dd31" target="_top" xlink:title=" ">
<polygon fill="white" stroke="#666666" points="808.5,-394.98 699.5,-394.98 699.5,-375.98 808.5,-375.98 808.5,-394.98"/>
<text text-anchor="middle" x="754" y="-382.98" font-family="Helvetica,sans-Serif" font-size="10.00">BusIO_7Semi::read</text>
</a>
</g>
</g>
<!-- Node7&#45;&gt;Node8 -->
<g id="edge8_Node000007_Node000008" class="edge">
<title>Node7&#45;&gt;Node8</title>
<g id="a_edge8_Node000007_Node000008"><a xlink:title=" ">
<path fill="none" stroke="#63b8ff" d="M426.99,-441.96C496.47,-429.92 615.8,-409.25 689.21,-396.53"/>
<polygon fill="#63b8ff" stroke="#63b8ff" points="690,-399.95 699.25,-394.79 688.8,-393.05 690,-399.95"/>
</a>
</g>
</g>
<!-- Node10 -->
<g id="Node000010" class="node">
<title>Node10</title>
<g id="a_Node000010"><a xlink:href="classBusIO__7Semi.html#a855c7388d4118e632c84c7f8e2e3ddc2" target="_top" xlink:title=" ">
<polygon fill="white" stroke="#666666" points="644,-347.98 513,-347.98 513,-328.98 644,-328.98 644,-347.98"/>
<text text-anchor="middle" x="578.5" y="-335.98" font-family="Helvetica,sans-Serif" font-size="10.00">BusIO_7Semi::writeBits</text>
</a>
</g>
</g>
<!-- Node9&#45;&gt;Node10 -->
<g id="edge13_Node000009_Node000010" class="edge">
<title>Node9&#45;&gt;Node10</title>
<g id="a_edge13_Node000009_Node000010"><a xlink:title=" ">
<path fill="none" stroke="#63b8ff" d="M433.66,-338.48C455.29,-338.48 479.83,-338.48 502.44,-338.48"/>
<polygon fill="#63b8ff" stroke="#63b8ff" points="502.67,-341.98 512.67,-338.48 502.67,-334.98 502.67,-341.98"/>
</a>
</g>
</g>
<!-- Node10&#45;&gt;Node5 -->
<g id="edge15_Node000010_Node000005" class="edge">
<title>Node10&#45;&gt;Node5</title>
<g id="a_edge15_Node000010_Node000005"><a xlink:title=" ">
<path fill="none" stroke="#63b8ff" d="M595.2,-328.81C612.42,-317.86 640.47,-299 662,-279.48 692.46,-251.87 722.92,-214.61 739.73,-193.01"/>
<polygon fill="#63b8ff" stroke="#63b8ff" points="742.54,-195.09 745.87,-185.03 736.99,-190.82 742.54,-195.09"/>
</a>
</g>
</g>
<!-- Node10&#45;&gt;Node8 -->
<g id="edge14_Node000010_Node000008" class="edge">
<title>Node10&#45;&gt;Node8</title>
<g id="a_edge14_Node000010_Node000008"><a xlink:title=" ">
<path fill="none" stroke="#63b8ff" d="M614.61,-347.99C641.45,-355.26 678.65,-365.34 707.73,-373.22"/>
<polygon fill="#63b8ff" stroke="#63b8ff" points="707.08,-376.67 717.64,-375.9 708.91,-369.91 707.08,-376.67"/>
</a>
</g>
</g>
<!-- Node11&#45;&gt;Node4 -->
<g id="edge17_Node000011_Node000004" class="edge">
<title>Node11&#45;&gt;Node4</title>
<g id="a_edge17_Node000011_Node000004"><a xlink:title=" ">
<path fill="none" stroke="#63b8ff" d="M222.01,-148.03C241.37,-151.15 263.11,-154.57 283,-157.48 352.95,-167.72 432.42,-178.17 491.17,-185.68"/>
<polygon fill="#63b8ff" stroke="#63b8ff" points="490.78,-189.16 501.15,-186.95 491.67,-182.22 490.78,-189.16"/>
</a>
</g>
</g>
<!-- Node11&#45;&gt;Node5 -->
<g id="edge24_Node000011_Node000005" class="edge">
<title>Node11&#45;&gt;Node5</title>
<g id="a_edge24_Node000011_Node000005"><a xlink:title=" ">
<path fill="none" stroke="#63b8ff" d="M173.09,-128.74C191.11,-109.14 235.16,-65.45 283,-49.48 442.78,3.84 512.02,27.2 662,-49.48 706.08,-72.02 733.72,-126.97 745.84,-156.3"/>
<polygon fill="#63b8ff" stroke="#63b8ff" points="742.68,-157.82 749.61,-165.84 749.19,-155.25 742.68,-157.82"/>
</a>
</g>
</g>
<!-- Node12 -->
<g id="Node000012" class="node">
<title>Node12</title>
<g id="a_Node000012"><a xlink:href="classDevLab__ICM20948.html#a4210e842050486637a5967b2a9ef7b57" target="_top" xlink:title=" ">
<polygon fill="white" stroke="#666666" points="441,-147.98 301,-147.98 301,-128.98 441,-128.98 441,-147.98"/>
<text text-anchor="middle" x="371" y="-135.98" font-family="Helvetica,sans-Serif" font-size="10.00">DevLab_ICM20948::sleep</text>
</a>
</g>
</g>
<!-- Node11&#45;&gt;Node12 -->
<g id="edge18_Node000011_Node000012" class="edge">
<title>Node11&#45;&gt;Node12</title>
<g id="a_edge18_Node000011_Node000012"><a xlink:title=" ">
<path fill="none" stroke="#63b8ff" d="M238.69,-138.48C255.45,-138.48 273.3,-138.48 290.28,-138.48"/>
<polygon fill="#63b8ff" stroke="#63b8ff" points="290.71,-141.98 300.71,-138.48 290.71,-134.98 290.71,-141.98"/>
</a>
</g>
</g>
<!-- Node13 -->
<g id="Node000013" class="node">
<title>Node13</title>
<g id="a_Node000013"><a xlink:href="classDevLab__ICM20948.html#a0d6774b76298645ee45ec0e9065a8891" target="_top" xlink:title=" ">
<polygon fill="white" stroke="#666666" points="450.5,-110.98 291.5,-110.98 291.5,-91.98 450.5,-91.98 450.5,-110.98"/>
<text text-anchor="middle" x="371" y="-98.98" font-family="Helvetica,sans-Serif" font-size="10.00">DevLab_ICM20948::softReset</text>
</a>
</g>
</g>
<!-- Node11&#45;&gt;Node13 -->
<g id="edge21_Node000011_Node000013" class="edge">
<title>Node11&#45;&gt;Node13</title>
<g id="a_edge21_Node000011_Node000013"><a xlink:title=" ">
<path fill="none" stroke="#63b8ff" d="M217.42,-128.95C244.76,-124.03 278.31,-117.99 306.98,-112.83"/>
<polygon fill="#63b8ff" stroke="#63b8ff" points="307.68,-116.26 316.9,-111.04 306.44,-109.37 307.68,-116.26"/>
</a>
</g>
</g>
<!-- Node12&#45;&gt;Node4 -->
<g id="edge19_Node000012_Node000004" class="edge">
<title>Node12&#45;&gt;Node4</title>
<g id="a_edge19_Node000012_Node000004"><a xlink:title=" ">
<path fill="none" stroke="#63b8ff" d="M407.16,-148.09C423.01,-152.45 441.96,-157.69 459,-162.48 484.22,-169.58 512.41,-177.66 534.96,-184.16"/>
<polygon fill="#63b8ff" stroke="#63b8ff" points="534,-187.53 544.58,-186.94 535.94,-180.8 534,-187.53"/>
</a>
</g>
</g>
<!-- Node12&#45;&gt;Node5 -->
<g id="edge20_Node000012_Node000005" class="edge">
<title>Node12&#45;&gt;Node5</title>
<g id="a_edge20_Node000012_Node000005"><a xlink:title=" ">
<path fill="none" stroke="#63b8ff" d="M441.44,-145.23C511.57,-152.04 619.07,-162.48 687.68,-169.14"/>
<polygon fill="#63b8ff" stroke="#63b8ff" points="687.64,-172.65 697.93,-170.13 688.32,-165.68 687.64,-172.65"/>
</a>
</g>
</g>
<!-- Node13&#45;&gt;Node4 -->
<g id="edge22_Node000013_Node000004" class="edge">
<title>Node13&#45;&gt;Node4</title>
<g id="a_edge22_Node000013_Node000004"><a xlink:title=" ">
<path fill="none" stroke="#63b8ff" d="M429.52,-111.01C439.54,-113.52 449.72,-116.64 459,-120.48 496.48,-136 535.17,-163.34 557.75,-180.65"/>
<polygon fill="#63b8ff" stroke="#63b8ff" points="555.81,-183.58 565.84,-186.97 560.11,-178.06 555.81,-183.58"/>
</a>
</g>
</g>
<!-- Node13&#45;&gt;Node5 -->
<g id="edge23_Node000013_Node000005" class="edge">
<title>Node13&#45;&gt;Node5</title>
<g id="a_edge23_Node000013_Node000005"><a xlink:title=" ">
<path fill="none" stroke="#63b8ff" d="M450.54,-109.78C509.27,-116.86 591.3,-128.59 662,-145.48 680.94,-150.01 701.58,-156.66 718.41,-162.56"/>
<polygon fill="#63b8ff" stroke="#63b8ff" points="717.24,-165.86 727.83,-165.92 719.59,-159.26 717.24,-165.86"/>
</a>
</g>
</g>
<!-- Node14&#45;&gt;Node4 -->
<g id="edge27_Node000014_Node000004" class="edge">
<title>Node14&#45;&gt;Node4</title>
<g id="a_edge27_Node000014_Node000004"><a xlink:title=" ">
<path fill="none" stroke="#63b8ff" d="M244.62,-235.98C314.18,-227.72 414.84,-215.78 487.23,-207.19"/>
<polygon fill="#63b8ff" stroke="#63b8ff" points="487.73,-210.66 497.25,-206 486.91,-203.71 487.73,-210.66"/>
</a>
</g>
</g>
<!-- Node14&#45;&gt;Node5 -->
<g id="edge28_Node000014_Node000005" class="edge">
<title>Node14&#45;&gt;Node5</title>
<g id="a_edge28_Node000014_Node000005"><a xlink:title=" ">
<path fill="none" stroke="#63b8ff" d="M175.5,-235.8C192.45,-220.45 225.27,-189.05 247,-157.48 267.74,-127.36 251.99,-102.88 283,-83.48 354.6,-38.69 583.42,-80.55 662,-111.48 690.11,-122.55 717.84,-143.98 735.16,-158.98"/>
<polygon fill="#63b8ff" stroke="#63b8ff" points="732.98,-161.73 742.78,-165.76 737.63,-156.5 732.98,-161.73"/>
</a>
</g>
</g>
<!-- Node14&#45;&gt;Node9 -->
<g id="edge29_Node000014_Node000009" class="edge">
<title>Node14&#45;&gt;Node9</title>
<g id="a_edge29_Node000014_Node000009"><a xlink:title=" ">
<path fill="none" stroke="#63b8ff" d="M176.53,-254.98C197.12,-270.78 240.99,-302.38 283,-319.48 289.35,-322.07 296.11,-324.33 302.95,-326.3"/>
<polygon fill="#63b8ff" stroke="#63b8ff" points="302.42,-329.78 312.98,-328.98 304.23,-323.01 302.42,-329.78"/>
</a>
</g>
</g>
</g>
</svg>
