<?xml version="1.0" encoding="UTF-8" standalone="no"?>
<!DOCTYPE svg PUBLIC "-//W3C//DTD SVG 1.1//EN"
 "http://www.w3.org/Graphics/SVG/1.1/DTD/svg11.dtd">
<!-- Generated by graphviz version 2.43.0 (0)
 -->
<!-- Title: setup Pages: 1 -->
<svg width="818pt" height="280pt"
 viewBox="0.00 0.00 818.00 280.45" xmlns="http://www.w3.org/2000/svg" xmlns:xlink="http://www.w3.org/1999/xlink">
<g id="graph0" class="graph" transform="scale(1 1) rotate(0) translate(4 276.45)">
<title>setup</title>
<!-- Node1 -->
<g id="Node000001" class="node">
<title>Node1</title>
<g id="a_Node000001"><a xlink:title="Configure the IMU for gyroscope&#45;only operation over I2C.">
<polygon fill="#999999" stroke="#666666" points="44,-166.95 0,-166.95 0,-147.95 44,-147.95 44,-166.95"/>
<text text-anchor="middle" x="22" y="-154.95" font-family="Helvetica,sans-Serif" font-size="10.00">setup</text>
</a>
</g>
</g>
<!-- Node2 -->
<g id="Node000002" class="node">
<title>Node2</title>
<g id="a_Node000002"><a xlink:href="classDevLab__ICM20948.html#a31460c48549b1d3081e253706f8b15e6" target="_top" xlink:title=" ">
<polygon fill="white" stroke="#666666" points="454.5,-272.45 287.5,-272.45 287.5,-242.45 454.5,-242.45 454.5,-272.45"/>
<text text-anchor="start" x="295.5" y="-260.45" font-family="Helvetica,sans-Serif" font-size="10.00">DevLab_ICM20948::applyBasic</text>
<text text-anchor="middle" x="371" y="-249.45" font-family="Helvetica,sans-Serif" font-size="10.00">Defaults</text>
</a>
</g>
</g>
<!-- Node1&#45;&gt;Node2 -->
<g id="edge1_Node000001_Node000002" class="edge">
<title>Node1&#45;&gt;Node2</title>
<g id="a_edge1_Node000001_Node000002"><a xlink:title=" ">
<path fill="none" stroke="#63b8ff" d="M44.03,-164.74C54.76,-168.38 68.03,-172.79 80,-176.45 156.07,-199.74 244.19,-223.96 303.15,-239.78"/>
<polygon fill="#63b8ff" stroke="#63b8ff" points="302.51,-243.24 313.08,-242.44 304.32,-236.47 302.51,-243.24"/>
</a>
</g>
</g>
<!-- Node5 -->
<g id="Node000005" class="node">
<title>Node5</title>
<g id="a_Node000005"><a xlink:href="classDevLab__ICM20948.html#a91147b3cd4c45bffc8e024f985be7b21" target="_top" xlink:title=" ">
<polygon fill="white" stroke="#666666" points="241.5,-166.95 85.5,-166.95 85.5,-147.95 241.5,-147.95 241.5,-166.95"/>
<text text-anchor="middle" x="163.5" y="-154.95" font-family="Helvetica,sans-Serif" font-size="10.00">DevLab_ICM20948::beginI2C</text>
</a>
</g>
</g>
<!-- Node1&#45;&gt;Node5 -->
<g id="edge5_Node000001_Node000005" class="edge">
<title>Node1&#45;&gt;Node5</title>
<g id="a_edge5_Node000001_Node000005"><a xlink:title=" ">
<path fill="none" stroke="#63b8ff" d="M44.19,-157.45C52.91,-157.45 63.65,-157.45 75.06,-157.45"/>
<polygon fill="#63b8ff" stroke="#63b8ff" points="75.23,-160.95 85.23,-157.45 75.23,-153.95 75.23,-160.95"/>
</a>
</g>
</g>
<!-- Node11 -->
<g id="Node000011" class="node">
<title>Node11</title>
<g id="a_Node000011"><a xlink:href="classDevLab__ICM20948.html#ae9c088334d6ec706bb08b47ef29bd186" target="_top" xlink:title=" ">
<polygon fill="white" stroke="#666666" points="247,-53.95 80,-53.95 80,-34.95 247,-34.95 247,-53.95"/>
<text text-anchor="middle" x="163.5" y="-41.95" font-family="Helvetica,sans-Serif" font-size="10.00">DevLab_ICM20948::setSensors</text>
</a>
</g>
</g>
<!-- Node1&#45;&gt;Node11 -->
<g id="edge17_Node000001_Node000011" class="edge">
<title>Node1&#45;&gt;Node11</title>
<g id="a_edge17_Node000001_Node000011"><a xlink:title=" ">
<path fill="none" stroke="#63b8ff" d="M34.89,-147.81C58.88,-128.38 113.27,-84.32 142.7,-60.48"/>
<polygon fill="#63b8ff" stroke="#63b8ff" points="145.07,-63.07 150.64,-54.06 140.66,-57.63 145.07,-63.07"/>
</a>
</g>
</g>
<!-- Node3 -->
<g id="Node000003" class="node">
<title>Node3</title>
<g id="a_Node000003"><a xlink:href="classDevLab__ICM20948.html#aaa26fcbfea0e67d45cb1c3ae39654c55" target="_top" xlink:title=" ">
<polygon fill="white" stroke="#666666" points="662,-147.95 495,-147.95 495,-128.95 662,-128.95 662,-147.95"/>
<text text-anchor="middle" x="578.5" y="-135.95" font-family="Helvetica,sans-Serif" font-size="10.00">DevLab_ICM20948::selectBank</text>
</a>
</g>
</g>
<!-- Node2&#45;&gt;Node3 -->
<g id="edge2_Node000002_Node000003" class="edge">
<title>Node2&#45;&gt;Node3</title>
<g id="a_edge2_Node000002_Node000003"><a xlink:title=" ">
<path fill="none" stroke="#63b8ff" d="M398.03,-242.38C437.72,-219.39 512.91,-175.85 552.18,-153.11"/>
<polygon fill="#63b8ff" stroke="#63b8ff" points="553.99,-156.11 560.89,-148.07 550.49,-150.05 553.99,-156.11"/>
</a>
</g>
</g>
<!-- Node4 -->
<g id="Node000004" class="node">
<title>Node4</title>
<g id="a_Node000004"><a xlink:href="classBusIO__7Semi.html#aa633479356af692cb9ea334771b7c0c5" target="_top" xlink:title=" ">
<polygon fill="white" stroke="#666666" points="810,-147.95 698,-147.95 698,-128.95 810,-128.95 810,-147.95"/>
<text text-anchor="middle" x="754" y="-135.95" font-family="Helvetica,sans-Serif" font-size="10.00">BusIO_7Semi::write</text>
</a>
</g>
</g>
<!-- Node2&#45;&gt;Node4 -->
<g id="edge4_Node000002_Node000004" class="edge">
<title>Node2&#45;&gt;Node4</title>
<g id="a_edge4_Node000002_Node000004"><a xlink:title=" ">
<path fill="none" stroke="#63b8ff" d="M454.63,-263.52C514.87,-264.61 596.99,-259.04 662,-228.45 696.31,-212.31 725.31,-177.7 740.83,-156.42"/>
<polygon fill="#63b8ff" stroke="#63b8ff" points="743.73,-158.39 746.64,-148.2 738.01,-154.35 743.73,-158.39"/>
</a>
</g>
</g>
<!-- Node3&#45;&gt;Node4 -->
<g id="edge3_Node000003_Node000004" class="edge">
<title>Node3&#45;&gt;Node4</title>
<g id="a_edge3_Node000003_Node000004"><a xlink:title=" ">
<path fill="none" stroke="#63b8ff" d="M662.18,-138.45C670.75,-138.45 679.36,-138.45 687.7,-138.45"/>
<polygon fill="#63b8ff" stroke="#63b8ff" points="687.7,-141.95 697.7,-138.45 687.7,-134.95 687.7,-141.95"/>
</a>
</g>
</g>
<!-- Node5&#45;&gt;Node2 -->
<g id="edge6_Node000005_Node000002" class="edge">
<title>Node5&#45;&gt;Node2</title>
<g id="a_edge6_Node000005_Node000002"><a xlink:title=" ">
<path fill="none" stroke="#63b8ff" d="M178.18,-167.01C199.7,-181.72 243.12,-210.12 283,-228.45 291.29,-232.26 300.22,-235.81 309.1,-239.04"/>
<polygon fill="#63b8ff" stroke="#63b8ff" points="308.08,-242.39 318.67,-242.41 310.4,-235.79 308.08,-242.39"/>
</a>
</g>
</g>
<!-- Node5&#45;&gt;Node3 -->
<g id="edge11_Node000005_Node000003" class="edge">
<title>Node5&#45;&gt;Node3</title>
<g id="a_edge11_Node000005_Node000003"><a xlink:title=" ">
<path fill="none" stroke="#63b8ff" d="M241.7,-153.9C310.49,-150.73 411.31,-146.09 484.52,-142.73"/>
<polygon fill="#63b8ff" stroke="#63b8ff" points="484.83,-146.22 494.66,-142.26 484.51,-139.22 484.83,-146.22"/>
</a>
</g>
</g>
<!-- Node5&#45;&gt;Node4 -->
<g id="edge12_Node000005_Node000004" class="edge">
<title>Node5&#45;&gt;Node4</title>
<g id="a_edge12_Node000005_Node000004"><a xlink:title=" ">
<path fill="none" stroke="#63b8ff" d="M230.45,-167.04C236.13,-168.58 241.72,-170.37 247,-172.45 264.67,-179.39 264.78,-190.12 283,-195.45 441.56,-241.78 640.84,-180.23 719.17,-151.64"/>
<polygon fill="#63b8ff" stroke="#63b8ff" points="720.82,-154.76 728.98,-148 718.38,-148.2 720.82,-154.76"/>
</a>
</g>
</g>
<!-- Node6 -->
<g id="Node000006" class="node">
<title>Node6</title>
<g id="a_Node000006"><a xlink:href="classI2C__Interface.html#ae8147c4d6e54fe2622825d7e17493152" target="_top" xlink:title=" ">
<polygon fill="white" stroke="#666666" points="436,-185.95 306,-185.95 306,-166.95 436,-166.95 436,-185.95"/>
<text text-anchor="middle" x="371" y="-173.95" font-family="Helvetica,sans-Serif" font-size="10.00">I2C_Interface::beginI2C</text>
</a>
</g>
</g>
<!-- Node5&#45;&gt;Node6 -->
<g id="edge7_Node000005_Node000006" class="edge">
<title>Node5&#45;&gt;Node6</title>
<g id="a_edge7_Node000005_Node000006"><a xlink:title=" ">
<path fill="none" stroke="#63b8ff" d="M241.61,-164.58C259.31,-166.22 278.11,-167.95 295.69,-169.58"/>
<polygon fill="#63b8ff" stroke="#63b8ff" points="295.61,-173.09 305.89,-170.52 296.26,-166.12 295.61,-173.09"/>
</a>
</g>
</g>
<!-- Node7 -->
<g id="Node000007" class="node">
<title>Node7</title>
<g id="a_Node000007"><a xlink:href="classDevLab__ICM20948.html#a8bef7eafb3b67eb736f491d0df453b9e" target="_top" xlink:title=" ">
<polygon fill="white" stroke="#666666" points="459,-109.95 283,-109.95 283,-90.95 459,-90.95 459,-109.95"/>
<text text-anchor="middle" x="371" y="-97.95" font-family="Helvetica,sans-Serif" font-size="10.00">DevLab_ICM20948::readWhoAmI</text>
</a>
</g>
</g>
<!-- Node5&#45;&gt;Node7 -->
<g id="edge8_Node000005_Node000007" class="edge">
<title>Node5&#45;&gt;Node7</title>
<g id="a_edge8_Node000005_Node000007"><a xlink:title=" ">
<path fill="none" stroke="#63b8ff" d="M198.72,-147.9C222.38,-141.3 254.6,-132.32 283,-124.45 296.85,-120.61 311.95,-116.44 325.62,-112.67"/>
<polygon fill="#63b8ff" stroke="#63b8ff" points="326.57,-116.04 335.28,-110.01 324.71,-109.29 326.57,-116.04"/>
</a>
</g>
</g>
<!-- Node9 -->
<g id="Node000009" class="node">
<title>Node9</title>
<g id="a_Node000009"><a xlink:href="classBusIO__7Semi.html#ac7b3d1c425f7187abbe1bbec64d9ccea" target="_top" xlink:title=" ">
<polygon fill="white" stroke="#666666" points="433.5,-72.95 308.5,-72.95 308.5,-53.95 433.5,-53.95 433.5,-72.95"/>
<text text-anchor="middle" x="371" y="-60.95" font-family="Helvetica,sans-Serif" font-size="10.00">BusIO_7Semi::writeBit</text>
</a>
</g>
</g>
<!-- Node5&#45;&gt;Node9 -->
<g id="edge13_Node000005_Node000009" class="edge">
<title>Node5&#45;&gt;Node9</title>
<g id="a_edge13_Node000005_Node000009"><a xlink:title=" ">
<path fill="none" stroke="#63b8ff" d="M176.51,-147.81C197.07,-131.79 240.88,-99.74 283,-82.45 289.25,-79.88 295.89,-77.64 302.62,-75.69"/>
<polygon fill="#63b8ff" stroke="#63b8ff" points="303.76,-79 312.5,-73.02 301.94,-72.25 303.76,-79"/>
</a>
</g>
</g>
<!-- Node7&#45;&gt;Node3 -->
<g id="edge10_Node000007_Node000003" class="edge">
<title>Node7&#45;&gt;Node3</title>
<g id="a_edge10_Node000007_Node000003"><a xlink:title=" ">
<path fill="none" stroke="#63b8ff" d="M423.59,-109.99C451.56,-115.16 486.32,-121.59 515.73,-127.03"/>
<polygon fill="#63b8ff" stroke="#63b8ff" points="515.42,-130.53 525.89,-128.91 516.69,-123.65 515.42,-130.53"/>
</a>
</g>
</g>
<!-- Node8 -->
<g id="Node000008" class="node">
<title>Node8</title>
<g id="a_Node000008"><a xlink:href="classBusIO__7Semi.html#a933c66d9a1afe84102323e209a93dd31" target="_top" xlink:title=" ">
<polygon fill="white" stroke="#666666" points="808.5,-91.95 699.5,-91.95 699.5,-72.95 808.5,-72.95 808.5,-91.95"/>
<text text-anchor="middle" x="754" y="-79.95" font-family="Helvetica,sans-Serif" font-size="10.00">BusIO_7Semi::read</text>
</a>
</g>
</g>
<!-- Node7&#45;&gt;Node8 -->
<g id="edge9_Node000007_Node000008" class="edge">
<title>Node7&#45;&gt;Node8</title>
<g id="a_edge9_Node000007_Node000008"><a xlink:title=" ">
<path fill="none" stroke="#63b8ff" d="M429.09,-90.94C449.79,-87.93 473.39,-84.98 495,-83.45 560.97,-78.78 636.67,-79.17 688.93,-80.33"/>
<polygon fill="#63b8ff" stroke="#63b8ff" points="688.98,-83.83 699.06,-80.57 689.15,-76.83 688.98,-83.83"/>
</a>
</g>
</g>
<!-- Node10 -->
<g id="Node000010" class="node">
<title>Node10</title>
<g id="a_Node000010"><a xlink:href="classBusIO__7Semi.html#a855c7388d4118e632c84c7f8e2e3ddc2" target="_top" xlink:title=" ">
<polygon fill="white" stroke="#666666" points="644,-110.95 513,-110.95 513,-91.95 644,-91.95 644,-110.95"/>
<text text-anchor="middle" x="578.5" y="-98.95" font-family="Helvetica,sans-Serif" font-size="10.00">BusIO_7Semi::writeBits</text>
</a>
</g>
</g>
<!-- Node9&#45;&gt;Node10 -->
<g id="edge14_Node000009_Node000010" class="edge">
<title>Node9&#45;&gt;Node10</title>
<g id="a_edge14_Node000009_Node000010"><a xlink:title=" ">
<path fill="none" stroke="#63b8ff" d="M423.59,-72.99C451.56,-78.16 486.32,-84.59 515.73,-90.03"/>
<polygon fill="#63b8ff" stroke="#63b8ff" points="515.42,-93.53 525.89,-91.91 516.69,-86.65 515.42,-93.53"/>
</a>
</g>
</g>
<!-- Node10&#45;&gt;Node4 -->
<g id="edge16_Node000010_Node000004" class="edge">
<title>Node10&#45;&gt;Node4</title>
<g id="a_edge16_Node000010_Node000004"><a xlink:title=" ">
<path fill="none" stroke="#63b8ff" d="M624.18,-110.98C646.76,-115.79 674.35,-121.68 698.2,-126.76"/>
<polygon fill="#63b8ff" stroke="#63b8ff" points="697.66,-130.23 708.17,-128.89 699.12,-123.38 697.66,-130.23"/>
</a>
</g>
</g>
<!-- Node10&#45;&gt;Node8 -->
<g id="edge15_Node000010_Node000008" class="edge">
<title>Node10&#45;&gt;Node8</title>
<g id="a_edge15_Node000010_Node000008"><a xlink:title=" ">
<path fill="none" stroke="#63b8ff" d="M644.1,-94.37C658.9,-92.75 674.62,-91.03 689.37,-89.42"/>
<polygon fill="#63b8ff" stroke="#63b8ff" points="689.85,-92.89 699.41,-88.32 689.08,-85.93 689.85,-92.89"/>
</a>
</g>
</g>
<!-- Node11&#45;&gt;Node3 -->
<g id="edge18_Node000011_Node000003" class="edge">
<title>Node11&#45;&gt;Node3</title>
<g id="a_edge18_Node000011_Node000003"><a xlink:title=" ">
<path fill="none" stroke="#63b8ff" d="M194.08,-34.86C250.57,-18.48 375.62,8.32 459,-44.45 490.58,-64.44 465.74,-97.19 495,-120.45 496.59,-121.71 498.25,-122.9 499.97,-124"/>
<polygon fill="#63b8ff" stroke="#63b8ff" points="498.53,-127.2 508.99,-128.88 501.86,-121.04 498.53,-127.2"/>
</a>
</g>
</g>
<!-- Node11&#45;&gt;Node4 -->
<g id="edge19_Node000011_Node000004" class="edge">
<title>Node11&#45;&gt;Node4</title>
<g id="a_edge19_Node000011_Node000004"><a xlink:title=" ">
<path fill="none" stroke="#63b8ff" d="M189.46,-34.79C213.12,-26.19 249.88,-14.24 283,-9.45 360.42,1.74 381.97,4.15 459,-9.45 553.57,-26.15 575.39,-41.97 662,-83.45 686.24,-95.06 712.35,-111.26 730.36,-123.07"/>
<polygon fill="#63b8ff" stroke="#63b8ff" points="728.71,-126.18 738.98,-128.79 732.59,-120.35 728.71,-126.18"/>
</a>
</g>
</g>
<!-- Node11&#45;&gt;Node9 -->
<g id="edge20_Node000011_Node000009" class="edge">
<title>Node11&#45;&gt;Node9</title>
<g id="a_edge20_Node000011_Node000009"><a xlink:title=" ">
<path fill="none" stroke="#63b8ff" d="M247.2,-52.09C264.1,-53.66 281.75,-55.29 298.24,-56.81"/>
<polygon fill="#63b8ff" stroke="#63b8ff" points="298.05,-60.31 308.33,-57.75 298.69,-53.34 298.05,-60.31"/>
</a>
</g>
</g>
</g>
</svg>
