<?xml version="1.0" encoding="UTF-8" standalone="no"?>
<!DOCTYPE svg PUBLIC "-//W3C//DTD SVG 1.1//EN"
 "http://www.w3.org/Graphics/SVG/1.1/DTD/svg11.dtd">
<!-- Generated by graphviz version 2.43.0 (0)
 -->
<!-- Title: loop Pages: 1 -->
<svg width="630pt" height="138pt"
 viewBox="0.00 0.00 630.00 138.00" xmlns="http://www.w3.org/2000/svg" xmlns:xlink="http://www.w3.org/1999/xlink">
<g id="graph0" class="graph" transform="scale(1 1) rotate(0) translate(4 134)">
<title>loop</title>
<!-- Node1 -->
<g id="Node000001" class="node">
<title>Node1</title>
<g id="a_Node000001"><a xlink:title="Read accelerometer, gyroscope, magnetometer, and temperature data.">
<polygon fill="#999999" stroke="#666666" points="38,-74 0,-74 0,-55 38,-55 38,-74"/>
<text text-anchor="middle" x="19" y="-62" font-family="Helvetica,sans-Serif" font-size="10.00">loop</text>
</a>
</g>
</g>
<!-- Node2 -->
<g id="Node000002" class="node">
<title>Node2</title>
<g id="a_Node000002"><a xlink:href="classDevLab__ICM20948.html#a3b58edd0915cff118ca81daa6944a27b" target="_top" xlink:title=" ">
<polygon fill="white" stroke="#666666" points="253,-56 92,-56 92,-37 253,-37 253,-56"/>
<text text-anchor="middle" x="172.5" y="-44" font-family="Helvetica,sans-Serif" font-size="10.00">DevLab_ICM20948::readAccel</text>
</a>
</g>
</g>
<!-- Node1&#45;&gt;Node2 -->
<g id="edge1_Node000001_Node000002" class="edge">
<title>Node1&#45;&gt;Node2</title>
<g id="a_edge1_Node000001_Node000002"><a xlink:title=" ">
<path fill="none" stroke="#63b8ff" d="M38.27,-62.33C49.61,-60.98 65.12,-59.14 81.56,-57.19"/>
<polygon fill="#63b8ff" stroke="#63b8ff" points="82.36,-60.62 91.88,-55.96 81.54,-53.66 82.36,-60.62"/>
</a>
</g>
</g>
<!-- Node6 -->
<g id="Node000006" class="node">
<title>Node6</title>
<g id="a_Node000006"><a xlink:href="classDevLab__ICM20948.html#a006c131f860f1fc81c587b3d8a77522d" target="_top" xlink:title=" ">
<polygon fill="white" stroke="#666666" points="251.5,-19 93.5,-19 93.5,0 251.5,0 251.5,-19"/>
<text text-anchor="middle" x="172.5" y="-7" font-family="Helvetica,sans-Serif" font-size="10.00">DevLab_ICM20948::readGyro</text>
</a>
</g>
</g>
<!-- Node1&#45;&gt;Node6 -->
<g id="edge5_Node000001_Node000006" class="edge">
<title>Node1&#45;&gt;Node6</title>
<g id="a_edge5_Node000001_Node000006"><a xlink:title=" ">
<path fill="none" stroke="#63b8ff" d="M31.18,-54.74C41.57,-46.21 57.82,-34.18 74,-27.5 79.35,-25.29 84.98,-23.35 90.72,-21.65"/>
<polygon fill="#63b8ff" stroke="#63b8ff" points="91.72,-25 100.45,-19 89.89,-18.25 91.72,-25"/>
</a>
</g>
</g>
<!-- Node7 -->
<g id="Node000007" class="node">
<title>Node7</title>
<g id="a_Node000007"><a xlink:href="classDevLab__ICM20948.html#a9f9b29867c2b78efef3ef9688f886314" target="_top" xlink:title=" ">
<polygon fill="white" stroke="#666666" points="250.5,-130 94.5,-130 94.5,-111 250.5,-111 250.5,-130"/>
<text text-anchor="middle" x="172.5" y="-118" font-family="Helvetica,sans-Serif" font-size="10.00">DevLab_ICM20948::readMag</text>
</a>
</g>
</g>
<!-- Node1&#45;&gt;Node7 -->
<g id="edge8_Node000001_Node000007" class="edge">
<title>Node1&#45;&gt;Node7</title>
<g id="a_edge8_Node000001_Node000007"><a xlink:title=" ">
<path fill="none" stroke="#63b8ff" d="M30.74,-74.19C41.07,-82.98 57.51,-95.57 74,-102.5 79.11,-104.65 84.47,-106.54 89.95,-108.2"/>
<polygon fill="#63b8ff" stroke="#63b8ff" points="89.32,-111.66 99.89,-110.97 91.2,-104.92 89.32,-111.66"/>
</a>
</g>
</g>
<!-- Node8 -->
<g id="Node000008" class="node">
<title>Node8</title>
<g id="a_Node000008"><a xlink:href="classDevLab__ICM20948.html#aa5c2ecd855cebb1934bbbe020128ab5e" target="_top" xlink:title=" ">
<polygon fill="white" stroke="#666666" points="271,-93 74,-93 74,-74 271,-74 271,-93"/>
<text text-anchor="middle" x="172.5" y="-81" font-family="Helvetica,sans-Serif" font-size="10.00">DevLab_ICM20948::readTemperature</text>
</a>
</g>
</g>
<!-- Node1&#45;&gt;Node8 -->
<g id="edge11_Node000001_Node000008" class="edge">
<title>Node1&#45;&gt;Node8</title>
<g id="a_edge11_Node000001_Node000008"><a xlink:title=" ">
<path fill="none" stroke="#63b8ff" d="M38.27,-66.79C50.56,-68.33 67.74,-70.49 85.68,-72.74"/>
<polygon fill="#63b8ff" stroke="#63b8ff" points="85.34,-76.22 95.7,-73.99 86.22,-69.28 85.34,-76.22"/>
</a>
</g>
</g>
<!-- Node3 -->
<g id="Node000003" class="node">
<title>Node3</title>
<g id="a_Node000003"><a xlink:href="classBusIO__7Semi.html#a933c66d9a1afe84102323e209a93dd31" target="_top" xlink:title=" ">
<polygon fill="white" stroke="#666666" points="445,-93 336,-93 336,-74 445,-74 445,-93"/>
<text text-anchor="middle" x="390.5" y="-81" font-family="Helvetica,sans-Serif" font-size="10.00">BusIO_7Semi::read</text>
</a>
</g>
</g>
<!-- Node2&#45;&gt;Node3 -->
<g id="edge2_Node000002_Node000003" class="edge">
<title>Node2&#45;&gt;Node3</title>
<g id="a_edge2_Node000002_Node000003"><a xlink:title=" ">
<path fill="none" stroke="#63b8ff" d="M229.13,-56.03C258.66,-61.09 295.09,-67.33 325.76,-72.58"/>
<polygon fill="#63b8ff" stroke="#63b8ff" points="325.48,-76.08 335.93,-74.32 326.66,-69.18 325.48,-76.08"/>
</a>
</g>
</g>
<!-- Node4 -->
<g id="Node000004" class="node">
<title>Node4</title>
<g id="a_Node000004"><a xlink:href="classDevLab__ICM20948.html#aaa26fcbfea0e67d45cb1c3ae39654c55" target="_top" xlink:title=" ">
<polygon fill="white" stroke="#666666" points="474,-56 307,-56 307,-37 474,-37 474,-56"/>
<text text-anchor="middle" x="390.5" y="-44" font-family="Helvetica,sans-Serif" font-size="10.00">DevLab_ICM20948::selectBank</text>
</a>
</g>
</g>
<!-- Node2&#45;&gt;Node4 -->
<g id="edge3_Node000002_Node000004" class="edge">
<title>Node2&#45;&gt;Node4</title>
<g id="a_edge3_Node000002_Node000004"><a xlink:title=" ">
<path fill="none" stroke="#63b8ff" d="M253.01,-46.5C267.28,-46.5 282.26,-46.5 296.87,-46.5"/>
<polygon fill="#63b8ff" stroke="#63b8ff" points="296.9,-50 306.9,-46.5 296.9,-43 296.9,-50"/>
</a>
</g>
</g>
<!-- Node5 -->
<g id="Node000005" class="node">
<title>Node5</title>
<g id="a_Node000005"><a xlink:href="classBusIO__7Semi.html#aa633479356af692cb9ea334771b7c0c5" target="_top" xlink:title=" ">
<polygon fill="white" stroke="#666666" points="622,-56 510,-56 510,-37 622,-37 622,-56"/>
<text text-anchor="middle" x="566" y="-44" font-family="Helvetica,sans-Serif" font-size="10.00">BusIO_7Semi::write</text>
</a>
</g>
</g>
<!-- Node4&#45;&gt;Node5 -->
<g id="edge4_Node000004_Node000005" class="edge">
<title>Node4&#45;&gt;Node5</title>
<g id="a_edge4_Node000004_Node000005"><a xlink:title=" ">
<path fill="none" stroke="#63b8ff" d="M474.18,-46.5C482.75,-46.5 491.36,-46.5 499.7,-46.5"/>
<polygon fill="#63b8ff" stroke="#63b8ff" points="499.7,-50 509.7,-46.5 499.7,-43 499.7,-50"/>
</a>
</g>
</g>
<!-- Node6&#45;&gt;Node3 -->
<g id="edge6_Node000006_Node000003" class="edge">
<title>Node6&#45;&gt;Node3</title>
<g id="a_edge6_Node000006_Node000003"><a xlink:title=" ">
<path fill="none" stroke="#63b8ff" d="M250.92,-19.05C257.92,-21.31 264.72,-24.09 271,-27.5 291.44,-38.6 286.74,-54.07 307,-65.5 312.92,-68.84 319.4,-71.56 326.05,-73.77"/>
<polygon fill="#63b8ff" stroke="#63b8ff" points="325.27,-77.2 335.85,-76.67 327.25,-70.48 325.27,-77.2"/>
</a>
</g>
</g>
<!-- Node6&#45;&gt;Node4 -->
<g id="edge7_Node000006_Node000004" class="edge">
<title>Node6&#45;&gt;Node4</title>
<g id="a_edge7_Node000006_Node000004"><a xlink:title=" ">
<path fill="none" stroke="#63b8ff" d="M229.13,-19.03C257.99,-23.97 293.43,-30.04 323.66,-35.22"/>
<polygon fill="#63b8ff" stroke="#63b8ff" points="323.24,-38.7 333.69,-36.94 324.42,-31.8 323.24,-38.7"/>
</a>
</g>
</g>
<!-- Node7&#45;&gt;Node3 -->
<g id="edge9_Node000007_Node000003" class="edge">
<title>Node7&#45;&gt;Node3</title>
<g id="a_edge9_Node000007_Node000003"><a xlink:title=" ">
<path fill="none" stroke="#63b8ff" d="M229.13,-110.97C258.66,-105.91 295.09,-99.67 325.76,-94.42"/>
<polygon fill="#63b8ff" stroke="#63b8ff" points="326.66,-97.82 335.93,-92.68 325.48,-90.92 326.66,-97.82"/>
</a>
</g>
</g>
<!-- Node7&#45;&gt;Node4 -->
<g id="edge10_Node000007_Node000004" class="edge">
<title>Node7&#45;&gt;Node4</title>
<g id="a_edge10_Node000007_Node000004"><a xlink:title=" ">
<path fill="none" stroke="#63b8ff" d="M250.62,-110.94C257.72,-108.68 264.62,-105.91 271,-102.5 291.24,-91.69 287.01,-76.76 307,-65.5 311,-63.25 315.25,-61.26 319.63,-59.52"/>
<polygon fill="#63b8ff" stroke="#63b8ff" points="321.13,-62.7 329.38,-56.05 318.79,-56.1 321.13,-62.7"/>
</a>
</g>
</g>
<!-- Node8&#45;&gt;Node3 -->
<g id="edge12_Node000008_Node000003" class="edge">
<title>Node8&#45;&gt;Node3</title>
<g id="a_edge12_Node000008_Node000003"><a xlink:title=" ">
<path fill="none" stroke="#63b8ff" d="M271.07,-83.5C289.5,-83.5 308.33,-83.5 325.4,-83.5"/>
<polygon fill="#63b8ff" stroke="#63b8ff" points="325.78,-87 335.78,-83.5 325.78,-80 325.78,-87"/>
</a>
</g>
</g>
<!-- Node8&#45;&gt;Node4 -->
<g id="edge13_Node000008_Node000004" class="edge">
<title>Node8&#45;&gt;Node4</title>
<g id="a_edge13_Node000008_Node000004"><a xlink:title=" ">
<path fill="none" stroke="#63b8ff" d="M229.13,-73.97C257.99,-69.03 293.43,-62.96 323.66,-57.78"/>
<polygon fill="#63b8ff" stroke="#63b8ff" points="324.42,-61.2 333.69,-56.06 323.24,-54.3 324.42,-61.2"/>
</a>
</g>
</g>
</g>
</svg>
