<?xml version="1.0" encoding="UTF-8" standalone="no"?>
<!DOCTYPE svg PUBLIC "-//W3C//DTD SVG 1.1//EN"
 "http://www.w3.org/Graphics/SVG/1.1/DTD/svg11.dtd">
<!-- Generated by graphviz version 2.43.0 (0)
 -->
<!-- Title: src/ICM20948_regs.h Pages: 1 -->
<svg width="1996pt" height="148pt"
 viewBox="0.00 0.00 1995.50 148.00" xmlns="http://www.w3.org/2000/svg" xmlns:xlink="http://www.w3.org/1999/xlink">
<g id="graph0" class="graph" transform="scale(1 1) rotate(0) translate(4 144)">
<title>src/ICM20948_regs.h</title>
<!-- Node1 -->
<g id="Node000001" class="node">
<title>Node1</title>
<g id="a_Node000001"><a xlink:title=" ">
<polygon fill="#999999" stroke="#666666" points="1029,-140 911,-140 911,-121 1029,-121 1029,-140"/>
<text text-anchor="middle" x="970" y="-128" font-family="Helvetica,sans-Serif" font-size="10.00">src/ICM20948_regs.h</text>
</a>
</g>
</g>
<!-- Node2 -->
<g id="Node000002" class="node">
<title>Node2</title>
<g id="a_Node000002"><a xlink:href="DevLab__ICM20948_8h.html" target="_top" xlink:title=" ">
<polygon fill="white" stroke="#666666" points="1037,-85 903,-85 903,-66 1037,-66 1037,-85"/>
<text text-anchor="middle" x="970" y="-73" font-family="Helvetica,sans-Serif" font-size="10.00">src/DevLab_ICM20948.h</text>
</a>
</g>
</g>
<!-- Node1&#45;&gt;Node2 -->
<g id="edge1_Node000001_Node000002" class="edge">
<title>Node1&#45;&gt;Node2</title>
<g id="a_edge1_Node000001_Node000002"><a xlink:title=" ">
<path fill="none" stroke="#63b8ff" d="M970,-110.66C970,-101.93 970,-91.99 970,-85.09"/>
<polygon fill="#63b8ff" stroke="#63b8ff" points="966.5,-110.75 970,-120.75 973.5,-110.75 966.5,-110.75"/>
</a>
</g>
</g>
<!-- Node3 -->
<g id="Node000003" class="node">
<title>Node3</title>
<g id="a_Node000003"><a xlink:href="gyr__test_8ino.html" target="_top" xlink:title="Gyroscope DLPF and full&#45;scale sweep for the DevLab ICM&#45;20948.">
<polygon fill="white" stroke="#666666" points="126,-30 0,-30 0,0 126,0 126,-30"/>
<text text-anchor="start" x="8" y="-18" font-family="Helvetica,sans-Serif" font-size="10.00">examples/gyr_test/gyr</text>
<text text-anchor="middle" x="63" y="-7" font-family="Helvetica,sans-Serif" font-size="10.00">_test.ino</text>
</a>
</g>
</g>
<!-- Node2&#45;&gt;Node3 -->
<g id="edge2_Node000002_Node000003" class="edge">
<title>Node2&#45;&gt;Node3</title>
<g id="a_edge2_Node000002_Node000003"><a xlink:title=" ">
<path fill="none" stroke="#63b8ff" d="M892.57,-73.96C744.75,-72.12 412.36,-64.19 135,-30 132.09,-29.64 129.13,-29.23 126.14,-28.79"/>
<polygon fill="#63b8ff" stroke="#63b8ff" points="892.85,-77.46 902.89,-74.08 892.93,-70.46 892.85,-77.46"/>
</a>
</g>
</g>
<!-- Node4 -->
<g id="Node000004" class="node">
<title>Node4</title>
<g id="a_Node000004"><a xlink:href="i2c__accel_8ino.html" target="_top" xlink:title=" ">
<polygon fill="white" stroke="#666666" points="257.5,-30 144.5,-30 144.5,0 257.5,0 257.5,-30"/>
<text text-anchor="start" x="152.5" y="-18" font-family="Helvetica,sans-Serif" font-size="10.00">examples/i2c_accel</text>
<text text-anchor="middle" x="201" y="-7" font-family="Helvetica,sans-Serif" font-size="10.00">/i2c_accel.ino</text>
</a>
</g>
</g>
<!-- Node2&#45;&gt;Node4 -->
<g id="edge3_Node000002_Node000004" class="edge">
<title>Node2&#45;&gt;Node4</title>
<g id="a_edge3_Node000002_Node000004"><a xlink:title=" ">
<path fill="none" stroke="#63b8ff" d="M892.43,-73.37C762.34,-70.63 492.18,-61.33 266,-30 263.26,-29.62 260.45,-29.19 257.63,-28.72"/>
<polygon fill="#63b8ff" stroke="#63b8ff" points="892.62,-76.87 902.69,-73.58 892.76,-69.87 892.62,-76.87"/>
</a>
</g>
</g>
<!-- Node5 -->
<g id="Node000005" class="node">
<title>Node5</title>
<g id="a_Node000005"><a xlink:href="i2c__basic_8ino.html" target="_top" xlink:title=" ">
<polygon fill="white" stroke="#666666" points="388.5,-30 275.5,-30 275.5,0 388.5,0 388.5,-30"/>
<text text-anchor="start" x="283.5" y="-18" font-family="Helvetica,sans-Serif" font-size="10.00">examples/i2c_basic</text>
<text text-anchor="middle" x="332" y="-7" font-family="Helvetica,sans-Serif" font-size="10.00">/i2c_basic.ino</text>
</a>
</g>
</g>
<!-- Node2&#45;&gt;Node5 -->
<g id="edge4_Node000002_Node000005" class="edge">
<title>Node2&#45;&gt;Node5</title>
<g id="a_edge4_Node000002_Node000005"><a xlink:title=" ">
<path fill="none" stroke="#63b8ff" d="M892.72,-71.71C782.48,-67 573.9,-55.39 398,-30 394.99,-29.56 391.9,-29.07 388.8,-28.54"/>
<polygon fill="#63b8ff" stroke="#63b8ff" points="892.62,-75.21 902.76,-72.13 892.91,-68.22 892.62,-75.21"/>
</a>
</g>
</g>
<!-- Node6 -->
<g id="Node000006" class="node">
<title>Node6</title>
<g id="a_Node000006"><a xlink:href="i2c__gyro_8ino.html" target="_top" xlink:title=" ">
<polygon fill="white" stroke="#666666" points="533,-30 407,-30 407,0 533,0 533,-30"/>
<text text-anchor="start" x="415" y="-18" font-family="Helvetica,sans-Serif" font-size="10.00">examples/i2c_gyro/i2c</text>
<text text-anchor="middle" x="470" y="-7" font-family="Helvetica,sans-Serif" font-size="10.00">_gyro.ino</text>
</a>
</g>
</g>
<!-- Node2&#45;&gt;Node6 -->
<g id="edge5_Node000002_Node000006" class="edge">
<title>Node2&#45;&gt;Node6</title>
<g id="a_edge5_Node000002_Node000006"><a xlink:title=" ">
<path fill="none" stroke="#63b8ff" d="M892.49,-68.52C806.55,-61.4 663.95,-48.16 542,-30 539.1,-29.57 536.15,-29.1 533.16,-28.61"/>
<polygon fill="#63b8ff" stroke="#63b8ff" points="892.43,-72.02 902.68,-69.35 893,-65.05 892.43,-72.02"/>
</a>
</g>
</g>
<!-- Node7 -->
<g id="Node000007" class="node">
<title>Node7</title>
<g id="a_Node000007"><a xlink:href="i2c__magneto_8ino.html" target="_top" xlink:title=" ">
<polygon fill="white" stroke="#666666" points="682.5,-30 551.5,-30 551.5,0 682.5,0 682.5,-30"/>
<text text-anchor="start" x="559.5" y="-18" font-family="Helvetica,sans-Serif" font-size="10.00">examples/i2c_magneto</text>
<text text-anchor="middle" x="617" y="-7" font-family="Helvetica,sans-Serif" font-size="10.00">/i2c_magneto.ino</text>
</a>
</g>
</g>
<!-- Node2&#45;&gt;Node7 -->
<g id="edge6_Node000002_Node000007" class="edge">
<title>Node2&#45;&gt;Node7</title>
<g id="a_edge6_Node000002_Node000007"><a xlink:title=" ">
<path fill="none" stroke="#63b8ff" d="M903.81,-64.4C847.44,-55.67 764.31,-42.53 692,-30 689,-29.48 685.93,-28.94 682.83,-28.39"/>
<polygon fill="#63b8ff" stroke="#63b8ff" points="903.6,-67.91 914.02,-65.97 904.67,-60.99 903.6,-67.91"/>
</a>
</g>
</g>
<!-- Node8 -->
<g id="Node000008" class="node">
<title>Node8</title>
<g id="a_Node000008"><a xlink:href="interrupt_8ino.html" target="_top" xlink:title="I2C interrupt example for the DevLab ICM&#45;20948.">
<polygon fill="white" stroke="#666666" points="811,-30 701,-30 701,0 811,0 811,-30"/>
<text text-anchor="start" x="709" y="-18" font-family="Helvetica,sans-Serif" font-size="10.00">examples/interrupt</text>
<text text-anchor="middle" x="756" y="-7" font-family="Helvetica,sans-Serif" font-size="10.00">/interrupt.ino</text>
</a>
</g>
</g>
<!-- Node2&#45;&gt;Node8 -->
<g id="edge7_Node000002_Node000008" class="edge">
<title>Node2&#45;&gt;Node8</title>
<g id="a_edge7_Node000002_Node000008"><a xlink:title=" ">
<path fill="none" stroke="#63b8ff" d="M929.11,-63.32C894.51,-53.86 844.75,-40.26 807.45,-30.06"/>
<polygon fill="#63b8ff" stroke="#63b8ff" points="928.31,-66.73 938.88,-65.99 930.16,-59.98 928.31,-66.73"/>
</a>
</g>
</g>
<!-- Node9 -->
<g id="Node000009" class="node">
<title>Node9</title>
<g id="a_Node000009"><a xlink:href="mag__test_8ino.html" target="_top" xlink:title="Magnetometer operation&#45;mode sweep for the DevLab ICM&#45;20948.">
<polygon fill="white" stroke="#666666" points="967,-30 829,-30 829,0 967,0 967,-30"/>
<text text-anchor="start" x="837" y="-18" font-family="Helvetica,sans-Serif" font-size="10.00">examples/mag_test/mag</text>
<text text-anchor="middle" x="898" y="-7" font-family="Helvetica,sans-Serif" font-size="10.00">_test.ino</text>
</a>
</g>
</g>
<!-- Node2&#45;&gt;Node9 -->
<g id="edge8_Node000002_Node000009" class="edge">
<title>Node2&#45;&gt;Node9</title>
<g id="a_edge8_Node000002_Node000009"><a xlink:title=" ">
<path fill="none" stroke="#63b8ff" d="M951.54,-59.5C940.4,-50.45 926.31,-39 915.37,-30.11"/>
<polygon fill="#63b8ff" stroke="#63b8ff" points="949.41,-62.28 959.38,-65.87 953.82,-56.85 949.41,-62.28"/>
</a>
</g>
</g>
<!-- Node10 -->
<g id="Node000010" class="node">
<title>Node10</title>
<g id="a_Node000010"><a xlink:href="spi__accel_8ino.html" target="_top" xlink:title=" ">
<polygon fill="white" stroke="#666666" points="1098.5,-30 985.5,-30 985.5,0 1098.5,0 1098.5,-30"/>
<text text-anchor="start" x="993.5" y="-18" font-family="Helvetica,sans-Serif" font-size="10.00">examples/spi_accel</text>
<text text-anchor="middle" x="1042" y="-7" font-family="Helvetica,sans-Serif" font-size="10.00">/spi_accel.ino</text>
</a>
</g>
</g>
<!-- Node2&#45;&gt;Node10 -->
<g id="edge9_Node000002_Node000010" class="edge">
<title>Node2&#45;&gt;Node10</title>
<g id="a_edge9_Node000002_Node000010"><a xlink:title=" ">
<path fill="none" stroke="#63b8ff" d="M988.46,-59.5C999.6,-50.45 1013.69,-39 1024.63,-30.11"/>
<polygon fill="#63b8ff" stroke="#63b8ff" points="986.18,-56.85 980.62,-65.87 990.59,-62.28 986.18,-56.85"/>
</a>
</g>
</g>
<!-- Node11 -->
<g id="Node000011" class="node">
<title>Node11</title>
<g id="a_Node000011"><a xlink:href="spi__basic_8ino.html" target="_top" xlink:title=" ">
<polygon fill="white" stroke="#666666" points="1229.5,-30 1116.5,-30 1116.5,0 1229.5,0 1229.5,-30"/>
<text text-anchor="start" x="1124.5" y="-18" font-family="Helvetica,sans-Serif" font-size="10.00">examples/spi_basic</text>
<text text-anchor="middle" x="1173" y="-7" font-family="Helvetica,sans-Serif" font-size="10.00">/spi_basic.ino</text>
</a>
</g>
</g>
<!-- Node2&#45;&gt;Node11 -->
<g id="edge10_Node000002_Node000011" class="edge">
<title>Node2&#45;&gt;Node11</title>
<g id="a_edge10_Node000002_Node000011"><a xlink:title=" ">
<path fill="none" stroke="#63b8ff" d="M1009.21,-63.2C1042.02,-53.75 1088.97,-40.22 1124.2,-30.06"/>
<polygon fill="#63b8ff" stroke="#63b8ff" points="1008.16,-59.86 999.52,-65.99 1010.1,-66.59 1008.16,-59.86"/>
</a>
</g>
</g>
<!-- Node12 -->
<g id="Node000012" class="node">
<title>Node12</title>
<g id="a_Node000012"><a xlink:href="spi__gyro_8ino.html" target="_top" xlink:title=" ">
<polygon fill="white" stroke="#666666" points="1374,-30 1248,-30 1248,0 1374,0 1374,-30"/>
<text text-anchor="start" x="1256" y="-18" font-family="Helvetica,sans-Serif" font-size="10.00">examples/spi_gyro/spi</text>
<text text-anchor="middle" x="1311" y="-7" font-family="Helvetica,sans-Serif" font-size="10.00">_gyro.ino</text>
</a>
</g>
</g>
<!-- Node2&#45;&gt;Node12 -->
<g id="edge11_Node000002_Node000012" class="edge">
<title>Node2&#45;&gt;Node12</title>
<g id="a_edge11_Node000002_Node000012"><a xlink:title=" ">
<path fill="none" stroke="#63b8ff" d="M1034.05,-64.42C1088.61,-55.72 1169.05,-42.58 1239,-30 1241.88,-29.48 1244.83,-28.94 1247.8,-28.39"/>
<polygon fill="#63b8ff" stroke="#63b8ff" points="1033.5,-60.97 1024.18,-66 1034.6,-67.88 1033.5,-60.97"/>
</a>
</g>
</g>
<!-- Node13 -->
<g id="Node000013" class="node">
<title>Node13</title>
<g id="a_Node000013"><a xlink:href="spi__magneto_8ino.html" target="_top" xlink:title=" ">
<polygon fill="white" stroke="#666666" points="1523.5,-30 1392.5,-30 1392.5,0 1523.5,0 1523.5,-30"/>
<text text-anchor="start" x="1400.5" y="-18" font-family="Helvetica,sans-Serif" font-size="10.00">examples/spi_magneto</text>
<text text-anchor="middle" x="1458" y="-7" font-family="Helvetica,sans-Serif" font-size="10.00">/spi_magneto.ino</text>
</a>
</g>
</g>
<!-- Node2&#45;&gt;Node13 -->
<g id="edge12_Node000002_Node000013" class="edge">
<title>Node2&#45;&gt;Node13</title>
<g id="a_edge12_Node000002_Node000013"><a xlink:title=" ">
<path fill="none" stroke="#63b8ff" d="M1047.21,-67.98C1130.34,-60.53 1266.39,-47.14 1383,-30 1386.01,-29.56 1389.09,-29.08 1392.2,-28.58"/>
<polygon fill="#63b8ff" stroke="#63b8ff" points="1046.73,-64.5 1037.08,-68.88 1047.35,-71.48 1046.73,-64.5"/>
</a>
</g>
</g>
<!-- Node14 -->
<g id="Node000014" class="node">
<title>Node14</title>
<g id="a_Node000014"><a xlink:href="test_8ino.html" target="_top" xlink:title="Accelerometer DLPF validation sketch for the 7Semi ICM&#45;20948.">
<polygon fill="white" stroke="#666666" points="1668,-24.5 1542,-24.5 1542,-5.5 1668,-5.5 1668,-24.5"/>
<text text-anchor="middle" x="1605" y="-12.5" font-family="Helvetica,sans-Serif" font-size="10.00">examples/test/test.ino</text>
</a>
</g>
</g>
<!-- Node2&#45;&gt;Node14 -->
<g id="edge13_Node000002_Node000014" class="edge">
<title>Node2&#45;&gt;Node14</title>
<g id="a_edge13_Node000002_Node000014"><a xlink:title=" ">
<path fill="none" stroke="#63b8ff" d="M1047.66,-71.15C1156.53,-65.81 1360.54,-53.51 1533,-30 1543.6,-28.56 1554.99,-26.55 1565.52,-24.51"/>
<polygon fill="#63b8ff" stroke="#63b8ff" points="1047.25,-67.66 1037.43,-71.64 1047.58,-74.65 1047.25,-67.66"/>
</a>
</g>
</g>
<!-- Node15 -->
<g id="Node000015" class="node">
<title>Node15</title>
<g id="a_Node000015"><a xlink:href="test2_8ino.html" target="_top" xlink:title="Extended accelerometer DLPF, full&#45;scale, and averaging sweep.">
<polygon fill="white" stroke="#666666" points="1824,-24.5 1686,-24.5 1686,-5.5 1824,-5.5 1824,-24.5"/>
<text text-anchor="middle" x="1755" y="-12.5" font-family="Helvetica,sans-Serif" font-size="10.00">examples/test2/test2.ino</text>
</a>
</g>
</g>
<!-- Node2&#45;&gt;Node15 -->
<g id="edge14_Node000002_Node000015" class="edge">
<title>Node2&#45;&gt;Node15</title>
<g id="a_edge14_Node000002_Node000015"><a xlink:title=" ">
<path fill="none" stroke="#63b8ff" d="M1047.28,-72.54C1177.56,-68.58 1449.05,-57.54 1677,-30 1688.61,-28.6 1701.11,-26.58 1712.63,-24.52"/>
<polygon fill="#63b8ff" stroke="#63b8ff" points="1046.9,-69.05 1037,-72.84 1047.1,-76.04 1046.9,-69.05"/>
</a>
</g>
</g>
<!-- Node16 -->
<g id="Node000016" class="node">
<title>Node16</title>
<g id="a_Node000016"><a xlink:href="DevLab__ICM20948_8cpp.html" target="_top" xlink:title=" ">
<polygon fill="white" stroke="#666666" points="1987.5,-24.5 1842.5,-24.5 1842.5,-5.5 1987.5,-5.5 1987.5,-24.5"/>
<text text-anchor="middle" x="1915" y="-12.5" font-family="Helvetica,sans-Serif" font-size="10.00">src/DevLab_ICM20948.cpp</text>
</a>
</g>
</g>
<!-- Node2&#45;&gt;Node16 -->
<g id="edge15_Node000002_Node000016" class="edge">
<title>Node2&#45;&gt;Node16</title>
<g id="a_edge15_Node000002_Node000016"><a xlink:title=" ">
<path fill="none" stroke="#63b8ff" d="M1047.2,-73.56C1198.44,-71.04 1544.2,-61.99 1833,-30 1845.34,-28.63 1858.65,-26.6 1870.88,-24.51"/>
<polygon fill="#63b8ff" stroke="#63b8ff" points="1047.02,-70.06 1037.08,-73.72 1047.14,-77.06 1047.02,-70.06"/>
</a>
</g>
</g>
</g>
</svg>
