<?xml version="1.0" encoding="UTF-8" standalone="no"?>
<!DOCTYPE svg PUBLIC "-//W3C//DTD SVG 1.1//EN"
 "http://www.w3.org/Graphics/SVG/1.1/DTD/svg11.dtd">
<!-- Generated by graphviz version 2.43.0 (0)
 -->
<!-- Title: setup Pages: 1 -->
<svg width="807pt" height="312pt"
 viewBox="0.00 0.00 807.00 312.00" xmlns="http://www.w3.org/2000/svg" xmlns:xlink="http://www.w3.org/1999/xlink">
<g id="graph0" class="graph" transform="scale(1 1) rotate(0) translate(4 308)">
<title>setup</title>
<!-- Node1 -->
<g id="Node000001" class="node">
<title>Node1</title>
<g id="a_Node000001"><a xlink:title="Initialize I2C, verify the IMU, configure interrupts, and attach ISR.">
<polygon fill="#999999" stroke="#666666" points="44,-108 0,-108 0,-89 44,-89 44,-108"/>
<text text-anchor="middle" x="22" y="-96" font-family="Helvetica,sans-Serif" font-size="10.00">setup</text>
</a>
</g>
</g>
<!-- Node2 -->
<g id="Node000002" class="node">
<title>Node2</title>
<g id="a_Node000002"><a xlink:href="classDevLab__ICM20948.html#a91147b3cd4c45bffc8e024f985be7b21" target="_top" xlink:title=" ">
<polygon fill="white" stroke="#666666" points="236,-191 80,-191 80,-172 236,-172 236,-191"/>
<text text-anchor="middle" x="158" y="-179" font-family="Helvetica,sans-Serif" font-size="10.00">DevLab_ICM20948::beginI2C</text>
</a>
</g>
</g>
<!-- Node1&#45;&gt;Node2 -->
<g id="edge1_Node000001_Node000002" class="edge">
<title>Node1&#45;&gt;Node2</title>
<g id="a_edge1_Node000001_Node000002"><a xlink:title=" ">
<path fill="none" stroke="#63b8ff" d="M38.37,-108.02C61.47,-122.33 105.34,-149.5 132.78,-166.5"/>
<polygon fill="#63b8ff" stroke="#63b8ff" points="131.05,-169.54 141.4,-171.83 134.74,-163.59 131.05,-169.54"/>
</a>
</g>
</g>
<!-- Node7 -->
<g id="Node000007" class="node">
<title>Node7</title>
<g id="a_Node000007"><a xlink:href="classDevLab__ICM20948.html#a8bef7eafb3b67eb736f491d0df453b9e" target="_top" xlink:title=" ">
<polygon fill="white" stroke="#666666" points="448,-304 272,-304 272,-285 448,-285 448,-304"/>
<text text-anchor="middle" x="360" y="-292" font-family="Helvetica,sans-Serif" font-size="10.00">DevLab_ICM20948::readWhoAmI</text>
</a>
</g>
</g>
<!-- Node1&#45;&gt;Node7 -->
<g id="edge23_Node000001_Node000007" class="edge">
<title>Node1&#45;&gt;Node7</title>
<g id="a_edge23_Node000001_Node000007"><a xlink:title=" ">
<path fill="none" stroke="#63b8ff" d="M25.9,-108.06C32.39,-127.96 49.93,-174.18 80,-200.5 133.83,-247.62 212.19,-271.31 272.17,-283.11"/>
<polygon fill="#63b8ff" stroke="#63b8ff" points="271.53,-286.55 282.01,-284.97 272.84,-279.68 271.53,-286.55"/>
</a>
</g>
</g>
<!-- Node11 -->
<g id="Node000011" class="node">
<title>Node11</title>
<g id="a_Node000011"><a xlink:href="classDevLab__ICM20948.html#a3c5db22058479806072167f2c15319c7" target="_top" xlink:title=" ">
<polygon fill="white" stroke="#666666" points="439.5,-67.5 280.5,-67.5 280.5,-37.5 439.5,-37.5 439.5,-67.5"/>
<text text-anchor="start" x="288.5" y="-55.5" font-family="Helvetica,sans-Serif" font-size="10.00">DevLab_ICM20948::intEnable</text>
<text text-anchor="middle" x="360" y="-44.5" font-family="Helvetica,sans-Serif" font-size="10.00">Config</text>
</a>
</g>
</g>
<!-- Node1&#45;&gt;Node11 -->
<g id="edge16_Node000001_Node000011" class="edge">
<title>Node1&#45;&gt;Node11</title>
<g id="a_edge16_Node000001_Node000011"><a xlink:title=" ">
<path fill="none" stroke="#63b8ff" d="M44.22,-96.57C82.59,-92.97 166.03,-84.69 236,-74.5 247.12,-72.88 258.78,-71.01 270.31,-69.07"/>
<polygon fill="#63b8ff" stroke="#63b8ff" points="271.12,-72.48 280.38,-67.34 269.94,-65.58 271.12,-72.48"/>
</a>
</g>
</g>
<!-- Node12 -->
<g id="Node000012" class="node">
<title>Node12</title>
<g id="a_Node000012"><a xlink:href="classDevLab__ICM20948.html#ab011f71e9466a0e1e8245638f81b0f43" target="_top" xlink:title=" ">
<polygon fill="white" stroke="#666666" points="431,-19 289,-19 289,0 431,0 431,-19"/>
<text text-anchor="middle" x="360" y="-7" font-family="Helvetica,sans-Serif" font-size="10.00">DevLab_ICM20948::intInit</text>
</a>
</g>
</g>
<!-- Node1&#45;&gt;Node12 -->
<g id="edge19_Node000001_Node000012" class="edge">
<title>Node1&#45;&gt;Node12</title>
<g id="a_edge19_Node000001_Node000012"><a xlink:title=" ">
<path fill="none" stroke="#63b8ff" d="M42.96,-88.99C53.75,-84.14 67.4,-78.45 80,-74.5 147.63,-53.32 167.84,-60.91 236,-41.5 252.36,-36.84 255.65,-33.21 272,-28.5 281.04,-25.89 290.7,-23.45 300.17,-21.24"/>
<polygon fill="#63b8ff" stroke="#63b8ff" points="300.96,-24.65 309.94,-19.03 299.42,-17.83 300.96,-24.65"/>
</a>
</g>
</g>
<!-- Node13 -->
<g id="Node000013" class="node">
<title>Node13</title>
<g id="a_Node000013"><a xlink:href="interrupt_8ino.html#aef596810c644e9f3853919b365e8270f" target="_top" xlink:title="Interrupt service routine for the IMU data&#45;ready signal.">
<polygon fill="white" stroke="#666666" points="191.5,-32 124.5,-32 124.5,-13 191.5,-13 191.5,-32"/>
<text text-anchor="middle" x="158" y="-20" font-family="Helvetica,sans-Serif" font-size="10.00">isrHandler</text>
</a>
</g>
</g>
<!-- Node1&#45;&gt;Node13 -->
<g id="edge22_Node000001_Node000013" class="edge">
<title>Node1&#45;&gt;Node13</title>
<g id="a_edge22_Node000001_Node000013"><a xlink:title=" ">
<path fill="none" stroke="#63b8ff" d="M31.29,-88.67C41.59,-77.04 60.25,-57.83 80,-46.5 90.52,-40.46 102.74,-35.77 114.3,-32.19"/>
<polygon fill="#63b8ff" stroke="#63b8ff" points="115.59,-35.46 124.23,-29.33 113.65,-28.73 115.59,-35.46"/>
</a>
</g>
</g>
<!-- Node3 -->
<g id="Node000003" class="node">
<title>Node3</title>
<g id="a_Node000003"><a xlink:href="classDevLab__ICM20948.html#a31460c48549b1d3081e253706f8b15e6" target="_top" xlink:title=" ">
<polygon fill="white" stroke="#666666" points="443.5,-153.5 276.5,-153.5 276.5,-123.5 443.5,-123.5 443.5,-153.5"/>
<text text-anchor="start" x="284.5" y="-141.5" font-family="Helvetica,sans-Serif" font-size="10.00">DevLab_ICM20948::applyBasic</text>
<text text-anchor="middle" x="360" y="-130.5" font-family="Helvetica,sans-Serif" font-size="10.00">Defaults</text>
</a>
</g>
</g>
<!-- Node2&#45;&gt;Node3 -->
<g id="edge2_Node000002_Node000003" class="edge">
<title>Node2&#45;&gt;Node3</title>
<g id="a_edge2_Node000002_Node000003"><a xlink:title=" ">
<path fill="none" stroke="#63b8ff" d="M203.39,-171.96C225.73,-167.15 253.52,-161.18 279.39,-155.62"/>
<polygon fill="#63b8ff" stroke="#63b8ff" points="280.16,-159.03 289.2,-153.51 278.69,-152.19 280.16,-159.03"/>
</a>
</g>
</g>
<!-- Node4 -->
<g id="Node000004" class="node">
<title>Node4</title>
<g id="a_Node000004"><a xlink:href="classDevLab__ICM20948.html#aaa26fcbfea0e67d45cb1c3ae39654c55" target="_top" xlink:title=" ">
<polygon fill="white" stroke="#666666" points="651,-107 484,-107 484,-88 651,-88 651,-107"/>
<text text-anchor="middle" x="567.5" y="-95" font-family="Helvetica,sans-Serif" font-size="10.00">DevLab_ICM20948::selectBank</text>
</a>
</g>
</g>
<!-- Node2&#45;&gt;Node4 -->
<g id="edge10_Node000002_Node000004" class="edge">
<title>Node2&#45;&gt;Node4</title>
<g id="a_edge10_Node000002_Node000004"><a xlink:title=" ">
<path fill="none" stroke="#63b8ff" d="M170.63,-171.99C190.16,-156.65 231.43,-126.89 272,-114.5 337.4,-94.52 414.7,-90.76 473.69,-91.73"/>
<polygon fill="#63b8ff" stroke="#63b8ff" points="473.66,-95.23 483.73,-91.95 473.81,-88.24 473.66,-95.23"/>
</a>
</g>
</g>
<!-- Node5 -->
<g id="Node000005" class="node">
<title>Node5</title>
<g id="a_Node000005"><a xlink:href="classBusIO__7Semi.html#aa633479356af692cb9ea334771b7c0c5" target="_top" xlink:title=" ">
<polygon fill="white" stroke="#666666" points="799,-128 687,-128 687,-109 799,-109 799,-128"/>
<text text-anchor="middle" x="743" y="-116" font-family="Helvetica,sans-Serif" font-size="10.00">BusIO_7Semi::write</text>
</a>
</g>
</g>
<!-- Node2&#45;&gt;Node5 -->
<g id="edge11_Node000002_Node000005" class="edge">
<title>Node2&#45;&gt;Node5</title>
<g id="a_edge11_Node000002_Node000005"><a xlink:title=" ">
<path fill="none" stroke="#63b8ff" d="M204.96,-191.01C225.39,-194.78 249.8,-198.65 272,-200.5 349.95,-207.01 370.5,-211.11 448,-200.5 544.13,-187.35 653.15,-151.06 707.44,-131.46"/>
<polygon fill="#63b8ff" stroke="#63b8ff" points="708.73,-134.72 716.93,-128 706.34,-128.14 708.73,-134.72"/>
</a>
</g>
</g>
<!-- Node6 -->
<g id="Node000006" class="node">
<title>Node6</title>
<g id="a_Node000006"><a xlink:href="classI2C__Interface.html#ae8147c4d6e54fe2622825d7e17493152" target="_top" xlink:title=" ">
<polygon fill="white" stroke="#666666" points="425,-191 295,-191 295,-172 425,-172 425,-191"/>
<text text-anchor="middle" x="360" y="-179" font-family="Helvetica,sans-Serif" font-size="10.00">I2C_Interface::beginI2C</text>
</a>
</g>
</g>
<!-- Node2&#45;&gt;Node6 -->
<g id="edge6_Node000002_Node000006" class="edge">
<title>Node2&#45;&gt;Node6</title>
<g id="a_edge6_Node000002_Node000006"><a xlink:title=" ">
<path fill="none" stroke="#63b8ff" d="M236.04,-181.5C252.02,-181.5 268.82,-181.5 284.7,-181.5"/>
<polygon fill="#63b8ff" stroke="#63b8ff" points="284.98,-185 294.98,-181.5 284.98,-178 284.98,-185"/>
</a>
</g>
</g>
<!-- Node2&#45;&gt;Node7 -->
<g id="edge7_Node000002_Node000007" class="edge">
<title>Node2&#45;&gt;Node7</title>
<g id="a_edge7_Node000002_Node000007"><a xlink:title=" ">
<path fill="none" stroke="#63b8ff" d="M171.81,-191.1C187.32,-202.85 214.08,-223.53 236,-242.5 252.64,-256.9 252.48,-266.33 272,-276.5 275.69,-278.42 279.57,-280.14 283.56,-281.68"/>
<polygon fill="#63b8ff" stroke="#63b8ff" points="282.44,-284.99 293.03,-284.94 284.72,-278.37 282.44,-284.99"/>
</a>
</g>
</g>
<!-- Node9 -->
<g id="Node000009" class="node">
<title>Node9</title>
<g id="a_Node000009"><a xlink:href="classBusIO__7Semi.html#ac7b3d1c425f7187abbe1bbec64d9ccea" target="_top" xlink:title=" ">
<polygon fill="white" stroke="#666666" points="422.5,-267 297.5,-267 297.5,-248 422.5,-248 422.5,-267"/>
<text text-anchor="middle" x="360" y="-255" font-family="Helvetica,sans-Serif" font-size="10.00">BusIO_7Semi::writeBit</text>
</a>
</g>
</g>
<!-- Node2&#45;&gt;Node9 -->
<g id="edge12_Node000002_Node000009" class="edge">
<title>Node2&#45;&gt;Node9</title>
<g id="a_edge12_Node000002_Node000009"><a xlink:title=" ">
<path fill="none" stroke="#63b8ff" d="M177.4,-191.1C199.45,-202.33 237.72,-220.98 272,-233.5 283.96,-237.87 297.1,-241.88 309.45,-245.33"/>
<polygon fill="#63b8ff" stroke="#63b8ff" points="308.59,-248.72 319.16,-247.96 310.43,-241.96 308.59,-248.72"/>
</a>
</g>
</g>
<!-- Node3&#45;&gt;Node4 -->
<g id="edge3_Node000003_Node000004" class="edge">
<title>Node3&#45;&gt;Node4</title>
<g id="a_edge3_Node000003_Node000004"><a xlink:title=" ">
<path fill="none" stroke="#63b8ff" d="M436.35,-123.47C460.19,-118.71 486.16,-113.53 508.58,-109.06"/>
<polygon fill="#63b8ff" stroke="#63b8ff" points="509.49,-112.44 518.61,-107.05 508.12,-105.58 509.49,-112.44"/>
</a>
</g>
</g>
<!-- Node3&#45;&gt;Node5 -->
<g id="edge5_Node000003_Node000005" class="edge">
<title>Node3&#45;&gt;Node5</title>
<g id="a_edge5_Node000003_Node000005"><a xlink:title=" ">
<path fill="none" stroke="#63b8ff" d="M443.67,-134.16C513.58,-130.49 612.37,-125.3 676.8,-121.92"/>
<polygon fill="#63b8ff" stroke="#63b8ff" points="677.03,-125.42 686.83,-121.4 676.66,-118.43 677.03,-125.42"/>
</a>
</g>
</g>
<!-- Node4&#45;&gt;Node5 -->
<g id="edge4_Node000004_Node000005" class="edge">
<title>Node4&#45;&gt;Node5</title>
<g id="a_edge4_Node000004_Node000005"><a xlink:title=" ">
<path fill="none" stroke="#63b8ff" d="M647.13,-107.02C657.11,-108.23 667.24,-109.45 676.97,-110.63"/>
<polygon fill="#63b8ff" stroke="#63b8ff" points="676.61,-114.11 686.95,-111.84 677.45,-107.16 676.61,-114.11"/>
</a>
</g>
</g>
<!-- Node7&#45;&gt;Node4 -->
<g id="edge9_Node000007_Node000004" class="edge">
<title>Node7&#45;&gt;Node4</title>
<g id="a_edge9_Node000007_Node000004"><a xlink:title=" ">
<path fill="none" stroke="#63b8ff" d="M431.82,-284.89C437.54,-282.63 443.02,-279.87 448,-276.5 478.94,-255.56 534.09,-157.65 556.56,-116.16"/>
<polygon fill="#63b8ff" stroke="#63b8ff" points="559.77,-117.58 561.42,-107.12 553.6,-114.27 559.77,-117.58"/>
</a>
</g>
</g>
<!-- Node8 -->
<g id="Node000008" class="node">
<title>Node8</title>
<g id="a_Node000008"><a xlink:href="classBusIO__7Semi.html#a933c66d9a1afe84102323e209a93dd31" target="_top" xlink:title=" ">
<polygon fill="white" stroke="#666666" points="797.5,-286 688.5,-286 688.5,-267 797.5,-267 797.5,-286"/>
<text text-anchor="middle" x="743" y="-274" font-family="Helvetica,sans-Serif" font-size="10.00">BusIO_7Semi::read</text>
</a>
</g>
</g>
<!-- Node7&#45;&gt;Node8 -->
<g id="edge8_Node000007_Node000008" class="edge">
<title>Node7&#45;&gt;Node8</title>
<g id="a_edge8_Node000007_Node000008"><a xlink:title=" ">
<path fill="none" stroke="#63b8ff" d="M448.41,-290.37C518.54,-287.06 615.35,-282.48 678.31,-279.51"/>
<polygon fill="#63b8ff" stroke="#63b8ff" points="678.67,-283 688.5,-279.03 678.34,-276 678.67,-283"/>
</a>
</g>
</g>
<!-- Node10 -->
<g id="Node000010" class="node">
<title>Node10</title>
<g id="a_Node000010"><a xlink:href="classBusIO__7Semi.html#a855c7388d4118e632c84c7f8e2e3ddc2" target="_top" xlink:title=" ">
<polygon fill="white" stroke="#666666" points="633,-267 502,-267 502,-248 633,-248 633,-267"/>
<text text-anchor="middle" x="567.5" y="-255" font-family="Helvetica,sans-Serif" font-size="10.00">BusIO_7Semi::writeBits</text>
</a>
</g>
</g>
<!-- Node9&#45;&gt;Node10 -->
<g id="edge13_Node000009_Node000010" class="edge">
<title>Node9&#45;&gt;Node10</title>
<g id="a_edge13_Node000009_Node000010"><a xlink:title=" ">
<path fill="none" stroke="#63b8ff" d="M422.66,-257.5C444.29,-257.5 468.83,-257.5 491.44,-257.5"/>
<polygon fill="#63b8ff" stroke="#63b8ff" points="491.67,-261 501.67,-257.5 491.67,-254 491.67,-261"/>
</a>
</g>
</g>
<!-- Node10&#45;&gt;Node5 -->
<g id="edge15_Node000010_Node000005" class="edge">
<title>Node10&#45;&gt;Node5</title>
<g id="a_edge15_Node000010_Node000005"><a xlink:title=" ">
<path fill="none" stroke="#63b8ff" d="M619.55,-247.98C630.5,-244.51 641.59,-239.83 651,-233.5 688.48,-208.28 717.72,-162.77 732.14,-137.22"/>
<polygon fill="#63b8ff" stroke="#63b8ff" points="735.35,-138.64 737.08,-128.19 729.21,-135.28 735.35,-138.64"/>
</a>
</g>
</g>
<!-- Node10&#45;&gt;Node8 -->
<g id="edge14_Node000010_Node000008" class="edge">
<title>Node10&#45;&gt;Node8</title>
<g id="a_edge14_Node000010_Node000008"><a xlink:title=" ">
<path fill="none" stroke="#63b8ff" d="M633.1,-264.57C647.9,-266.2 663.62,-267.92 678.37,-269.53"/>
<polygon fill="#63b8ff" stroke="#63b8ff" points="678.08,-273.02 688.41,-270.63 678.85,-266.06 678.08,-273.02"/>
</a>
</g>
</g>
<!-- Node11&#45;&gt;Node4 -->
<g id="edge17_Node000011_Node000004" class="edge">
<title>Node11&#45;&gt;Node4</title>
<g id="a_edge17_Node000011_Node000004"><a xlink:title=" ">
<path fill="none" stroke="#63b8ff" d="M429.71,-67.55C456.91,-73.5 487.69,-80.24 513.15,-85.82"/>
<polygon fill="#63b8ff" stroke="#63b8ff" points="512.48,-89.25 522.99,-87.97 513.97,-82.41 512.48,-89.25"/>
</a>
</g>
</g>
<!-- Node11&#45;&gt;Node5 -->
<g id="edge18_Node000011_Node000005" class="edge">
<title>Node11&#45;&gt;Node5</title>
<g id="a_edge18_Node000011_Node000005"><a xlink:title=" ">
<path fill="none" stroke="#63b8ff" d="M439.67,-53.23C498.64,-55.35 580.92,-61.69 651,-79.5 673.35,-85.18 697.26,-95.62 714.97,-104.27"/>
<polygon fill="#63b8ff" stroke="#63b8ff" points="713.61,-107.5 724.11,-108.84 716.74,-101.24 713.61,-107.5"/>
</a>
</g>
</g>
<!-- Node12&#45;&gt;Node4 -->
<g id="edge20_Node000012_Node000004" class="edge">
<title>Node12&#45;&gt;Node4</title>
<g id="a_edge20_Node000012_Node000004"><a xlink:title=" ">
<path fill="none" stroke="#63b8ff" d="M416.99,-19.02C427.47,-21.56 438.2,-24.69 448,-28.5 484.04,-42.53 522.05,-66.53 545.03,-82.21"/>
<polygon fill="#63b8ff" stroke="#63b8ff" points="543.13,-85.15 553.34,-87.97 547.11,-79.39 543.13,-85.15"/>
</a>
</g>
</g>
<!-- Node12&#45;&gt;Node5 -->
<g id="edge21_Node000012_Node000005" class="edge">
<title>Node12&#45;&gt;Node5</title>
<g id="a_edge21_Node000012_Node000005"><a xlink:title=" ">
<path fill="none" stroke="#63b8ff" d="M431.17,-10.17C491.51,-12.94 579.81,-22.3 651,-51.5 679.7,-63.27 707.67,-86.06 724.85,-101.77"/>
<polygon fill="#63b8ff" stroke="#63b8ff" points="722.69,-104.54 732.38,-108.83 727.48,-99.44 722.69,-104.54"/>
</a>
</g>
</g>
</g>
</svg>
