<?xml version="1.0" encoding="UTF-8" standalone="no"?>
<!DOCTYPE svg PUBLIC "-//W3C//DTD SVG 1.1//EN"
 "http://www.w3.org/Graphics/SVG/1.1/DTD/svg11.dtd">
<!-- Generated by graphviz version 2.43.0 (0)
 -->
<!-- Title: setup Pages: 1 -->
<svg width="960pt" height="457pt"
 viewBox="0.00 0.00 960.00 457.38" xmlns="http://www.w3.org/2000/svg" xmlns:xlink="http://www.w3.org/1999/xlink">
<g id="graph0" class="graph" transform="scale(1 1) rotate(0) translate(4 453.38)">
<title>setup</title>
<!-- Node1 -->
<g id="Node000001" class="node">
<title>Node1</title>
<g id="a_Node000001"><a xlink:title="Initialize I2C, verify the IMU, enable sensors, and start the sweep.">
<polygon fill="#999999" stroke="#666666" points="44,-197 0,-197 0,-178 44,-178 44,-197"/>
<text text-anchor="middle" x="22" y="-185" font-family="Helvetica,sans-Serif" font-size="10.00">setup</text>
</a>
</g>
</g>
<!-- Node2 -->
<g id="Node000002" class="node">
<title>Node2</title>
<g id="a_Node000002"><a xlink:href="mag__test_8ino.html#af42a493b8d96759f43d866fbe725cf3d" target="_top" xlink:title="Initialize the magnetometer and collect samples for each mode.">
<polygon fill="white" stroke="#666666" points="163,-228 80,-228 80,-209 163,-209 163,-228"/>
<text text-anchor="middle" x="121.5" y="-216" font-family="Helvetica,sans-Serif" font-size="10.00">applySettings</text>
</a>
</g>
</g>
<!-- Node1&#45;&gt;Node2 -->
<g id="edge1_Node000001_Node000002" class="edge">
<title>Node1&#45;&gt;Node2</title>
<g id="a_edge1_Node000001_Node000002"><a xlink:title=" ">
<path fill="none" stroke="#63b8ff" d="M44.16,-194.23C54.85,-197.63 68.19,-201.87 80.71,-205.85"/>
<polygon fill="#63b8ff" stroke="#63b8ff" points="79.92,-209.27 90.51,-208.96 82.04,-202.6 79.92,-209.27"/>
</a>
</g>
</g>
<!-- Node11 -->
<g id="Node000011" class="node">
<title>Node11</title>
<g id="a_Node000011"><a xlink:href="classDevLab__ICM20948.html#a91147b3cd4c45bffc8e024f985be7b21" target="_top" xlink:title=" ">
<polygon fill="white" stroke="#666666" points="372,-132 216,-132 216,-113 372,-113 372,-132"/>
<text text-anchor="middle" x="294" y="-120" font-family="Helvetica,sans-Serif" font-size="10.00">DevLab_ICM20948::beginI2C</text>
</a>
</g>
</g>
<!-- Node1&#45;&gt;Node11 -->
<g id="edge16_Node000001_Node000011" class="edge">
<title>Node1&#45;&gt;Node11</title>
<g id="a_edge16_Node000001_Node000011"><a xlink:title=" ">
<path fill="none" stroke="#63b8ff" d="M44.19,-182.4C86.85,-172.13 184.09,-148.72 243.58,-134.4"/>
<polygon fill="#63b8ff" stroke="#63b8ff" points="244.61,-137.75 253.51,-132.01 242.97,-130.94 244.61,-137.75"/>
</a>
</g>
</g>
<!-- Node14 -->
<g id="Node000014" class="node">
<title>Node14</title>
<g id="a_Node000014"><a xlink:href="classDevLab__ICM20948.html#a8bef7eafb3b67eb736f491d0df453b9e" target="_top" xlink:title=" ">
<polygon fill="white" stroke="#666666" points="601,-19 425,-19 425,0 601,0 601,-19"/>
<text text-anchor="middle" x="513" y="-7" font-family="Helvetica,sans-Serif" font-size="10.00">DevLab_ICM20948::readWhoAmI</text>
</a>
</g>
</g>
<!-- Node1&#45;&gt;Node14 -->
<g id="edge30_Node000001_Node000014" class="edge">
<title>Node1&#45;&gt;Node14</title>
<g id="a_edge30_Node000001_Node000014"><a xlink:title=" ">
<path fill="none" stroke="#63b8ff" d="M36.12,-177.86C47.38,-169.87 64.24,-158.55 80,-150.5 224.96,-76.44 267.95,-70.32 425,-27.5 433.33,-25.23 442.17,-23.09 450.9,-21.14"/>
<polygon fill="#63b8ff" stroke="#63b8ff" points="451.66,-24.56 460.68,-19.01 450.17,-17.72 451.66,-24.56"/>
</a>
</g>
</g>
<!-- Node17 -->
<g id="Node000017" class="node">
<title>Node17</title>
<g id="a_Node000017"><a xlink:href="classDevLab__ICM20948.html#ae9c088334d6ec706bb08b47ef29bd186" target="_top" xlink:title=" ">
<polygon fill="white" stroke="#666666" points="377.5,-294 210.5,-294 210.5,-275 377.5,-275 377.5,-294"/>
<text text-anchor="middle" x="294" y="-282" font-family="Helvetica,sans-Serif" font-size="10.00">DevLab_ICM20948::setSensors</text>
</a>
</g>
</g>
<!-- Node1&#45;&gt;Node17 -->
<g id="edge31_Node000001_Node000017" class="edge">
<title>Node1&#45;&gt;Node17</title>
<g id="a_edge31_Node000001_Node000017"><a xlink:title=" ">
<path fill="none" stroke="#63b8ff" d="M31.25,-197.14C41.52,-208.51 60.15,-227.18 80,-237.5 116.93,-256.71 161.42,-268.08 200.17,-274.82"/>
<polygon fill="#63b8ff" stroke="#63b8ff" points="199.97,-278.33 210.41,-276.51 201.11,-271.42 199.97,-278.33"/>
</a>
</g>
</g>
<!-- Node3 -->
<g id="Node000003" class="node">
<title>Node3</title>
<g id="a_Node000003"><a xlink:href="classDevLab__ICM20948.html#a7b137192f8eb987cd221808c2c6c3561" target="_top" xlink:title=" ">
<polygon fill="white" stroke="#666666" points="369,-370 219,-370 219,-351 369,-351 369,-370"/>
<text text-anchor="middle" x="294" y="-358" font-family="Helvetica,sans-Serif" font-size="10.00">DevLab_ICM20948::initMag</text>
</a>
</g>
</g>
<!-- Node2&#45;&gt;Node3 -->
<g id="edge2_Node000002_Node000003" class="edge">
<title>Node2&#45;&gt;Node3</title>
<g id="a_edge2_Node000002_Node000003"><a xlink:title=" ">
<path fill="none" stroke="#63b8ff" d="M129.54,-228C142.17,-244.64 170.1,-279.57 199,-303.5 219.34,-320.34 245.15,-335.63 264.58,-346.12"/>
<polygon fill="#63b8ff" stroke="#63b8ff" points="263.08,-349.29 273.55,-350.87 266.35,-343.1 263.08,-349.29"/>
</a>
</g>
</g>
<!-- Node8 -->
<g id="Node000008" class="node">
<title>Node8</title>
<g id="a_Node000008"><a xlink:href="classDevLab__ICM20948.html#a9f9b29867c2b78efef3ef9688f886314" target="_top" xlink:title=" ">
<polygon fill="white" stroke="#666666" points="591,-256 435,-256 435,-237 591,-237 591,-256"/>
<text text-anchor="middle" x="513" y="-244" font-family="Helvetica,sans-Serif" font-size="10.00">DevLab_ICM20948::readMag</text>
</a>
</g>
</g>
<!-- Node2&#45;&gt;Node8 -->
<g id="edge12_Node000002_Node000008" class="edge">
<title>Node2&#45;&gt;Node8</title>
<g id="a_edge12_Node000002_Node000008"><a xlink:title=" ">
<path fill="none" stroke="#63b8ff" d="M163.21,-218.97C215.55,-219.84 309.21,-222.36 389,-229.5 406.14,-231.03 424.55,-233.27 441.78,-235.61"/>
<polygon fill="#63b8ff" stroke="#63b8ff" points="441.37,-239.09 451.76,-237 442.34,-232.15 441.37,-239.09"/>
</a>
</g>
</g>
<!-- Node10 -->
<g id="Node000010" class="node">
<title>Node10</title>
<g id="a_Node000010"><a xlink:href="classDevLab__ICM20948.html#a0882a30454b0716953f5f375613d24b3" target="_top" xlink:title=" ">
<polygon fill="white" stroke="#666666" points="389,-257 199,-257 199,-238 389,-238 389,-257"/>
<text text-anchor="middle" x="294" y="-245" font-family="Helvetica,sans-Serif" font-size="10.00">DevLab_ICM20948::setMagOpMode</text>
</a>
</g>
</g>
<!-- Node2&#45;&gt;Node10 -->
<g id="edge15_Node000002_Node000010" class="edge">
<title>Node2&#45;&gt;Node10</title>
<g id="a_edge15_Node000002_Node000010"><a xlink:title=" ">
<path fill="none" stroke="#63b8ff" d="M163.34,-225.45C182.39,-228.69 205.55,-232.63 226.99,-236.27"/>
<polygon fill="#63b8ff" stroke="#63b8ff" points="226.58,-239.75 237.02,-237.98 227.75,-232.85 226.58,-239.75"/>
</a>
</g>
</g>
<!-- Node4 -->
<g id="Node000004" class="node">
<title>Node4</title>
<g id="a_Node000004"><a xlink:href="classDevLab__ICM20948.html#aaa26fcbfea0e67d45cb1c3ae39654c55" target="_top" xlink:title=" ">
<polygon fill="white" stroke="#666666" points="804,-294 637,-294 637,-275 804,-275 804,-294"/>
<text text-anchor="middle" x="720.5" y="-282" font-family="Helvetica,sans-Serif" font-size="10.00">DevLab_ICM20948::selectBank</text>
</a>
</g>
</g>
<!-- Node3&#45;&gt;Node4 -->
<g id="edge3_Node000003_Node000004" class="edge">
<title>Node3&#45;&gt;Node4</title>
<g id="a_edge3_Node000003_Node000004"><a xlink:title=" ">
<path fill="none" stroke="#63b8ff" d="M348.33,-350.95C426.76,-336.91 572.91,-310.74 656.51,-295.78"/>
<polygon fill="#63b8ff" stroke="#63b8ff" points="657.16,-299.22 666.38,-294.01 655.92,-292.33 657.16,-299.22"/>
</a>
</g>
</g>
<!-- Node5 -->
<g id="Node000005" class="node">
<title>Node5</title>
<g id="a_Node000005"><a xlink:href="classBusIO__7Semi.html#aa633479356af692cb9ea334771b7c0c5" target="_top" xlink:title=" ">
<polygon fill="white" stroke="#666666" points="952,-318 840,-318 840,-299 952,-299 952,-318"/>
<text text-anchor="middle" x="896" y="-306" font-family="Helvetica,sans-Serif" font-size="10.00">BusIO_7Semi::write</text>
</a>
</g>
</g>
<!-- Node3&#45;&gt;Node5 -->
<g id="edge11_Node000003_Node000005" class="edge">
<title>Node3&#45;&gt;Node5</title>
<g id="a_edge11_Node000003_Node000005"><a xlink:title=" ">
<path fill="none" stroke="#63b8ff" d="M306.18,-370.16C327.52,-387.88 376.3,-425.01 425,-438.5 500.38,-459.38 522.94,-443.48 601,-438.5 691.77,-432.71 723.73,-455.28 804,-412.5 841.22,-392.66 870.23,-351.03 884.76,-326.89"/>
<polygon fill="#63b8ff" stroke="#63b8ff" points="887.92,-328.42 889.92,-318.01 881.87,-324.9 887.92,-328.42"/>
</a>
</g>
</g>
<!-- Node6 -->
<g id="Node000006" class="node">
<title>Node6</title>
<g id="a_Node000006"><a xlink:href="classDevLab__ICM20948.html#a4210e842050486637a5967b2a9ef7b57" target="_top" xlink:title=" ">
<polygon fill="white" stroke="#666666" points="583,-407 443,-407 443,-388 583,-388 583,-407"/>
<text text-anchor="middle" x="513" y="-395" font-family="Helvetica,sans-Serif" font-size="10.00">DevLab_ICM20948::sleep</text>
</a>
</g>
</g>
<!-- Node3&#45;&gt;Node6 -->
<g id="edge5_Node000003_Node000006" class="edge">
<title>Node3&#45;&gt;Node6</title>
<g id="a_edge5_Node000003_Node000006"><a xlink:title=" ">
<path fill="none" stroke="#63b8ff" d="M350.88,-370.03C379.88,-374.97 415.49,-381.04 445.85,-386.22"/>
<polygon fill="#63b8ff" stroke="#63b8ff" points="445.48,-389.71 455.93,-387.94 446.66,-382.81 445.48,-389.71"/>
</a>
</g>
</g>
<!-- Node7 -->
<g id="Node000007" class="node">
<title>Node7</title>
<g id="a_Node000007"><a xlink:href="classDevLab__ICM20948.html#a0d6774b76298645ee45ec0e9065a8891" target="_top" xlink:title=" ">
<polygon fill="white" stroke="#666666" points="592.5,-370 433.5,-370 433.5,-351 592.5,-351 592.5,-370"/>
<text text-anchor="middle" x="513" y="-358" font-family="Helvetica,sans-Serif" font-size="10.00">DevLab_ICM20948::softReset</text>
</a>
</g>
</g>
<!-- Node3&#45;&gt;Node7 -->
<g id="edge8_Node000003_Node000007" class="edge">
<title>Node3&#45;&gt;Node7</title>
<g id="a_edge8_Node000003_Node000007"><a xlink:title=" ">
<path fill="none" stroke="#63b8ff" d="M369.07,-360.5C386.5,-360.5 405.25,-360.5 423.25,-360.5"/>
<polygon fill="#63b8ff" stroke="#63b8ff" points="423.45,-364 433.45,-360.5 423.45,-357 423.45,-364"/>
</a>
</g>
</g>
<!-- Node4&#45;&gt;Node5 -->
<g id="edge4_Node000004_Node000005" class="edge">
<title>Node4&#45;&gt;Node5</title>
<g id="a_edge4_Node000004_Node000005"><a xlink:title=" ">
<path fill="none" stroke="#63b8ff" d="M790.57,-294.05C803.47,-295.84 816.91,-297.7 829.7,-299.47"/>
<polygon fill="#63b8ff" stroke="#63b8ff" points="829.4,-302.96 839.78,-300.86 830.36,-296.02 829.4,-302.96"/>
</a>
</g>
</g>
<!-- Node6&#45;&gt;Node4 -->
<g id="edge6_Node000006_Node000004" class="edge">
<title>Node6&#45;&gt;Node4</title>
<g id="a_edge6_Node000006_Node000004"><a xlink:title=" ">
<path fill="none" stroke="#63b8ff" d="M577.86,-387.93C585.84,-385.69 593.74,-382.92 601,-379.5 642.46,-359.99 682.24,-323.18 703.52,-301.56"/>
<polygon fill="#63b8ff" stroke="#63b8ff" points="706.31,-303.71 710.73,-294.08 701.27,-298.85 706.31,-303.71"/>
</a>
</g>
</g>
<!-- Node6&#45;&gt;Node5 -->
<g id="edge7_Node000006_Node000005" class="edge">
<title>Node6&#45;&gt;Node5</title>
<g id="a_edge7_Node000006_Node000005"><a xlink:title=" ">
<path fill="none" stroke="#63b8ff" d="M583.19,-389.23C642.54,-381.16 729.93,-366.94 804,-345.5 825.15,-339.38 848.11,-330.02 865.67,-322.25"/>
<polygon fill="#63b8ff" stroke="#63b8ff" points="867.15,-325.42 874.83,-318.13 864.28,-319.04 867.15,-325.42"/>
</a>
</g>
</g>
<!-- Node7&#45;&gt;Node4 -->
<g id="edge9_Node000007_Node000004" class="edge">
<title>Node7&#45;&gt;Node4</title>
<g id="a_edge9_Node000007_Node000004"><a xlink:title=" ">
<path fill="none" stroke="#63b8ff" d="M554.81,-350.99C569.57,-347.1 586.23,-342.17 601,-336.5 617.7,-330.09 620.72,-325.91 637,-318.5 652.84,-311.29 670.68,-303.85 685.7,-297.78"/>
<polygon fill="#63b8ff" stroke="#63b8ff" points="687.14,-300.98 695.11,-294.01 684.53,-294.48 687.14,-300.98"/>
</a>
</g>
</g>
<!-- Node7&#45;&gt;Node5 -->
<g id="edge10_Node000007_Node000005" class="edge">
<title>Node7&#45;&gt;Node5</title>
<g id="a_edge10_Node000007_Node000005"><a xlink:title=" ">
<path fill="none" stroke="#63b8ff" d="M583.88,-350.96C653.97,-341.4 761.06,-326.78 829.54,-317.43"/>
<polygon fill="#63b8ff" stroke="#63b8ff" points="830.34,-320.86 839.77,-316.04 829.39,-313.92 830.34,-320.86"/>
</a>
</g>
</g>
<!-- Node8&#45;&gt;Node4 -->
<g id="edge14_Node000008_Node000004" class="edge">
<title>Node8&#45;&gt;Node4</title>
<g id="a_edge14_Node000008_Node000004"><a xlink:title=" ">
<path fill="none" stroke="#63b8ff" d="M565.59,-256.04C593.56,-261.21 628.32,-267.64 657.73,-273.08"/>
<polygon fill="#63b8ff" stroke="#63b8ff" points="657.42,-276.58 667.89,-274.96 658.69,-269.7 657.42,-276.58"/>
</a>
</g>
</g>
<!-- Node9 -->
<g id="Node000009" class="node">
<title>Node9</title>
<g id="a_Node000009"><a xlink:href="classBusIO__7Semi.html#a933c66d9a1afe84102323e209a93dd31" target="_top" xlink:title=" ">
<polygon fill="white" stroke="#666666" points="950.5,-138 841.5,-138 841.5,-119 950.5,-119 950.5,-138"/>
<text text-anchor="middle" x="896" y="-126" font-family="Helvetica,sans-Serif" font-size="10.00">BusIO_7Semi::read</text>
</a>
</g>
</g>
<!-- Node8&#45;&gt;Node9 -->
<g id="edge13_Node000008_Node000009" class="edge">
<title>Node8&#45;&gt;Node9</title>
<g id="a_edge13_Node000008_Node000009"><a xlink:title=" ">
<path fill="none" stroke="#63b8ff" d="M544.86,-236.94C613.27,-215.76 777.66,-164.84 854.34,-141.09"/>
<polygon fill="#63b8ff" stroke="#63b8ff" points="855.61,-144.37 864.12,-138.06 853.53,-137.68 855.61,-144.37"/>
</a>
</g>
</g>
<!-- Node11&#45;&gt;Node4 -->
<g id="edge24_Node000011_Node000004" class="edge">
<title>Node11&#45;&gt;Node4</title>
<g id="a_edge24_Node000011_Node000004"><a xlink:title=" ">
<path fill="none" stroke="#63b8ff" d="M310.41,-132.12C334.17,-146.55 381.54,-173.79 425,-189.5 500.35,-216.74 526.69,-198.54 601,-228.5 618.39,-235.51 620.28,-242.01 637,-250.5 652.07,-258.15 669.28,-265.46 684.07,-271.32"/>
<polygon fill="#63b8ff" stroke="#63b8ff" points="682.8,-274.58 693.39,-274.95 685.34,-268.06 682.8,-274.58"/>
</a>
</g>
</g>
<!-- Node11&#45;&gt;Node5 -->
<g id="edge25_Node000011_Node000005" class="edge">
<title>Node11&#45;&gt;Node5</title>
<g id="a_edge25_Node000011_Node000005"><a xlink:title=" ">
<path fill="none" stroke="#63b8ff" d="M353.87,-112.95C471.78,-95.12 731.77,-62.68 804,-110.5 836.05,-131.72 874.56,-244.01 889.08,-289.42"/>
<polygon fill="#63b8ff" stroke="#63b8ff" points="885.74,-290.49 892.09,-298.97 892.42,-288.38 885.74,-290.49"/>
</a>
</g>
</g>
<!-- Node12 -->
<g id="Node000012" class="node">
<title>Node12</title>
<g id="a_Node000012"><a xlink:href="classDevLab__ICM20948.html#a31460c48549b1d3081e253706f8b15e6" target="_top" xlink:title=" ">
<polygon fill="white" stroke="#666666" points="596.5,-180.5 429.5,-180.5 429.5,-150.5 596.5,-150.5 596.5,-180.5"/>
<text text-anchor="start" x="437.5" y="-168.5" font-family="Helvetica,sans-Serif" font-size="10.00">DevLab_ICM20948::applyBasic</text>
<text text-anchor="middle" x="513" y="-157.5" font-family="Helvetica,sans-Serif" font-size="10.00">Defaults</text>
</a>
</g>
</g>
<!-- Node11&#45;&gt;Node12 -->
<g id="edge17_Node000011_Node000012" class="edge">
<title>Node11&#45;&gt;Node12</title>
<g id="a_edge17_Node000011_Node000012"><a xlink:title=" ">
<path fill="none" stroke="#63b8ff" d="M343.16,-132.04C367.62,-136.89 398.08,-142.93 426.37,-148.53"/>
<polygon fill="#63b8ff" stroke="#63b8ff" points="425.78,-151.98 436.27,-150.49 427.14,-145.12 425.78,-151.98"/>
</a>
</g>
</g>
<!-- Node13 -->
<g id="Node000013" class="node">
<title>Node13</title>
<g id="a_Node000013"><a xlink:href="classI2C__Interface.html#ae8147c4d6e54fe2622825d7e17493152" target="_top" xlink:title=" ">
<polygon fill="white" stroke="#666666" points="578,-56 448,-56 448,-37 578,-37 578,-56"/>
<text text-anchor="middle" x="513" y="-44" font-family="Helvetica,sans-Serif" font-size="10.00">I2C_Interface::beginI2C</text>
</a>
</g>
</g>
<!-- Node11&#45;&gt;Node13 -->
<g id="edge20_Node000011_Node000013" class="edge">
<title>Node11&#45;&gt;Node13</title>
<g id="a_edge20_Node000011_Node000013"><a xlink:title=" ">
<path fill="none" stroke="#63b8ff" d="M316.8,-112.91C342.41,-101.86 386.3,-83.53 425,-70.5 437.42,-66.32 451.01,-62.31 463.68,-58.8"/>
<polygon fill="#63b8ff" stroke="#63b8ff" points="464.87,-62.1 473.61,-56.1 463.04,-55.35 464.87,-62.1"/>
</a>
</g>
</g>
<!-- Node11&#45;&gt;Node14 -->
<g id="edge21_Node000011_Node000014" class="edge">
<title>Node11&#45;&gt;Node14</title>
<g id="a_edge21_Node000011_Node000014"><a xlink:title=" ">
<path fill="none" stroke="#63b8ff" d="M311.58,-112.99C330.85,-101.66 363.31,-81.7 389,-61.5 406.3,-47.9 405.48,-37.67 425,-27.5 428.69,-25.58 432.57,-23.86 436.56,-22.32"/>
<polygon fill="#63b8ff" stroke="#63b8ff" points="437.72,-25.63 446.03,-19.06 435.44,-19.01 437.72,-25.63"/>
</a>
</g>
</g>
<!-- Node15 -->
<g id="Node000015" class="node">
<title>Node15</title>
<g id="a_Node000015"><a xlink:href="classBusIO__7Semi.html#ac7b3d1c425f7187abbe1bbec64d9ccea" target="_top" xlink:title=" ">
<polygon fill="white" stroke="#666666" points="575.5,-132 450.5,-132 450.5,-113 575.5,-113 575.5,-132"/>
<text text-anchor="middle" x="513" y="-120" font-family="Helvetica,sans-Serif" font-size="10.00">BusIO_7Semi::writeBit</text>
</a>
</g>
</g>
<!-- Node11&#45;&gt;Node15 -->
<g id="edge26_Node000011_Node000015" class="edge">
<title>Node11&#45;&gt;Node15</title>
<g id="a_edge26_Node000011_Node000015"><a xlink:title=" ">
<path fill="none" stroke="#63b8ff" d="M372.12,-122.5C394.31,-122.5 418.41,-122.5 440.26,-122.5"/>
<polygon fill="#63b8ff" stroke="#63b8ff" points="440.46,-126 450.46,-122.5 440.46,-119 440.46,-126"/>
</a>
</g>
</g>
<!-- Node12&#45;&gt;Node4 -->
<g id="edge18_Node000012_Node000004" class="edge">
<title>Node12&#45;&gt;Node4</title>
<g id="a_edge18_Node000012_Node000004"><a xlink:title=" ">
<path fill="none" stroke="#63b8ff" d="M568.51,-180.62C579.55,-184.51 590.86,-189.15 601,-194.5 639.9,-215.03 679.47,-248.06 701.61,-267.88"/>
<polygon fill="#63b8ff" stroke="#63b8ff" points="699.45,-270.65 709.21,-274.78 704.16,-265.47 699.45,-270.65"/>
</a>
</g>
</g>
<!-- Node12&#45;&gt;Node5 -->
<g id="edge19_Node000012_Node000005" class="edge">
<title>Node12&#45;&gt;Node5</title>
<g id="a_edge19_Node000012_Node000005"><a xlink:title=" ">
<path fill="none" stroke="#63b8ff" d="M559.66,-180.54C573,-184.98 587.6,-189.89 601,-194.5 691.52,-225.64 715.34,-230.4 804,-266.5 825.21,-275.14 848.67,-285.99 866.45,-294.51"/>
<polygon fill="#63b8ff" stroke="#63b8ff" points="865.17,-297.78 875.7,-298.97 868.21,-291.47 865.17,-297.78"/>
</a>
</g>
</g>
<!-- Node14&#45;&gt;Node4 -->
<g id="edge23_Node000014_Node000004" class="edge">
<title>Node14&#45;&gt;Node4</title>
<g id="a_edge23_Node000014_Node000004"><a xlink:title=" ">
<path fill="none" stroke="#63b8ff" d="M588.9,-19.07C593.27,-21.38 597.36,-24.17 601,-27.5 642.06,-65.11 614.46,-96.58 637,-147.5 657.02,-192.72 689.12,-241.34 706.8,-266.73"/>
<polygon fill="#63b8ff" stroke="#63b8ff" points="703.99,-268.83 712.61,-274.99 709.72,-264.8 703.99,-268.83"/>
</a>
</g>
</g>
<!-- Node14&#45;&gt;Node9 -->
<g id="edge22_Node000014_Node000009" class="edge">
<title>Node14&#45;&gt;Node9</title>
<g id="a_edge22_Node000014_Node000009"><a xlink:title=" ">
<path fill="none" stroke="#63b8ff" d="M598.24,-19.03C657.42,-27.67 737.57,-43.34 804,-70.5 830.14,-81.19 857.04,-99.39 874.75,-112.56"/>
<polygon fill="#63b8ff" stroke="#63b8ff" points="873.04,-115.66 883.12,-118.92 877.28,-110.09 873.04,-115.66"/>
</a>
</g>
</g>
<!-- Node16 -->
<g id="Node000016" class="node">
<title>Node16</title>
<g id="a_Node000016"><a xlink:href="classBusIO__7Semi.html#a855c7388d4118e632c84c7f8e2e3ddc2" target="_top" xlink:title=" ">
<polygon fill="white" stroke="#666666" points="786,-138 655,-138 655,-119 786,-119 786,-138"/>
<text text-anchor="middle" x="720.5" y="-126" font-family="Helvetica,sans-Serif" font-size="10.00">BusIO_7Semi::writeBits</text>
</a>
</g>
</g>
<!-- Node15&#45;&gt;Node16 -->
<g id="edge27_Node000015_Node000016" class="edge">
<title>Node15&#45;&gt;Node16</title>
<g id="a_edge27_Node000015_Node000016"><a xlink:title=" ">
<path fill="none" stroke="#63b8ff" d="M575.66,-124.3C597.29,-124.93 621.83,-125.65 644.44,-126.31"/>
<polygon fill="#63b8ff" stroke="#63b8ff" points="644.58,-129.81 654.67,-126.61 644.78,-122.82 644.58,-129.81"/>
</a>
</g>
</g>
<!-- Node16&#45;&gt;Node5 -->
<g id="edge29_Node000016_Node000005" class="edge">
<title>Node16&#45;&gt;Node5</title>
<g id="a_edge29_Node000016_Node000005"><a xlink:title=" ">
<path fill="none" stroke="#63b8ff" d="M743.55,-138.02C761.24,-146.4 786.01,-159.84 804,-176.5 840.92,-210.7 871.08,-262.43 885.61,-289.87"/>
<polygon fill="#63b8ff" stroke="#63b8ff" points="882.54,-291.54 890.24,-298.81 888.75,-288.32 882.54,-291.54"/>
</a>
</g>
</g>
<!-- Node16&#45;&gt;Node9 -->
<g id="edge28_Node000016_Node000009" class="edge">
<title>Node16&#45;&gt;Node9</title>
<g id="a_edge28_Node000016_Node000009"><a xlink:title=" ">
<path fill="none" stroke="#63b8ff" d="M786.1,-128.5C800.9,-128.5 816.62,-128.5 831.37,-128.5"/>
<polygon fill="#63b8ff" stroke="#63b8ff" points="831.41,-132 841.41,-128.5 831.41,-125 831.41,-132"/>
</a>
</g>
</g>
<!-- Node17&#45;&gt;Node4 -->
<g id="edge32_Node000017_Node000004" class="edge">
<title>Node17&#45;&gt;Node4</title>
<g id="a_edge32_Node000017_Node000004"><a xlink:title=" ">
<path fill="none" stroke="#63b8ff" d="M377.6,-284.5C449.02,-284.5 552.17,-284.5 626.47,-284.5"/>
<polygon fill="#63b8ff" stroke="#63b8ff" points="626.75,-288 636.75,-284.5 626.75,-281 626.75,-288"/>
</a>
</g>
</g>
<!-- Node17&#45;&gt;Node5 -->
<g id="edge33_Node000017_Node000005" class="edge">
<title>Node17&#45;&gt;Node5</title>
<g id="a_edge33_Node000017_Node000005"><a xlink:title=" ">
<path fill="none" stroke="#63b8ff" d="M318.04,-294.17C338.81,-303.85 369.06,-320.46 389,-342.5 413.54,-369.62 393.99,-397.1 425,-416.5 496.8,-461.42 726.61,-410.89 804,-376.5 832.5,-363.84 860.51,-340.87 877.76,-325.17"/>
<polygon fill="#63b8ff" stroke="#63b8ff" points="880.4,-327.49 885.32,-318.11 875.62,-322.38 880.4,-327.49"/>
</a>
</g>
</g>
<!-- Node17&#45;&gt;Node15 -->
<g id="edge34_Node000017_Node000015" class="edge">
<title>Node17&#45;&gt;Node15</title>
<g id="a_edge34_Node000017_Node000015"><a xlink:title=" ">
<path fill="none" stroke="#63b8ff" d="M377.26,-274.8C381.48,-272.49 385.44,-269.75 389,-266.5 431.7,-227.53 382.8,-181.02 425,-141.5 429.67,-137.13 435.09,-133.68 440.91,-130.96"/>
<polygon fill="#63b8ff" stroke="#63b8ff" points="442.3,-134.17 450.33,-127.26 439.75,-127.66 442.3,-134.17"/>
</a>
</g>
</g>
</g>
</svg>
