<?xml version="1.0" encoding="UTF-8" standalone="no"?>
<!DOCTYPE svg PUBLIC "-//W3C//DTD SVG 1.1//EN"
 "http://www.w3.org/Graphics/SVG/1.1/DTD/svg11.dtd">
<!-- Generated by graphviz version 2.43.0 (0)
 -->
<!-- Title: setup Pages: 1 -->
<svg width="818pt" height="301pt"
 viewBox="0.00 0.00 818.00 300.50" xmlns="http://www.w3.org/2000/svg" xmlns:xlink="http://www.w3.org/1999/xlink">
<g id="graph0" class="graph" transform="scale(1 1) rotate(0) translate(4 296.5)">
<title>setup</title>
<!-- Node1 -->
<g id="Node000001" class="node">
<title>Node1</title>
<g id="a_Node000001"><a xlink:title="Configure the IMU for gyroscope&#45;only operation over SPI.">
<polygon fill="#999999" stroke="#666666" points="44,-93 0,-93 0,-74 44,-74 44,-93"/>
<text text-anchor="middle" x="22" y="-81" font-family="Helvetica,sans-Serif" font-size="10.00">setup</text>
</a>
</g>
</g>
<!-- Node2 -->
<g id="Node000002" class="node">
<title>Node2</title>
<g id="a_Node000002"><a xlink:href="classDevLab__ICM20948.html#a31460c48549b1d3081e253706f8b15e6" target="_top" xlink:title=" ">
<polygon fill="white" stroke="#666666" points="454.5,-292.5 287.5,-292.5 287.5,-262.5 454.5,-262.5 454.5,-292.5"/>
<text text-anchor="start" x="295.5" y="-280.5" font-family="Helvetica,sans-Serif" font-size="10.00">DevLab_ICM20948::applyBasic</text>
<text text-anchor="middle" x="371" y="-269.5" font-family="Helvetica,sans-Serif" font-size="10.00">Defaults</text>
</a>
</g>
</g>
<!-- Node1&#45;&gt;Node2 -->
<g id="edge1_Node000001_Node000002" class="edge">
<title>Node1&#45;&gt;Node2</title>
<g id="a_edge1_Node000001_Node000002"><a xlink:title=" ">
<path fill="none" stroke="#63b8ff" d="M28.1,-93.02C36.86,-108.59 56.14,-139.63 80,-158.5 144.63,-209.61 234.24,-241.89 296.69,-259.73"/>
<polygon fill="#63b8ff" stroke="#63b8ff" points="295.89,-263.14 306.47,-262.47 297.78,-256.4 295.89,-263.14"/>
</a>
</g>
</g>
<!-- Node5 -->
<g id="Node000005" class="node">
<title>Node5</title>
<g id="a_Node000005"><a xlink:href="classDevLab__ICM20948.html#a4386f310503153f3e28935cbdda75b18" target="_top" xlink:title=" ">
<polygon fill="white" stroke="#666666" points="241,-150 86,-150 86,-131 241,-131 241,-150"/>
<text text-anchor="middle" x="163.5" y="-138" font-family="Helvetica,sans-Serif" font-size="10.00">DevLab_ICM20948::beginSPI</text>
</a>
</g>
</g>
<!-- Node1&#45;&gt;Node5 -->
<g id="edge5_Node000001_Node000005" class="edge">
<title>Node1&#45;&gt;Node5</title>
<g id="a_edge5_Node000001_Node000005"><a xlink:title=" ">
<path fill="none" stroke="#63b8ff" d="M44.19,-92.16C66.9,-101.44 103.24,-116.29 129.66,-127.08"/>
<polygon fill="#63b8ff" stroke="#63b8ff" points="128.67,-130.46 139.25,-131 131.32,-123.98 128.67,-130.46"/>
</a>
</g>
</g>
<!-- Node12 -->
<g id="Node000012" class="node">
<title>Node12</title>
<g id="a_Node000012"><a xlink:href="classDevLab__ICM20948.html#ae9c088334d6ec706bb08b47ef29bd186" target="_top" xlink:title=" ">
<polygon fill="white" stroke="#666666" points="247,-56 80,-56 80,-37 247,-37 247,-56"/>
<text text-anchor="middle" x="163.5" y="-44" font-family="Helvetica,sans-Serif" font-size="10.00">DevLab_ICM20948::setSensors</text>
</a>
</g>
</g>
<!-- Node1&#45;&gt;Node12 -->
<g id="edge20_Node000001_Node000012" class="edge">
<title>Node1&#45;&gt;Node12</title>
<g id="a_edge20_Node000001_Node000012"><a xlink:title=" ">
<path fill="none" stroke="#63b8ff" d="M44.19,-77.88C63.35,-72.8 92.21,-65.14 116.63,-58.67"/>
<polygon fill="#63b8ff" stroke="#63b8ff" points="117.67,-62.01 126.44,-56.07 115.87,-55.25 117.67,-62.01"/>
</a>
</g>
</g>
<!-- Node13 -->
<g id="Node000013" class="node">
<title>Node13</title>
<g id="a_Node000013"><a xlink:href="spi__gyro_8ino.html#a5f08ba3a5b3d8e5b3fa5a22429ecfa2b" target="_top" xlink:title="SPI bus object used by the IMU driver.">
<polygon fill="white" stroke="#666666" points="190,-19 137,-19 137,0 190,0 190,-19"/>
<text text-anchor="middle" x="163.5" y="-7" font-family="Helvetica,sans-Serif" font-size="10.00">spi_bus</text>
</a>
</g>
</g>
<!-- Node1&#45;&gt;Node13 -->
<g id="edge24_Node000001_Node000013" class="edge">
<title>Node1&#45;&gt;Node13</title>
<g id="a_edge24_Node000001_Node000013"><a xlink:title=" ">
<path fill="none" stroke="#63b8ff" d="M29.93,-73.91C39.64,-61.23 58.52,-39.11 80,-27.5 94.25,-19.8 111.57,-15.39 126.65,-12.87"/>
<polygon fill="#63b8ff" stroke="#63b8ff" points="127.28,-16.31 136.67,-11.41 126.27,-9.39 127.28,-16.31"/>
</a>
</g>
</g>
<!-- Node3 -->
<g id="Node000003" class="node">
<title>Node3</title>
<g id="a_Node000003"><a xlink:href="classDevLab__ICM20948.html#aaa26fcbfea0e67d45cb1c3ae39654c55" target="_top" xlink:title=" ">
<polygon fill="white" stroke="#666666" points="662,-131 495,-131 495,-112 662,-112 662,-131"/>
<text text-anchor="middle" x="578.5" y="-119" font-family="Helvetica,sans-Serif" font-size="10.00">DevLab_ICM20948::selectBank</text>
</a>
</g>
</g>
<!-- Node2&#45;&gt;Node3 -->
<g id="edge2_Node000002_Node000003" class="edge">
<title>Node2&#45;&gt;Node3</title>
<g id="a_edge2_Node000002_Node000003"><a xlink:title=" ">
<path fill="none" stroke="#63b8ff" d="M393.26,-262.45C410.98,-249.83 436.81,-231.23 459,-214.5 494.15,-188 534.31,-156.14 557.69,-137.43"/>
<polygon fill="#63b8ff" stroke="#63b8ff" points="559.89,-140.15 565.51,-131.16 555.52,-134.68 559.89,-140.15"/>
</a>
</g>
</g>
<!-- Node4 -->
<g id="Node000004" class="node">
<title>Node4</title>
<g id="a_Node000004"><a xlink:href="classBusIO__7Semi.html#aa633479356af692cb9ea334771b7c0c5" target="_top" xlink:title=" ">
<polygon fill="white" stroke="#666666" points="810,-150 698,-150 698,-131 810,-131 810,-150"/>
<text text-anchor="middle" x="754" y="-138" font-family="Helvetica,sans-Serif" font-size="10.00">BusIO_7Semi::write</text>
</a>
</g>
</g>
<!-- Node2&#45;&gt;Node4 -->
<g id="edge4_Node000002_Node000004" class="edge">
<title>Node2&#45;&gt;Node4</title>
<g id="a_edge4_Node000002_Node000004"><a xlink:title=" ">
<path fill="none" stroke="#63b8ff" d="M454.53,-285.27C515.3,-287.32 598.11,-282.18 662,-248.5 700.49,-228.21 729.34,-184.16 743.42,-159.04"/>
<polygon fill="#63b8ff" stroke="#63b8ff" points="746.56,-160.59 748.24,-150.13 740.4,-157.26 746.56,-160.59"/>
</a>
</g>
</g>
<!-- Node3&#45;&gt;Node4 -->
<g id="edge3_Node000003_Node000004" class="edge">
<title>Node3&#45;&gt;Node4</title>
<g id="a_edge3_Node000003_Node000004"><a xlink:title=" ">
<path fill="none" stroke="#63b8ff" d="M662.18,-130.55C670.75,-131.49 679.36,-132.44 687.7,-133.35"/>
<polygon fill="#63b8ff" stroke="#63b8ff" points="687.38,-136.83 697.7,-134.44 688.14,-129.88 687.38,-136.83"/>
</a>
</g>
</g>
<!-- Node5&#45;&gt;Node2 -->
<g id="edge6_Node000005_Node000002" class="edge">
<title>Node5&#45;&gt;Node2</title>
<g id="a_edge6_Node000005_Node000002"><a xlink:title=" ">
<path fill="none" stroke="#63b8ff" d="M172.4,-150.01C190.12,-170.76 235.22,-220.48 283,-248.5 289.42,-252.27 296.4,-255.62 303.51,-258.6"/>
<polygon fill="#63b8ff" stroke="#63b8ff" points="302.68,-262.03 313.26,-262.41 305.23,-255.51 302.68,-262.03"/>
</a>
</g>
</g>
<!-- Node5&#45;&gt;Node3 -->
<g id="edge11_Node000005_Node000003" class="edge">
<title>Node5&#45;&gt;Node3</title>
<g id="a_edge11_Node000005_Node000003"><a xlink:title=" ">
<path fill="none" stroke="#63b8ff" d="M241.21,-136.97C310.06,-133.8 411.27,-129.15 484.66,-125.77"/>
<polygon fill="#63b8ff" stroke="#63b8ff" points="484.99,-129.26 494.82,-125.3 484.67,-122.27 484.99,-129.26"/>
</a>
</g>
</g>
<!-- Node5&#45;&gt;Node4 -->
<g id="edge15_Node000005_Node000004" class="edge">
<title>Node5&#45;&gt;Node4</title>
<g id="a_edge15_Node000005_Node000004"><a xlink:title=" ">
<path fill="none" stroke="#63b8ff" d="M239.45,-150.08C242.07,-151.39 244.6,-152.86 247,-154.5 272.68,-172.04 255.94,-199.18 283,-214.5 434,-299.99 653.66,-195.35 727.62,-155.05"/>
<polygon fill="#63b8ff" stroke="#63b8ff" points="729.63,-157.94 736.68,-150.03 726.24,-151.81 729.63,-157.94"/>
</a>
</g>
</g>
<!-- Node6 -->
<g id="Node000006" class="node">
<title>Node6</title>
<g id="a_Node000006"><a xlink:href="classSPI__Interface.html#a24b5d68ff8da5578f56ee571d86ab289" target="_top" xlink:title=" ">
<polygon fill="white" stroke="#666666" points="435,-206 307,-206 307,-187 435,-187 435,-206"/>
<text text-anchor="middle" x="371" y="-194" font-family="Helvetica,sans-Serif" font-size="10.00">SPI_Interface::beginSPI</text>
</a>
</g>
</g>
<!-- Node5&#45;&gt;Node6 -->
<g id="edge7_Node000005_Node000006" class="edge">
<title>Node5&#45;&gt;Node6</title>
<g id="a_edge7_Node000005_Node000006"><a xlink:title=" ">
<path fill="none" stroke="#63b8ff" d="M192.55,-150.02C216.44,-157.94 251.75,-169.23 283,-177.5 292.64,-180.05 302.94,-182.52 312.97,-184.8"/>
<polygon fill="#63b8ff" stroke="#63b8ff" points="312.34,-188.24 322.86,-186.99 313.86,-181.41 312.34,-188.24"/>
</a>
</g>
</g>
<!-- Node7 -->
<g id="Node000007" class="node">
<title>Node7</title>
<g id="a_Node000007"><a xlink:href="classDevLab__ICM20948.html#a8bef7eafb3b67eb736f491d0df453b9e" target="_top" xlink:title=" ">
<polygon fill="white" stroke="#666666" points="459,-93 283,-93 283,-74 459,-74 459,-93"/>
<text text-anchor="middle" x="371" y="-81" font-family="Helvetica,sans-Serif" font-size="10.00">DevLab_ICM20948::readWhoAmI</text>
</a>
</g>
</g>
<!-- Node5&#45;&gt;Node7 -->
<g id="edge8_Node000005_Node000007" class="edge">
<title>Node5&#45;&gt;Node7</title>
<g id="a_edge8_Node000005_Node000007"><a xlink:title=" ">
<path fill="none" stroke="#63b8ff" d="M198.72,-130.95C222.38,-124.35 254.6,-115.37 283,-107.5 296.85,-103.66 311.95,-99.49 325.62,-95.72"/>
<polygon fill="#63b8ff" stroke="#63b8ff" points="326.57,-99.09 335.28,-93.06 324.71,-92.34 326.57,-99.09"/>
</a>
</g>
</g>
<!-- Node9 -->
<g id="Node000009" class="node">
<title>Node9</title>
<g id="a_Node000009"><a xlink:href="classDevLab__ICM20948.html#a0d6774b76298645ee45ec0e9065a8891" target="_top" xlink:title=" ">
<polygon fill="white" stroke="#666666" points="450.5,-169 291.5,-169 291.5,-150 450.5,-150 450.5,-169"/>
<text text-anchor="middle" x="371" y="-157" font-family="Helvetica,sans-Serif" font-size="10.00">DevLab_ICM20948::softReset</text>
</a>
</g>
</g>
<!-- Node5&#45;&gt;Node9 -->
<g id="edge12_Node000005_Node000009" class="edge">
<title>Node5&#45;&gt;Node9</title>
<g id="a_edge12_Node000005_Node000009"><a xlink:title=" ">
<path fill="none" stroke="#63b8ff" d="M241.02,-147.57C254.12,-148.79 267.82,-150.05 281.2,-151.29"/>
<polygon fill="#63b8ff" stroke="#63b8ff" points="281.08,-154.79 291.36,-152.23 281.72,-147.82 281.08,-154.79"/>
</a>
</g>
</g>
<!-- Node10 -->
<g id="Node000010" class="node">
<title>Node10</title>
<g id="a_Node000010"><a xlink:href="classBusIO__7Semi.html#ac7b3d1c425f7187abbe1bbec64d9ccea" target="_top" xlink:title=" ">
<polygon fill="white" stroke="#666666" points="433.5,-56 308.5,-56 308.5,-37 433.5,-37 433.5,-56"/>
<text text-anchor="middle" x="371" y="-44" font-family="Helvetica,sans-Serif" font-size="10.00">BusIO_7Semi::writeBit</text>
</a>
</g>
</g>
<!-- Node5&#45;&gt;Node10 -->
<g id="edge16_Node000005_Node000010" class="edge">
<title>Node5&#45;&gt;Node10</title>
<g id="a_edge16_Node000005_Node000010"><a xlink:title=" ">
<path fill="none" stroke="#63b8ff" d="M176.14,-130.93C196.49,-114.7 240.45,-81.85 283,-64.5 288.18,-62.39 293.63,-60.52 299.18,-58.85"/>
<polygon fill="#63b8ff" stroke="#63b8ff" points="300.53,-62.11 309.24,-56.09 298.67,-55.36 300.53,-62.11"/>
</a>
</g>
</g>
<!-- Node7&#45;&gt;Node3 -->
<g id="edge10_Node000007_Node000003" class="edge">
<title>Node7&#45;&gt;Node3</title>
<g id="a_edge10_Node000007_Node000003"><a xlink:title=" ">
<path fill="none" stroke="#63b8ff" d="M423.59,-93.04C451.56,-98.21 486.32,-104.64 515.73,-110.08"/>
<polygon fill="#63b8ff" stroke="#63b8ff" points="515.42,-113.58 525.89,-111.96 516.69,-106.7 515.42,-113.58"/>
</a>
</g>
</g>
<!-- Node8 -->
<g id="Node000008" class="node">
<title>Node8</title>
<g id="a_Node000008"><a xlink:href="classBusIO__7Semi.html#a933c66d9a1afe84102323e209a93dd31" target="_top" xlink:title=" ">
<polygon fill="white" stroke="#666666" points="808.5,-75 699.5,-75 699.5,-56 808.5,-56 808.5,-75"/>
<text text-anchor="middle" x="754" y="-63" font-family="Helvetica,sans-Serif" font-size="10.00">BusIO_7Semi::read</text>
</a>
</g>
</g>
<!-- Node7&#45;&gt;Node8 -->
<g id="edge9_Node000007_Node000008" class="edge">
<title>Node7&#45;&gt;Node8</title>
<g id="a_edge9_Node000007_Node000008"><a xlink:title=" ">
<path fill="none" stroke="#63b8ff" d="M425.4,-73.96C446.94,-70.56 472.08,-67.17 495,-65.5 560.96,-60.7 636.66,-61.44 688.93,-62.92"/>
<polygon fill="#63b8ff" stroke="#63b8ff" points="688.95,-66.42 699.06,-63.23 689.17,-59.43 688.95,-66.42"/>
</a>
</g>
</g>
<!-- Node9&#45;&gt;Node3 -->
<g id="edge13_Node000009_Node000003" class="edge">
<title>Node9&#45;&gt;Node3</title>
<g id="a_edge13_Node000009_Node000003"><a xlink:title=" ">
<path fill="none" stroke="#63b8ff" d="M423.59,-149.96C451.56,-144.79 486.32,-138.36 515.73,-132.92"/>
<polygon fill="#63b8ff" stroke="#63b8ff" points="516.69,-136.3 525.89,-131.04 515.42,-129.42 516.69,-136.3"/>
</a>
</g>
</g>
<!-- Node9&#45;&gt;Node4 -->
<g id="edge14_Node000009_Node000004" class="edge">
<title>Node9&#45;&gt;Node4</title>
<g id="a_edge14_Node000009_Node000004"><a xlink:title=" ">
<path fill="none" stroke="#63b8ff" d="M450.94,-155.56C520.98,-152.07 622.07,-147.03 687.66,-143.76"/>
<polygon fill="#63b8ff" stroke="#63b8ff" points="688.05,-147.24 697.87,-143.25 687.71,-140.25 688.05,-147.24"/>
</a>
</g>
</g>
<!-- Node11 -->
<g id="Node000011" class="node">
<title>Node11</title>
<g id="a_Node000011"><a xlink:href="classBusIO__7Semi.html#a855c7388d4118e632c84c7f8e2e3ddc2" target="_top" xlink:title=" ">
<polygon fill="white" stroke="#666666" points="644,-94 513,-94 513,-75 644,-75 644,-94"/>
<text text-anchor="middle" x="578.5" y="-82" font-family="Helvetica,sans-Serif" font-size="10.00">BusIO_7Semi::writeBits</text>
</a>
</g>
</g>
<!-- Node10&#45;&gt;Node11 -->
<g id="edge17_Node000010_Node000011" class="edge">
<title>Node10&#45;&gt;Node11</title>
<g id="a_edge17_Node000010_Node000011"><a xlink:title=" ">
<path fill="none" stroke="#63b8ff" d="M423.59,-56.04C451.56,-61.21 486.32,-67.64 515.73,-73.08"/>
<polygon fill="#63b8ff" stroke="#63b8ff" points="515.42,-76.58 525.89,-74.96 516.69,-69.7 515.42,-76.58"/>
</a>
</g>
</g>
<!-- Node11&#45;&gt;Node4 -->
<g id="edge19_Node000011_Node000004" class="edge">
<title>Node11&#45;&gt;Node4</title>
<g id="a_edge19_Node000011_Node000004"><a xlink:title=" ">
<path fill="none" stroke="#63b8ff" d="M630.05,-94.01C640.7,-96.44 651.79,-99.28 662,-102.5 683.22,-109.18 706.34,-118.87 723.97,-126.79"/>
<polygon fill="#63b8ff" stroke="#63b8ff" points="722.6,-130.02 733.15,-130.98 725.5,-123.65 722.6,-130.02"/>
</a>
</g>
</g>
<!-- Node11&#45;&gt;Node8 -->
<g id="edge18_Node000011_Node000008" class="edge">
<title>Node11&#45;&gt;Node8</title>
<g id="a_edge18_Node000011_Node000008"><a xlink:title=" ">
<path fill="none" stroke="#63b8ff" d="M644.1,-77.43C658.9,-75.8 674.62,-74.08 689.37,-72.47"/>
<polygon fill="#63b8ff" stroke="#63b8ff" points="689.85,-75.94 699.41,-71.37 689.08,-68.98 689.85,-75.94"/>
</a>
</g>
</g>
<!-- Node12&#45;&gt;Node3 -->
<g id="edge21_Node000012_Node000003" class="edge">
<title>Node12&#45;&gt;Node3</title>
<g id="a_edge21_Node000012_Node000003"><a xlink:title=" ">
<path fill="none" stroke="#63b8ff" d="M211.22,-36.99C283.69,-23.31 419,-2.33 459,-27.5 490.29,-47.19 466.13,-79.4 495,-102.5 497.11,-104.19 499.34,-105.73 501.66,-107.14"/>
<polygon fill="#63b8ff" stroke="#63b8ff" points="500.54,-110.5 511.04,-111.95 503.74,-104.27 500.54,-110.5"/>
</a>
</g>
</g>
<!-- Node12&#45;&gt;Node4 -->
<g id="edge22_Node000012_Node000004" class="edge">
<title>Node12&#45;&gt;Node4</title>
<g id="a_edge22_Node000012_Node000004"><a xlink:title=" ">
<path fill="none" stroke="#63b8ff" d="M212.42,-36.9C223.86,-34.22 235.94,-31.05 247,-27.5 263.5,-22.2 266,-15.9 283,-12.5 359.7,2.84 381.41,-2.54 459,-12.5 551.49,-24.37 578.96,-23.07 662,-65.5 691.3,-80.47 719.67,-106.2 736.74,-123.28"/>
<polygon fill="#63b8ff" stroke="#63b8ff" points="734.67,-126.18 744.16,-130.89 739.68,-121.29 734.67,-126.18"/>
</a>
</g>
</g>
<!-- Node12&#45;&gt;Node10 -->
<g id="edge23_Node000012_Node000010" class="edge">
<title>Node12&#45;&gt;Node10</title>
<g id="a_edge23_Node000012_Node000010"><a xlink:title=" ">
<path fill="none" stroke="#63b8ff" d="M247.2,-46.5C264.1,-46.5 281.75,-46.5 298.24,-46.5"/>
<polygon fill="#63b8ff" stroke="#63b8ff" points="298.33,-50 308.33,-46.5 298.33,-43 298.33,-50"/>
</a>
</g>
</g>
</g>
</svg>
