<?xml version="1.0" encoding="UTF-8" standalone="no"?>
<!DOCTYPE svg PUBLIC "-//W3C//DTD SVG 1.1//EN"
 "http://www.w3.org/Graphics/SVG/1.1/DTD/svg11.dtd">
<!-- Generated by graphviz version 2.43.0 (0)
 -->
<!-- Title: loop Pages: 1 -->
<svg width="630pt" height="101pt"
 viewBox="0.00 0.00 630.00 101.00" xmlns="http://www.w3.org/2000/svg" xmlns:xlink="http://www.w3.org/1999/xlink">
<g id="graph0" class="graph" transform="scale(1 1) rotate(0) translate(4 97)">
<title>loop</title>
<!-- Node1 -->
<g id="Node000001" class="node">
<title>Node1</title>
<g id="a_Node000001"><a xlink:title="Read and print accelerometer, gyroscope, and temperature data.">
<polygon fill="#999999" stroke="#666666" points="38,-56 0,-56 0,-37 38,-37 38,-56"/>
<text text-anchor="middle" x="19" y="-44" font-family="Helvetica,sans-Serif" font-size="10.00">loop</text>
</a>
</g>
</g>
<!-- Node2 -->
<g id="Node000002" class="node">
<title>Node2</title>
<g id="a_Node000002"><a xlink:href="classDevLab__ICM20948.html#a3b58edd0915cff118ca81daa6944a27b" target="_top" xlink:title=" ">
<polygon fill="white" stroke="#666666" points="253,-93 92,-93 92,-74 253,-74 253,-93"/>
<text text-anchor="middle" x="172.5" y="-81" font-family="Helvetica,sans-Serif" font-size="10.00">DevLab_ICM20948::readAccel</text>
</a>
</g>
</g>
<!-- Node1&#45;&gt;Node2 -->
<g id="edge1_Node000001_Node000002" class="edge">
<title>Node1&#45;&gt;Node2</title>
<g id="a_edge1_Node000001_Node000002"><a xlink:title=" ">
<path fill="none" stroke="#63b8ff" d="M38.27,-53.73C48.63,-57.62 61.9,-62.28 74,-65.5 82.86,-67.86 92.24,-70.02 101.56,-71.95"/>
<polygon fill="#63b8ff" stroke="#63b8ff" points="101.12,-75.43 111.62,-73.97 102.5,-68.57 101.12,-75.43"/>
</a>
</g>
</g>
<!-- Node6 -->
<g id="Node000006" class="node">
<title>Node6</title>
<g id="a_Node000006"><a xlink:href="classDevLab__ICM20948.html#a006c131f860f1fc81c587b3d8a77522d" target="_top" xlink:title=" ">
<polygon fill="white" stroke="#666666" points="251.5,-56 93.5,-56 93.5,-37 251.5,-37 251.5,-56"/>
<text text-anchor="middle" x="172.5" y="-44" font-family="Helvetica,sans-Serif" font-size="10.00">DevLab_ICM20948::readGyro</text>
</a>
</g>
</g>
<!-- Node1&#45;&gt;Node6 -->
<g id="edge5_Node000001_Node000006" class="edge">
<title>Node1&#45;&gt;Node6</title>
<g id="a_edge5_Node000001_Node000006"><a xlink:title=" ">
<path fill="none" stroke="#63b8ff" d="M38.27,-46.5C49.98,-46.5 66.14,-46.5 83.17,-46.5"/>
<polygon fill="#63b8ff" stroke="#63b8ff" points="83.27,-50 93.27,-46.5 83.27,-43 83.27,-50"/>
</a>
</g>
</g>
<!-- Node7 -->
<g id="Node000007" class="node">
<title>Node7</title>
<g id="a_Node000007"><a xlink:href="classDevLab__ICM20948.html#aa5c2ecd855cebb1934bbbe020128ab5e" target="_top" xlink:title=" ">
<polygon fill="white" stroke="#666666" points="271,-19 74,-19 74,0 271,0 271,-19"/>
<text text-anchor="middle" x="172.5" y="-7" font-family="Helvetica,sans-Serif" font-size="10.00">DevLab_ICM20948::readTemperature</text>
</a>
</g>
</g>
<!-- Node1&#45;&gt;Node7 -->
<g id="edge8_Node000001_Node000007" class="edge">
<title>Node1&#45;&gt;Node7</title>
<g id="a_edge8_Node000001_Node000007"><a xlink:title=" ">
<path fill="none" stroke="#63b8ff" d="M38.32,-39.74C48.69,-36.08 61.96,-31.67 74,-28.5 84.34,-25.78 95.4,-23.26 106.21,-21.01"/>
<polygon fill="#63b8ff" stroke="#63b8ff" points="106.94,-24.43 116.05,-19.02 105.55,-17.57 106.94,-24.43"/>
</a>
</g>
</g>
<!-- Node3 -->
<g id="Node000003" class="node">
<title>Node3</title>
<g id="a_Node000003"><a xlink:href="classBusIO__7Semi.html#a933c66d9a1afe84102323e209a93dd31" target="_top" xlink:title=" ">
<polygon fill="white" stroke="#666666" points="445,-74 336,-74 336,-55 445,-55 445,-74"/>
<text text-anchor="middle" x="390.5" y="-62" font-family="Helvetica,sans-Serif" font-size="10.00">BusIO_7Semi::read</text>
</a>
</g>
</g>
<!-- Node2&#45;&gt;Node3 -->
<g id="edge2_Node000002_Node000003" class="edge">
<title>Node2&#45;&gt;Node3</title>
<g id="a_edge2_Node000002_Node000003"><a xlink:title=" ">
<path fill="none" stroke="#63b8ff" d="M253.01,-76.51C276.9,-74.4 302.79,-72.13 325.54,-70.13"/>
<polygon fill="#63b8ff" stroke="#63b8ff" points="326.09,-73.59 335.75,-69.23 325.48,-66.62 326.09,-73.59"/>
</a>
</g>
</g>
<!-- Node4 -->
<g id="Node000004" class="node">
<title>Node4</title>
<g id="a_Node000004"><a xlink:href="classDevLab__ICM20948.html#aaa26fcbfea0e67d45cb1c3ae39654c55" target="_top" xlink:title=" ">
<polygon fill="white" stroke="#666666" points="474,-37 307,-37 307,-18 474,-18 474,-37"/>
<text text-anchor="middle" x="390.5" y="-25" font-family="Helvetica,sans-Serif" font-size="10.00">DevLab_ICM20948::selectBank</text>
</a>
</g>
</g>
<!-- Node2&#45;&gt;Node4 -->
<g id="edge3_Node000002_Node000004" class="edge">
<title>Node2&#45;&gt;Node4</title>
<g id="a_edge3_Node000002_Node000004"><a xlink:title=" ">
<path fill="none" stroke="#63b8ff" d="M240.29,-73.96C250.7,-71.67 261.24,-68.89 271,-65.5 288.09,-59.57 290.04,-52.81 307,-46.5 313.99,-43.9 321.46,-41.58 328.93,-39.54"/>
<polygon fill="#63b8ff" stroke="#63b8ff" points="329.91,-42.9 338.72,-37.01 328.16,-36.13 329.91,-42.9"/>
</a>
</g>
</g>
<!-- Node5 -->
<g id="Node000005" class="node">
<title>Node5</title>
<g id="a_Node000005"><a xlink:href="classBusIO__7Semi.html#aa633479356af692cb9ea334771b7c0c5" target="_top" xlink:title=" ">
<polygon fill="white" stroke="#666666" points="622,-37 510,-37 510,-18 622,-18 622,-37"/>
<text text-anchor="middle" x="566" y="-25" font-family="Helvetica,sans-Serif" font-size="10.00">BusIO_7Semi::write</text>
</a>
</g>
</g>
<!-- Node4&#45;&gt;Node5 -->
<g id="edge4_Node000004_Node000005" class="edge">
<title>Node4&#45;&gt;Node5</title>
<g id="a_edge4_Node000004_Node000005"><a xlink:title=" ">
<path fill="none" stroke="#63b8ff" d="M474.18,-27.5C482.75,-27.5 491.36,-27.5 499.7,-27.5"/>
<polygon fill="#63b8ff" stroke="#63b8ff" points="499.7,-31 509.7,-27.5 499.7,-24 499.7,-31"/>
</a>
</g>
</g>
<!-- Node6&#45;&gt;Node3 -->
<g id="edge6_Node000006_Node000003" class="edge">
<title>Node6&#45;&gt;Node3</title>
<g id="a_edge6_Node000006_Node000003"><a xlink:title=" ">
<path fill="none" stroke="#63b8ff" d="M251.79,-53.02C276.08,-55.05 302.55,-57.25 325.73,-59.19"/>
<polygon fill="#63b8ff" stroke="#63b8ff" points="325.53,-62.68 335.79,-60.02 326.12,-55.71 325.53,-62.68"/>
</a>
</g>
</g>
<!-- Node6&#45;&gt;Node4 -->
<g id="edge7_Node000006_Node000004" class="edge">
<title>Node6&#45;&gt;Node4</title>
<g id="a_edge7_Node000006_Node000004"><a xlink:title=" ">
<path fill="none" stroke="#63b8ff" d="M251.79,-39.61C266.3,-38.34 281.6,-36.99 296.51,-35.68"/>
<polygon fill="#63b8ff" stroke="#63b8ff" points="297.09,-39.14 306.75,-34.78 296.48,-32.17 297.09,-39.14"/>
</a>
</g>
</g>
<!-- Node7&#45;&gt;Node3 -->
<g id="edge9_Node000007_Node000003" class="edge">
<title>Node7&#45;&gt;Node3</title>
<g id="a_edge9_Node000007_Node000003"><a xlink:title=" ">
<path fill="none" stroke="#63b8ff" d="M235.8,-19.02C247.64,-21.56 259.82,-24.69 271,-28.5 287.93,-34.26 290.13,-40.55 307,-46.5 313.22,-48.7 319.81,-50.68 326.44,-52.45"/>
<polygon fill="#63b8ff" stroke="#63b8ff" points="325.59,-55.84 336.14,-54.9 327.3,-49.06 325.59,-55.84"/>
</a>
</g>
</g>
<!-- Node7&#45;&gt;Node4 -->
<g id="edge10_Node000007_Node000004" class="edge">
<title>Node7&#45;&gt;Node4</title>
<g id="a_edge10_Node000007_Node000004"><a xlink:title=" ">
<path fill="none" stroke="#63b8ff" d="M271.07,-17.63C279.67,-18.35 288.36,-19.07 296.91,-19.78"/>
<polygon fill="#63b8ff" stroke="#63b8ff" points="296.63,-23.27 306.88,-20.62 297.21,-16.3 296.63,-23.27"/>
</a>
</g>
</g>
</g>
</svg>
