<?xml version="1.0" encoding="UTF-8" standalone="no"?>
<!DOCTYPE svg PUBLIC "-//W3C//DTD SVG 1.1//EN"
 "http://www.w3.org/Graphics/SVG/1.1/DTD/svg11.dtd">
<!-- Generated by graphviz version 2.43.0 (0)
 -->
<!-- Title: setup Pages: 1 -->
<svg width="818pt" height="369pt"
 viewBox="0.00 0.00 818.00 368.74" xmlns="http://www.w3.org/2000/svg" xmlns:xlink="http://www.w3.org/1999/xlink">
<g id="graph0" class="graph" transform="scale(1 1) rotate(0) translate(4 364.74)">
<title>setup</title>
<!-- Node1 -->
<g id="Node000001" class="node">
<title>Node1</title>
<g id="a_Node000001"><a xlink:title="Configure the IMU for accelerometer&#45;only operation over SPI.">
<polygon fill="#999999" stroke="#666666" points="44,-172.74 0,-172.74 0,-153.74 44,-153.74 44,-172.74"/>
<text text-anchor="middle" x="22" y="-160.74" font-family="Helvetica,sans-Serif" font-size="10.00">setup</text>
</a>
</g>
</g>
<!-- Node2 -->
<g id="Node000002" class="node">
<title>Node2</title>
<g id="a_Node000002"><a xlink:href="classDevLab__ICM20948.html#a4386f310503153f3e28935cbdda75b18" target="_top" xlink:title=" ">
<polygon fill="white" stroke="#666666" points="241,-172.74 86,-172.74 86,-153.74 241,-153.74 241,-172.74"/>
<text text-anchor="middle" x="163.5" y="-160.74" font-family="Helvetica,sans-Serif" font-size="10.00">DevLab_ICM20948::beginSPI</text>
</a>
</g>
</g>
<!-- Node1&#45;&gt;Node2 -->
<g id="edge1_Node000001_Node000002" class="edge">
<title>Node1&#45;&gt;Node2</title>
<g id="a_edge1_Node000001_Node000002"><a xlink:title=" ">
<path fill="none" stroke="#63b8ff" d="M44.19,-163.24C53.03,-163.24 63.94,-163.24 75.53,-163.24"/>
<polygon fill="#63b8ff" stroke="#63b8ff" points="75.85,-166.74 85.85,-163.24 75.85,-159.74 75.85,-166.74"/>
</a>
</g>
</g>
<!-- Node12 -->
<g id="Node000012" class="node">
<title>Node12</title>
<g id="a_Node000012"><a xlink:href="classDevLab__ICM20948.html#ae9c088334d6ec706bb08b47ef29bd186" target="_top" xlink:title=" ">
<polygon fill="white" stroke="#666666" points="247,-284.74 80,-284.74 80,-265.74 247,-265.74 247,-284.74"/>
<text text-anchor="middle" x="163.5" y="-272.74" font-family="Helvetica,sans-Serif" font-size="10.00">DevLab_ICM20948::setSensors</text>
</a>
</g>
</g>
<!-- Node1&#45;&gt;Node12 -->
<g id="edge19_Node000001_Node000012" class="edge">
<title>Node1&#45;&gt;Node12</title>
<g id="a_edge19_Node000001_Node000012"><a xlink:title=" ">
<path fill="none" stroke="#63b8ff" d="M34.89,-172.79C58.88,-192.05 113.27,-235.72 142.7,-259.35"/>
<polygon fill="#63b8ff" stroke="#63b8ff" points="140.65,-262.18 150.64,-265.71 145.03,-256.72 140.65,-262.18"/>
</a>
</g>
</g>
<!-- Node13 -->
<g id="Node000013" class="node">
<title>Node13</title>
<g id="a_Node000013"><a xlink:href="spi__accel_8ino.html#a5f08ba3a5b3d8e5b3fa5a22429ecfa2b" target="_top" xlink:title="SPI bus object used by the IMU driver.">
<polygon fill="white" stroke="#666666" points="190,-135.74 137,-135.74 137,-116.74 190,-116.74 190,-135.74"/>
<text text-anchor="middle" x="163.5" y="-123.74" font-family="Helvetica,sans-Serif" font-size="10.00">spi_bus</text>
</a>
</g>
</g>
<!-- Node1&#45;&gt;Node13 -->
<g id="edge23_Node000001_Node000013" class="edge">
<title>Node1&#45;&gt;Node13</title>
<g id="a_edge23_Node000001_Node000013"><a xlink:title=" ">
<path fill="none" stroke="#63b8ff" d="M44.26,-156.08C54.93,-152.6 68.09,-148.49 80,-145.24 95.18,-141.1 112.08,-137.1 126.62,-133.85"/>
<polygon fill="#63b8ff" stroke="#63b8ff" points="127.72,-137.19 136.73,-131.62 126.21,-130.36 127.72,-137.19"/>
</a>
</g>
</g>
<!-- Node3 -->
<g id="Node000003" class="node">
<title>Node3</title>
<g id="a_Node000003"><a xlink:href="classDevLab__ICM20948.html#a31460c48549b1d3081e253706f8b15e6" target="_top" xlink:title=" ">
<polygon fill="white" stroke="#666666" points="454.5,-78.24 287.5,-78.24 287.5,-48.24 454.5,-48.24 454.5,-78.24"/>
<text text-anchor="start" x="295.5" y="-66.24" font-family="Helvetica,sans-Serif" font-size="10.00">DevLab_ICM20948::applyBasic</text>
<text text-anchor="middle" x="371" y="-55.24" font-family="Helvetica,sans-Serif" font-size="10.00">Defaults</text>
</a>
</g>
</g>
<!-- Node2&#45;&gt;Node3 -->
<g id="edge2_Node000002_Node000003" class="edge">
<title>Node2&#45;&gt;Node3</title>
<g id="a_edge2_Node000002_Node000003"><a xlink:title=" ">
<path fill="none" stroke="#63b8ff" d="M231.33,-153.61C236.88,-151.36 242.2,-148.6 247,-145.24 271.54,-128.05 259.03,-106.22 283,-88.24 285.5,-86.37 288.13,-84.63 290.86,-83.03"/>
<polygon fill="#63b8ff" stroke="#63b8ff" points="292.63,-86.06 299.89,-78.34 289.4,-79.85 292.63,-86.06"/>
</a>
</g>
</g>
<!-- Node4 -->
<g id="Node000004" class="node">
<title>Node4</title>
<g id="a_Node000004"><a xlink:href="classDevLab__ICM20948.html#aaa26fcbfea0e67d45cb1c3ae39654c55" target="_top" xlink:title=" ">
<polygon fill="white" stroke="#666666" points="662,-153.74 495,-153.74 495,-134.74 662,-134.74 662,-153.74"/>
<text text-anchor="middle" x="578.5" y="-141.74" font-family="Helvetica,sans-Serif" font-size="10.00">DevLab_ICM20948::selectBank</text>
</a>
</g>
</g>
<!-- Node2&#45;&gt;Node4 -->
<g id="edge10_Node000002_Node000004" class="edge">
<title>Node2&#45;&gt;Node4</title>
<g id="a_edge10_Node000002_Node000004"><a xlink:title=" ">
<path fill="none" stroke="#63b8ff" d="M241.21,-159.71C310.06,-156.54 411.27,-151.89 484.66,-148.51"/>
<polygon fill="#63b8ff" stroke="#63b8ff" points="484.99,-152 494.82,-148.04 484.67,-145.01 484.99,-152"/>
</a>
</g>
</g>
<!-- Node5 -->
<g id="Node000005" class="node">
<title>Node5</title>
<g id="a_Node000005"><a xlink:href="classBusIO__7Semi.html#aa633479356af692cb9ea334771b7c0c5" target="_top" xlink:title=" ">
<polygon fill="white" stroke="#666666" points="810,-134.74 698,-134.74 698,-115.74 810,-115.74 810,-134.74"/>
<text text-anchor="middle" x="754" y="-122.74" font-family="Helvetica,sans-Serif" font-size="10.00">BusIO_7Semi::write</text>
</a>
</g>
</g>
<!-- Node2&#45;&gt;Node5 -->
<g id="edge14_Node000002_Node000005" class="edge">
<title>Node2&#45;&gt;Node5</title>
<g id="a_edge14_Node000002_Node000005"><a xlink:title=" ">
<path fill="none" stroke="#63b8ff" d="M234.63,-153.6C239.1,-151.32 243.28,-148.56 247,-145.24 284.11,-112.09 242.56,-68.22 283,-39.24 426.88,63.85 657.43,-64.65 730.21,-110.31"/>
<polygon fill="#63b8ff" stroke="#63b8ff" points="728.35,-113.27 738.67,-115.68 732.11,-107.36 728.35,-113.27"/>
</a>
</g>
</g>
<!-- Node6 -->
<g id="Node000006" class="node">
<title>Node6</title>
<g id="a_Node000006"><a xlink:href="classSPI__Interface.html#a24b5d68ff8da5578f56ee571d86ab289" target="_top" xlink:title=" ">
<polygon fill="white" stroke="#666666" points="435,-191.74 307,-191.74 307,-172.74 435,-172.74 435,-191.74"/>
<text text-anchor="middle" x="371" y="-179.74" font-family="Helvetica,sans-Serif" font-size="10.00">SPI_Interface::beginSPI</text>
</a>
</g>
</g>
<!-- Node2&#45;&gt;Node6 -->
<g id="edge6_Node000002_Node000006" class="edge">
<title>Node2&#45;&gt;Node6</title>
<g id="a_edge6_Node000002_Node000006"><a xlink:title=" ">
<path fill="none" stroke="#63b8ff" d="M241.02,-170.31C259.23,-172 278.62,-173.79 296.68,-175.46"/>
<polygon fill="#63b8ff" stroke="#63b8ff" points="296.57,-178.96 306.85,-176.4 297.22,-171.99 296.57,-178.96"/>
</a>
</g>
</g>
<!-- Node7 -->
<g id="Node000007" class="node">
<title>Node7</title>
<g id="a_Node000007"><a xlink:href="classDevLab__ICM20948.html#a8bef7eafb3b67eb736f491d0df453b9e" target="_top" xlink:title=" ">
<polygon fill="white" stroke="#666666" points="459,-228.74 283,-228.74 283,-209.74 459,-209.74 459,-228.74"/>
<text text-anchor="middle" x="371" y="-216.74" font-family="Helvetica,sans-Serif" font-size="10.00">DevLab_ICM20948::readWhoAmI</text>
</a>
</g>
</g>
<!-- Node2&#45;&gt;Node7 -->
<g id="edge7_Node000002_Node000007" class="edge">
<title>Node2&#45;&gt;Node7</title>
<g id="a_edge7_Node000002_Node000007"><a xlink:title=" ">
<path fill="none" stroke="#63b8ff" d="M191.56,-172.82C215.42,-181.06 251.24,-192.89 283,-201.24 291.45,-203.46 300.43,-205.58 309.28,-207.54"/>
<polygon fill="#63b8ff" stroke="#63b8ff" points="308.67,-210.99 319.18,-209.67 310.14,-204.14 308.67,-210.99"/>
</a>
</g>
</g>
<!-- Node9 -->
<g id="Node000009" class="node">
<title>Node9</title>
<g id="a_Node000009"><a xlink:href="classDevLab__ICM20948.html#a0d6774b76298645ee45ec0e9065a8891" target="_top" xlink:title=" ">
<polygon fill="white" stroke="#666666" points="450.5,-115.74 291.5,-115.74 291.5,-96.74 450.5,-96.74 450.5,-115.74"/>
<text text-anchor="middle" x="371" y="-103.74" font-family="Helvetica,sans-Serif" font-size="10.00">DevLab_ICM20948::softReset</text>
</a>
</g>
</g>
<!-- Node2&#45;&gt;Node9 -->
<g id="edge11_Node000002_Node000009" class="edge">
<title>Node2&#45;&gt;Node9</title>
<g id="a_edge11_Node000002_Node000009"><a xlink:title=" ">
<path fill="none" stroke="#63b8ff" d="M215.05,-153.72C225.7,-151.29 236.79,-148.45 247,-145.24 263.53,-140.04 266.61,-135.89 283,-130.24 295.27,-126.01 308.71,-122 321.28,-118.52"/>
<polygon fill="#63b8ff" stroke="#63b8ff" points="322.4,-121.84 331.14,-115.84 320.57,-115.09 322.4,-121.84"/>
</a>
</g>
</g>
<!-- Node10 -->
<g id="Node000010" class="node">
<title>Node10</title>
<g id="a_Node000010"><a xlink:href="classBusIO__7Semi.html#ac7b3d1c425f7187abbe1bbec64d9ccea" target="_top" xlink:title=" ">
<polygon fill="white" stroke="#666666" points="433.5,-265.74 308.5,-265.74 308.5,-246.74 433.5,-246.74 433.5,-265.74"/>
<text text-anchor="middle" x="371" y="-253.74" font-family="Helvetica,sans-Serif" font-size="10.00">BusIO_7Semi::writeBit</text>
</a>
</g>
</g>
<!-- Node2&#45;&gt;Node10 -->
<g id="edge15_Node000002_Node000010" class="edge">
<title>Node2&#45;&gt;Node10</title>
<g id="a_edge15_Node000002_Node000010"><a xlink:title=" ">
<path fill="none" stroke="#63b8ff" d="M176.49,-172.93C197.02,-189.02 240.79,-221.18 283,-238.24 288.4,-240.42 294.11,-242.36 299.91,-244.06"/>
<polygon fill="#63b8ff" stroke="#63b8ff" points="299.15,-247.48 309.72,-246.73 300.99,-240.73 299.15,-247.48"/>
</a>
</g>
</g>
<!-- Node3&#45;&gt;Node4 -->
<g id="edge3_Node000003_Node000004" class="edge">
<title>Node3&#45;&gt;Node4</title>
<g id="a_edge3_Node000003_Node000004"><a xlink:title=" ">
<path fill="none" stroke="#63b8ff" d="M429.53,-78.34C439.45,-81.35 449.59,-84.69 459,-88.24 491.19,-100.38 526.68,-117.71 550.35,-129.87"/>
<polygon fill="#63b8ff" stroke="#63b8ff" points="548.94,-133.07 559.43,-134.57 552.16,-126.86 548.94,-133.07"/>
</a>
</g>
</g>
<!-- Node3&#45;&gt;Node5 -->
<g id="edge5_Node000003_Node000005" class="edge">
<title>Node3&#45;&gt;Node5</title>
<g id="a_edge5_Node000003_Node000005"><a xlink:title=" ">
<path fill="none" stroke="#63b8ff" d="M454.61,-75.37C512.7,-84.06 592.19,-96.31 662,-108.24 672.2,-109.98 683.04,-111.93 693.53,-113.86"/>
<polygon fill="#63b8ff" stroke="#63b8ff" points="692.99,-117.32 703.46,-115.7 694.27,-110.43 692.99,-117.32"/>
</a>
</g>
</g>
<!-- Node4&#45;&gt;Node5 -->
<g id="edge4_Node000004_Node000005" class="edge">
<title>Node4&#45;&gt;Node5</title>
<g id="a_edge4_Node000004_Node000005"><a xlink:title=" ">
<path fill="none" stroke="#63b8ff" d="M662.18,-135.18C670.75,-134.25 679.36,-133.3 687.7,-132.39"/>
<polygon fill="#63b8ff" stroke="#63b8ff" points="688.14,-135.86 697.7,-131.29 687.38,-128.9 688.14,-135.86"/>
</a>
</g>
</g>
<!-- Node7&#45;&gt;Node4 -->
<g id="edge9_Node000007_Node000004" class="edge">
<title>Node7&#45;&gt;Node4</title>
<g id="a_edge9_Node000007_Node000004"><a xlink:title=" ">
<path fill="none" stroke="#63b8ff" d="M428.23,-209.71C438.59,-207.36 449.21,-204.55 459,-201.24 492.26,-189.99 528.33,-171.68 551.83,-158.86"/>
<polygon fill="#63b8ff" stroke="#63b8ff" points="553.73,-161.81 560.78,-153.9 550.34,-155.68 553.73,-161.81"/>
</a>
</g>
</g>
<!-- Node8 -->
<g id="Node000008" class="node">
<title>Node8</title>
<g id="a_Node000008"><a xlink:href="classBusIO__7Semi.html#a933c66d9a1afe84102323e209a93dd31" target="_top" xlink:title=" ">
<polygon fill="white" stroke="#666666" points="808.5,-303.74 699.5,-303.74 699.5,-284.74 808.5,-284.74 808.5,-303.74"/>
<text text-anchor="middle" x="754" y="-291.74" font-family="Helvetica,sans-Serif" font-size="10.00">BusIO_7Semi::read</text>
</a>
</g>
</g>
<!-- Node7&#45;&gt;Node8 -->
<g id="edge8_Node000007_Node000008" class="edge">
<title>Node7&#45;&gt;Node8</title>
<g id="a_edge8_Node000007_Node000008"><a xlink:title=" ">
<path fill="none" stroke="#63b8ff" d="M420.64,-228.81C490.57,-242.58 619.35,-267.93 694.42,-282.71"/>
<polygon fill="#63b8ff" stroke="#63b8ff" points="694.16,-286.22 704.65,-284.72 695.51,-279.36 694.16,-286.22"/>
</a>
</g>
</g>
<!-- Node9&#45;&gt;Node4 -->
<g id="edge12_Node000009_Node000004" class="edge">
<title>Node9&#45;&gt;Node4</title>
<g id="a_edge12_Node000009_Node000004"><a xlink:title=" ">
<path fill="none" stroke="#63b8ff" d="M423.59,-115.78C451.56,-120.95 486.32,-127.38 515.73,-132.82"/>
<polygon fill="#63b8ff" stroke="#63b8ff" points="515.42,-136.32 525.89,-134.7 516.69,-129.44 515.42,-136.32"/>
</a>
</g>
</g>
<!-- Node9&#45;&gt;Node5 -->
<g id="edge13_Node000009_Node000005" class="edge">
<title>Node9&#45;&gt;Node5</title>
<g id="a_edge13_Node000009_Node000005"><a xlink:title=" ">
<path fill="none" stroke="#63b8ff" d="M450.94,-110.18C520.98,-113.67 622.07,-118.71 687.66,-121.98"/>
<polygon fill="#63b8ff" stroke="#63b8ff" points="687.71,-125.49 697.87,-122.49 688.05,-118.5 687.71,-125.49"/>
</a>
</g>
</g>
<!-- Node11 -->
<g id="Node000011" class="node">
<title>Node11</title>
<g id="a_Node000011"><a xlink:href="classBusIO__7Semi.html#a855c7388d4118e632c84c7f8e2e3ddc2" target="_top" xlink:title=" ">
<polygon fill="white" stroke="#666666" points="644,-360.74 513,-360.74 513,-341.74 644,-341.74 644,-360.74"/>
<text text-anchor="middle" x="578.5" y="-348.74" font-family="Helvetica,sans-Serif" font-size="10.00">BusIO_7Semi::writeBits</text>
</a>
</g>
</g>
<!-- Node10&#45;&gt;Node11 -->
<g id="edge16_Node000010_Node000011" class="edge">
<title>Node10&#45;&gt;Node11</title>
<g id="a_edge16_Node000010_Node000011"><a xlink:title=" ">
<path fill="none" stroke="#63b8ff" d="M392.84,-265.87C429.47,-282.81 505.53,-317.97 547.71,-337.47"/>
<polygon fill="#63b8ff" stroke="#63b8ff" points="546.37,-340.7 556.92,-341.72 549.31,-334.35 546.37,-340.7"/>
</a>
</g>
</g>
<!-- Node11&#45;&gt;Node5 -->
<g id="edge18_Node000011_Node000005" class="edge">
<title>Node11&#45;&gt;Node5</title>
<g id="a_edge18_Node000011_Node000005"><a xlink:title=" ">
<path fill="none" stroke="#63b8ff" d="M636.52,-341.71C645.76,-338.28 654.68,-333.6 662,-327.24 691.43,-301.67 731.32,-189.9 746.65,-144.51"/>
<polygon fill="#63b8ff" stroke="#63b8ff" points="749.99,-145.54 749.84,-134.95 743.35,-143.32 749.99,-145.54"/>
</a>
</g>
</g>
<!-- Node11&#45;&gt;Node8 -->
<g id="edge17_Node000011_Node000008" class="edge">
<title>Node11&#45;&gt;Node8</title>
<g id="a_edge17_Node000011_Node000008"><a xlink:title=" ">
<path fill="none" stroke="#63b8ff" d="M614.17,-341.69C628.98,-337.48 646.4,-332.33 662,-327.24 680.83,-321.09 701.61,-313.61 718.56,-307.33"/>
<polygon fill="#63b8ff" stroke="#63b8ff" points="719.9,-310.56 728.04,-303.78 717.45,-304 719.9,-310.56"/>
</a>
</g>
</g>
<!-- Node12&#45;&gt;Node4 -->
<g id="edge20_Node000012_Node000004" class="edge">
<title>Node12&#45;&gt;Node4</title>
<g id="a_edge20_Node000012_Node000004"><a xlink:title=" ">
<path fill="none" stroke="#63b8ff" d="M203.26,-284.8C261.6,-297.15 374.18,-312.89 459,-275.24 511.13,-252.1 550.06,-193.44 567.45,-163.09"/>
<polygon fill="#63b8ff" stroke="#63b8ff" points="570.72,-164.41 572.51,-153.97 564.6,-161.01 570.72,-164.41"/>
</a>
</g>
</g>
<!-- Node12&#45;&gt;Node5 -->
<g id="edge21_Node000012_Node000005" class="edge">
<title>Node12&#45;&gt;Node5</title>
<g id="a_edge21_Node000012_Node000005"><a xlink:title=" ">
<path fill="none" stroke="#63b8ff" d="M195.24,-284.77C249.54,-300.08 365.49,-325.96 459,-300.24 574.17,-268.56 689.81,-178.67 734.12,-141.56"/>
<polygon fill="#63b8ff" stroke="#63b8ff" points="736.64,-144.02 742.01,-134.88 732.12,-138.67 736.64,-144.02"/>
</a>
</g>
</g>
<!-- Node12&#45;&gt;Node10 -->
<g id="edge22_Node000012_Node000010" class="edge">
<title>Node12&#45;&gt;Node10</title>
<g id="a_edge22_Node000012_Node000010"><a xlink:title=" ">
<path fill="none" stroke="#63b8ff" d="M247.2,-267.59C264.1,-266.03 281.75,-264.4 298.24,-262.87"/>
<polygon fill="#63b8ff" stroke="#63b8ff" points="298.69,-266.35 308.33,-261.94 298.05,-259.38 298.69,-266.35"/>
</a>
</g>
</g>
</g>
</svg>
