<?xml version="1.0" encoding="UTF-8" standalone="no"?>
<!DOCTYPE svg PUBLIC "-//W3C//DTD SVG 1.1//EN"
 "http://www.w3.org/Graphics/SVG/1.1/DTD/svg11.dtd">
<!-- Generated by graphviz version 2.43.0 (0)
 -->
<!-- Title: applySettings Pages: 1 -->
<svg width="824pt" height="210pt"
 viewBox="0.00 0.00 824.00 209.50" xmlns="http://www.w3.org/2000/svg" xmlns:xlink="http://www.w3.org/1999/xlink">
<g id="graph0" class="graph" transform="scale(1 1) rotate(0) translate(4 205.5)">
<title>applySettings</title>
<!-- Node1 -->
<g id="Node000001" class="node">
<title>Node1</title>
<g id="a_Node000001"><a xlink:title="Apply one accelerometer full&#45;scale, DLPF, and averaging configuration.">
<polygon fill="#999999" stroke="#666666" points="83,-96.5 0,-96.5 0,-77.5 83,-77.5 83,-96.5"/>
<text text-anchor="middle" x="41.5" y="-84.5" font-family="Helvetica,sans-Serif" font-size="10.00">applySettings</text>
</a>
</g>
</g>
<!-- Node2 -->
<g id="Node000002" class="node">
<title>Node2</title>
<g id="a_Node000002"><a xlink:href="classDevLab__ICM20948.html#a619f82390347cc173d1604d4d711b537" target="_top" xlink:title=" ">
<polygon fill="white" stroke="#666666" points="286,-78 131,-78 131,-48 286,-48 286,-78"/>
<text text-anchor="start" x="139" y="-66" font-family="Helvetica,sans-Serif" font-size="10.00">DevLab_ICM20948::setAccel</text>
<text text-anchor="middle" x="208.5" y="-55" font-family="Helvetica,sans-Serif" font-size="10.00">Averaging</text>
</a>
</g>
</g>
<!-- Node1&#45;&gt;Node2 -->
<g id="edge1_Node000001_Node000002" class="edge">
<title>Node1&#45;&gt;Node2</title>
<g id="a_edge1_Node000001_Node000002"><a xlink:title=" ">
<path fill="none" stroke="#63b8ff" d="M83.29,-81.07C94.77,-79.4 107.72,-77.51 120.8,-75.61"/>
<polygon fill="#63b8ff" stroke="#63b8ff" points="121.43,-79.06 130.82,-74.15 120.42,-72.13 121.43,-79.06"/>
</a>
</g>
</g>
<!-- Node7 -->
<g id="Node000007" class="node">
<title>Node7</title>
<g id="a_Node000007"><a xlink:href="classDevLab__ICM20948.html#aca0cb8da36b8e9128299b9aeb5bb60ec" target="_top" xlink:title=" ">
<polygon fill="white" stroke="#666666" points="286,-30 131,-30 131,0 286,0 286,-30"/>
<text text-anchor="start" x="139" y="-18" font-family="Helvetica,sans-Serif" font-size="10.00">DevLab_ICM20948::setAccel</text>
<text text-anchor="middle" x="208.5" y="-7" font-family="Helvetica,sans-Serif" font-size="10.00">DivRate</text>
</a>
</g>
</g>
<!-- Node1&#45;&gt;Node7 -->
<g id="edge7_Node000001_Node000007" class="edge">
<title>Node1&#45;&gt;Node7</title>
<g id="a_edge7_Node000001_Node000007"><a xlink:title=" ">
<path fill="none" stroke="#63b8ff" d="M55.11,-77.44C69.77,-66.73 95.01,-49.5 119,-39 123.62,-36.98 128.45,-35.09 133.38,-33.33"/>
<polygon fill="#63b8ff" stroke="#63b8ff" points="134.56,-36.62 142.92,-30.11 132.32,-29.99 134.56,-36.62"/>
</a>
</g>
</g>
<!-- Node8 -->
<g id="Node000008" class="node">
<title>Node8</title>
<g id="a_Node000008"><a xlink:href="classDevLab__ICM20948.html#ac52d80aad738b90aa0f05e9d6404bb85" target="_top" xlink:title=" ">
<polygon fill="white" stroke="#666666" points="298,-163.5 119,-163.5 119,-144.5 298,-144.5 298,-163.5"/>
<text text-anchor="middle" x="208.5" y="-151.5" font-family="Helvetica,sans-Serif" font-size="10.00">DevLab_ICM20948::setAccelDLPF</text>
</a>
</g>
</g>
<!-- Node1&#45;&gt;Node8 -->
<g id="edge10_Node000001_Node000008" class="edge">
<title>Node1&#45;&gt;Node8</title>
<g id="a_edge10_Node000001_Node000008"><a xlink:title=" ">
<path fill="none" stroke="#63b8ff" d="M54.75,-96.6C69.28,-107.51 94.6,-125.08 119,-135 125.36,-137.58 132.12,-139.84 138.97,-141.8"/>
<polygon fill="#63b8ff" stroke="#63b8ff" points="138.46,-145.29 149.02,-144.47 140.26,-138.52 138.46,-145.29"/>
</a>
</g>
</g>
<!-- Node10 -->
<g id="Node000010" class="node">
<title>Node10</title>
<g id="a_Node000010"><a xlink:href="classDevLab__ICM20948.html#a1a2aa0019d5e1c6ba8ce4a3c1d9fcb43" target="_top" xlink:title=" ">
<polygon fill="white" stroke="#666666" points="286,-126 131,-126 131,-96 286,-96 286,-126"/>
<text text-anchor="start" x="139" y="-114" font-family="Helvetica,sans-Serif" font-size="10.00">DevLab_ICM20948::setAccel</text>
<text text-anchor="middle" x="208.5" y="-103" font-family="Helvetica,sans-Serif" font-size="10.00">Scale</text>
</a>
</g>
</g>
<!-- Node1&#45;&gt;Node10 -->
<g id="edge15_Node000001_Node000010" class="edge">
<title>Node1&#45;&gt;Node10</title>
<g id="a_edge15_Node000001_Node000010"><a xlink:title=" ">
<path fill="none" stroke="#63b8ff" d="M83.29,-92.93C94.77,-94.6 107.72,-96.49 120.8,-98.39"/>
<polygon fill="#63b8ff" stroke="#63b8ff" points="120.42,-101.87 130.82,-99.85 121.43,-94.94 120.42,-101.87"/>
</a>
</g>
</g>
<!-- Node3 -->
<g id="Node000003" class="node">
<title>Node3</title>
<g id="a_Node000003"><a xlink:href="classDevLab__ICM20948.html#aaa26fcbfea0e67d45cb1c3ae39654c55" target="_top" xlink:title=" ">
<polygon fill="white" stroke="#666666" points="501,-87.5 334,-87.5 334,-68.5 501,-68.5 501,-87.5"/>
<text text-anchor="middle" x="417.5" y="-75.5" font-family="Helvetica,sans-Serif" font-size="10.00">DevLab_ICM20948::selectBank</text>
</a>
</g>
</g>
<!-- Node2&#45;&gt;Node3 -->
<g id="edge2_Node000002_Node000003" class="edge">
<title>Node2&#45;&gt;Node3</title>
<g id="a_edge2_Node000002_Node000003"><a xlink:title=" ">
<path fill="none" stroke="#63b8ff" d="M286.28,-68.56C298.54,-69.45 311.33,-70.38 323.91,-71.29"/>
<polygon fill="#63b8ff" stroke="#63b8ff" points="323.71,-74.79 333.93,-72.02 324.21,-67.8 323.71,-74.79"/>
</a>
</g>
</g>
<!-- Node5 -->
<g id="Node000005" class="node">
<title>Node5</title>
<g id="a_Node000005"><a xlink:href="classBusIO__7Semi.html#a855c7388d4118e632c84c7f8e2e3ddc2" target="_top" xlink:title=" ">
<polygon fill="white" stroke="#666666" points="668,-125.5 537,-125.5 537,-106.5 668,-106.5 668,-125.5"/>
<text text-anchor="middle" x="602.5" y="-113.5" font-family="Helvetica,sans-Serif" font-size="10.00">BusIO_7Semi::writeBits</text>
</a>
</g>
</g>
<!-- Node2&#45;&gt;Node5 -->
<g id="edge4_Node000002_Node000005" class="edge">
<title>Node2&#45;&gt;Node5</title>
<g id="a_edge4_Node000002_Node000005"><a xlink:title=" ">
<path fill="none" stroke="#63b8ff" d="M286.05,-50.87C345.66,-44.06 429.92,-40.25 501,-59 531.27,-66.99 561.99,-86.43 581.36,-100.38"/>
<polygon fill="#63b8ff" stroke="#63b8ff" points="579.3,-103.21 589.42,-106.35 583.46,-97.58 579.3,-103.21"/>
</a>
</g>
</g>
<!-- Node4 -->
<g id="Node000004" class="node">
<title>Node4</title>
<g id="a_Node000004"><a xlink:href="classBusIO__7Semi.html#aa633479356af692cb9ea334771b7c0c5" target="_top" xlink:title=" ">
<polygon fill="white" stroke="#666666" points="816,-87.5 704,-87.5 704,-68.5 816,-68.5 816,-87.5"/>
<text text-anchor="middle" x="760" y="-75.5" font-family="Helvetica,sans-Serif" font-size="10.00">BusIO_7Semi::write</text>
</a>
</g>
</g>
<!-- Node3&#45;&gt;Node4 -->
<g id="edge3_Node000003_Node000004" class="edge">
<title>Node3&#45;&gt;Node4</title>
<g id="a_edge3_Node000003_Node000004"><a xlink:title=" ">
<path fill="none" stroke="#63b8ff" d="M501.36,-78C560.45,-78 638.8,-78 693.52,-78"/>
<polygon fill="#63b8ff" stroke="#63b8ff" points="693.8,-81.5 703.8,-78 693.8,-74.5 693.8,-81.5"/>
</a>
</g>
</g>
<!-- Node5&#45;&gt;Node4 -->
<g id="edge6_Node000005_Node000004" class="edge">
<title>Node5&#45;&gt;Node4</title>
<g id="a_edge6_Node000005_Node000004"><a xlink:title=" ">
<path fill="none" stroke="#63b8ff" d="M642.74,-106.41C663.26,-101.4 688.57,-95.21 710.33,-89.89"/>
<polygon fill="#63b8ff" stroke="#63b8ff" points="711.16,-93.29 720.04,-87.52 709.5,-86.49 711.16,-93.29"/>
</a>
</g>
</g>
<!-- Node6 -->
<g id="Node000006" class="node">
<title>Node6</title>
<g id="a_Node000006"><a xlink:href="classBusIO__7Semi.html#a933c66d9a1afe84102323e209a93dd31" target="_top" xlink:title=" ">
<polygon fill="white" stroke="#666666" points="814.5,-125.5 705.5,-125.5 705.5,-106.5 814.5,-106.5 814.5,-125.5"/>
<text text-anchor="middle" x="760" y="-113.5" font-family="Helvetica,sans-Serif" font-size="10.00">BusIO_7Semi::read</text>
</a>
</g>
</g>
<!-- Node5&#45;&gt;Node6 -->
<g id="edge5_Node000005_Node000006" class="edge">
<title>Node5&#45;&gt;Node6</title>
<g id="a_edge5_Node000005_Node000006"><a xlink:title=" ">
<path fill="none" stroke="#63b8ff" d="M668.1,-116C676.97,-116 686.08,-116 694.95,-116"/>
<polygon fill="#63b8ff" stroke="#63b8ff" points="695.22,-119.5 705.22,-116 695.22,-112.5 695.22,-119.5"/>
</a>
</g>
</g>
<!-- Node7&#45;&gt;Node3 -->
<g id="edge8_Node000007_Node000003" class="edge">
<title>Node7&#45;&gt;Node3</title>
<g id="a_edge8_Node000007_Node000003"><a xlink:title=" ">
<path fill="none" stroke="#63b8ff" d="M266.75,-30.05C277.18,-32.92 287.94,-35.98 298,-39 325.41,-47.22 356.09,-57.34 379.37,-65.22"/>
<polygon fill="#63b8ff" stroke="#63b8ff" points="378.26,-68.54 388.86,-68.44 380.51,-61.91 378.26,-68.54"/>
</a>
</g>
</g>
<!-- Node7&#45;&gt;Node4 -->
<g id="edge9_Node000007_Node000004" class="edge">
<title>Node7&#45;&gt;Node4</title>
<g id="a_edge9_Node000007_Node000004"><a xlink:title=" ">
<path fill="none" stroke="#63b8ff" d="M286.01,-21.11C344.87,-26.05 428.17,-33.55 501,-42 566.7,-49.62 641.54,-60.29 693.63,-68.03"/>
<polygon fill="#63b8ff" stroke="#63b8ff" points="693.33,-71.52 703.73,-69.53 694.36,-64.6 693.33,-71.52"/>
</a>
</g>
</g>
<!-- Node8&#45;&gt;Node3 -->
<g id="edge11_Node000008_Node000003" class="edge">
<title>Node8&#45;&gt;Node3</title>
<g id="a_edge11_Node000008_Node000003"><a xlink:title=" ">
<path fill="none" stroke="#63b8ff" d="M263.88,-144.45C275.29,-141.86 287.15,-138.72 298,-135 331.22,-123.62 367.3,-105.34 390.81,-92.56"/>
<polygon fill="#63b8ff" stroke="#63b8ff" points="392.7,-95.51 399.77,-87.62 389.32,-89.38 392.7,-95.51"/>
</a>
</g>
</g>
<!-- Node8&#45;&gt;Node5 -->
<g id="edge14_Node000008_Node000005" class="edge">
<title>Node8&#45;&gt;Node5</title>
<g id="a_edge14_Node000008_Node000005"><a xlink:title=" ">
<path fill="none" stroke="#63b8ff" d="M298.2,-146.17C355.98,-140.98 432.99,-133.87 501,-127 509.35,-126.16 518.08,-125.24 526.76,-124.32"/>
<polygon fill="#63b8ff" stroke="#63b8ff" points="527.34,-127.78 536.91,-123.23 526.59,-120.82 527.34,-127.78"/>
</a>
</g>
</g>
<!-- Node9 -->
<g id="Node000009" class="node">
<title>Node9</title>
<g id="a_Node000009"><a xlink:href="classBusIO__7Semi.html#ac7b3d1c425f7187abbe1bbec64d9ccea" target="_top" xlink:title=" ">
<polygon fill="white" stroke="#666666" points="480,-201.5 355,-201.5 355,-182.5 480,-182.5 480,-201.5"/>
<text text-anchor="middle" x="417.5" y="-189.5" font-family="Helvetica,sans-Serif" font-size="10.00">BusIO_7Semi::writeBit</text>
</a>
</g>
</g>
<!-- Node8&#45;&gt;Node9 -->
<g id="edge12_Node000008_Node000009" class="edge">
<title>Node8&#45;&gt;Node9</title>
<g id="a_edge12_Node000008_Node000009"><a xlink:title=" ">
<path fill="none" stroke="#63b8ff" d="M261.47,-163.54C289.77,-168.73 324.96,-175.2 354.67,-180.65"/>
<polygon fill="#63b8ff" stroke="#63b8ff" points="354.04,-184.09 364.51,-182.46 355.31,-177.21 354.04,-184.09"/>
</a>
</g>
</g>
<!-- Node9&#45;&gt;Node5 -->
<g id="edge13_Node000009_Node000005" class="edge">
<title>Node9&#45;&gt;Node5</title>
<g id="a_edge13_Node000009_Node000005"><a xlink:title=" ">
<path fill="none" stroke="#63b8ff" d="M457.22,-182.41C471.22,-178.51 487.01,-173.59 501,-168 527.61,-157.36 556.53,-141.96 576.49,-130.68"/>
<polygon fill="#63b8ff" stroke="#63b8ff" points="578.31,-133.67 585.25,-125.67 574.83,-127.59 578.31,-133.67"/>
</a>
</g>
</g>
<!-- Node10&#45;&gt;Node3 -->
<g id="edge16_Node000010_Node000003" class="edge">
<title>Node10&#45;&gt;Node3</title>
<g id="a_edge16_Node000010_Node000003"><a xlink:title=" ">
<path fill="none" stroke="#63b8ff" d="M286.28,-98.76C306.08,-95.6 327.27,-92.23 346.68,-89.13"/>
<polygon fill="#63b8ff" stroke="#63b8ff" points="347.33,-92.57 356.66,-87.54 346.23,-85.66 347.33,-92.57"/>
</a>
</g>
</g>
<!-- Node10&#45;&gt;Node5 -->
<g id="edge17_Node000010_Node000005" class="edge">
<title>Node10&#45;&gt;Node5</title>
<g id="a_edge17_Node000010_Node000005"><a xlink:title=" ">
<path fill="none" stroke="#63b8ff" d="M286.01,-111.98C355.53,-112.86 457.46,-114.16 526.5,-115.04"/>
<polygon fill="#63b8ff" stroke="#63b8ff" points="526.82,-118.55 536.87,-115.18 526.91,-111.55 526.82,-118.55"/>
</a>
</g>
</g>
</g>
</svg>
