<?xml version="1.0" encoding="UTF-8" standalone="no"?>
<!DOCTYPE svg PUBLIC "-//W3C//DTD SVG 1.1//EN"
 "http://www.w3.org/Graphics/SVG/1.1/DTD/svg11.dtd">
<!-- Generated by graphviz version 2.43.0 (0)
 -->
<!-- Title: runSweep Pages: 1 -->
<svg width="975pt" height="306pt"
 viewBox="0.00 0.00 975.00 305.98" xmlns="http://www.w3.org/2000/svg" xmlns:xlink="http://www.w3.org/1999/xlink">
<g id="graph0" class="graph" transform="scale(1 1) rotate(0) translate(4 301.98)">
<title>runSweep</title>
<!-- Node1 -->
<g id="Node000001" class="node">
<title>Node1</title>
<g id="a_Node000001"><a xlink:title="Run the accelerometer DLPF validation sweep and print samples.">
<polygon fill="#999999" stroke="#666666" points="65,-75 0,-75 0,-56 65,-56 65,-75"/>
<text text-anchor="middle" x="32.5" y="-63" font-family="Helvetica,sans-Serif" font-size="10.00">runSweep</text>
</a>
</g>
</g>
<!-- Node2 -->
<g id="Node000002" class="node">
<title>Node2</title>
<g id="a_Node000002"><a xlink:href="mag__test_8ino.html#af42a493b8d96759f43d866fbe725cf3d" target="_top" xlink:title="Initialize the magnetometer and collect samples for each mode.">
<polygon fill="white" stroke="#666666" points="189.5,-150 106.5,-150 106.5,-131 189.5,-131 189.5,-150"/>
<text text-anchor="middle" x="148" y="-138" font-family="Helvetica,sans-Serif" font-size="10.00">applySettings</text>
</a>
</g>
</g>
<!-- Node1&#45;&gt;Node2 -->
<g id="edge1_Node000001_Node000002" class="edge">
<title>Node1&#45;&gt;Node2</title>
<g id="a_edge1_Node000001_Node000002"><a xlink:title=" ">
<path fill="none" stroke="#63b8ff" d="M48.34,-75.3C67.56,-88.01 101.28,-110.29 123.88,-125.22"/>
<polygon fill="#63b8ff" stroke="#63b8ff" points="122.24,-128.34 132.52,-130.93 126.1,-122.5 122.24,-128.34"/>
</a>
</g>
</g>
<!-- Node11 -->
<g id="Node000011" class="node">
<title>Node11</title>
<g id="a_Node000011"><a xlink:href="test_8ino.html#a42633dcf8fe2689c57c8113825f74c66" target="_top" xlink:title="Print a double separator line to Serial.">
<polygon fill="white" stroke="#666666" points="195,-56 101,-56 101,-37 195,-37 195,-56"/>
<text text-anchor="middle" x="148" y="-44" font-family="Helvetica,sans-Serif" font-size="10.00">printDobleLinea</text>
</a>
</g>
</g>
<!-- Node1&#45;&gt;Node11 -->
<g id="edge16_Node000001_Node000011" class="edge">
<title>Node1&#45;&gt;Node11</title>
<g id="a_edge16_Node000001_Node000011"><a xlink:title=" ">
<path fill="none" stroke="#63b8ff" d="M65.12,-60.21C73.12,-58.87 81.97,-57.39 90.79,-55.91"/>
<polygon fill="#63b8ff" stroke="#63b8ff" points="91.42,-59.35 100.7,-54.25 90.26,-52.45 91.42,-59.35"/>
</a>
</g>
</g>
<!-- Node12 -->
<g id="Node000012" class="node">
<title>Node12</title>
<g id="a_Node000012"><a xlink:href="test_8ino.html#a8765c1cf679c82cf73a0a13af44b983b" target="_top" xlink:title="Print a separator line to Serial.">
<polygon fill="white" stroke="#666666" points="180.5,-19 115.5,-19 115.5,0 180.5,0 180.5,-19"/>
<text text-anchor="middle" x="148" y="-7" font-family="Helvetica,sans-Serif" font-size="10.00">printLinea</text>
</a>
</g>
</g>
<!-- Node1&#45;&gt;Node12 -->
<g id="edge17_Node000001_Node000012" class="edge">
<title>Node1&#45;&gt;Node12</title>
<g id="a_edge17_Node000001_Node000012"><a xlink:title=" ">
<path fill="none" stroke="#63b8ff" d="M48.99,-55.96C62.46,-47.86 82.65,-36.2 101,-27.5 104.2,-25.98 107.56,-24.49 110.95,-23.05"/>
<polygon fill="#63b8ff" stroke="#63b8ff" points="112.53,-26.18 120.46,-19.16 109.88,-19.7 112.53,-26.18"/>
</a>
</g>
</g>
<!-- Node13 -->
<g id="Node000013" class="node">
<title>Node13</title>
<g id="a_Node000013"><a xlink:href="classDevLab__ICM20948.html#a3b58edd0915cff118ca81daa6944a27b" target="_top" xlink:title=" ">
<polygon fill="white" stroke="#666666" points="406.5,-85 245.5,-85 245.5,-66 406.5,-66 406.5,-85"/>
<text text-anchor="middle" x="326" y="-73" font-family="Helvetica,sans-Serif" font-size="10.00">DevLab_ICM20948::readAccel</text>
</a>
</g>
</g>
<!-- Node1&#45;&gt;Node13 -->
<g id="edge18_Node000001_Node000013" class="edge">
<title>Node1&#45;&gt;Node13</title>
<g id="a_edge18_Node000001_Node000013"><a xlink:title=" ">
<path fill="none" stroke="#63b8ff" d="M65.25,-66.59C105.69,-67.98 177.25,-70.43 235.04,-72.41"/>
<polygon fill="#63b8ff" stroke="#63b8ff" points="235.17,-75.92 245.29,-72.77 235.41,-68.92 235.17,-75.92"/>
</a>
</g>
</g>
<!-- Node3 -->
<g id="Node000003" class="node">
<title>Node3</title>
<g id="a_Node000003"><a xlink:href="classDevLab__ICM20948.html#a7b137192f8eb987cd221808c2c6c3561" target="_top" xlink:title=" ">
<polygon fill="white" stroke="#666666" points="401,-235 251,-235 251,-216 401,-216 401,-235"/>
<text text-anchor="middle" x="326" y="-223" font-family="Helvetica,sans-Serif" font-size="10.00">DevLab_ICM20948::initMag</text>
</a>
</g>
</g>
<!-- Node2&#45;&gt;Node3 -->
<g id="edge2_Node000002_Node000003" class="edge">
<title>Node2&#45;&gt;Node3</title>
<g id="a_edge2_Node000002_Node000003"><a xlink:title=" ">
<path fill="none" stroke="#63b8ff" d="M168.85,-150.09C199.83,-165.05 259.84,-194.03 295.77,-211.38"/>
<polygon fill="#63b8ff" stroke="#63b8ff" points="294.7,-214.75 305.23,-215.95 297.74,-208.45 294.7,-214.75"/>
</a>
</g>
</g>
<!-- Node8 -->
<g id="Node000008" class="node">
<title>Node8</title>
<g id="a_Node000008"><a xlink:href="classDevLab__ICM20948.html#a9f9b29867c2b78efef3ef9688f886314" target="_top" xlink:title=" ">
<polygon fill="white" stroke="#666666" points="404,-159 248,-159 248,-140 404,-140 404,-159"/>
<text text-anchor="middle" x="326" y="-147" font-family="Helvetica,sans-Serif" font-size="10.00">DevLab_ICM20948::readMag</text>
</a>
</g>
</g>
<!-- Node2&#45;&gt;Node8 -->
<g id="edge12_Node000002_Node000008" class="edge">
<title>Node2&#45;&gt;Node8</title>
<g id="a_edge12_Node000002_Node000008"><a xlink:title=" ">
<path fill="none" stroke="#63b8ff" d="M189.82,-142.59C204.12,-143.32 220.77,-144.17 237.41,-145.02"/>
<polygon fill="#63b8ff" stroke="#63b8ff" points="237.57,-148.53 247.74,-145.55 237.93,-141.54 237.57,-148.53"/>
</a>
</g>
</g>
<!-- Node10 -->
<g id="Node000010" class="node">
<title>Node10</title>
<g id="a_Node000010"><a xlink:href="classDevLab__ICM20948.html#a0882a30454b0716953f5f375613d24b3" target="_top" xlink:title=" ">
<polygon fill="white" stroke="#666666" points="421,-122 231,-122 231,-103 421,-103 421,-122"/>
<text text-anchor="middle" x="326" y="-110" font-family="Helvetica,sans-Serif" font-size="10.00">DevLab_ICM20948::setMagOpMode</text>
</a>
</g>
</g>
<!-- Node2&#45;&gt;Node10 -->
<g id="edge15_Node000002_Node000010" class="edge">
<title>Node2&#45;&gt;Node10</title>
<g id="a_edge15_Node000002_Node000010"><a xlink:title=" ">
<path fill="none" stroke="#63b8ff" d="M189.82,-134.01C209.19,-130.92 232.9,-127.15 255.02,-123.63"/>
<polygon fill="#63b8ff" stroke="#63b8ff" points="255.72,-127.07 265.05,-122.04 254.62,-120.15 255.72,-127.07"/>
</a>
</g>
</g>
<!-- Node4 -->
<g id="Node000004" class="node">
<title>Node4</title>
<g id="a_Node000004"><a xlink:href="classDevLab__ICM20948.html#aaa26fcbfea0e67d45cb1c3ae39654c55" target="_top" xlink:title=" ">
<polygon fill="white" stroke="#666666" points="819,-196 652,-196 652,-177 819,-177 819,-196"/>
<text text-anchor="middle" x="735.5" y="-184" font-family="Helvetica,sans-Serif" font-size="10.00">DevLab_ICM20948::selectBank</text>
</a>
</g>
</g>
<!-- Node3&#45;&gt;Node4 -->
<g id="edge3_Node000003_Node000004" class="edge">
<title>Node3&#45;&gt;Node4</title>
<g id="a_edge3_Node000003_Node000004"><a xlink:title=" ">
<path fill="none" stroke="#63b8ff" d="M390.05,-215.97C411.28,-212.97 435.14,-209.84 457,-207.5 518.38,-200.93 587.61,-195.69 641.57,-192.09"/>
<polygon fill="#63b8ff" stroke="#63b8ff" points="642.06,-195.56 651.81,-191.41 641.6,-188.58 642.06,-195.56"/>
</a>
</g>
</g>
<!-- Node5 -->
<g id="Node000005" class="node">
<title>Node5</title>
<g id="a_Node000005"><a xlink:href="classBusIO__7Semi.html#aa633479356af692cb9ea334771b7c0c5" target="_top" xlink:title=" ">
<polygon fill="white" stroke="#666666" points="967,-253 855,-253 855,-234 967,-234 967,-253"/>
<text text-anchor="middle" x="911" y="-241" font-family="Helvetica,sans-Serif" font-size="10.00">BusIO_7Semi::write</text>
</a>
</g>
</g>
<!-- Node3&#45;&gt;Node5 -->
<g id="edge11_Node000003_Node000005" class="edge">
<title>Node3&#45;&gt;Node5</title>
<g id="a_edge11_Node000003_Node000005"><a xlink:title=" ">
<path fill="none" stroke="#63b8ff" d="M343.12,-235.01C367.01,-248.51 413.68,-272.57 457,-281.5 614.71,-314.02 660.05,-292.26 819,-266.5 835.23,-263.87 852.8,-259.74 868.14,-255.7"/>
<polygon fill="#63b8ff" stroke="#63b8ff" points="869.11,-259.06 877.86,-253.08 867.29,-252.31 869.11,-259.06"/>
</a>
</g>
</g>
<!-- Node6 -->
<g id="Node000006" class="node">
<title>Node6</title>
<g id="a_Node000006"><a xlink:href="classDevLab__ICM20948.html#a4210e842050486637a5967b2a9ef7b57" target="_top" xlink:title=" ">
<polygon fill="white" stroke="#666666" points="606.5,-272 466.5,-272 466.5,-253 606.5,-253 606.5,-272"/>
<text text-anchor="middle" x="536.5" y="-260" font-family="Helvetica,sans-Serif" font-size="10.00">DevLab_ICM20948::sleep</text>
</a>
</g>
</g>
<!-- Node3&#45;&gt;Node6 -->
<g id="edge5_Node000003_Node000006" class="edge">
<title>Node3&#45;&gt;Node6</title>
<g id="a_edge5_Node000003_Node000006"><a xlink:title=" ">
<path fill="none" stroke="#63b8ff" d="M380.69,-235.03C408.43,-239.95 442.47,-245.99 471.56,-251.15"/>
<polygon fill="#63b8ff" stroke="#63b8ff" points="471.17,-254.64 481.63,-252.94 472.39,-247.75 471.17,-254.64"/>
</a>
</g>
</g>
<!-- Node7 -->
<g id="Node000007" class="node">
<title>Node7</title>
<g id="a_Node000007"><a xlink:href="classDevLab__ICM20948.html#a0d6774b76298645ee45ec0e9065a8891" target="_top" xlink:title=" ">
<polygon fill="white" stroke="#666666" points="616,-235 457,-235 457,-216 616,-216 616,-235"/>
<text text-anchor="middle" x="536.5" y="-223" font-family="Helvetica,sans-Serif" font-size="10.00">DevLab_ICM20948::softReset</text>
</a>
</g>
</g>
<!-- Node3&#45;&gt;Node7 -->
<g id="edge8_Node000003_Node000007" class="edge">
<title>Node3&#45;&gt;Node7</title>
<g id="a_edge8_Node000003_Node000007"><a xlink:title=" ">
<path fill="none" stroke="#63b8ff" d="M401.1,-225.5C415.74,-225.5 431.26,-225.5 446.34,-225.5"/>
<polygon fill="#63b8ff" stroke="#63b8ff" points="446.7,-229 456.7,-225.5 446.7,-222 446.7,-229"/>
</a>
</g>
</g>
<!-- Node4&#45;&gt;Node5 -->
<g id="edge4_Node000004_Node000005" class="edge">
<title>Node4&#45;&gt;Node5</title>
<g id="a_edge4_Node000004_Node000005"><a xlink:title=" ">
<path fill="none" stroke="#63b8ff" d="M771.17,-196.05C785.98,-200.26 803.4,-205.41 819,-210.5 837.83,-216.65 858.61,-224.13 875.56,-230.41"/>
<polygon fill="#63b8ff" stroke="#63b8ff" points="874.45,-233.74 885.04,-233.96 876.9,-227.18 874.45,-233.74"/>
</a>
</g>
</g>
<!-- Node6&#45;&gt;Node4 -->
<g id="edge6_Node000006_Node000004" class="edge">
<title>Node6&#45;&gt;Node4</title>
<g id="a_edge6_Node000006_Node000004"><a xlink:title=" ">
<path fill="none" stroke="#63b8ff" d="M586.99,-252.97C596.72,-250.59 606.77,-247.77 616,-244.5 649.4,-232.67 685.7,-213.96 709.2,-201.01"/>
<polygon fill="#63b8ff" stroke="#63b8ff" points="711.12,-203.94 718.15,-196.01 707.71,-197.83 711.12,-203.94"/>
</a>
</g>
</g>
<!-- Node6&#45;&gt;Node5 -->
<g id="edge7_Node000006_Node000005" class="edge">
<title>Node6&#45;&gt;Node5</title>
<g id="a_edge7_Node000006_Node000005"><a xlink:title=" ">
<path fill="none" stroke="#63b8ff" d="M606.63,-259.16C663.61,-256.39 746.56,-252.29 819,-248.5 827.29,-248.07 836.01,-247.6 844.62,-247.13"/>
<polygon fill="#63b8ff" stroke="#63b8ff" points="844.87,-250.63 854.66,-246.59 844.49,-243.64 844.87,-250.63"/>
</a>
</g>
</g>
<!-- Node7&#45;&gt;Node4 -->
<g id="edge9_Node000007_Node000004" class="edge">
<title>Node7&#45;&gt;Node4</title>
<g id="a_edge9_Node000007_Node000004"><a xlink:title=" ">
<path fill="none" stroke="#63b8ff" d="M585.69,-215.96C613.1,-210.53 647.62,-203.7 676.5,-197.98"/>
<polygon fill="#63b8ff" stroke="#63b8ff" points="677.33,-201.38 686.46,-196.01 675.98,-194.52 677.33,-201.38"/>
</a>
</g>
</g>
<!-- Node7&#45;&gt;Node5 -->
<g id="edge10_Node000007_Node000005" class="edge">
<title>Node7&#45;&gt;Node5</title>
<g id="a_edge10_Node000007_Node000005"><a xlink:title=" ">
<path fill="none" stroke="#63b8ff" d="M616.04,-229.3C683.88,-232.57 780.76,-237.25 844.49,-240.33"/>
<polygon fill="#63b8ff" stroke="#63b8ff" points="844.66,-243.85 854.82,-240.83 845,-236.85 844.66,-243.85"/>
</a>
</g>
</g>
<!-- Node8&#45;&gt;Node4 -->
<g id="edge14_Node000008_Node000004" class="edge">
<title>Node8&#45;&gt;Node4</title>
<g id="a_edge14_Node000008_Node000004"><a xlink:title=" ">
<path fill="none" stroke="#63b8ff" d="M404.02,-155.34C462.27,-159.89 544.21,-166.58 616,-173.5 624.37,-174.31 633.06,-175.18 641.77,-176.09"/>
<polygon fill="#63b8ff" stroke="#63b8ff" points="641.66,-179.6 651.97,-177.16 642.4,-172.64 641.66,-179.6"/>
</a>
</g>
</g>
<!-- Node9 -->
<g id="Node000009" class="node">
<title>Node9</title>
<g id="a_Node000009"><a xlink:href="classBusIO__7Semi.html#a933c66d9a1afe84102323e209a93dd31" target="_top" xlink:title=" ">
<polygon fill="white" stroke="#666666" points="591,-121 482,-121 482,-102 591,-102 591,-121"/>
<text text-anchor="middle" x="536.5" y="-109" font-family="Helvetica,sans-Serif" font-size="10.00">BusIO_7Semi::read</text>
</a>
</g>
</g>
<!-- Node8&#45;&gt;Node9 -->
<g id="edge13_Node000008_Node000009" class="edge">
<title>Node8&#45;&gt;Node9</title>
<g id="a_edge13_Node000008_Node000009"><a xlink:title=" ">
<path fill="none" stroke="#63b8ff" d="M379.34,-139.96C407.85,-134.77 443.3,-128.3 473.22,-122.85"/>
<polygon fill="#63b8ff" stroke="#63b8ff" points="473.92,-126.28 483.13,-121.04 472.67,-119.39 473.92,-126.28"/>
</a>
</g>
</g>
<!-- Node13&#45;&gt;Node4 -->
<g id="edge20_Node000013_Node000004" class="edge">
<title>Node13&#45;&gt;Node4</title>
<g id="a_edge20_Node000013_Node000004"><a xlink:title=" ">
<path fill="none" stroke="#63b8ff" d="M406.66,-67.55C466.26,-64.56 548.74,-66.82 616,-92.5 659.04,-108.93 698.75,-146.99 719.47,-169.32"/>
<polygon fill="#63b8ff" stroke="#63b8ff" points="716.91,-171.7 726.22,-176.76 722.1,-167 716.91,-171.7"/>
</a>
</g>
</g>
<!-- Node13&#45;&gt;Node9 -->
<g id="edge19_Node000013_Node000009" class="edge">
<title>Node13&#45;&gt;Node9</title>
<g id="a_edge19_Node000013_Node000009"><a xlink:title=" ">
<path fill="none" stroke="#63b8ff" d="M382.05,-85.01C409.68,-89.78 443.29,-95.58 472.01,-100.54"/>
<polygon fill="#63b8ff" stroke="#63b8ff" points="471.49,-104 481.94,-102.25 472.68,-97.1 471.49,-104"/>
</a>
</g>
</g>
</g>
</svg>
