<?xml version="1.0" encoding="UTF-8" standalone="no"?>
<!DOCTYPE svg PUBLIC "-//W3C//DTD SVG 1.1//EN"
 "http://www.w3.org/Graphics/SVG/1.1/DTD/svg11.dtd">
<!-- Generated by graphviz version 2.43.0 (0)
 -->
<!-- Title: applySettings Pages: 1 -->
<svg width="824pt" height="162pt"
 viewBox="0.00 0.00 824.00 161.50" xmlns="http://www.w3.org/2000/svg" xmlns:xlink="http://www.w3.org/1999/xlink">
<g id="graph0" class="graph" transform="scale(1 1) rotate(0) translate(4 157.5)">
<title>applySettings</title>
<!-- Node1 -->
<g id="Node000001" class="node">
<title>Node1</title>
<g id="a_Node000001"><a xlink:title="Apply one accelerometer full&#45;scale and DLPF configuration.">
<polygon fill="#999999" stroke="#666666" points="83,-100 0,-100 0,-81 83,-81 83,-100"/>
<text text-anchor="middle" x="41.5" y="-88" font-family="Helvetica,sans-Serif" font-size="10.00">applySettings</text>
</a>
</g>
</g>
<!-- Node2 -->
<g id="Node000002" class="node">
<title>Node2</title>
<g id="a_Node000002"><a xlink:href="classDevLab__ICM20948.html#aca0cb8da36b8e9128299b9aeb5bb60ec" target="_top" xlink:title=" ">
<polygon fill="white" stroke="#666666" points="286,-153.5 131,-153.5 131,-123.5 286,-123.5 286,-153.5"/>
<text text-anchor="start" x="139" y="-141.5" font-family="Helvetica,sans-Serif" font-size="10.00">DevLab_ICM20948::setAccel</text>
<text text-anchor="middle" x="208.5" y="-130.5" font-family="Helvetica,sans-Serif" font-size="10.00">DivRate</text>
</a>
</g>
</g>
<!-- Node1&#45;&gt;Node2 -->
<g id="edge1_Node000001_Node000002" class="edge">
<title>Node1&#45;&gt;Node2</title>
<g id="a_edge1_Node000001_Node000002"><a xlink:title=" ">
<path fill="none" stroke="#63b8ff" d="M71.84,-100C86.05,-104.52 103.37,-109.93 119,-114.5 126.12,-116.58 133.58,-118.7 141.02,-120.77"/>
<polygon fill="#63b8ff" stroke="#63b8ff" points="140.18,-124.17 150.75,-123.47 142.05,-117.43 140.18,-124.17"/>
</a>
</g>
</g>
<!-- Node5 -->
<g id="Node000005" class="node">
<title>Node5</title>
<g id="a_Node000005"><a xlink:href="classDevLab__ICM20948.html#ac52d80aad738b90aa0f05e9d6404bb85" target="_top" xlink:title=" ">
<polygon fill="white" stroke="#666666" points="298,-57 119,-57 119,-38 298,-38 298,-57"/>
<text text-anchor="middle" x="208.5" y="-45" font-family="Helvetica,sans-Serif" font-size="10.00">DevLab_ICM20948::setAccelDLPF</text>
</a>
</g>
</g>
<!-- Node1&#45;&gt;Node5 -->
<g id="edge5_Node000001_Node000005" class="edge">
<title>Node1&#45;&gt;Node5</title>
<g id="a_edge5_Node000001_Node000005"><a xlink:title=" ">
<path fill="none" stroke="#63b8ff" d="M70.66,-80.98C85.03,-76.3 102.85,-70.76 119,-66.5 128.69,-63.95 139.04,-61.49 149.12,-59.23"/>
<polygon fill="#63b8ff" stroke="#63b8ff" points="150.06,-62.61 159.08,-57.05 148.56,-55.77 150.06,-62.61"/>
</a>
</g>
</g>
<!-- Node9 -->
<g id="Node000009" class="node">
<title>Node9</title>
<g id="a_Node000009"><a xlink:href="classDevLab__ICM20948.html#a1a2aa0019d5e1c6ba8ce4a3c1d9fcb43" target="_top" xlink:title=" ">
<polygon fill="white" stroke="#666666" points="286,-105.5 131,-105.5 131,-75.5 286,-75.5 286,-105.5"/>
<text text-anchor="start" x="139" y="-93.5" font-family="Helvetica,sans-Serif" font-size="10.00">DevLab_ICM20948::setAccel</text>
<text text-anchor="middle" x="208.5" y="-82.5" font-family="Helvetica,sans-Serif" font-size="10.00">Scale</text>
</a>
</g>
</g>
<!-- Node1&#45;&gt;Node9 -->
<g id="edge11_Node000001_Node000009" class="edge">
<title>Node1&#45;&gt;Node9</title>
<g id="a_edge11_Node000001_Node000009"><a xlink:title=" ">
<path fill="none" stroke="#63b8ff" d="M83.29,-90.5C94.77,-90.5 107.72,-90.5 120.8,-90.5"/>
<polygon fill="#63b8ff" stroke="#63b8ff" points="120.82,-94 130.82,-90.5 120.82,-87 120.82,-94"/>
</a>
</g>
</g>
<!-- Node3 -->
<g id="Node000003" class="node">
<title>Node3</title>
<g id="a_Node000003"><a xlink:href="classDevLab__ICM20948.html#aaa26fcbfea0e67d45cb1c3ae39654c55" target="_top" xlink:title=" ">
<polygon fill="white" stroke="#666666" points="501,-133 334,-133 334,-114 501,-114 501,-133"/>
<text text-anchor="middle" x="417.5" y="-121" font-family="Helvetica,sans-Serif" font-size="10.00">DevLab_ICM20948::selectBank</text>
</a>
</g>
</g>
<!-- Node2&#45;&gt;Node3 -->
<g id="edge2_Node000002_Node000003" class="edge">
<title>Node2&#45;&gt;Node3</title>
<g id="a_edge2_Node000002_Node000003"><a xlink:title=" ">
<path fill="none" stroke="#63b8ff" d="M286.28,-132.94C298.54,-132.05 311.33,-131.12 323.91,-130.21"/>
<polygon fill="#63b8ff" stroke="#63b8ff" points="324.21,-133.7 333.93,-129.48 323.71,-126.71 324.21,-133.7"/>
</a>
</g>
</g>
<!-- Node4 -->
<g id="Node000004" class="node">
<title>Node4</title>
<g id="a_Node000004"><a xlink:href="classBusIO__7Semi.html#aa633479356af692cb9ea334771b7c0c5" target="_top" xlink:title=" ">
<polygon fill="white" stroke="#666666" points="816,-133 704,-133 704,-114 816,-114 816,-133"/>
<text text-anchor="middle" x="760" y="-121" font-family="Helvetica,sans-Serif" font-size="10.00">BusIO_7Semi::write</text>
</a>
</g>
</g>
<!-- Node2&#45;&gt;Node4 -->
<g id="edge4_Node000002_Node000004" class="edge">
<title>Node2&#45;&gt;Node4</title>
<g id="a_edge4_Node000002_Node000004"><a xlink:title=" ">
<path fill="none" stroke="#63b8ff" d="M286.2,-141.35C302,-141.83 318.54,-142.25 334,-142.5 482.44,-144.88 520.16,-151.03 668,-137.5 676.47,-136.72 685.34,-135.67 694.09,-134.48"/>
<polygon fill="#63b8ff" stroke="#63b8ff" points="694.87,-137.9 704.28,-133.03 693.88,-130.97 694.87,-137.9"/>
</a>
</g>
</g>
<!-- Node3&#45;&gt;Node4 -->
<g id="edge3_Node000003_Node000004" class="edge">
<title>Node3&#45;&gt;Node4</title>
<g id="a_edge3_Node000003_Node000004"><a xlink:title=" ">
<path fill="none" stroke="#63b8ff" d="M501.36,-123.5C560.45,-123.5 638.8,-123.5 693.52,-123.5"/>
<polygon fill="#63b8ff" stroke="#63b8ff" points="693.8,-127 703.8,-123.5 693.8,-120 693.8,-127"/>
</a>
</g>
</g>
<!-- Node5&#45;&gt;Node3 -->
<g id="edge6_Node000005_Node000003" class="edge">
<title>Node5&#45;&gt;Node3</title>
<g id="a_edge6_Node000005_Node000003"><a xlink:title=" ">
<path fill="none" stroke="#63b8ff" d="M263.88,-57.05C275.29,-59.64 287.15,-62.78 298,-66.5 331.22,-77.88 367.3,-96.16 390.81,-108.94"/>
<polygon fill="#63b8ff" stroke="#63b8ff" points="389.32,-112.12 399.77,-113.88 392.7,-105.99 389.32,-112.12"/>
</a>
</g>
</g>
<!-- Node6 -->
<g id="Node000006" class="node">
<title>Node6</title>
<g id="a_Node000006"><a xlink:href="classBusIO__7Semi.html#ac7b3d1c425f7187abbe1bbec64d9ccea" target="_top" xlink:title=" ">
<polygon fill="white" stroke="#666666" points="480,-19 355,-19 355,0 480,0 480,-19"/>
<text text-anchor="middle" x="417.5" y="-7" font-family="Helvetica,sans-Serif" font-size="10.00">BusIO_7Semi::writeBit</text>
</a>
</g>
</g>
<!-- Node5&#45;&gt;Node6 -->
<g id="edge7_Node000005_Node000006" class="edge">
<title>Node5&#45;&gt;Node6</title>
<g id="a_edge7_Node000005_Node000006"><a xlink:title=" ">
<path fill="none" stroke="#63b8ff" d="M261.47,-37.96C289.77,-32.77 324.96,-26.3 354.67,-20.85"/>
<polygon fill="#63b8ff" stroke="#63b8ff" points="355.31,-24.29 364.51,-19.04 354.04,-17.41 355.31,-24.29"/>
</a>
</g>
</g>
<!-- Node7 -->
<g id="Node000007" class="node">
<title>Node7</title>
<g id="a_Node000007"><a xlink:href="classBusIO__7Semi.html#a855c7388d4118e632c84c7f8e2e3ddc2" target="_top" xlink:title=" ">
<polygon fill="#fff0f0" stroke="red" points="668,-76 537,-76 537,-57 668,-57 668,-76"/>
<text text-anchor="middle" x="602.5" y="-64" font-family="Helvetica,sans-Serif" font-size="10.00">BusIO_7Semi::writeBits</text>
</a>
</g>
</g>
<!-- Node5&#45;&gt;Node7 -->
<g id="edge10_Node000005_Node000007" class="edge">
<title>Node5&#45;&gt;Node7</title>
<g id="a_edge10_Node000005_Node000007"><a xlink:title=" ">
<path fill="none" stroke="#63b8ff" d="M298.45,-51.81C367.28,-55.15 461.52,-59.72 526.54,-62.87"/>
<polygon fill="#63b8ff" stroke="#63b8ff" points="526.56,-66.37 536.72,-63.36 526.9,-59.38 526.56,-66.37"/>
</a>
</g>
</g>
<!-- Node6&#45;&gt;Node7 -->
<g id="edge8_Node000006_Node000007" class="edge">
<title>Node6&#45;&gt;Node7</title>
<g id="a_edge8_Node000006_Node000007"><a xlink:title=" ">
<path fill="none" stroke="#63b8ff" d="M452.29,-19.05C467.25,-23.35 485.04,-28.56 501,-33.5 521.82,-39.94 544.93,-47.51 563.74,-53.76"/>
<polygon fill="#63b8ff" stroke="#63b8ff" points="562.83,-57.15 573.42,-57 565.05,-50.51 562.83,-57.15"/>
</a>
</g>
</g>
<!-- Node7&#45;&gt;Node4 -->
<g id="edge9_Node000007_Node000004" class="edge">
<title>Node7&#45;&gt;Node4</title>
<g id="a_edge9_Node000007_Node000004"><a xlink:title=" ">
<path fill="none" stroke="#63b8ff" d="M629.53,-76.04C655.2,-85.45 694.66,-99.91 723.26,-110.4"/>
<polygon fill="#63b8ff" stroke="#63b8ff" points="722.29,-113.77 732.89,-113.93 724.7,-107.2 722.29,-113.77"/>
</a>
</g>
</g>
<!-- Node9&#45;&gt;Node3 -->
<g id="edge12_Node000009_Node000003" class="edge">
<title>Node9&#45;&gt;Node3</title>
<g id="a_edge12_Node000009_Node000003"><a xlink:title=" ">
<path fill="none" stroke="#63b8ff" d="M286.28,-102.74C306.08,-105.9 327.27,-109.27 346.68,-112.37"/>
<polygon fill="#63b8ff" stroke="#63b8ff" points="346.23,-115.84 356.66,-113.96 347.33,-108.93 346.23,-115.84"/>
</a>
</g>
</g>
<!-- Node9&#45;&gt;Node7 -->
<g id="edge13_Node000009_Node000007" class="edge">
<title>Node9&#45;&gt;Node7</title>
<g id="a_edge13_Node000009_Node000007"><a xlink:title=" ">
<path fill="none" stroke="#63b8ff" d="M286.01,-85.82C355.53,-81.56 457.46,-75.32 526.5,-71.09"/>
<polygon fill="#63b8ff" stroke="#63b8ff" points="527.1,-74.56 536.87,-70.46 526.67,-67.57 527.1,-74.56"/>
</a>
</g>
</g>
</g>
</svg>
